<svg width="242" height="242" viewBox="0 0 242 242" fill="none" xmlns="http://www.w3.org/2000/svg">
<path fill-rule="evenodd" clip-rule="evenodd" d="M90.7016 74.1362C86.3082 74.1362 82.0947 75.8815 78.9881 78.9881C75.8815 82.0947 74.1362 86.3082 74.1362 90.7016L74.1377 142.963C74.1377 155.532 89.3352 161.827 98.2225 152.94L103.931 147.231L136.427 179.727C138.231 181.531 140.678 182.544 143.229 182.544C145.78 182.544 148.226 181.531 150.03 179.727L180.259 149.498C182.063 147.694 183.076 145.248 183.076 142.697C183.076 140.146 182.063 137.699 180.259 135.895L147.763 103.399L152.938 98.224C161.825 89.3367 155.532 74.1377 142.963 74.1377L90.7016 74.1362ZM84.8236 90.7031C84.8234 89.9309 84.9753 89.1663 85.2707 88.4529C85.5662 87.7394 85.9992 87.0912 86.5452 86.5452C87.0912 85.9992 87.7394 85.5662 88.4529 85.2707C89.1663 84.9753 89.9309 84.8234 90.7031 84.8236L142.961 84.8251C146.008 84.8251 147.535 88.51 145.379 90.6653L136.426 99.6191C135.424 100.621 134.861 101.98 134.861 103.398C134.861 104.815 135.424 106.174 136.426 107.176L171.945 142.695L143.227 171.412L107.708 135.894C106.706 134.891 105.347 134.328 103.93 134.328C102.512 134.328 101.153 134.891 100.151 135.894L90.6638 145.381C88.51 147.535 84.8236 146.01 84.8251 142.961L84.8236 90.7031Z" fill="black" fill-opacity="0.25" stroke="#FFF4F4" stroke-width="2" stroke-linecap="round" stroke-linejoin="round"/>
</svg>
