<svg width="200" height="41" viewBox="0 0 200 41" fill="none" xmlns="http://www.w3.org/2000/svg">
<path d="M19.354 31.31C16.7293 31.31 14.7247 30.4317 13.34 28.675C11.976 26.9183 11.294 24.5623 11.294 21.607V19.282C11.294 17.3393 11.5833 15.6447 12.162 14.198C12.7613 12.7513 13.6397 11.625 14.797 10.819C15.9543 10.013 17.37 9.61 19.044 9.61C20.594 9.61 21.8753 9.92 22.888 10.54C23.9007 11.1393 24.6343 11.935 25.089 12.927C25.5437 13.8983 25.6883 14.9627 25.523 16.12L22.857 16.771C23.0843 14.787 22.857 13.268 22.175 12.214C21.493 11.1393 20.4493 10.602 19.044 10.602C17.4733 10.602 16.2747 11.16 15.448 12.276C14.642 13.392 14.239 15.2107 14.239 17.732V23.157C14.239 25.699 14.673 27.528 15.541 28.644C16.409 29.76 17.7007 30.318 19.416 30.318C20.098 30.318 20.749 30.2043 21.369 29.977C21.989 29.729 22.516 29.3157 22.95 28.737C23.384 28.1583 23.6527 27.3523 23.756 26.319L25.678 26.815C25.2233 28.4683 24.4173 29.636 23.26 30.318C22.1233 30.9793 20.8213 31.31 19.354 31.31ZM35.8441 32.55C35.3894 33.8107 34.8934 34.8337 34.3561 35.619C33.8187 36.425 33.1781 37.0037 32.4341 37.355C31.6901 37.727 30.7601 37.913 29.6441 37.913V35.433C31.1321 35.433 32.2584 35.1953 33.0231 34.72C33.7877 34.2653 34.3974 33.4077 34.8521 32.147L35.2551 31H34.3561L29.7991 17.98C29.5924 17.3807 29.4374 17.0293 29.3341 16.926C29.2307 16.802 29.0137 16.7193 28.6831 16.678L27.1021 16.492V15.655H34.1701V16.492L32.5891 16.678C32.2997 16.6987 32.1344 16.771 32.0931 16.895C32.0517 17.019 32.1344 17.3807 32.3411 17.98L36.0611 28.706L39.8121 17.949C39.9981 17.3497 40.0704 16.9983 40.0291 16.895C40.0084 16.7917 39.8431 16.7193 39.5331 16.678L37.9211 16.492V15.655H43.5941V16.492L42.0131 16.678C41.7031 16.7193 41.4964 16.7917 41.3931 16.895C41.2897 16.9983 41.1347 17.3497 40.9281 17.949L35.8441 32.55ZM44.0719 8.897V8.06H49.0009V17.887C49.6002 16.9983 50.2822 16.3577 51.0469 15.965C51.8116 15.5517 52.6382 15.345 53.5269 15.345C55.3042 15.345 56.6786 16.0167 57.6499 17.36C58.6419 18.7033 59.1379 20.584 59.1379 23.002V23.622C59.1379 25.978 58.5696 27.8483 57.4329 29.233C56.3169 30.6177 54.7462 31.31 52.7209 31.31C51.1089 31.31 49.7862 30.783 48.7529 29.729C48.4636 29.8943 48.1949 30.101 47.9469 30.349C47.6989 30.597 47.4509 30.8657 47.2029 31.155H46.4589V10.571C46.4589 9.84767 46.4279 9.424 46.3659 9.3C46.3039 9.176 46.1076 9.09333 45.7769 9.052L44.0719 8.897ZM53.1239 16.461C52.4832 16.461 51.8116 16.6677 51.1089 17.081C50.4269 17.4943 49.7242 18.3313 49.0009 19.592V28.458C49.8896 29.6773 51.0676 30.287 52.5349 30.287C53.8782 30.287 54.8496 29.7807 55.4489 28.768C56.0482 27.7347 56.3479 26.3293 56.3479 24.552V22.072C56.3479 20.1293 56.0689 18.7137 55.5109 17.825C54.9529 16.9157 54.1572 16.461 53.1239 16.461ZM75.4824 27.466C75.1104 28.8713 74.4077 29.8633 73.3744 30.442C72.3617 31.0207 71.2354 31.31 69.9954 31.31C67.7014 31.31 65.9861 30.6177 64.8494 29.233C63.7127 27.8277 63.1444 25.9573 63.1444 23.622V23.002C63.1444 20.6873 63.6921 18.8377 64.7874 17.453C65.8827 16.0477 67.4741 15.345 69.5614 15.345C70.6774 15.345 71.6901 15.5723 72.5994 16.027C73.5294 16.4817 74.2631 17.1533 74.8004 18.042C75.3584 18.9307 75.6374 20.0363 75.6374 21.359C75.6374 21.979 75.5754 22.63 75.4514 23.312H65.9344V24.242C65.9344 26.412 66.2651 27.9723 66.9264 28.923C67.6084 29.853 68.7037 30.318 70.2124 30.318C71.1631 30.318 71.9484 30.07 72.5684 29.574C73.2091 29.078 73.6327 28.2203 73.8394 27.001L75.4824 27.466ZM69.5614 16.337C68.3421 16.337 67.4327 16.802 66.8334 17.732C66.2341 18.662 65.9344 20.1913 65.9344 22.32H72.9094V22.227C72.9507 21.9583 72.9817 21.7 73.0024 21.452C73.0231 21.1833 73.0334 20.9457 73.0334 20.739C73.0334 19.189 72.7131 18.073 72.0724 17.391C71.4317 16.6883 70.5947 16.337 69.5614 16.337ZM78.5635 16.492V15.655H83.3375V18.135C84.0608 17.1637 84.7842 16.461 85.5075 16.027C86.2515 15.5723 87.0058 15.345 87.7705 15.345C88.4318 15.345 89.0518 15.5413 89.6305 15.934C90.2092 16.3267 90.6948 16.957 91.0875 17.825L89.0725 19.034C88.7625 18.29 88.4112 17.7733 88.0185 17.484C87.6258 17.1947 87.1918 17.05 86.7165 17.05C86.1998 17.05 85.6832 17.2153 85.1665 17.546C84.6705 17.8767 84.1125 18.4967 83.4925 19.406V28.489C83.4925 29.2123 83.5235 29.6463 83.5855 29.791C83.6475 29.915 83.8438 29.9873 84.1745 30.008L86.4995 30.194V31H78.5635V30.194L80.2685 30.008C80.5992 29.9667 80.7955 29.884 80.8575 29.76C80.9195 29.636 80.9505 29.2123 80.9505 28.489V18.166C80.9505 17.4427 80.9195 17.019 80.8575 16.895C80.7955 16.771 80.5992 16.6883 80.2685 16.647L78.5635 16.492ZM109.516 30.194V31H102.2V30.194L103.905 30.008C104.235 29.9667 104.432 29.884 104.494 29.76C104.556 29.636 104.587 29.2123 104.587 28.489V20.77C104.587 19.2407 104.339 18.166 103.843 17.546C103.347 16.9053 102.634 16.585 101.704 16.585C101.022 16.585 100.267 16.7917 99.4406 17.205C98.6139 17.6183 97.8389 18.4243 97.1156 19.623V28.489C97.1156 29.2123 97.1466 29.636 97.2086 29.76C97.2706 29.884 97.4669 29.9667 97.7976 30.008L99.5026 30.194V31H92.1866V30.194L93.8916 30.008C94.2222 29.9667 94.4186 29.884 94.4806 29.76C94.5426 29.636 94.5736 29.2123 94.5736 28.489V18.166C94.5736 17.4427 94.5426 17.019 94.4806 16.895C94.4186 16.771 94.2222 16.6883 93.8916 16.647L92.1866 16.492V15.655H96.9606V18.166C97.7046 17.174 98.5416 16.461 99.4716 16.027C100.422 15.5723 101.373 15.345 102.324 15.345C103.853 15.345 105.031 15.8203 105.858 16.771C106.705 17.701 107.129 19.0237 107.129 20.739V28.489C107.129 29.2123 107.16 29.636 107.222 29.76C107.284 29.884 107.48 29.9667 107.811 30.008L109.516 30.194ZM124.091 31.217C122.479 31.217 121.529 30.473 121.239 28.985C120.516 29.8117 119.72 30.411 118.852 30.783C117.984 31.1343 117.127 31.31 116.279 31.31C114.833 31.31 113.768 30.907 113.086 30.101C112.404 29.295 112.063 28.3237 112.063 27.187C112.063 25.9677 112.477 25.0067 113.303 24.304C114.151 23.5807 115.608 23.219 117.674 23.219H121.177V20.708C121.177 19.0547 120.888 17.918 120.309 17.298C119.751 16.6573 118.987 16.337 118.015 16.337C117.395 16.337 116.837 16.461 116.341 16.709C115.845 16.957 115.484 17.4117 115.256 18.073C115.05 18.7137 115.029 19.654 115.194 20.894L112.745 20.522C112.642 19.5507 112.766 18.6827 113.117 17.918C113.489 17.1327 114.089 16.5127 114.915 16.058C115.763 15.5827 116.817 15.345 118.077 15.345C119.586 15.345 120.743 15.6033 121.549 16.12C122.355 16.616 122.913 17.267 123.223 18.073C123.554 18.879 123.719 19.7573 123.719 20.708V27.683C123.719 28.737 123.833 29.3983 124.06 29.667C124.308 29.9357 124.577 30.07 124.866 30.07C125.052 30.07 125.249 30.0287 125.455 29.946C125.662 29.8427 125.889 29.6877 126.137 29.481L126.695 30.256C126.385 30.5247 126.013 30.752 125.579 30.938C125.166 31.124 124.67 31.217 124.091 31.217ZM117.147 30.008C117.726 30.008 118.346 29.853 119.007 29.543C119.689 29.2123 120.413 28.5613 121.177 27.59V24.211H118.015C116.858 24.211 116.011 24.4487 115.473 24.924C114.957 25.3787 114.698 26.0917 114.698 27.063C114.698 27.993 114.895 28.7163 115.287 29.233C115.701 29.7497 116.321 30.008 117.147 30.008ZM138.291 27.838C137.981 29.0367 137.495 29.915 136.834 30.473C136.172 31.031 135.325 31.31 134.292 31.31C133.3 31.31 132.494 31.093 131.874 30.659C131.254 30.2043 130.799 29.6153 130.51 28.892C130.22 28.1687 130.076 27.4143 130.076 26.629V18.166C130.076 17.4427 130.045 17.019 129.983 16.895C129.941 16.771 129.745 16.6883 129.394 16.647L127.689 16.492V15.655H130.076V11.594L132.618 11.067V15.655H137.671V16.647H132.618V26.877C132.618 28.179 132.793 29.078 133.145 29.574C133.517 30.07 134.002 30.318 134.602 30.318C135.201 30.318 135.656 30.0907 135.966 29.636C136.296 29.1813 136.534 28.4373 136.679 27.404L138.291 27.838ZM153.255 27.466C152.883 28.8713 152.18 29.8633 151.147 30.442C150.134 31.0207 149.008 31.31 147.768 31.31C145.474 31.31 143.759 30.6177 142.622 29.233C141.485 27.8277 140.917 25.9573 140.917 23.622V23.002C140.917 20.6873 141.465 18.8377 142.56 17.453C143.655 16.0477 145.247 15.345 147.334 15.345C148.45 15.345 149.463 15.5723 150.372 16.027C151.302 16.4817 152.036 17.1533 152.573 18.042C153.131 18.9307 153.41 20.0363 153.41 21.359C153.41 21.979 153.348 22.63 153.224 23.312H143.707V24.242C143.707 26.412 144.038 27.9723 144.699 28.923C145.381 29.853 146.476 30.318 147.985 30.318C148.936 30.318 149.721 30.07 150.341 29.574C150.982 29.078 151.405 28.2203 151.612 27.001L153.255 27.466ZM147.334 16.337C146.115 16.337 145.205 16.802 144.606 17.732C144.007 18.662 143.707 20.1913 143.707 22.32H150.682V22.227C150.723 21.9583 150.754 21.7 150.775 21.452C150.796 21.1833 150.806 20.9457 150.806 20.739C150.806 19.189 150.486 18.073 149.845 17.391C149.204 16.6883 148.367 16.337 147.334 16.337ZM163.762 10.757V9.92H171.233V10.757L169.528 10.912C169.198 10.9533 169.001 11.036 168.939 11.16C168.877 11.284 168.846 11.7077 168.846 12.431V28.489C168.846 29.2123 168.877 29.636 168.939 29.76C169.001 29.884 169.198 29.9667 169.528 30.008L171.233 30.194V31H163.762V30.194L165.467 30.008C165.798 29.9667 165.994 29.884 166.056 29.76C166.118 29.636 166.149 29.2123 166.149 28.489V12.431C166.149 11.7077 166.118 11.284 166.056 11.16C165.994 11.036 165.798 10.9533 165.467 10.912L163.762 10.757ZM173.122 9.92H189.614V14.973H188.808L187.909 11.718C187.847 11.47 187.774 11.2943 187.692 11.191C187.63 11.067 187.495 10.9947 187.289 10.974C187.082 10.9327 186.731 10.912 186.235 10.912H182.732V28.489C182.732 29.2123 182.763 29.636 182.825 29.76C182.887 29.884 183.083 29.9667 183.414 30.008L185.119 30.194V31H177.648V30.194L179.353 30.008C179.683 29.9667 179.88 29.884 179.942 29.76C180.004 29.636 180.035 29.2123 180.035 28.489V10.912H176.501C176.025 10.912 175.674 10.9327 175.447 10.974C175.24 10.9947 175.095 11.067 175.013 11.191C174.951 11.2943 174.889 11.47 174.827 11.718L173.928 14.973H173.122V9.92Z" fill="white"/>
<path d="M31.5 1L1 1L1 20.5" stroke="white" stroke-width="2" stroke-linecap="round"/>
<path d="M168 39.5H198.5V20" stroke="white" stroke-width="2" stroke-linecap="round"/>
</svg>
