<svg width="262" height="262" viewBox="0 0 262 262" fill="none" xmlns="http://www.w3.org/2000/svg">
<path fill-rule="evenodd" clip-rule="evenodd" d="M181.424 98.1275C181.424 93.3744 179.535 88.816 176.175 85.4551C172.814 82.0942 168.255 80.206 163.502 80.2059L106.962 80.2075C93.3641 80.2075 86.5536 96.6493 96.1685 106.264L102.345 112.44L67.1881 147.597C65.2365 149.548 64.1402 152.195 64.1402 154.955C64.1402 157.715 65.2365 160.362 67.1881 162.313L99.8918 195.017C101.843 196.969 104.49 198.065 107.25 198.065C110.01 198.065 112.657 196.969 114.608 195.017L149.765 159.861L155.364 165.46C164.979 175.074 181.422 168.265 181.422 154.667L181.424 98.1275ZM163.5 91.7683C164.336 91.7681 165.163 91.9325 165.935 92.2521C166.707 92.5717 167.408 93.0402 167.999 93.6309C168.589 94.2216 169.058 94.9229 169.378 95.6947C169.697 96.4666 169.862 97.2938 169.861 98.1292L169.86 154.666C169.86 157.962 165.873 159.614 163.541 157.282L153.854 147.595C152.77 146.511 151.3 145.902 149.767 145.902C148.233 145.902 146.763 146.511 145.679 147.595L107.252 186.022L76.1832 154.953L114.61 116.527C115.694 115.442 116.303 113.972 116.303 112.439C116.303 110.905 115.694 109.435 114.61 108.351L104.346 98.0866C102.016 95.7565 103.666 91.7683 106.964 91.7699L163.5 91.7683Z" fill="black" fill-opacity="0.25" stroke="#FFF4F4" stroke-width="2" stroke-linecap="round" stroke-linejoin="round"/>
</svg>
