<svg width="429" height="500" viewBox="0 0 429 500" fill="none" xmlns="http://www.w3.org/2000/svg">
<path d="M500 382.4H0V382.65H500V382.4Z" fill="#EBEBEB"/>
<path d="M449.9 398.49H416.78V398.74H449.9V398.49Z" fill="#EBEBEB"/>
<path d="M331.22 401.21H322.53V401.46H331.22V401.21Z" fill="#EBEBEB"/>
<path d="M415.78 389.21H396.59V389.46H415.78V389.21Z" fill="#EBEBEB"/>
<path d="M95.65 390.89H52.46V391.14H95.65V390.89Z" fill="#EBEBEB"/>
<path d="M110.89 390.89H104.56V391.14H110.89V390.89Z" fill="#EBEBEB"/>
<path d="M225.15 395.11H131.47V395.36H225.15V395.11Z" fill="#EBEBEB"/>
<path d="M237 337.8H43.91C42.3974 337.797 40.9476 337.195 39.8789 336.124C38.8102 335.053 38.21 333.603 38.21 332.09V60.66C38.2232 59.156 38.8292 57.718 39.8965 56.6582C40.9637 55.5985 42.406 55.0026 43.91 55H237C238.514 55 239.967 55.6016 241.038 56.6724C242.108 57.7433 242.71 59.1956 242.71 60.71V332.09C242.71 333.604 242.108 335.057 241.038 336.128C239.967 337.198 238.514 337.8 237 337.8ZM43.91 55.2C42.4637 55.2026 41.0775 55.7791 40.0557 56.8027C39.0339 57.8264 38.46 59.2136 38.46 60.66V332.09C38.46 333.536 39.0339 334.924 40.0557 335.947C41.0775 336.971 42.4637 337.547 43.91 337.55H237C238.447 337.547 239.835 336.971 240.858 335.948C241.881 334.924 242.457 333.537 242.46 332.09V60.66C242.457 59.2127 241.881 57.8255 240.858 56.8021C239.835 55.7787 238.447 55.2026 237 55.2H43.91Z" fill="#EBEBEB"/>
<path d="M453.31 337.8H260.21C258.696 337.797 257.246 337.195 256.175 336.125C255.105 335.054 254.503 333.604 254.5 332.09V60.66C254.516 59.1551 255.124 57.7171 256.193 56.6576C257.262 55.5981 258.705 55.0025 260.21 55H453.31C454.812 55.0052 456.252 55.6022 457.317 56.6617C458.382 57.7212 458.987 59.1578 459 60.66V332.09C459 333.601 458.401 335.05 457.335 336.121C456.268 337.191 454.821 337.795 453.31 337.8ZM260.21 55.2C258.763 55.2026 257.375 55.7787 256.352 56.8021C255.329 57.8255 254.753 59.2127 254.75 60.66V332.09C254.753 333.537 255.329 334.924 256.352 335.948C257.375 336.971 258.763 337.547 260.21 337.55H453.31C454.757 337.547 456.145 336.971 457.168 335.948C458.191 334.924 458.767 333.537 458.77 332.09V60.66C458.767 59.2127 458.191 57.8255 457.168 56.8021C456.145 55.7787 454.757 55.2026 453.31 55.2H260.21Z" fill="#EBEBEB"/>
<path d="M447.24 138.61H316.8V145.31H447.24V138.61Z" fill="#E0E0E0"/>
<path d="M328.55 113.91H322.8V138.61H328.55V113.91Z" fill="#EBEBEB"/>
<path d="M356.34 113.91H350.59V138.61H356.34V113.91Z" fill="#EBEBEB"/>
<path d="M387.888 113.276L382.222 114.253L386.418 138.594L392.084 137.617L387.888 113.276Z" fill="#EBEBEB"/>
<path d="M335.67 117.17H329.92V138.62H335.67V117.17Z" fill="#EBEBEB"/>
<path d="M348.88 117.17H343.13V138.62H348.88V117.17Z" fill="#EBEBEB"/>
<path d="M382.22 117.17H376.47V138.62H382.22V117.17Z" fill="#EBEBEB"/>
<path d="M363.886 116.413L358.273 117.661L362.927 138.6L368.54 137.352L363.886 116.413Z" fill="#EBEBEB"/>
<path d="M340.64 112.68H337.77V138.61H340.64V112.68Z" fill="#EBEBEB"/>
<path d="M374.82 112.68H371.95V138.61H374.82V112.68Z" fill="#EBEBEB"/>
<path d="M434.72 119.06H406.72V138.39H434.72V119.06Z" fill="#EBEBEB"/>
<path d="M316.8 195.34L447.24 195.34V188.64L316.8 188.64V195.34Z" fill="#E0E0E0"/>
<path d="M407.7 188.65H413.45V163.95H407.7V188.65Z" fill="#EBEBEB"/>
<path d="M371.964 187.668L377.631 188.645L381.826 164.304L376.16 163.327L371.964 187.668Z" fill="#EBEBEB"/>
<path d="M428.36 188.64H434.11V167.19H428.36V188.64Z" fill="#EBEBEB"/>
<path d="M415.16 188.64H420.91V167.19H415.16V188.64Z" fill="#EBEBEB"/>
<path d="M381.82 188.64H387.57V167.19H381.82V188.64Z" fill="#EBEBEB"/>
<path d="M395.515 187.381L401.128 188.629L405.781 167.69L400.168 166.442L395.515 187.381Z" fill="#EBEBEB"/>
<path d="M423.4 188.64H426.27V162.71H423.4V188.64Z" fill="#EBEBEB"/>
<path d="M389.22 188.64H392.09V162.71H389.22V188.64Z" fill="#EBEBEB"/>
<path d="M329.31 188.43H357.31V169.1H329.31V188.43Z" fill="#EBEBEB"/>
<path d="M53 266V383H59V278H165V383H172V266H53Z" fill="#E0E0E0"/>
<path d="M119 266V383H125V278H231V383H238V266H119Z" fill="#F5F5F5"/>
<path d="M156.88 222.4C155.54 220.2 153.34 222.12 153.34 222.12C153.65 217.89 149.77 215.01 149.77 215.01C149.77 215.01 154.28 215.01 154.91 210.7C155.54 206.39 153.34 208.4 151.27 208.37C149.2 208.34 147.04 214.37 149.77 217.77C152.5 221.17 151.77 226.97 145.47 232.54C143.962 233.948 142.831 235.712 142.18 237.67C142.66 232.55 142.93 225.33 141.42 220.52C138.86 212.33 143.74 210.13 145.15 206.04C146.56 201.95 141.42 198.48 141.42 198.48C141.42 198.48 146.26 196.28 143.89 193.76C141.52 191.24 136.66 191.58 136.66 194.88C136.66 198.18 139.96 199.43 139.96 199.43C139.96 199.43 143.74 203.36 143.74 205.43C143.74 207.5 139.96 211.88 139.96 211.88C139.96 211.88 141.69 208.11 138.23 207.95C134.77 207.79 133.66 212.35 135.08 214.4C136.5 216.45 138.86 214.71 138.86 214.71C139.005 217.098 139.366 219.468 139.94 221.79C140.29 222.97 140.13 227.59 139.83 232.39C139.172 230.656 138.121 229.099 136.76 227.84C130.47 222.27 129.76 216.47 132.46 213.07C135.16 209.67 133.03 203.64 130.96 203.67C128.89 203.7 126.69 201.67 127.32 206C127.95 210.33 132.46 210.31 132.46 210.31C132.46 210.31 128.58 213.19 128.9 217.42C128.9 217.42 126.69 215.5 125.35 217.7C122.97 221.64 128.5 224.08 129.43 222.14C129.43 222.14 141.17 230.45 138.34 242.41L139 243.41C138.91 244.41 138.86 244.96 138.86 244.96L139.78 244.57L140.78 246.11C140.744 247.847 140.835 249.585 141.05 251.31L143.85 247.16C141.02 235.16 152.76 226.89 152.76 226.89C153.73 228.78 159.27 226.34 156.88 222.4Z" fill="#E0E0E0"/>
<path d="M149.77 266L145.98 244.31L147.05 238H135.12L136.19 244.31L132.41 266H149.77Z" fill="#EBEBEB"/>
<path d="M250 427.56C357.082 427.56 443.89 422.492 443.89 416.24C443.89 409.988 357.082 404.92 250 404.92C142.917 404.92 56.11 409.988 56.11 416.24C56.11 422.492 142.917 427.56 250 427.56Z" fill="#F5F5F5"/>
<path d="M300.735 107.29L269.93 90.6543L248.205 130.883L279.011 147.519L300.735 107.29Z" fill="black"/>
<path opacity="0.6" d="M300.735 107.29L269.93 90.6543L248.205 130.883L279.011 147.519L300.735 107.29Z" fill="white"/>
<path d="M293.065 110.509L271.454 98.8394L270.281 101.013L291.891 112.683L293.065 110.509Z" fill="black"/>
<path d="M291.011 114.317L269.4 102.647L268.227 104.821L289.837 116.491L291.011 114.317Z" fill="black"/>
<path d="M288.952 118.122L267.342 106.452L266.168 108.625L287.779 120.296L288.952 118.122Z" fill="black"/>
<path d="M286.889 121.926L265.279 110.256L264.105 112.429L285.716 124.099L286.889 121.926Z" fill="black"/>
<path d="M284.84 125.725L263.23 114.055L262.056 116.229L283.666 127.899L284.84 125.725Z" fill="black"/>
<path d="M282.787 129.539L261.177 117.869L260.003 120.042L281.613 131.713L282.787 129.539Z" fill="black"/>
<path d="M280.738 133.338L259.127 121.668L257.954 123.842L279.564 135.512L280.738 133.338Z" fill="black"/>
<path d="M271.051 133.032L257.061 125.477L255.887 127.65L269.877 135.205L271.051 133.032Z" fill="black"/>
<path d="M218.89 107.59C214.532 107.144 210.404 105.415 207.028 102.623C203.652 99.8313 201.18 96.1008 199.925 91.9038C198.669 87.7068 198.686 83.2317 199.974 79.0443C201.261 74.857 203.762 71.1455 207.159 68.3792C210.556 65.613 214.697 63.9162 219.058 63.5034C223.419 63.0906 227.805 63.9803 231.661 66.0601C235.517 68.1399 238.669 71.3164 240.719 75.1878C242.77 79.0591 243.626 83.4516 243.18 87.8097C242.574 93.6505 239.677 99.0128 235.124 102.721C230.57 106.429 224.732 108.18 218.89 107.59Z" fill="black"/>
<path opacity="0.3" d="M222.702 105.682C233.831 104.826 242.158 95.1099 241.302 83.9811C240.446 72.8523 230.73 64.5248 219.601 65.3811C208.472 66.2375 200.145 75.9533 201.001 87.0821C201.857 98.2109 211.573 106.538 222.702 105.682Z" fill="white"/>
<path d="M228 78.9997C225.67 77.3497 222.42 71.7097 222.42 71.6797L220.32 92.1197C220.37 91.6597 218.55 91.1897 217.32 91.1197C214.39 90.8097 211.92 92.1897 211.72 94.1197C211.52 96.0497 213.72 97.9697 216.72 98.2697C219.72 98.5697 222.09 97.1897 222.3 95.2097C222.3 94.9097 222.09 94.5897 222.12 94.3197L223.73 78.5697C224.933 79.9548 226.411 81.0751 228.07 81.8597C230.28 82.8597 231.07 85.9297 231.07 85.9297C231.178 84.61 230.954 83.2842 230.418 82.0736C229.882 80.863 229.05 79.8061 228 78.9997Z" fill="white"/>
<path opacity="0.5" d="M224.898 92.6301C232.713 88.5774 236.326 80.0417 232.967 73.565C229.609 67.0884 220.551 65.1234 212.736 69.1761C204.92 73.2288 201.308 81.7645 204.666 88.2411C208.025 94.7178 217.083 96.6828 224.898 92.6301Z" fill="white"/>
<path d="M177.788 56.8004L130.195 60.6714L133.093 96.3037L180.686 92.4327L177.788 56.8004Z" fill="black"/>
<path d="M175.673 59.3007L132.814 62.7866L135.327 93.6846L178.186 90.1986L175.673 59.3007Z" fill="black"/>
<path opacity="0.5" d="M175.673 59.3007L132.814 62.7866L135.327 93.6846L178.186 90.1986L175.673 59.3007Z" fill="white"/>
<path d="M177.84 86L178.18 90.2L135.32 93.69L134.1 78.67L142.31 70.21L156.48 81.94L163.02 76.31L177.84 86Z" fill="black"/>
<path opacity="0.3" d="M177.84 86L178.18 90.2L135.32 93.69L134.1 78.67L142.31 70.21L156.48 81.94L163.02 76.31L177.84 86Z" fill="white"/>
<path d="M169.19 67.9998C169.245 68.6818 169.097 69.3648 168.764 69.9625C168.431 70.5602 167.928 71.0457 167.319 71.3577C166.71 71.6697 166.022 71.7941 165.343 71.7153C164.663 71.6365 164.022 71.3579 163.501 70.9148C162.979 70.4718 162.601 69.884 162.414 69.226C162.226 68.5679 162.238 67.8691 162.448 67.2178C162.658 66.5666 163.056 65.9921 163.592 65.567C164.128 65.142 164.778 64.8854 165.46 64.8298C165.913 64.7929 166.369 64.8456 166.802 64.9849C167.234 65.1242 167.636 65.3475 167.982 65.6419C168.328 65.9363 168.613 66.296 168.821 66.7006C169.028 67.1052 169.153 67.5467 169.19 67.9998Z" fill="black"/>
<path opacity="0.3" d="M169.19 67.9998C169.245 68.6818 169.097 69.3648 168.764 69.9625C168.431 70.5602 167.928 71.0457 167.319 71.3577C166.71 71.6697 166.022 71.7941 165.343 71.7153C164.663 71.6365 164.022 71.3579 163.501 70.9148C162.979 70.4718 162.601 69.884 162.414 69.226C162.226 68.5679 162.238 67.8691 162.448 67.2178C162.658 66.5666 163.056 65.9921 163.592 65.567C164.128 65.142 164.778 64.8854 165.46 64.8298C165.913 64.7929 166.369 64.8456 166.802 64.9849C167.234 65.1242 167.636 65.3475 167.982 65.6419C168.328 65.9363 168.613 66.296 168.821 66.7006C169.028 67.1052 169.153 67.5467 169.19 67.9998Z" fill="white"/>
<path d="M86.39 98.87L84.55 97.74C84.2238 97.5384 83.8548 97.4161 83.4726 97.3831C83.0905 97.3501 82.706 97.4073 82.35 97.55L74.18 101C73.8366 101.14 73.5353 101.366 73.3057 101.657C73.076 101.948 72.9259 102.294 72.87 102.66L72.57 104.66C72.5192 105.026 72.3721 105.371 72.1436 105.661C71.9152 105.951 71.6136 106.175 71.27 106.31L66.39 108.31C66.1113 108.423 65.8594 108.594 65.6507 108.81C65.442 109.027 65.281 109.285 65.1783 109.568C65.0756 109.851 65.0333 110.152 65.0543 110.452C65.0753 110.752 65.159 111.044 65.3 111.31L78.3 137.95C78.5749 138.502 79.0471 138.931 79.6231 139.151C80.1991 139.372 80.8368 139.368 81.41 139.14L120.07 123C120.351 122.889 120.605 122.72 120.815 122.504C121.026 122.288 121.189 122.03 121.292 121.747C121.396 121.463 121.439 121.161 121.418 120.86C121.397 120.559 121.312 120.266 121.17 120L108.17 93.37C107.897 92.8162 107.425 92.3853 106.849 92.163C106.273 91.9407 105.634 91.9432 105.06 92.17L88.59 99.06C88.234 99.2028 87.8495 99.26 87.4674 99.2269C87.0853 99.1939 86.7163 99.0717 86.39 98.87Z" fill="black"/>
<path d="M110 93.1601L74.59 108C73.8678 108.312 73.2855 108.879 72.9537 109.593C72.6218 110.306 72.5636 111.117 72.79 111.87L80.54 136.4C80.6492 136.752 80.8317 137.076 81.0756 137.352C81.3195 137.627 81.6191 137.848 81.9547 137.999C82.2903 138.151 82.6542 138.229 83.0223 138.229C83.3904 138.229 83.7543 138.151 84.09 138L119.51 123.18C120.229 122.864 120.809 122.297 121.14 121.585C121.472 120.872 121.532 120.064 121.31 119.31L113.55 94.7801C113.444 94.4258 113.264 94.0983 113.022 93.8194C112.779 93.5406 112.479 93.3169 112.143 93.1634C111.807 93.01 111.442 92.9303 111.072 92.9297C110.702 92.9291 110.337 93.0077 110 93.1601Z" fill="black"/>
<path opacity="0.5" d="M110 93.1601L74.59 108C73.8678 108.312 73.2855 108.879 72.9537 109.593C72.6218 110.306 72.5636 111.117 72.79 111.87L80.54 136.4C80.6492 136.752 80.8317 137.076 81.0756 137.352C81.3195 137.627 81.6191 137.848 81.9547 137.999C82.2903 138.151 82.6542 138.229 83.0223 138.229C83.3904 138.229 83.7543 138.151 84.09 138L119.51 123.18C120.229 122.864 120.809 122.297 121.14 121.585C121.472 120.872 121.532 120.064 121.31 119.31L113.55 94.7801C113.444 94.4258 113.264 94.0983 113.022 93.8194C112.779 93.5406 112.479 93.3169 112.143 93.1634C111.807 93.01 111.442 92.9303 111.072 92.9297C110.702 92.9291 110.337 93.0077 110 93.1601Z" fill="white"/>
<path d="M238.48 152C238.919 149.936 239.141 147.831 239.14 145.72C239.14 141.804 238.369 137.926 236.87 134.308C235.371 130.691 233.175 127.403 230.406 124.634C227.637 121.865 224.35 119.669 220.732 118.17C217.114 116.671 213.236 115.9 209.32 115.9C207.472 115.902 205.627 116.073 203.81 116.41C203.05 116.27 202.28 116.41 201.49 116.32C198.679 110.213 194.166 105.047 188.491 101.443C182.817 97.8383 176.222 95.9484 169.5 96.0001H158.5C153.896 95.9777 149.333 96.8638 145.072 98.6077C140.812 100.352 136.937 102.919 133.67 106.163C130.403 109.407 127.808 113.263 126.033 117.511C124.259 121.76 123.34 126.316 123.33 130.92C123.33 131.18 123.33 131.31 123.33 131.57C116.055 132.855 109.53 136.828 105.048 142.7C100.566 148.572 98.4553 155.915 99.1351 163.271C99.8149 170.627 103.235 177.458 108.718 182.409C114.2 187.361 121.343 190.07 128.73 190H236.73C241.769 190.229 246.693 188.448 250.418 185.047C254.144 181.646 256.366 176.904 256.595 171.865C256.824 166.826 255.043 161.902 251.642 158.177C248.241 154.451 243.499 152.229 238.46 152H238.48Z" fill="black"/>
<path opacity="0.5" d="M238.48 152C238.919 149.936 239.141 147.831 239.14 145.72C239.14 141.804 238.369 137.926 236.87 134.308C235.371 130.691 233.175 127.403 230.406 124.634C227.637 121.865 224.35 119.669 220.732 118.17C217.114 116.671 213.236 115.9 209.32 115.9C207.472 115.902 205.627 116.073 203.81 116.41C203.05 116.27 202.28 116.41 201.49 116.32C198.679 110.213 194.166 105.047 188.491 101.443C182.817 97.8383 176.222 95.9484 169.5 96.0001H158.5C153.896 95.9777 149.333 96.8638 145.072 98.6077C140.812 100.352 136.937 102.919 133.67 106.163C130.403 109.407 127.808 113.263 126.033 117.511C124.259 121.76 123.34 126.316 123.33 130.92C123.33 131.18 123.33 131.31 123.33 131.57C116.055 132.855 109.53 136.828 105.048 142.7C100.566 148.572 98.4553 155.915 99.1351 163.271C99.8149 170.627 103.235 177.458 108.718 182.409C114.2 187.361 121.343 190.07 128.73 190H236.73C241.769 190.229 246.693 188.448 250.418 185.047C254.144 181.646 256.366 176.904 256.595 171.865C256.824 166.826 255.043 161.902 251.642 158.177C248.241 154.451 243.499 152.229 238.46 152H238.48Z" fill="white"/>
<path opacity="0.4" d="M238.48 152C238.919 149.936 239.141 147.831 239.14 145.72C239.14 141.804 238.369 137.926 236.87 134.308C235.371 130.691 233.175 127.403 230.406 124.634C227.637 121.865 224.35 119.669 220.732 118.17C217.114 116.671 213.236 115.9 209.32 115.9C207.472 115.902 205.627 116.073 203.81 116.41C203.05 116.27 202.28 116.41 201.49 116.32C198.679 110.213 194.166 105.047 188.491 101.443C182.817 97.8383 176.222 95.9484 169.5 96.0001C164.896 95.9777 160.333 96.8638 156.072 98.6077C151.812 100.352 147.937 102.919 144.67 106.163C141.403 109.407 138.808 113.263 137.033 117.511C135.259 121.76 134.34 126.316 134.33 130.92C134.33 131.18 134.33 131.31 134.33 131.57C127.055 132.855 120.53 136.828 116.048 142.7C111.566 148.572 109.455 155.915 110.135 163.271C110.815 170.627 114.235 177.458 119.718 182.409C125.2 187.361 132.343 190.07 139.73 190H236.73C241.769 190.229 246.693 188.448 250.418 185.047C254.144 181.646 256.366 176.904 256.595 171.865C256.824 166.826 255.043 161.902 251.642 158.177C248.241 154.451 243.499 152.229 238.46 152H238.48Z" fill="white"/>
<path d="M267.67 239H234C220.744 238.984 208.036 233.711 198.662 224.338C189.289 214.964 184.016 202.256 184 189V179H174V189C174.019 204.907 180.346 220.158 191.594 231.406C202.842 242.654 218.093 248.981 234 249H267.67V239Z" fill="black"/>
<path d="M178.88 172.34L170.21 181H187.54L178.88 172.34Z" fill="black"/>
<path d="M104.28 367.33L98.28 349C101.239 346.475 104.724 344.641 108.482 343.632C112.239 342.624 116.174 342.466 120 343.17L125 360.33L104.28 367.33Z" fill="black"/>
<path opacity="0.7" d="M104.28 367.33L98.28 349C101.239 346.475 104.724 344.641 108.482 343.632C112.239 342.624 116.174 342.466 120 343.17L125 360.33L104.28 367.33Z" fill="white"/>
<g opacity="0.2">
<path d="M101.14 353.33C101.856 352.53 102.65 351.803 103.51 351.16C104.388 350.482 105.317 349.873 106.29 349.34C106.82 349.06 107.38 348.76 107.97 348.5C108.56 348.24 109.15 347.99 109.78 347.8C110.393 347.593 111.018 347.42 111.65 347.28L112.58 347.07L113.51 346.96C113.81 346.96 114.11 346.87 114.4 346.85H115.26C115.787 346.82 116.316 346.837 116.84 346.9C117.32 346.95 117.76 346.99 118.15 347.06L119.15 347.29L120 347.51C120 347.51 119.67 347.51 119.12 347.51L118.12 347.46H116.82C116.315 347.473 115.811 347.513 115.31 347.58C114.749 347.631 114.191 347.715 113.64 347.83L112.76 347.99L111.88 348.22C111.277 348.363 110.683 348.54 110.1 348.75C109.49 348.91 108.92 349.18 108.34 349.39C107.76 349.6 107.22 349.87 106.69 350.12C106.16 350.37 105.69 350.62 105.17 350.89C104.65 351.16 104.24 351.39 103.83 351.63C103.01 352.11 102.33 352.52 101.83 352.84L101.14 353.33Z" fill="black"/>
<path d="M101.67 355C101.67 355 101.9 354.8 102.34 354.49C102.78 354.18 103.4 353.73 104.19 353.27C105.087 352.729 106.012 352.235 106.96 351.79C107.96 351.29 109.15 350.85 110.3 350.43C110.89 350.26 111.48 350.06 112.06 349.9C112.64 349.74 113.23 349.6 113.8 349.51C114.37 349.42 114.92 349.29 115.45 349.25C115.98 349.21 116.45 349.14 116.94 349.13C117.681 349.109 118.423 349.136 119.16 349.21L120 349.31C120 349.31 119.69 349.36 119.16 349.41C118.9 349.41 118.58 349.41 118.22 349.51L117 349.7C116.55 349.77 116.08 349.9 115.57 349.99C115.06 350.08 114.57 350.25 114 350.37C113.43 350.49 112.9 350.69 112.33 350.83C111.76 350.97 111.2 351.2 110.63 351.38C108.35 352.14 106.12 353.06 104.45 353.77C103.62 354.14 102.91 354.42 102.45 354.65L101.67 355Z" fill="black"/>
<path d="M103.08 358.42C103.276 358.225 103.483 358.041 103.7 357.87C104.1 357.54 104.7 357.07 105.42 356.56C106.265 355.979 107.143 355.448 108.05 354.97C109.088 354.413 110.16 353.922 111.26 353.5C112.367 353.083 113.504 352.749 114.66 352.5C115.195 352.389 115.736 352.309 116.28 352.26C116.8 352.26 117.28 352.15 117.74 352.16L118.97 352.21C119.34 352.21 119.65 352.3 119.91 352.33L120.72 352.47C120.72 352.47 120.42 352.47 119.9 352.52C119.64 352.52 119.33 352.52 118.98 352.58L117.78 352.74C117.35 352.79 116.89 352.91 116.39 352.99C115.89 353.07 115.39 353.25 114.86 353.36C114.33 353.47 113.8 353.69 113.25 353.84C112.7 353.99 112.16 354.22 111.61 354.41C111.06 354.6 110.52 354.82 109.99 355.05C109.46 355.28 108.93 355.48 108.44 355.72C107.44 356.17 106.51 356.63 105.72 357.02C104.93 357.41 104.26 357.75 103.81 358.02L103.08 358.42Z" fill="black"/>
<path d="M103.92 360.75C104.613 360.064 105.366 359.442 106.17 358.89C106.995 358.32 107.857 357.806 108.75 357.35C109.25 357.11 109.75 356.87 110.3 356.65C110.85 356.43 111.39 356.22 111.96 356.06C112.522 355.884 113.093 355.738 113.67 355.62C114.227 355.493 114.791 355.403 115.36 355.35C115.89 355.281 116.425 355.251 116.96 355.26C117.434 355.244 117.909 355.264 118.38 355.32L119.58 355.48L120.48 355.7C120.97 355.83 121.25 355.92 121.25 355.92C121.25 355.92 120.95 355.92 120.45 355.92H119.54H118.37C117.912 355.919 117.455 355.946 117 356C116.49 356.044 115.983 356.114 115.48 356.21C114.96 356.28 114.48 356.43 113.88 356.55C113.28 356.67 112.8 356.84 112.26 357C111.194 357.324 110.146 357.705 109.12 358.14C108.12 358.56 107.23 358.99 106.46 359.37C105.69 359.75 105.05 360.09 104.61 360.37L103.92 360.75Z" fill="black"/>
<path d="M105.08 363.87C105.266 363.676 105.463 363.492 105.67 363.32C106.06 362.99 106.61 362.52 107.32 362.01C108.13 361.429 108.975 360.898 109.85 360.42C110.32 360.15 110.85 359.89 111.35 359.65C111.85 359.41 112.42 359.2 112.96 358.96C113.5 358.72 114.07 358.58 114.62 358.41C115.17 358.24 115.73 358.12 116.28 358.02C116.799 357.923 117.323 357.853 117.85 357.81C118.36 357.81 118.85 357.73 119.28 357.75L120.48 357.83C120.83 357.83 121.14 357.95 121.39 357.99L122.17 358.17H121.37C121.12 358.17 120.81 358.17 120.47 358.17L119.31 358.28C118.89 358.33 118.43 358.44 117.96 358.5C117.49 358.56 116.96 358.74 116.47 358.84C115.98 358.94 115.47 359.16 114.9 359.3C114.33 359.44 113.84 359.66 113.31 359.86C112.78 360.06 112.25 360.26 111.74 360.49C111.23 360.72 110.74 360.92 110.24 361.16C109.24 361.61 108.39 362.07 107.62 362.46C106.85 362.85 106.21 363.18 105.78 363.46L105.08 363.87Z" fill="black"/>
</g>
<path d="M101.68 367.46L114 358.12C114.15 358.005 114.323 357.923 114.508 357.88C114.692 357.836 114.884 357.833 115.07 357.87L129.14 360.54C129.416 360.591 129.669 360.726 129.864 360.927C130.06 361.128 130.188 361.385 130.231 361.662C130.273 361.939 130.229 362.222 130.104 362.473C129.978 362.723 129.778 362.929 129.53 363.06L117.92 369.35C117.731 369.447 117.523 369.502 117.31 369.51L102.51 369.89C102.225 369.895 101.946 369.808 101.713 369.644C101.48 369.48 101.304 369.247 101.212 368.977C101.12 368.707 101.116 368.415 101.2 368.143C101.284 367.87 101.452 367.631 101.68 367.46Z" fill="black"/>
<path d="M123.89 373C123.89 373 142.83 327.17 146.17 324.33C149.51 321.49 170.67 333.8 170.67 333.8L151.83 382.17L123.89 373Z" fill="black"/>
<path opacity="0.2" d="M129.33 372.67C129.33 372.67 147.47 328.89 150.17 327C152.87 325.11 168.33 333.17 168.33 333.17C168.33 333.17 152.22 323.33 147.28 325C142.34 326.67 125.5 371.67 125.5 371.67L129.33 372.67Z" fill="black"/>
<path d="M167.5 368.5H87.06V416H167.5V368.5Z" fill="#263238"/>
<path opacity="0.2" d="M167.5 368.5H87.06V416H167.5V368.5Z" fill="white"/>
<path opacity="0.4" d="M167.5 368.5H117.56V416H167.5V368.5Z" fill="white"/>
<path d="M117.56 369L136.5 353.75L178.75 356.63L167.5 369H117.56Z" fill="#263238"/>
<path d="M117.56 369L103.25 352.5L73 355.75L87.06 368.5L117.56 369Z" fill="#263238"/>
<path opacity="0.1" d="M117.56 369L103.25 352.5L73 355.75L87.06 368.5L117.56 369Z" fill="white"/>
<path opacity="0.4" d="M117.56 369L136.5 353.75L178.75 356.63L167.5 369H117.56Z" fill="white"/>
<path d="M152.27 390.36C149.742 390.36 147.271 391.11 145.17 392.514C143.068 393.918 141.43 395.914 140.463 398.25C139.496 400.585 139.242 403.155 139.736 405.634C140.229 408.113 141.446 410.39 143.233 412.177C145.02 413.965 147.298 415.182 149.777 415.675C152.256 416.168 154.825 415.915 157.161 414.948C159.496 413.98 161.492 412.342 162.896 410.241C164.3 408.139 165.05 405.668 165.05 403.14C165.05 399.751 163.704 396.5 161.307 394.104C158.91 391.707 155.659 390.36 152.27 390.36ZM152.27 408.23C151.261 408.23 150.274 407.931 149.436 407.37C148.597 406.809 147.943 406.012 147.557 405.08C147.172 404.147 147.071 403.121 147.269 402.132C147.466 401.142 147.953 400.233 148.667 399.521C149.382 398.808 150.291 398.323 151.281 398.127C152.271 397.931 153.297 398.034 154.229 398.421C155.16 398.809 155.956 399.464 156.515 400.304C157.075 401.144 157.372 402.131 157.37 403.14C157.37 403.81 157.238 404.472 156.982 405.091C156.725 405.709 156.349 406.27 155.876 406.743C155.402 407.216 154.84 407.591 154.221 407.846C153.602 408.101 152.939 408.232 152.27 408.23Z" fill="black"/>
<path opacity="0.7" d="M163.79 397.59C163.559 397.118 163.299 396.66 163.01 396.22C162.636 395.625 162.207 395.066 161.73 394.55C159.546 392.13 156.512 390.646 153.26 390.41C152.928 390.373 152.594 390.357 152.26 390.36C150.319 390.364 148.404 390.808 146.661 391.661C144.918 392.514 143.391 393.753 142.197 395.283C141.003 396.813 140.173 398.595 139.77 400.493C139.367 402.392 139.401 404.357 139.87 406.24C139.988 406.731 140.142 407.212 140.33 407.68C140.598 408.378 140.933 409.048 141.33 409.68C142.367 411.411 143.799 412.871 145.51 413.94C147.22 415.009 149.16 415.657 151.17 415.83C151.54 415.83 151.91 415.88 152.28 415.88C154.441 415.878 156.567 415.328 158.458 414.282C160.349 413.236 161.944 411.728 163.095 409.899C164.245 408.069 164.913 405.978 165.036 403.82C165.16 401.663 164.734 399.509 163.8 397.56L163.79 397.59ZM152.27 408.23C152.11 408.24 151.95 408.24 151.79 408.23C150.866 408.146 149.983 407.809 149.237 407.257C148.491 406.705 147.911 405.959 147.56 405.1C147.441 404.809 147.348 404.508 147.28 404.2C147.246 404.008 147.223 403.815 147.21 403.62C147.2 403.471 147.2 403.32 147.21 403.17C147.209 402.501 147.339 401.838 147.595 401.219C147.85 400.601 148.224 400.038 148.697 399.565C149.17 399.091 149.732 398.715 150.35 398.459C150.968 398.202 151.631 398.07 152.3 398.07C152.42 398.06 152.54 398.06 152.66 398.07C153.71 398.136 154.713 398.528 155.53 399.19C155.731 399.358 155.918 399.542 156.09 399.74C156.237 399.899 156.371 400.07 156.49 400.25C157.087 401.099 157.405 402.113 157.4 403.15C157.399 403.821 157.265 404.485 157.006 405.104C156.747 405.723 156.368 406.285 155.891 406.757C155.415 407.229 154.849 407.603 154.228 407.855C153.606 408.108 152.941 408.236 152.27 408.23Z" fill="white"/>
<path opacity="0.2" d="M151.79 408.2L151.16 415.86C149.15 415.687 147.21 415.039 145.5 413.97C143.789 412.9 142.357 411.441 141.32 409.71L147.56 405.07C147.911 405.929 148.491 406.675 149.237 407.227C149.983 407.779 150.866 408.116 151.79 408.2Z" fill="white"/>
<path opacity="0.2" d="M161.73 394.55L155.5 399.18C154.683 398.518 153.68 398.126 152.63 398.06L153.26 390.41C156.512 390.646 159.546 392.129 161.73 394.55Z" fill="white"/>
<path opacity="0.2" d="M147.28 404.17L140.34 407.68C140.152 407.212 139.998 406.731 139.88 406.24L147.21 403.59C147.223 403.785 147.246 403.978 147.28 404.17Z" fill="white"/>
<path opacity="0.2" d="M163.79 397.59L156.46 400.24C156.341 400.059 156.207 399.889 156.06 399.73L163.01 396.22C163.299 396.66 163.559 397.117 163.79 397.59Z" fill="white"/>
<path d="M161.6 393.91C154.6 393.91 150.77 398.84 153.17 404.91C155.57 410.98 163.22 415.91 170.27 415.91C177.32 415.91 181.11 410.99 178.71 404.91C176.31 398.83 168.66 393.91 161.6 393.91ZM167.67 409.3C166.239 409.269 164.844 408.842 163.641 408.067C162.437 407.292 161.471 406.2 160.85 404.91C159.85 402.49 161.4 400.52 164.21 400.52C165.641 400.554 167.034 400.982 168.237 401.756C169.441 402.531 170.407 403.622 171.03 404.91C172 407.33 170.48 409.3 167.67 409.3Z" fill="black"/>
<path opacity="0.1" d="M175.57 400.13C175.18 399.73 174.77 399.33 174.33 398.95C173.745 398.433 173.127 397.956 172.48 397.52C169.569 395.467 166.161 394.234 162.61 393.95C162.26 393.95 161.93 393.95 161.61 393.95C154.61 393.95 150.78 398.87 153.18 404.95C153.551 405.893 154.031 406.789 154.61 407.62C154.916 408.055 155.25 408.469 155.61 408.86C156.122 409.484 156.68 410.069 157.28 410.61C160.566 413.634 164.754 415.496 169.2 415.91C169.58 415.91 169.96 415.91 170.33 415.91C177.39 415.91 181.17 410.98 178.78 404.91C178.026 403.126 176.936 401.504 175.57 400.13ZM167.66 409.3H167.17C165.132 409.099 163.243 408.139 161.88 406.61C161.666 406.366 161.472 406.105 161.3 405.83C161.2 405.669 161.11 405.502 161.03 405.33C160.962 405.204 160.902 405.074 160.85 404.94C159.85 402.51 161.4 400.55 164.21 400.55C164.33 400.54 164.45 400.54 164.57 400.55C165.714 400.637 166.825 400.978 167.82 401.55C168.08 401.695 168.33 401.855 168.57 402.03C168.771 402.162 168.961 402.309 169.14 402.47C169.973 403.126 170.627 403.983 171.04 404.96C172 407.33 170.48 409.3 167.66 409.3Z" fill="white"/>
<path opacity="0.2" d="M167.17 409.27L169.17 415.87C164.724 415.456 160.536 413.594 157.25 410.57L161.91 406.57C163.264 408.096 165.141 409.059 167.17 409.27Z" fill="white"/>
<path opacity="0.2" d="M172.48 397.52L167.82 401.52C166.825 400.948 165.714 400.607 164.57 400.52L162.57 393.93C166.136 394.213 169.56 395.453 172.48 397.52Z" fill="white"/>
<path opacity="0.2" d="M161.3 405.8L155.55 408.8C155.19 408.41 154.855 407.995 154.55 407.56L161 405.3C161.09 405.473 161.19 405.64 161.3 405.8Z" fill="white"/>
<path opacity="0.2" d="M175.57 400.13L169.14 402.42C168.961 402.259 168.771 402.112 168.57 401.98L174.33 398.98C174.77 399.33 175.18 399.73 175.57 400.13Z" fill="white"/>
<path d="M372.4 330L372.76 345.57L374.4 416H379.81L381.44 345.57L381.8 330H372.4Z" fill="black"/>
<path opacity="0.4" d="M372.4 330L372.76 345.57L374.4 416H379.81L381.44 345.57L381.8 330H372.4Z" fill="white"/>
<path opacity="0.2" d="M372.4 330L372.76 346H381.44L381.8 330H372.4Z" fill="black"/>
<path d="M343.02 415.75L348.02 331.1H356.19L349.19 415.75H343.02Z" fill="black"/>
<path opacity="0.5" d="M349.21 415.75H343.03L347.57 338.7L348.02 331H356.19L355.56 338.7L349.21 415.75Z" fill="white"/>
<path opacity="0.2" d="M356.19 331L355.56 339H347.57L348.02 331H356.19Z" fill="black"/>
<path d="M405.02 415.75L398.02 331.1H406.19L411.19 415.75H405.02Z" fill="black"/>
<path opacity="0.5" d="M405 415.75L398.65 338.7L398.02 331H406.19L406.64 338.7L411.18 415.75H405Z" fill="white"/>
<path opacity="0.2" d="M398.02 331L398.65 339H406.64L406.19 331H398.02Z" fill="black"/>
<path d="M410.56 334.03H343.64V327.36C343.64 326.034 344.167 324.762 345.104 323.824C346.042 322.887 347.314 322.36 348.64 322.36H405.56C406.886 322.36 408.158 322.887 409.096 323.824C410.033 324.762 410.56 326.034 410.56 327.36V334.05V334.03Z" fill="black"/>
<path d="M342.45 334.02H411.76C412.87 334.02 413.77 333.12 413.77 332.01V330.19C413.77 329.08 412.87 328.18 411.76 328.18H342.45C341.34 328.18 340.44 329.08 340.44 330.19V332.01C340.44 333.12 341.34 334.02 342.45 334.02Z" fill="black"/>
<path opacity="0.6" d="M342.45 334.02H411.76C412.87 334.02 413.77 333.12 413.77 332.01V330.19C413.77 329.08 412.87 328.18 411.76 328.18H342.45C341.34 328.18 340.44 329.08 340.44 330.19V332.01C340.44 333.12 341.34 334.02 342.45 334.02Z" fill="white"/>
<path d="M353.09 227.5C353.09 227.5 352.81 228.26 352.3 229.5C351.79 230.74 351.01 232.63 350.06 234.69C347.76 239.69 344.42 246.05 340.93 249.48C340.054 250.402 338.999 251.137 337.83 251.64C334.11 253.07 324.78 253.33 316.45 253.25C308.12 253.17 301 252.75 301 252.75V246.44L328.39 239.14C328.39 239.14 342.83 213.08 351.39 209.22L353.09 227.5Z" fill="#263238"/>
<path opacity="0.2" d="M352.3 229.51C351.78 230.81 351.01 232.64 350.06 234.7C347.76 239.7 344.42 246.06 340.93 249.49C337.38 236.41 350.51 223.96 350.51 223.96L352.3 229.51Z" fill="black"/>
<path d="M348.76 408.78L340.79 407.69L339.69 388.75L347.64 389.85L348.76 408.78Z" fill="#EBB376"/>
<path opacity="0.2" d="M347.64 389.85L339.69 388.76L340.32 399.58L348.27 400.28L347.64 389.85Z" fill="black"/>
<path d="M348.44 297.46L350.38 285.28L395 282.61C395 282.61 399.75 307.95 396.1 314.7C389.59 326.75 354.49 320.7 344.21 321.85C350.39 347 349.79 396 349.79 396L335.12 397.12C335.12 397.12 323.84 344.25 321.55 319.12C320 302.2 334.06 302.62 348.44 297.46Z" fill="black"/>
<path d="M351.51 396.73L333.88 397.88L332.37 390.33L351.74 389.44L351.51 396.73Z" fill="black"/>
<path d="M330.38 401.71L322.36 402.3L317.34 384.01L325.35 383.43L330.38 401.71Z" fill="#EBB376"/>
<path d="M321.28 402.57H321.14C321.14 402.45 320.73 400.2 319.76 399.67C319.636 399.608 319.499 399.576 319.36 399.576C319.221 399.576 319.084 399.608 318.96 399.67C318.807 399.717 318.675 399.816 318.586 399.948C318.497 400.081 318.456 400.241 318.47 400.4C318.664 401.063 319.081 401.639 319.65 402.03C318.92 401.78 318.125 401.802 317.41 402.09C317.314 402.163 317.237 402.258 317.188 402.369C317.139 402.479 317.119 402.6 317.13 402.72C317.117 402.909 317.158 403.097 317.249 403.264C317.339 403.43 317.475 403.568 317.64 403.66C318.142 403.855 318.698 403.855 319.2 403.66C319.895 403.453 320.566 403.172 321.2 402.82H321.27C321.27 402.82 321.27 402.82 321.27 402.76C321.292 402.734 321.304 402.701 321.306 402.667C321.308 402.632 321.299 402.599 321.28 402.57ZM318.87 400.33C318.87 400.22 318.87 400.08 319.14 399.98H319.23C319.301 399.956 319.376 399.947 319.451 399.956C319.525 399.965 319.597 399.99 319.66 400.03C320.24 400.34 320.66 401.56 320.83 402.29L320.65 402.24C319.86 401.77 318.94 400.87 318.87 400.33ZM317.82 403.27C317.721 403.203 317.641 403.111 317.587 403.005C317.532 402.898 317.506 402.78 317.51 402.66C317.505 402.602 317.514 402.543 317.537 402.489C317.559 402.435 317.595 402.387 317.64 402.35C318.1 402.01 319.56 402.3 320.64 402.62C319.31 403.28 318.29 403.52 317.82 403.27Z" fill="black"/>
<path opacity="0.2" d="M325.35 383.43L317.34 384.02L320.21 394.47L328.13 393.5L325.35 383.43Z" fill="black"/>
<path d="M314.62 393.18L328.74 389C328.74 389 320.31 341.42 311.74 324.92C312.38 324.71 313.23 324.44 314.28 324.13C316.17 323.56 318.68 322.85 321.63 322.03C342.15 316.34 383.74 305.67 383.74 305.67L364.74 287.94C364.74 287.94 289.06 299.48 287.49 319.42C286.76 329 314.62 393.18 314.62 393.18Z" fill="black"/>
<path d="M330.56 389.34L313.56 394.15L310.51 387.08L329.27 382.17L330.56 389.34Z" fill="black"/>
<path opacity="0.2" d="M314.3 324.16C316.19 323.59 318.7 322.88 321.65 322.06C321.06 317.22 321.05 311.67 323.38 308.84C328.01 303.2 339.92 299.89 346.7 298.69C352.37 297.69 371.42 295.69 371.42 295.69C371.42 295.69 346.7 293.32 321.42 300.69C308.94 304.35 311.37 316.56 314.3 324.16Z" fill="black"/>
<path d="M397.52 295.34C400.52 293.05 397.64 271.75 399.17 250.8C401.5 218.9 399.17 208.65 396.82 207.66C392.481 206.907 388.093 206.473 383.69 206.36C377.251 206.13 370.803 206.27 364.38 206.78C359.984 207.319 355.638 208.201 351.38 209.42C351.38 209.42 340.86 242.92 347.58 291.17L397.52 295.34Z" fill="#263238"/>
<path opacity="0.8" d="M400 234.38C399.87 239.07 399.59 244.51 399.13 250.79C397.6 271.74 400.46 293.04 397.48 295.33L347.53 291.16C344.548 270.217 344.531 248.958 347.48 228.01C351.54 221.67 359.42 214.44 363.04 211.27C364.242 212.587 365.872 213.434 367.64 213.66C371.53 214.42 375.97 212.66 379.64 210.42C382.54 213.31 388.04 219.16 390.45 224.09C390.702 224.601 390.925 225.125 391.12 225.66C392.65 229.94 397.32 224.66 399.7 217.78C400.108 223.303 400.209 228.845 400 234.38Z" fill="white"/>
<path d="M381.32 184.71C380.23 190.95 379.26 202.35 383.69 206.41C381.891 208.341 379.728 209.898 377.326 210.989C374.923 212.081 372.328 212.686 369.69 212.77C361.69 213.12 364.39 206.77 364.39 206.77C371.29 204.97 370.99 199.83 369.68 195.03L381.32 184.71Z" fill="#EBB376"/>
<path opacity="0.2" d="M376.57 188.94L369.68 195.08C370.003 196.195 370.227 197.336 370.35 198.49C372.99 198.06 376.56 195.07 376.79 192.29C376.922 191.169 376.848 190.034 376.57 188.94Z" fill="black"/>
<path d="M366.19 168.56C369.64 170.9 368.07 174.86 360.27 181.07C357.11 177 356.58 169 359.1 167C361.62 165 363.19 166.53 366.19 168.56Z" fill="#263238"/>
<path d="M381 175C380.63 183.43 380.83 188.37 376.66 192.77C370.38 199.38 359.92 195.7 357.77 187.33C355.85 179.81 356.77 167.33 364.96 163.8C366.759 163.02 368.728 162.714 370.679 162.91C372.631 163.107 374.499 163.799 376.107 164.922C377.715 166.045 379.008 167.56 379.865 169.324C380.721 171.088 381.112 173.042 381 175Z" fill="#EBB376"/>
<path d="M368.49 177.5C368.49 178.19 368.15 178.75 367.7 178.76C367.25 178.77 366.89 178.22 366.88 177.53C366.87 176.84 367.21 176.29 367.66 176.28C368.11 176.27 368.43 176.83 368.49 177.5Z" fill="#263238"/>
<path d="M360.7 177.65C360.7 178.33 360.36 178.89 359.91 178.9C359.46 178.91 359.09 178.37 359.08 177.67C359.07 176.97 359.42 176.42 359.87 176.42C360.32 176.42 360.69 177 360.7 177.65Z" fill="#263238"/>
<path d="M363.25 177.93C362.47 180.036 361.404 182.025 360.08 183.84C360.554 184.163 361.093 184.38 361.659 184.477C362.225 184.574 362.805 184.547 363.36 184.4L363.25 177.93Z" fill="#D58745"/>
<path d="M370.58 175C370.668 175.011 370.757 174.99 370.83 174.94C370.872 174.908 370.907 174.869 370.934 174.824C370.961 174.778 370.979 174.728 370.986 174.676C370.993 174.624 370.991 174.571 370.977 174.521C370.964 174.47 370.942 174.422 370.91 174.38C370.527 173.866 370.027 173.452 369.451 173.172C368.875 172.891 368.24 172.754 367.6 172.77C367.549 172.772 367.499 172.785 367.454 172.807C367.408 172.829 367.367 172.86 367.333 172.899C367.3 172.937 367.274 172.981 367.258 173.03C367.242 173.078 367.236 173.129 367.24 173.18C367.253 173.283 367.304 173.378 367.384 173.445C367.464 173.512 367.566 173.546 367.67 173.54C368.176 173.534 368.675 173.649 369.127 173.875C369.579 174.101 369.971 174.432 370.27 174.84C370.308 174.886 370.355 174.924 370.408 174.952C370.462 174.979 370.52 174.996 370.58 175Z" fill="#263238"/>
<path d="M357.11 175.08C357.187 175.08 357.263 175.059 357.328 175.018C357.394 174.977 357.446 174.919 357.48 174.85C357.677 174.384 357.982 173.973 358.37 173.649C358.757 173.326 359.217 173.1 359.71 172.99C359.815 172.972 359.91 172.915 359.974 172.829C360.037 172.743 360.064 172.636 360.05 172.53C360.035 172.425 359.979 172.331 359.895 172.267C359.811 172.203 359.705 172.175 359.6 172.19C358.974 172.32 358.389 172.599 357.893 173.003C357.397 173.407 357.005 173.923 356.75 174.51C356.705 174.605 356.7 174.715 356.736 174.814C356.772 174.913 356.845 174.994 356.94 175.04C356.992 175.069 357.051 175.082 357.11 175.08Z" fill="#263238"/>
<path d="M377.54 167.58C373.63 169 374.19 173.23 380.23 181.15C384.31 177.94 386.78 170.33 384.81 167.78C382.84 165.23 381 166.35 377.54 167.58Z" fill="#263238"/>
<path d="M385.15 181.65C384.878 182.665 384.409 183.617 383.769 184.451C383.129 185.285 382.331 185.984 381.42 186.51C378.97 187.89 377.08 185.86 377.19 183.21C377.3 180.81 378.7 177.21 381.43 176.91C384.16 176.61 385.81 179.13 385.15 181.65Z" fill="#EBB376"/>
<path d="M369.68 185.79C369.088 186.696 368.257 187.42 367.28 187.884C366.303 188.349 365.216 188.534 364.14 188.42" stroke="#263238" stroke-width="0.526291" stroke-linecap="round" stroke-linejoin="round"/>
<path d="M369 166.24C369 166.24 370.26 174.68 378.39 175.24C386.52 175.8 388.26 170.75 388.26 170.75C387.597 170.846 386.929 170.9 386.26 170.91C386.26 170.91 388.64 166.82 386.26 162.91C383.88 159 375.78 154.82 369.77 156.91C367.9 156.299 365.923 156.081 363.965 156.27C362.007 156.46 360.109 157.052 358.39 158.01C352.76 161.28 353.76 168.41 353.76 168.41C353.76 168.41 353.51 164.08 356.14 162.87C356.14 162.87 352.89 171.78 357.76 174.16C357.75 174.13 358.23 165.36 369 166.24Z" fill="#263238"/>
<path d="M355.17 246C355.17 246 326.17 245.34 324.53 245.18C322.89 245.02 316.02 241.18 314.53 240.97C313.04 240.76 309.15 246.97 308.66 248.41C308.17 249.85 319.66 253.75 320.77 253.58C322.055 253.238 323.304 252.772 324.5 252.19L354.1 256L355.17 246Z" fill="#EBB376"/>
<path d="M271 252V254.65C271 255.44 272.36 256 273.15 256H334.94C335.74 256 337 255.44 337 254.65V252H271Z" fill="#263238"/>
<path opacity="0.6" d="M271 252V254.65C271 255.44 272.36 256 273.15 256H334.94C335.74 256 337 255.44 337 254.65V252H271Z" fill="white"/>
<path opacity="0.2" d="M271 252V254.65C271 255.44 272.36 256 273.15 256H313.9C314.7 256 316 255.44 316 254.65V252H271Z" fill="black"/>
<path d="M261.09 219.51L268.45 253C268.58 253.546 268.883 254.035 269.314 254.395C269.744 254.756 270.28 254.968 270.84 255H311C311.258 254.977 311.507 254.896 311.73 254.765C311.953 254.633 312.144 254.454 312.288 254.239C312.433 254.024 312.528 253.78 312.566 253.524C312.605 253.268 312.585 253.007 312.51 252.76L305.16 219.64C305.01 219.134 304.691 218.694 304.256 218.396C303.821 218.097 303.296 217.957 302.77 218H262.61C261.53 218 260.85 218.42 261.09 219.51Z" fill="#263238"/>
<path opacity="0.6" d="M261.09 219.51L268.45 253C268.58 253.546 268.883 254.035 269.314 254.395C269.744 254.756 270.28 254.968 270.84 255H311C311.258 254.977 311.507 254.896 311.73 254.765C311.953 254.633 312.144 254.454 312.288 254.239C312.433 254.024 312.528 253.78 312.566 253.524C312.605 253.268 312.585 253.007 312.51 252.76L305.16 219.64C305.01 219.134 304.691 218.694 304.256 218.396C303.821 218.097 303.296 217.957 302.77 218H262.61C261.53 218 260.85 218.42 261.09 219.51Z" fill="white"/>
<path opacity="0.4" d="M261.09 219.51L268.45 253C268.58 253.546 268.883 254.035 269.314 254.395C269.744 254.756 270.28 254.968 270.84 255H309.65C309.908 254.976 310.157 254.896 310.381 254.764C310.604 254.633 310.795 254.454 310.94 254.239C311.086 254.025 311.182 253.781 311.221 253.525C311.261 253.269 311.244 253.008 311.17 252.76L303.82 219.64C303.67 219.134 303.351 218.694 302.916 218.396C302.481 218.097 301.956 217.957 301.43 218H262.61C261.53 218 260.85 218.42 261.09 219.51Z" fill="white"/>
<path opacity="0.2" d="M284.73 241C282.86 241 280.94 239 280.45 236.52C279.96 234.04 281.09 232 283 232C283.342 232.007 283.681 232.075 284 232.2C284.173 233.084 284.552 233.915 285.107 234.626C285.661 235.336 286.375 235.907 287.19 236.29C287.211 236.355 287.228 236.422 287.24 236.49C287.74 239 286.61 241 284.73 241Z" fill="black"/>
<path opacity="0.2" d="M400 234.38C395.69 241.38 389.66 248.83 383.65 248.48C377.36 248.11 383.7 235.27 390.46 224.09C390.712 224.601 390.935 225.125 391.13 225.66C392.66 229.94 397.33 224.66 399.71 217.78C400.115 223.303 400.212 228.845 400 234.38Z" fill="black"/>
<path d="M396.82 207.66C411.65 213 385.62 253.16 377.53 257.3C369.44 261.44 348.18 256.67 348.18 256.67L349.5 244.26C349.5 244.26 366.33 245.4 369.68 244.55C373.03 243.7 380.99 226.55 385.57 218.5C388.112 213.812 392.041 210.026 396.82 207.66Z" fill="#263238"/>
<path opacity="0.2" d="M351.51 396.73L333.88 397.88L332.37 390.33L351.74 389.44L351.51 396.73Z" fill="white"/>
<path opacity="0.2" d="M330.56 389.34L313.56 394.15L310.51 387.08L329.27 382.17L330.56 389.34Z" fill="white"/>
<path d="M321.58 401.48L330.26 399.06C330.403 399.015 330.558 399.027 330.693 399.094C330.827 399.162 330.93 399.278 330.98 399.42L333.33 406.18C333.428 406.544 333.378 406.933 333.191 407.261C333.003 407.589 332.694 407.829 332.33 407.93C329.28 408.72 327.79 408.93 323.96 409.99C321.61 410.64 317.03 412.14 313.68 412.52C310.33 412.9 310.05 409.58 311.43 409.13C314.71 408.03 318.64 404.61 320.34 402.29C320.651 401.889 321.088 401.603 321.58 401.48Z" fill="#263238"/>
<path d="M340 407.7C340 407.56 339.86 405.29 339 404.57C338.872 404.475 338.727 404.407 338.572 404.371C338.417 404.335 338.256 404.331 338.1 404.36C337.938 404.375 337.785 404.441 337.662 404.549C337.54 404.657 337.455 404.801 337.42 404.96C337.456 405.648 337.736 406.3 338.21 406.8C337.541 406.407 336.755 406.262 335.99 406.39C335.881 406.442 335.787 406.521 335.715 406.619C335.644 406.716 335.597 406.83 335.58 406.95C335.533 407.128 335.536 407.315 335.589 407.492C335.642 407.668 335.743 407.827 335.88 407.95C336.331 408.237 336.874 408.344 337.4 408.25C338.114 408.191 338.819 408.05 339.5 407.83C339.511 407.835 339.523 407.838 339.535 407.838C339.547 407.838 339.559 407.835 339.57 407.83V407.77C339.57 407.77 339.76 407.77 339.77 407.7C339.78 407.63 339.94 407.7 339.94 407.7H340ZM337.79 405C337.79 404.89 337.86 404.75 338.12 404.7H338.21C338.285 404.693 338.361 404.703 338.432 404.729C338.503 404.755 338.567 404.796 338.62 404.85C339.13 405.27 339.27 406.54 339.3 407.3L339.14 407.21C338.444 406.655 337.966 405.872 337.79 405ZM336.15 407.65C336.073 407.562 336.019 407.457 335.993 407.344C335.966 407.23 335.969 407.112 336 407C336.006 406.941 336.028 406.885 336.063 406.837C336.098 406.79 336.146 406.753 336.2 406.73C336.71 406.49 338.08 407.08 339.05 407.61C337.61 408 336.55 408 336.15 407.69V407.65Z" fill="black"/>
<path d="M340.19 406.73L349.19 406.17C349.264 406.16 349.34 406.165 349.412 406.185C349.485 406.205 349.552 406.24 349.611 406.286C349.67 406.333 349.718 406.391 349.754 406.457C349.79 406.523 349.813 406.595 349.82 406.67L350.7 413.77C350.714 413.955 350.69 414.14 350.632 414.316C350.573 414.492 350.48 414.654 350.358 414.793C350.236 414.933 350.088 415.047 349.922 415.129C349.756 415.21 349.575 415.258 349.39 415.27C346.25 415.42 344.74 415.33 340.78 415.55C338.35 415.69 333.56 416.21 330.2 415.88C326.84 415.55 327.26 412.25 328.71 412.09C332.14 411.7 336.71 409.18 338.84 407.26C339.219 406.938 339.694 406.752 340.19 406.73Z" fill="#263238"/>
<path d="M300.11 416H306.23L307.24 262.75H299.11L300.11 416Z" fill="black"/>
<path opacity="0.4" d="M299.1 263L299.26 287.73L300.1 416H306.23L307.07 287.73L307.23 263H299.1Z" fill="white"/>
<path opacity="0.2" d="M299.1 263L299.26 288H307.07L307.23 263H299.1Z" fill="black"/>
<path d="M235.07 416H241.19L252.2 262.75H244.07L235.07 416Z" fill="black"/>
<path opacity="0.5" d="M235.06 416H241.19L251.66 270.37L252.2 263H244.07L243.63 270.37L235.06 416Z" fill="white"/>
<path opacity="0.2" d="M243.63 270H251.66L252.2 263H244.07L243.63 270Z" fill="black"/>
<path d="M365.15 416H371.27L362.27 262.75H354.14L365.15 416Z" fill="black"/>
<path opacity="0.5" d="M354.14 263L354.68 270.37L365.15 416H371.27L362.71 270.37L362.27 263H354.14Z" fill="white"/>
<path opacity="0.2" d="M362.27 263H354.14L354.68 270H362.71L362.27 263Z" fill="black"/>
<path d="M366.55 266.59H239.79C239.506 266.59 239.225 266.534 238.963 266.425C238.701 266.317 238.463 266.158 238.263 265.957C238.062 265.757 237.903 265.519 237.794 265.256C237.686 264.994 237.63 264.714 237.63 264.43V258.92H368.71V264.43C368.71 265.003 368.482 265.552 368.077 265.957C367.672 266.362 367.123 266.59 366.55 266.59Z" fill="black"/>
<path opacity="0.6" d="M366.55 266.59H239.79C239.506 266.59 239.225 266.534 238.963 266.425C238.701 266.317 238.463 266.158 238.263 265.957C238.062 265.757 237.903 265.519 237.794 265.256C237.686 264.994 237.63 264.714 237.63 264.43V258.92H368.71V264.43C368.71 265.003 368.482 265.552 368.077 265.957C367.672 266.362 367.123 266.59 366.55 266.59Z" fill="white"/>
<path opacity="0.2" d="M237.63 262.75H368.71V258.91H237.63V262.75Z" fill="black"/>
<path d="M233.83 259.92H372.51C373.084 259.917 373.633 259.687 374.038 259.281C374.443 258.874 374.67 258.324 374.67 257.75C374.67 257.177 374.442 256.628 374.037 256.223C373.632 255.817 373.083 255.59 372.51 255.59H233.83C233.257 255.59 232.708 255.817 232.303 256.223C231.898 256.628 231.67 257.177 231.67 257.75C231.67 258.324 231.897 258.874 232.302 259.281C232.707 259.687 233.256 259.917 233.83 259.92Z" fill="black"/>
<path opacity="0.6" d="M233.83 259.92H372.51C373.084 259.917 373.633 259.687 374.038 259.281C374.443 258.874 374.67 258.324 374.67 257.75C374.67 257.177 374.442 256.628 374.037 256.223C373.632 255.817 373.083 255.59 372.51 255.59H233.83C233.257 255.59 232.708 255.817 232.303 256.223C231.898 256.628 231.67 257.177 231.67 257.75C231.67 258.324 231.897 258.874 232.302 259.281C232.707 259.687 233.256 259.917 233.83 259.92Z" fill="white"/>
</svg>
