<svg width="338" height="326" viewBox="0 0 338 326" fill="none" xmlns="http://www.w3.org/2000/svg">
<path d="M216.212 251.966L212.109 273.449C199.772 271.265 191.389 259.946 193.444 248.249C195.52 236.428 207.505 228.389 219.997 230.43C232.49 232.471 241.055 243.874 238.98 255.688L216.212 251.966Z" fill="#F5F5F5"/>
<path d="M278.113 156.206C282.817 158.755 288.373 159.41 293.575 158.031C298.777 156.651 303.205 153.348 305.897 148.838C307.221 146.61 308.074 144.152 308.408 141.604C308.742 139.056 308.55 136.47 307.844 133.994C307.137 131.518 305.929 129.202 304.289 127.178C302.65 125.155 300.612 123.464 298.292 122.204C293.588 119.656 288.032 119 282.83 120.379C277.628 121.759 273.2 125.062 270.508 129.572C269.186 131.8 268.334 134.259 268.001 136.806C267.668 139.354 267.86 141.939 268.567 144.415C269.274 146.89 270.481 149.206 272.119 151.23C273.758 153.253 275.795 154.944 278.113 156.206ZM279.742 134.599C281.03 132.443 283.147 130.865 285.634 130.206C288.121 129.546 290.777 129.86 293.026 131.078C294.135 131.68 295.11 132.488 295.894 133.456C296.677 134.423 297.255 135.531 297.593 136.714C297.931 137.898 298.023 139.134 297.863 140.353C297.704 141.571 297.296 142.746 296.663 143.811C295.38 145.971 293.264 147.555 290.776 148.218C288.289 148.881 285.63 148.57 283.379 147.352C282.268 146.749 281.292 145.939 280.506 144.971C279.721 144.002 279.143 142.892 278.805 141.706C278.467 140.521 278.375 139.282 278.536 138.062C278.697 136.842 279.107 135.665 279.742 134.599Z" fill="#F5F5F5"/>
<path d="M305.897 148.839C303.205 153.348 298.777 156.652 293.575 158.031C288.373 159.41 282.817 158.755 278.113 156.206L283.379 147.352C285.628 148.572 288.284 148.886 290.772 148.227C293.259 147.568 295.376 145.988 296.663 143.831C297.303 142.764 297.717 141.585 297.881 140.362C298.044 139.139 297.954 137.897 297.616 136.708C297.278 135.519 296.698 134.406 295.91 133.435C295.122 132.464 294.141 131.654 293.026 131.052L298.292 122.178C300.615 123.438 302.657 125.13 304.298 127.156C305.94 129.181 307.149 131.5 307.857 133.979C308.564 136.458 308.755 139.048 308.418 141.598C308.082 144.148 307.225 146.609 305.897 148.839Z" fill="#EBEBEB"/>
<path d="M279.688 159.127C267.737 152.607 263.038 138.648 269.859 127.179L281.831 133.184C278.573 138.68 279.127 144.888 284.826 147.998L279.688 159.127Z" fill="#FAFAFA"/>
<path d="M306.451 25.239C298.379 18.0408 287.688 14.2047 276.701 14.5636C265.713 14.9225 255.316 19.4475 247.768 27.1558C244.055 30.9705 241.161 35.4557 239.252 40.3533C237.343 45.251 236.458 50.4643 236.646 55.6933C236.835 60.9223 238.094 66.0637 240.35 70.8217C242.607 75.5796 245.817 79.8602 249.796 83.4169C257.867 90.6071 268.551 94.4382 279.532 94.0794C290.513 93.7205 300.904 89.2006 308.452 81.5C312.167 77.6871 315.063 73.2032 316.974 68.3065C318.885 63.4098 319.773 58.197 319.587 52.968C319.401 47.739 318.144 42.5971 315.89 37.8383C313.636 33.0794 310.428 28.7975 306.451 25.239ZM292.62 67.319C289.011 71.0064 284.04 73.1714 278.786 73.3435C273.532 73.5157 268.419 71.6811 264.559 68.2384C262.658 66.5371 261.123 64.4898 260.045 62.2144C258.967 59.9391 258.366 57.4805 258.277 54.9802C258.188 52.4799 258.612 49.9873 259.525 47.6458C260.439 45.3043 261.823 43.1602 263.599 41.3368C267.21 37.6519 272.182 35.4892 277.435 35.3183C282.689 35.1474 287.801 36.9821 291.66 40.424C293.562 42.1248 295.096 44.1714 296.174 46.4463C297.252 48.7211 297.853 51.1792 297.942 53.6789C298.031 56.1786 297.607 58.6707 296.694 61.0117C295.78 63.3526 294.396 65.4962 292.62 67.319Z" fill="#F5F5F5"/>
<path d="M247.768 27.1558C255.316 19.4475 265.713 14.9225 276.701 14.5636C287.688 14.2047 298.379 18.0408 306.451 25.239L291.66 40.424C287.801 36.9821 282.689 35.1474 277.435 35.3183C272.182 35.4892 267.21 37.6519 263.599 41.3368C261.823 43.1602 260.439 45.3043 259.525 47.6458C258.612 49.9873 258.188 52.4799 258.277 54.9802C258.366 57.4805 258.967 59.9391 260.045 62.2144C261.123 64.4898 262.658 66.5371 264.559 68.2384L249.769 83.4169C245.792 79.8584 242.584 75.5765 240.33 70.8176C238.075 66.0587 236.819 60.9169 236.633 55.6879C236.447 50.4589 237.335 45.246 239.246 40.3494C241.157 35.4527 244.053 30.9688 247.768 27.1558Z" fill="#EBEBEB"/>
<path d="M304.754 18.7383C325.251 37.0921 327.705 66.9276 308.56 86.5789L287.766 69.2031C296.926 59.8078 298.914 47.2698 289.118 38.4874L304.754 18.7383Z" fill="#FAFAFA"/>
<path d="M109.39 27.8403H35.6117V92.1014H109.39V27.8403Z" fill="#F5F5F5"/>
<path d="M321.337 312.419C321.337 312.51 252.148 312.589 166.81 312.589C81.4715 312.589 12.2694 312.51 12.2694 312.419C12.2694 312.328 81.4445 312.25 166.81 312.25C252.175 312.25 321.337 312.308 321.337 312.419Z" fill="#263238"/>
<path d="M140.02 285.361L156.697 292.807C150.058 306.642 137.059 314.668 127.913 310.587C118.766 306.505 115.643 291.059 122.288 277.224C128.933 263.389 141.122 259.098 151.181 259.77C151.181 259.77 159.293 259.613 162.531 265.084L140.02 285.361Z" fill="#263238"/>
<path d="M145.806 286.28L162.483 293.726C155.838 307.562 142.846 315.588 133.699 311.506C124.553 307.425 122.484 292.67 129.13 278.835C135.775 264.999 148.734 256.973 157.914 261.054C160.983 262.43 163.382 265.058 164.836 268.657L145.806 286.28Z" fill="#455A64"/>
<path d="M127.345 283.092C126.154 283.856 124.883 284.497 123.553 285.003C122.274 285.62 120.933 286.109 119.551 286.463C120.798 285.797 122.087 285.207 123.411 284.696C124.687 284.085 126.001 283.549 127.345 283.092Z" fill="#455A64"/>
<path d="M126.236 290.597C125.097 291.332 123.88 291.949 122.606 292.435C121.381 293.029 120.094 293.495 118.766 293.824C119.959 293.182 121.194 292.615 122.464 292.129C123.687 291.542 124.947 291.03 126.236 290.597Z" fill="#455A64"/>
<path d="M126.764 296.986C125.747 297.67 124.651 298.237 123.498 298.675C122.394 299.213 121.228 299.625 120.024 299.901C121.093 299.309 122.207 298.794 123.356 298.362C124.456 297.825 125.595 297.365 126.764 296.986Z" fill="#455A64"/>
<path d="M129.075 302.756C128.06 303.439 126.964 304.004 125.81 304.438C124.705 304.977 123.539 305.391 122.336 305.671C123.405 305.079 124.519 304.564 125.668 304.132C126.767 303.593 127.906 303.134 129.075 302.756Z" fill="#455A64"/>
<path d="M134.037 307.333C133.025 308.019 131.931 308.586 130.779 309.022C129.675 309.561 128.508 309.972 127.304 310.248C128.371 309.655 129.483 309.141 130.63 308.709C131.731 308.173 132.869 307.713 134.037 307.333Z" fill="#455A64"/>
<path d="M130.468 276.233C128.957 277.071 127.389 277.812 125.777 278.45C124.208 279.186 122.591 279.822 120.936 280.354C122.45 279.515 124.019 278.774 125.635 278.137C127.2 277.4 128.815 276.764 130.468 276.233Z" fill="#455A64"/>
<path d="M135.315 269.446C133.525 270.328 131.683 271.11 129.799 271.786C127.958 272.569 126.071 273.246 124.147 273.814C125.938 272.932 127.779 272.15 129.664 271.474C131.505 270.691 133.392 270.014 135.315 269.446Z" fill="#455A64"/>
<path d="M145.164 261.824C145.164 261.908 141.663 263.258 137.269 264.829C132.875 266.401 129.278 267.6 129.244 267.516C129.211 267.431 132.746 266.081 137.147 264.51C141.548 262.939 145.13 261.732 145.164 261.824Z" fill="#455A64"/>
<path d="M211.108 293.57H141.149V312.074H211.108V293.57Z" fill="black"/>
<path d="M155.25 293.57C155.325 293.629 152.377 297.86 148.659 303.037C144.941 308.214 141.899 312.36 141.784 312.308C141.669 312.256 144.657 308.018 148.375 302.841C152.093 297.664 155.169 293.518 155.25 293.57Z" fill="#263238"/>
<path d="M165.573 293.57C165.654 293.629 162.706 297.86 158.988 303.037C155.27 308.214 152.195 312.36 152.1 312.308C152.005 312.256 154.966 308.018 158.684 302.841C162.402 297.664 165.492 293.518 165.573 293.57Z" fill="#263238"/>
<path d="M175.902 293.57C175.976 293.629 173.029 297.86 169.311 303.037C165.593 308.214 162.517 312.36 162.436 312.308C162.355 312.256 165.309 308.018 169.027 302.841C172.745 297.664 175.821 293.518 175.902 293.57Z" fill="#263238"/>
<path d="M186.224 293.57C186.306 293.629 183.358 297.86 179.64 303.037C175.922 308.214 172.846 312.36 172.765 312.308C172.684 312.256 175.632 308.018 179.35 302.841C183.068 297.664 186.143 293.518 186.224 293.57Z" fill="#263238"/>
<path d="M196.554 293.57C196.628 293.629 193.681 297.86 189.963 303.037C186.245 308.214 183.196 312.36 183.088 312.308C182.98 312.256 185.961 308.018 189.679 302.841C193.397 297.664 196.473 293.518 196.554 293.57Z" fill="#263238"/>
<path d="M206.856 293.57C206.937 293.629 203.99 297.86 200.272 303.037C196.554 308.214 193.478 312.36 193.397 312.308C193.316 312.256 196.263 308.018 199.981 302.841C203.699 297.664 206.795 293.518 206.856 293.57Z" fill="#263238"/>
<path d="M216.212 285.491H159.773V293.57H216.212V285.491Z" fill="#263238"/>
<path d="M176.193 285.452C175.69 286.88 175.076 288.268 174.354 289.605C173.74 290.99 173.019 292.328 172.197 293.609C172.703 292.184 173.317 290.798 174.036 289.462C174.653 288.076 175.373 286.736 176.193 285.452Z" fill="#455A64"/>
<path d="M185.041 285.452C184.539 286.88 183.925 288.268 183.203 289.605C182.589 290.99 181.868 292.328 181.046 293.609C181.552 292.184 182.166 290.798 182.885 289.462C183.498 288.075 184.219 286.735 185.041 285.452Z" fill="#455A64"/>
<path d="M193.89 285.452C193.385 286.878 192.77 288.267 192.052 289.605C191.438 290.99 190.717 292.328 189.895 293.609C190.4 292.184 191.015 290.798 191.734 289.462C192.347 288.075 193.068 286.735 193.89 285.452Z" fill="#455A64"/>
<path d="M202.739 285.452C202.233 286.878 201.619 288.267 200.9 289.605C200.286 290.99 199.566 292.328 198.744 293.609C199.249 292.184 199.864 290.798 200.583 289.462C201.196 288.075 201.917 286.735 202.739 285.452Z" fill="#455A64"/>
<path d="M211.588 285.452C211.082 286.878 210.468 288.267 209.749 289.605C209.135 290.99 208.414 292.328 207.593 293.609C208.098 292.184 208.713 290.798 209.432 289.462C210.045 288.075 210.766 286.735 211.588 285.452Z" fill="#455A64"/>
<path d="M168.601 285.452C168.095 286.878 167.481 288.267 166.762 289.605C166.148 290.99 165.428 292.328 164.606 293.609C165.111 292.184 165.726 290.798 166.445 289.462C167.058 288.075 167.779 286.735 168.601 285.452Z" fill="#455A64"/>
<path d="M202.07 221.68L206.356 285.348C202.617 285.583 198.818 286.756 195.168 285.707C191.518 284.657 187.732 284.657 184.136 283.685L195.364 221.889L202.07 221.68Z" fill="black"/>
<path opacity="0.4" d="M202.07 221.68L206.356 285.348C202.617 285.583 198.818 286.756 195.168 285.707C191.518 284.657 187.732 284.657 184.136 283.685L195.364 221.889L202.07 221.68Z" fill="black"/>
<path d="M195.364 221.889L199.697 286.124C192.2 286.594 184.674 285.84 177.436 283.894L195.364 221.889Z" fill="black"/>
<path d="M205.504 273.547C204.61 275.02 203.614 276.434 202.523 277.778C201.528 279.186 200.44 280.53 199.265 281.801C201.151 278.919 203.236 276.161 205.504 273.547Z" fill="#263238"/>
<path d="M204.936 262.756C204.039 264.228 203.043 265.641 201.955 266.988C200.962 268.398 199.871 269.742 198.69 271.011C199.59 269.543 200.586 268.132 201.671 266.786C202.665 265.374 203.756 264.028 204.936 262.756Z" fill="#263238"/>
<path d="M204.341 251.966C203.452 253.438 202.458 254.85 201.367 256.191C200.375 257.604 199.284 258.95 198.102 260.22C198.997 258.749 199.993 257.338 201.083 255.995C202.079 254.586 203.167 253.24 204.341 251.966Z" fill="#263238"/>
<path d="M203.753 241.175C202.861 242.646 201.867 244.057 200.779 245.4C199.782 246.809 198.691 248.155 197.514 249.429C198.405 247.958 199.399 246.546 200.488 245.204C201.485 243.794 202.575 242.448 203.753 241.175Z" fill="#263238"/>
<path d="M203.165 230.384C202.27 231.855 201.274 233.266 200.184 234.609C199.192 236.02 198.101 237.364 196.919 238.632C197.817 237.163 198.813 235.752 199.9 234.407C200.894 232.998 201.985 231.654 203.165 230.384Z" fill="#263238"/>
<path d="M200.995 221.68C199.636 223.867 198.075 225.932 196.331 227.848C196.964 226.729 197.697 225.664 198.521 224.666C199.252 223.602 200.08 222.603 200.995 221.68Z" fill="#263238"/>
<path d="M198.575 278.678C197.989 279.016 197.35 279.261 196.682 279.402C194.41 279.972 191.997 279.691 189.931 278.614C187.865 277.537 186.299 275.745 185.548 273.599C184.983 272.096 184.882 270.468 185.258 268.911C185.463 268.081 185.858 267.306 186.414 266.642C186.996 265.96 187.76 265.444 188.624 265.149C189.496 264.836 190.456 264.836 191.328 265.149C192.161 265.474 192.869 266.039 193.356 266.766C193.839 267.429 194.138 268.2 194.224 269.006C194.31 269.811 194.182 270.625 193.85 271.369C193.187 272.683 192.039 273.71 190.632 274.251C189.429 274.74 188.11 274.898 186.819 274.707C185.765 274.551 184.75 274.208 183.825 273.697C183.124 273.323 182.469 272.874 181.871 272.36C181.495 272.037 181.138 271.693 180.803 271.33C180.684 271.208 180.578 271.074 180.485 270.932C180.617 271.042 180.741 271.159 180.857 271.284C181.107 271.513 181.459 271.865 181.959 272.262C183.346 273.423 185.036 274.194 186.846 274.492C188.09 274.658 189.358 274.491 190.51 274.01C191.842 273.486 192.925 272.506 193.552 271.258C193.855 270.562 193.969 269.803 193.884 269.053C193.799 268.302 193.517 267.585 193.066 266.968C192.615 266.301 191.964 265.782 191.2 265.482C190.407 265.194 189.532 265.194 188.739 265.482C187.945 265.758 187.244 266.238 186.711 266.87C186.188 267.492 185.814 268.218 185.616 268.996C185.253 270.493 185.344 272.059 185.88 273.508C186.312 274.74 187.021 275.866 187.956 276.805C188.89 277.744 190.028 278.472 191.288 278.939C193.019 279.552 194.896 279.672 196.696 279.284C197.336 279.125 197.964 278.923 198.575 278.678Z" fill="#FAFAFA"/>
<path d="M197.182 250.368C196.576 250.62 195.956 250.837 195.323 251.02C192.337 252.01 189.514 253.409 186.941 255.173C186.428 255.567 185.89 255.93 185.332 256.262C185.764 255.774 186.254 255.336 186.792 254.958C188.05 254.014 189.397 253.184 190.815 252.481C192.234 251.778 193.719 251.206 195.249 250.772C195.874 250.562 196.523 250.426 197.182 250.368Z" fill="#FAFAFA"/>
<path d="M196.635 235.594C195.946 236.664 194.988 237.55 193.85 238.169C192.713 238.788 191.431 239.12 190.125 239.134C191.356 238.845 192.548 238.423 193.681 237.876C194.754 237.228 195.745 236.462 196.635 235.594Z" fill="#FAFAFA"/>
<path d="M274.476 54.3311H90.7327V214.371H274.476V54.3311Z" fill="#F5F5F5"/>
<path d="M274.456 214.371C274.456 213.152 274.402 150.586 274.307 54.331L274.456 54.4744H90.726L90.9017 54.3049C90.9017 112.561 90.9017 167.368 90.9017 214.345L90.7463 214.195L274.49 214.345L90.7327 214.508H90.584V214.358C90.584 167.381 90.584 112.574 90.584 54.318V54.1484H90.7733H274.503H274.659V54.2919C274.537 150.612 274.456 213.152 274.456 214.371Z" fill="#263238"/>
<path d="M275.166 63.9478C275.166 64.0391 233.876 64.1174 182.953 64.1174C132.03 64.1174 90.7327 64.0391 90.7327 63.9478C90.7327 63.8566 132.016 63.7783 182.953 63.7783C233.889 63.7783 275.166 63.8566 275.166 63.9478Z" fill="#E0E0E0"/>
<path d="M95.5999 61.7637C96.6266 61.7637 97.4589 60.961 97.4589 59.9707C97.4589 58.9805 96.6266 58.1777 95.5999 58.1777C94.5732 58.1777 93.7409 58.9805 93.7409 59.9707C93.7409 60.961 94.5732 61.7637 95.5999 61.7637Z" fill="#E0E0E0"/>
<path d="M101.339 61.7637C102.366 61.7637 103.198 60.961 103.198 59.9707C103.198 58.9805 102.366 58.1777 101.339 58.1777C100.312 58.1777 99.4802 58.9805 99.4802 59.9707C99.4802 60.961 100.312 61.7637 101.339 61.7637Z" fill="#E0E0E0"/>
<path d="M107.078 61.7637C108.105 61.7637 108.937 60.961 108.937 59.9707C108.937 58.9805 108.105 58.1777 107.078 58.1777C106.052 58.1777 105.219 58.9805 105.219 59.9707C105.219 60.961 106.052 61.7637 107.078 61.7637Z" fill="#E0E0E0"/>
<path d="M245.976 188.428C245.976 189.33 245.699 190.213 245.179 190.963C244.659 191.714 243.92 192.299 243.055 192.644C242.19 192.99 241.239 193.08 240.321 192.904C239.403 192.728 238.56 192.293 237.898 191.655C237.236 191.017 236.786 190.203 236.603 189.318C236.42 188.433 236.514 187.515 236.872 186.681C237.23 185.847 237.837 185.134 238.615 184.633C239.393 184.131 240.308 183.864 241.244 183.864C242.499 183.864 243.703 184.345 244.59 185.201C245.478 186.056 245.976 187.217 245.976 188.428Z" fill="black"/>
<path d="M245.976 200.816C245.976 201.719 245.699 202.601 245.179 203.352C244.659 204.102 243.92 204.687 243.055 205.033C242.19 205.378 241.239 205.468 240.321 205.292C239.403 205.116 238.56 204.681 237.898 204.043C237.236 203.405 236.786 202.592 236.603 201.706C236.42 200.821 236.514 199.903 236.872 199.069C237.23 198.235 237.837 197.523 238.615 197.021C239.393 196.52 240.308 196.252 241.244 196.252C242.499 196.252 243.703 196.733 244.59 197.589C245.478 198.445 245.976 199.606 245.976 200.816Z" fill="#455A64"/>
<path d="M260.26 187.489C258.368 187.657 256.467 187.713 254.568 187.658C252.669 187.713 250.768 187.657 248.876 187.489C250.768 187.317 252.669 187.261 254.568 187.319C256.467 187.261 258.368 187.317 260.26 187.489Z" fill="#263238"/>
<path d="M259.53 201.174C257.86 201.346 256.179 201.403 254.5 201.344C252.824 201.403 251.146 201.346 249.478 201.174C252.824 200.948 256.183 200.948 259.53 201.174Z" fill="#263238"/>
<path d="M178.68 140.467L171.109 89.2C182.995 87.5707 195.105 89.8295 205.504 95.6157C231.009 109.823 239.885 141.758 225.155 166.364C210.425 190.971 177.342 199.512 151.836 185.318L178.68 140.467Z" fill="black"/>
<path opacity="0.3" d="M178.68 140.467L171.109 89.2C182.995 87.5707 195.105 89.8295 205.504 95.6157C231.009 109.823 239.885 141.758 225.155 166.364C210.425 190.971 177.342 199.512 151.836 185.318L178.68 140.467Z" fill="black"/>
<path d="M168.824 138.589L161.253 87.3221C173.147 85.6862 185.266 87.9477 195.668 93.7443C221.18 107.945 230.05 139.88 215.32 164.486C200.589 189.093 167.486 197.647 141.96 183.44L168.824 138.589Z" fill="black"/>
<path d="M194.776 189.888C194.776 189.928 193.174 189.302 191.24 188.493C189.307 187.685 187.745 187.007 187.759 186.968C187.773 186.928 189.354 187.561 191.294 188.369C193.235 189.178 194.789 189.856 194.776 189.888Z" fill="#263238"/>
<path d="M185.9 191.688C185.9 191.72 184.548 191.205 182.939 190.527C181.33 189.849 180.026 189.282 180.039 189.223C180.053 189.164 181.391 189.706 183 190.377C184.609 191.049 185.9 191.688 185.9 191.688Z" fill="#263238"/>
<path d="M204.111 186.068C204.111 186.1 202.34 185.416 200.177 184.568C198.014 183.72 196.283 182.977 196.297 182.944C196.31 182.912 198.075 183.596 200.231 184.444C202.388 185.292 204.152 186.035 204.111 186.068Z" fill="#263238"/>
<path d="M212.264 181.393C212.264 181.425 210.459 180.656 208.269 179.665C206.079 178.674 204.321 177.853 204.335 177.813C204.348 177.774 206.139 178.557 208.33 179.541C210.52 180.526 212.264 181.36 212.264 181.393Z" fill="#263238"/>
<path d="M218.28 174.736C218.28 174.769 216.543 173.999 214.434 173.021C212.325 172.043 210.635 171.215 210.655 171.183C210.675 171.15 212.392 171.919 214.495 172.897C216.597 173.875 218.294 174.697 218.28 174.736Z" fill="#263238"/>
<path d="M224.79 169.663C224.79 169.663 222.573 168.679 219.876 167.394C217.179 166.11 215.002 165.041 215.022 165.008C215.042 164.975 217.239 165.986 219.937 167.271C222.634 168.555 224.811 169.631 224.79 169.663Z" fill="#263238"/>
<path d="M227.136 162.719C227.01 162.696 226.888 162.659 226.771 162.609L225.804 162.243C224.993 161.917 223.884 161.448 222.681 160.881C221.478 160.314 220.417 159.753 219.653 159.329C219.274 159.12 218.977 158.944 218.76 158.82C218.65 158.757 218.544 158.687 218.443 158.612C218.562 158.657 218.677 158.711 218.787 158.775L219.7 159.244C220.471 159.648 221.545 160.19 222.742 160.757C223.939 161.324 225.04 161.807 225.845 162.152L226.791 162.556C226.91 162.603 227.025 162.658 227.136 162.719Z" fill="#263238"/>
<path d="M229.739 156.48C229.739 156.512 227.711 155.599 225.263 154.439C222.816 153.278 220.836 152.307 220.849 152.274C220.863 152.242 222.877 153.154 225.331 154.315C227.785 155.476 229.759 156.421 229.739 156.48Z" fill="#263238"/>
<path d="M231.192 149.197C231.192 149.197 229.164 148.317 226.717 147.156C224.27 145.996 222.289 145.024 222.309 144.992C222.33 144.959 224.337 145.872 226.784 147.032C229.232 148.193 231.239 149.164 231.192 149.197Z" fill="#263238"/>
<path d="M232.28 142.26C232.28 142.292 230.104 141.308 227.46 140.056C224.817 138.804 222.695 137.767 222.728 137.735C222.762 137.702 224.905 138.687 227.548 139.932C230.192 141.177 232.294 142.22 232.28 142.26Z" fill="#263238"/>
<path d="M231.902 134.351C231.902 134.384 229.556 133.249 226.71 131.808C223.864 130.367 221.559 129.2 221.573 129.148C221.586 129.096 223.918 130.25 226.771 131.691C229.624 133.132 231.922 134.312 231.902 134.351Z" fill="#263238"/>
<path d="M230.164 126.129C230.164 126.162 227.643 124.936 224.567 123.384C221.491 121.833 219.024 120.555 219.024 120.522C219.024 120.49 221.552 121.715 224.628 123.267C227.704 124.819 230.185 126.097 230.164 126.129Z" fill="#263238"/>
<path d="M226.176 116.486C226.176 116.519 223.411 115.241 220.038 113.637C216.665 112.033 213.954 110.696 213.954 110.664C213.954 110.631 216.719 111.903 220.092 113.513C223.465 115.123 226.196 116.453 226.176 116.486Z" fill="#263238"/>
<path d="M221.572 109.112C221.572 109.145 218.341 107.638 214.4 105.741C210.459 103.844 207.262 102.285 207.282 102.246C207.302 102.207 210.513 103.726 214.461 105.617C218.409 107.508 221.593 109.079 221.572 109.112Z" fill="#263238"/>
<path d="M210.574 98.8104C210.574 98.8495 207.194 97.7411 203.097 96.3393C199.001 94.9375 195.661 93.777 195.661 93.7313C195.661 93.6857 199.041 94.8006 203.138 96.2024C207.235 97.6042 210.588 98.7778 210.574 98.8104Z" fill="#263238"/>
<path d="M221.606 127.622C221.606 127.622 221.404 127.661 220.998 127.72L220.248 127.824C219.957 127.883 219.619 127.981 219.24 128.079C217.028 128.764 214.982 129.873 213.224 131.339C212.041 132.245 210.79 133.295 209.425 134.507C207.958 135.817 206.412 137.04 204.794 138.171C202.812 139.571 200.529 140.523 198.114 140.958C195.7 141.394 193.214 141.302 190.842 140.688C188.063 140.005 185.544 138.571 183.581 136.555C182.545 135.476 181.704 134.238 181.094 132.89C180.449 131.492 180.129 129.974 180.154 128.444C180.175 126.854 180.643 125.299 181.506 123.945C182.415 122.562 183.646 121.403 185.102 120.561C186.594 119.688 188.259 119.128 189.99 118.918C191.772 118.739 193.574 118.926 195.276 119.466C198.793 120.638 201.82 122.88 203.902 125.855C206.025 128.961 207.41 132.481 207.958 136.163C208.591 139.945 208.7 143.79 208.282 147.599C207.875 151.532 206.768 155.367 205.011 158.938C203.241 162.509 200.707 165.678 197.575 168.235C194.524 170.736 190.865 172.448 186.941 173.21C183.145 173.919 179.221 173.633 175.577 172.382C172.153 171.224 169.188 169.066 167.093 166.208C164.999 163.35 163.879 159.934 163.889 156.434C163.899 154.807 164.194 153.193 164.761 151.661C165.285 150.158 166.149 148.786 167.29 147.645C167.858 147.095 168.513 146.635 169.23 146.282C169.945 145.95 170.717 145.749 171.508 145.689C173.051 145.624 174.576 146.04 175.855 146.876C176.471 147.273 177.034 147.742 177.531 148.271C178.011 148.798 178.418 149.383 178.741 150.012C179.328 151.238 179.626 152.574 179.613 153.924C179.542 156.439 178.71 158.88 177.22 160.946C175.92 162.793 174.237 164.36 172.279 165.549C170.583 166.59 168.704 167.324 166.735 167.714C165.084 168.04 163.389 168.117 161.713 167.942C159.392 167.707 157.147 167.007 155.122 165.888C154.406 165.513 153.728 165.077 153.094 164.584C153.094 164.584 153.269 164.695 153.601 164.93C154.094 165.263 154.603 165.572 155.128 165.855C157.159 166.929 159.394 167.595 161.699 167.811C165.365 168.17 169.049 167.315 172.143 165.386C174.073 164.205 175.728 162.651 177.004 160.822C178.465 158.79 179.276 156.389 179.336 153.917C179.352 152.598 179.058 151.292 178.478 150.097C178.163 149.49 177.77 148.925 177.308 148.414C176.821 147.905 176.274 147.452 175.679 147.065C174.446 146.264 172.979 145.866 171.494 145.93C170.743 145.991 170.009 146.185 169.331 146.504C168.643 146.839 168.015 147.28 167.472 147.808C166.361 148.919 165.523 150.256 165.018 151.72C164.467 153.222 164.181 154.802 164.173 156.395C164.167 159.831 165.27 163.184 167.33 165.988C169.389 168.792 172.302 170.908 175.665 172.043C179.253 173.271 183.116 173.551 186.853 172.851C190.72 172.1 194.323 170.41 197.324 167.942C200.427 165.42 202.939 162.291 204.693 158.762C206.434 155.225 207.53 151.424 207.931 147.528C208.346 143.749 208.242 139.935 207.62 136.183C207.083 132.55 205.723 129.075 203.638 126.005C201.602 123.085 198.636 120.884 195.188 119.733C193.53 119.202 191.775 119.017 190.037 119.192C188.362 119.396 186.749 119.938 185.305 120.783C183.89 121.592 182.688 122.708 181.797 124.043C180.948 125.351 180.481 126.855 180.445 128.398C180.416 129.888 180.728 131.366 181.357 132.727C181.95 134.045 182.768 135.257 183.777 136.313C185.701 138.303 188.176 139.719 190.909 140.395C193.247 141.009 195.699 141.109 198.082 140.687C200.465 140.265 202.72 139.332 204.679 137.956C206.296 136.834 207.844 135.624 209.317 134.331C210.669 133.151 211.946 132.075 213.143 131.182C214.922 129.723 216.993 128.631 219.227 127.974C219.612 127.883 219.95 127.785 220.248 127.733L221.005 127.648L221.606 127.622Z" fill="#FAFAFA"/>
<path d="M201.299 96.8282C201.299 96.8282 201.259 96.8868 201.178 96.9846L200.799 97.4215C200.454 97.7996 199.947 98.3604 199.251 99.0384C197.299 100.979 195.068 102.639 192.626 103.968C190.929 104.881 189.109 105.566 187.218 106.002C185.046 106.509 182.797 106.631 180.58 106.36C179.38 106.205 178.203 105.916 177.071 105.5C175.883 105.072 174.782 104.445 173.82 103.648C172.802 102.828 172.004 101.784 171.494 100.603C171.223 99.99 171.087 99.3293 171.094 98.6627C171.101 97.9961 171.251 97.3382 171.535 96.7304C172.155 95.5262 173.244 94.6074 174.563 94.1745C175.825 93.7179 177.216 93.7179 178.478 94.1745C179.676 94.6468 180.692 95.4672 181.384 96.5217C182.059 97.5137 182.457 98.6567 182.54 99.8404C182.579 100.929 182.389 102.014 181.979 103.03C181.57 104.045 180.952 104.97 180.161 105.748C178.805 107.118 177.08 108.096 175.179 108.571C173.637 108.969 172.039 109.124 170.447 109.027C169.242 108.964 168.048 108.778 166.884 108.473C166.148 108.282 165.428 108.04 164.728 107.749C164.491 107.651 164.309 107.573 164.194 107.514C164.129 107.488 164.068 107.456 164.011 107.417C164.079 107.432 164.144 107.453 164.207 107.482L164.755 107.69C165.462 107.949 166.184 108.167 166.918 108.342C168.078 108.622 169.265 108.788 170.46 108.838C172.037 108.918 173.618 108.748 175.138 108.336C176.987 107.859 178.662 106.898 179.978 105.558C180.732 104.803 181.321 103.91 181.71 102.931C182.099 101.952 182.28 100.908 182.243 99.86C182.158 98.7311 181.774 97.6421 181.127 96.6978C180.472 95.7044 179.513 94.932 178.383 94.4875C177.185 94.0549 175.865 94.0572 174.668 94.4938C173.472 94.9304 172.481 95.7717 171.88 96.8608C171.626 97.4303 171.495 98.0436 171.495 98.6635C171.495 99.2834 171.626 99.8968 171.88 100.466C172.371 101.594 173.133 102.593 174.104 103.381C175.987 104.855 178.271 105.776 180.681 106.034C182.862 106.31 185.077 106.202 187.218 105.715C189.084 105.299 190.883 104.641 192.565 103.759C194.998 102.453 197.234 100.832 199.21 98.9406C199.92 98.2886 200.441 97.741 200.799 97.3758L201.205 96.9586C201.245 96.8673 201.293 96.8216 201.299 96.8282Z" fill="#FAFAFA"/>
<path d="M241.792 146.25C241.774 146.151 241.763 146.051 241.758 145.95C241.758 145.742 241.724 145.455 241.697 145.083C241.65 144.301 241.582 143.179 241.494 141.738C241.278 138.843 240.98 134.638 240.142 129.507C240.034 128.855 239.919 128.203 239.804 127.551L239.365 125.51C239.101 124.115 238.655 122.706 238.276 121.226C237.331 118.096 236.091 115.056 234.572 112.144C231.381 106.002 226.176 100.173 219.788 95.2246C216.61 92.8876 213.237 90.8093 209.702 89.0111C207.971 88.183 206.281 87.3354 204.558 86.6508C202.834 85.9662 201.144 85.3077 199.488 84.6948C193.552 82.6471 187.413 81.1984 181.168 80.3721C176.957 79.7994 172.705 79.5509 168.452 79.6288C167.702 79.6288 167.033 79.6614 166.424 79.7005L164.964 79.7787L164.058 79.8244H163.754C163.754 79.8244 163.856 79.8244 164.058 79.7853L164.958 79.7135L166.424 79.5962C166.999 79.544 167.668 79.4984 168.452 79.4984C172.714 79.3737 176.978 79.5918 181.202 80.1504C187.478 80.9491 193.648 82.3872 199.609 84.4405C201.279 85.0534 202.989 85.6402 204.706 86.3965C206.423 87.1529 208.134 87.9222 209.878 88.7568C213.433 90.5589 216.825 92.6461 220.018 94.9964C226.446 99.9712 231.679 105.846 234.89 112.04C236.398 114.969 237.627 118.024 238.56 121.168C238.932 122.654 239.372 124.076 239.635 125.477C239.777 126.175 239.919 126.853 240.061 127.525C240.203 128.196 240.284 128.829 240.386 129.481C241.204 134.625 241.46 138.837 241.636 141.738C241.711 143.192 241.744 144.346 241.771 145.09C241.771 145.461 241.771 145.742 241.771 145.957C241.771 146.172 241.792 146.25 241.792 146.25Z" fill="black"/>
<path d="M245.888 146.25C245.89 147.033 245.65 147.799 245.2 148.451C244.749 149.103 244.108 149.611 243.358 149.912C242.608 150.212 241.783 150.291 240.986 150.138C240.189 149.986 239.458 149.609 238.883 149.055C238.309 148.501 237.918 147.795 237.76 147.027C237.602 146.259 237.684 145.462 237.995 144.739C238.307 144.016 238.834 143.397 239.509 142.963C240.185 142.529 240.98 142.298 241.792 142.299C242.878 142.299 243.92 142.715 244.688 143.456C245.457 144.197 245.888 145.202 245.888 146.25Z" fill="black"/>
<path d="M167.885 79.8242C167.885 80.6056 167.644 81.3695 167.194 82.0193C166.744 82.669 166.104 83.1755 165.356 83.4745C164.607 83.7736 163.783 83.8518 162.989 83.6994C162.194 83.5469 161.464 83.1706 160.891 82.618C160.318 82.0655 159.928 81.3614 159.77 80.595C159.612 79.8285 159.693 79.0341 160.003 78.3121C160.313 77.5902 160.838 76.9731 161.512 76.5389C162.186 76.1048 162.978 75.873 163.788 75.873C164.875 75.873 165.916 76.2893 166.685 77.0303C167.453 77.7713 167.885 78.7763 167.885 79.8242Z" fill="black"/>
<path d="M180.587 72.9063C180.587 72.9976 176.206 73.0759 170.798 73.0759C165.39 73.0759 161.003 72.9976 161.003 72.9063C161.003 72.8151 165.383 72.7368 170.798 72.7368C176.213 72.7368 180.587 72.8085 180.587 72.9063Z" fill="#263238"/>
<path d="M185.352 72.8738C184.834 73.0384 184.286 73.0961 183.744 73.0433C183.203 73.0966 182.657 73.0388 182.141 72.8738C182.657 72.7088 183.203 72.651 183.744 72.7043C184.286 72.6515 184.834 72.7092 185.352 72.8738Z" fill="#263238"/>
<path d="M166.053 79.8242C166.053 80.2768 165.913 80.7193 165.653 81.0956C165.392 81.4719 165.021 81.7653 164.588 81.9385C164.154 82.1117 163.677 82.157 163.217 82.0687C162.757 81.9804 162.334 81.7624 162.002 81.4424C161.67 81.1223 161.444 80.7146 161.353 80.2706C161.261 79.8267 161.308 79.3666 161.488 78.9484C161.667 78.5302 161.971 78.1728 162.362 77.9213C162.752 77.6699 163.211 77.5356 163.68 77.5356C164.309 77.5356 164.913 77.7768 165.358 78.2059C165.803 78.6351 166.053 79.2172 166.053 79.8242Z" fill="#F5F5F5"/>
<path d="M241.386 154.054C241.375 154.147 241.357 154.238 241.332 154.328L241.143 155.13C241.055 155.482 240.947 155.919 240.825 156.434C240.703 156.949 240.548 157.542 240.332 158.194C240.115 158.846 239.892 159.577 239.656 160.372C239.419 161.168 239.034 162.009 238.689 162.921C238.344 163.834 237.898 164.78 237.452 165.797C237.006 166.814 236.451 167.851 235.883 168.946C235.316 170.041 234.626 171.143 233.95 172.31C233.619 172.897 233.213 173.458 232.828 174.045C232.443 174.631 232.044 175.231 231.625 175.824L230.273 177.598C230.043 177.898 229.826 178.211 229.597 178.504L228.853 179.391C228.346 179.984 227.846 180.604 227.312 181.197L225.642 182.977C225.094 183.596 224.473 184.151 223.864 184.737C223.256 185.324 222.647 185.93 221.978 186.478L219.984 188.186L217.855 189.823C211.876 194.304 205.077 197.659 197.811 199.714L195.188 200.424L192.586 200.985C191.734 201.187 190.869 201.298 190.024 201.442C189.179 201.585 188.334 201.735 187.495 201.807L185.028 202.074C184.21 202.139 183.399 202.165 182.608 202.217L181.425 202.283C181.033 202.283 180.641 202.283 180.255 202.283H177.977C177.234 202.283 176.497 202.217 175.78 202.185C175.064 202.152 174.347 202.139 173.664 202.048C172.312 201.898 170.96 201.82 169.703 201.592C168.446 201.363 167.249 201.239 166.141 200.979C165.032 200.718 163.957 200.548 162.99 200.261C162.024 199.975 161.111 199.772 160.286 199.525L158.049 198.794C157.373 198.579 156.791 198.358 156.284 198.142L155.014 197.634L154.229 197.314L153.966 197.197C154.06 197.22 154.153 197.248 154.243 197.282L155.041 197.569L156.325 198.051C156.832 198.247 157.42 198.462 158.096 198.658L160.34 199.368C161.165 199.603 162.071 199.818 163.044 200.072C164.018 200.327 165.072 200.522 166.181 200.757C167.29 200.992 168.493 201.161 169.737 201.35C170.981 201.539 172.312 201.637 173.685 201.781C174.361 201.865 175.077 201.865 175.794 201.904C176.51 201.944 177.24 201.983 177.984 201.996H180.255C180.634 201.996 181.026 201.996 181.411 201.996L182.594 201.924C183.379 201.872 184.183 201.846 184.994 201.774L187.455 201.5C188.293 201.429 189.125 201.266 189.97 201.135C190.815 201.005 191.666 200.881 192.518 200.672L195.107 200.111L197.71 199.401C204.936 197.356 211.699 194.019 217.645 189.562L219.768 187.945C220.444 187.371 221.12 186.804 221.748 186.25C222.377 185.696 223.019 185.096 223.628 184.522C224.236 183.948 224.858 183.381 225.405 182.775L227.075 181.008C227.609 180.415 228.103 179.802 228.61 179.215L229.353 178.335C229.597 178.035 229.82 177.728 230.029 177.435L231.381 175.668C231.807 175.081 232.192 174.481 232.591 173.901C232.99 173.321 233.389 172.767 233.72 172.18C234.396 171.026 235.12 169.943 235.66 168.842C236.201 167.74 236.81 166.729 237.249 165.712C237.688 164.695 238.175 163.756 238.506 162.856C238.838 161.956 239.182 161.115 239.493 160.326C239.804 159.538 239.994 158.814 240.21 158.162C240.426 157.51 240.602 156.93 240.737 156.421C240.872 155.912 240.987 155.482 241.089 155.117L241.312 154.328C241.326 154.234 241.351 154.143 241.386 154.054Z" fill="#E0E0E0"/>
<path d="M269.258 249.129L273.32 274.863H296.899L302.375 249.501L269.258 249.129Z" fill="black"/>
<path d="M299.076 265.625C299.076 265.716 293.032 265.794 285.556 265.794C278.079 265.794 272.036 265.716 272.036 265.625C272.036 265.533 278.079 265.455 285.556 265.455C293.032 265.455 299.076 265.527 299.076 265.625Z" fill="#FAFAFA"/>
<path d="M299.171 264.353C299.171 264.451 293.087 264.529 285.583 264.529C278.079 264.529 271.995 264.451 271.995 264.353C271.995 264.255 278.079 264.184 285.583 264.184C293.087 264.184 299.171 264.262 299.171 264.353Z" fill="#FAFAFA"/>
<path d="M299.123 262.925C299.123 263.023 293.039 263.095 285.536 263.095C278.032 263.095 271.948 263.023 271.948 262.925C271.948 262.828 278.032 262.756 285.536 262.756C293.039 262.756 299.123 262.834 299.123 262.925Z" fill="#FAFAFA"/>
<path d="M276.024 273.396C275.66 272.337 275.406 271.245 275.267 270.136C275.011 269.056 274.872 267.952 274.855 266.844C275.473 268.973 275.865 271.158 276.024 273.364V273.396Z" fill="#FAFAFA"/>
<path d="M277.633 273.122C277.341 271.024 277.192 268.909 277.187 266.792C277.48 267.818 277.637 268.876 277.653 269.941C277.784 270.998 277.777 272.067 277.633 273.122Z" fill="#FAFAFA"/>
<path d="M280.54 273.116C279.94 270.993 279.674 268.795 279.749 266.596C279.999 267.669 280.164 268.759 280.243 269.856C280.434 270.933 280.533 272.024 280.54 273.116Z" fill="#FAFAFA"/>
<path d="M282.609 273.253C282.346 272.174 282.223 271.068 282.244 269.96C282.15 268.857 282.198 267.747 282.385 266.655C282.538 267.739 282.599 268.834 282.568 269.928C282.672 271.033 282.686 272.145 282.609 273.253Z" fill="#FAFAFA"/>
<path d="M286.239 273.123C286.03 272.092 285.935 271.043 285.955 269.993C285.857 268.948 285.88 267.897 286.022 266.857C286.23 267.888 286.326 268.937 286.306 269.987C286.404 271.031 286.381 272.083 286.239 273.123Z" fill="#FAFAFA"/>
<path d="M288.895 273.253C288.73 272.174 288.68 271.082 288.747 269.993C288.699 268.913 288.766 267.832 288.949 266.766C289.115 267.844 289.165 268.937 289.098 270.026C289.147 271.105 289.079 272.187 288.895 273.253Z" fill="#FAFAFA"/>
<path d="M291.356 272.914C291.346 270.653 291.573 268.396 292.032 266.179C292.099 267.309 292.045 268.443 291.87 269.563C291.812 270.693 291.639 271.815 291.356 272.914Z" fill="#FAFAFA"/>
<path d="M294.594 272.575C294.559 271.602 294.68 270.63 294.952 269.693C295.111 268.733 295.418 267.801 295.865 266.929C295.758 267.888 295.568 268.836 295.297 269.765C295.139 270.718 294.904 271.658 294.594 272.575Z" fill="#FAFAFA"/>
<path d="M292.323 198.358C292.292 198.526 292.246 198.692 292.187 198.853C292.079 199.205 291.931 199.668 291.748 200.242C291.566 200.816 291.309 201.585 291.072 202.446C290.835 203.307 290.511 204.285 290.227 205.38C289.943 206.475 289.612 207.668 289.314 208.966C289.017 210.263 288.713 211.646 288.409 213.106C287.848 216.04 287.334 219.281 286.969 222.704C286.604 226.127 286.462 229.413 286.414 232.392C286.414 233.885 286.414 235.3 286.455 236.63C286.496 237.96 286.55 239.186 286.617 240.314C286.685 241.442 286.773 242.459 286.84 243.352C286.908 244.246 286.989 245.015 287.063 245.641C287.138 246.267 287.178 246.73 287.212 247.088C287.227 247.258 287.227 247.428 287.212 247.597C287.163 247.435 287.131 247.269 287.117 247.101C287.063 246.736 286.989 246.26 286.901 245.661C286.813 245.061 286.705 244.265 286.617 243.372C286.529 242.479 286.408 241.462 286.34 240.334C286.272 239.206 286.171 237.967 286.137 236.637C286.103 235.307 286.07 233.885 286.063 232.392C286.097 229.4 286.245 226.114 286.59 222.671C286.935 219.228 287.483 215.988 288.064 213.047C288.382 211.587 288.666 210.192 289.004 208.901C289.342 207.61 289.646 206.41 289.963 205.321C290.281 204.232 290.592 203.254 290.863 202.394C291.133 201.533 291.383 200.796 291.606 200.203L292.106 198.834C292.164 198.67 292.237 198.51 292.323 198.358Z" fill="#455A64"/>
<path d="M288.064 214.293C288.715 212.441 290.009 210.863 291.728 209.826C291.998 209.621 292.315 209.482 292.654 209.422C292.992 209.362 293.34 209.382 293.668 209.481C294.493 209.865 294.56 210.98 294.344 211.835C293.919 213.275 292.971 214.52 291.674 215.342C290.522 216.161 289.082 216.51 287.665 216.314" fill="#455A64"/>
<path d="M286.624 225.051C287.232 222.827 289.071 219.672 290.977 218.296C291.272 218.066 291.609 217.893 291.971 217.787C292.152 217.739 292.343 217.734 292.527 217.772C292.711 217.811 292.882 217.892 293.026 218.009C293.19 218.216 293.297 218.459 293.339 218.717C293.38 218.974 293.354 219.237 293.262 219.483C292.872 221.103 292.021 222.586 290.806 223.767C289.59 224.947 288.058 225.778 286.381 226.166" fill="#455A64"/>
<path d="M286.239 234.518C287.187 232.399 288.701 230.561 290.626 229.191C290.833 229.01 291.076 228.872 291.339 228.782C291.602 228.693 291.882 228.654 292.16 228.669C292.992 228.813 293.37 229.797 293.296 230.625C293.147 232.301 291.822 233.644 290.45 234.687C289.194 235.525 287.831 236.203 286.394 236.702" fill="#455A64"/>
<path d="M286.462 241.331C287.378 239.714 288.652 238.312 290.193 237.224C290.525 236.983 290.908 236.818 291.315 236.741C291.52 236.706 291.73 236.724 291.925 236.796C292.119 236.867 292.289 236.988 292.417 237.145C292.789 237.674 292.417 238.391 292.032 238.906C290.715 240.677 288.846 241.997 286.698 242.674" fill="#455A64"/>
<path d="M286.272 238.56C284.66 236.659 282.872 234.902 280.932 233.312C280.628 233.064 280.256 232.803 279.864 232.927C279.722 232.984 279.6 233.08 279.514 233.202C279.427 233.325 279.38 233.47 279.377 233.618C279.374 233.916 279.444 234.211 279.58 234.479C280.22 235.847 281.17 237.059 282.362 238.025C283.553 238.991 284.954 239.687 286.462 240.06" fill="#455A64"/>
<path d="M286.441 229.706L282.244 224.77C281.876 224.277 281.418 223.852 280.892 223.518C280.621 223.361 280.311 223.278 279.996 223.278C279.68 223.278 279.371 223.361 279.1 223.518C278.857 223.712 278.674 223.966 278.573 224.254C278.471 224.542 278.455 224.852 278.526 225.148C278.675 225.739 278.954 226.293 279.343 226.772C280.159 227.987 281.197 229.05 282.406 229.908C283.636 230.723 284.758 231.257 286.239 231.042" fill="#455A64"/>
<path d="M287.03 219.724C286.205 217.361 284.748 215.251 282.805 213.608C282.501 213.311 282.12 213.097 281.703 212.989C281.275 212.957 280.848 213.07 280.497 213.308C280.146 213.545 279.891 213.894 279.776 214.293C279.644 214.741 279.61 215.21 279.677 215.672C279.743 216.133 279.908 216.576 280.161 216.972C280.676 217.763 281.346 218.447 282.135 218.987C283.551 220.028 285.127 220.848 286.807 221.419" fill="#455A64"/>
<path d="M288.706 210.837C288.3 207.975 286.752 205.621 284.968 203.28C284.589 202.791 284.062 202.276 283.44 202.368C283.242 202.407 283.058 202.495 282.905 202.621C282.751 202.747 282.633 202.909 282.561 203.091C282.424 203.456 282.367 203.845 282.392 204.232C282.47 205.966 283.076 207.64 284.134 209.044C285.191 210.449 286.655 211.521 288.341 212.128" fill="#455A64"/>
<path d="M289.882 206.299C289.685 204.831 289.633 203.349 289.727 201.872C289.824 200.388 290.351 198.96 291.248 197.751C291.634 197.231 292.163 196.825 292.776 196.578C293.082 196.46 293.414 196.42 293.741 196.463C294.068 196.505 294.378 196.628 294.641 196.819C294.865 197.019 295.039 197.266 295.15 197.54C295.262 197.815 295.307 198.11 295.284 198.403C295.235 198.992 295.074 199.566 294.81 200.099C293.695 202.707 291.829 205.569 289.882 206.299Z" fill="#455A64"/>
<path d="M271.59 209.709C271.62 209.826 271.631 209.947 271.624 210.068C271.624 210.341 271.624 210.687 271.624 211.111C271.624 212.011 271.657 213.315 271.745 214.918C271.833 216.522 271.982 218.439 272.239 220.558C272.496 222.677 272.915 224.979 273.401 227.385C273.888 229.791 274.551 232.053 275.179 234.094C275.808 236.135 276.477 237.941 277.072 239.447C277.667 240.953 278.181 242.159 278.553 242.981C278.722 243.372 278.857 243.685 278.972 243.939C279.023 244.05 279.064 244.166 279.093 244.285C279.016 244.189 278.953 244.083 278.904 243.972L278.431 243.039C278.019 242.224 277.471 241.031 276.842 239.531C276.214 238.032 275.538 236.226 274.868 234.185C274.199 232.144 273.591 229.869 273.057 227.456C272.523 225.044 272.171 222.716 271.914 220.591C271.657 218.465 271.536 216.548 271.495 214.931C271.455 213.315 271.441 212.011 271.495 211.104C271.495 210.687 271.536 210.341 271.542 210.068C271.55 209.947 271.566 209.827 271.59 209.709Z" fill="#263238"/>
<path d="M272.252 221.439C272.287 220.039 272.828 218.694 273.78 217.637C273.918 217.439 274.104 217.275 274.321 217.162C274.539 217.048 274.783 216.988 275.031 216.985C275.673 217.077 275.97 217.82 275.991 218.452C276.022 219.52 275.655 220.564 274.956 221.393C274.357 222.19 273.456 222.727 272.448 222.886" fill="#263238"/>
<path d="M273.679 229.06C273.597 227.424 274.138 224.887 275.132 223.557C275.28 223.339 275.47 223.151 275.693 223.003C275.806 222.932 275.936 222.889 276.07 222.878C276.204 222.867 276.34 222.887 276.464 222.938C276.621 223.045 276.748 223.188 276.833 223.354C276.918 223.52 276.958 223.705 276.95 223.89C277.049 225.074 276.802 226.262 276.239 227.318C275.675 228.374 274.816 229.258 273.76 229.869" fill="#263238"/>
<path d="M275.517 235.587C275.685 233.937 276.308 232.361 277.322 231.023C277.531 230.697 277.863 230.463 278.248 230.371C278.85 230.299 279.323 230.886 279.452 231.46C279.729 232.633 279.12 233.82 278.424 234.811C277.753 235.643 276.974 236.388 276.105 237.028" fill="#263238"/>
<path d="M277.16 240.177C277.426 238.887 277.982 237.67 278.789 236.61C278.966 236.373 279.197 236.179 279.465 236.043C279.596 235.978 279.743 235.947 279.891 235.955C280.038 235.963 280.181 236.009 280.303 236.089C280.682 236.376 280.594 236.936 280.439 237.393C279.939 238.874 278.96 240.163 277.647 241.07" fill="#263238"/>
<path d="M276.484 238.332C274.96 237.372 273.349 236.547 271.671 235.868C271.55 235.797 271.412 235.756 271.271 235.748C271.13 235.74 270.989 235.765 270.86 235.822C270.777 235.891 270.716 235.982 270.685 236.084C270.653 236.186 270.653 236.294 270.684 236.396C270.744 236.601 270.855 236.789 271.008 236.943C271.751 237.742 272.669 238.369 273.697 238.78C274.724 239.191 275.833 239.374 276.944 239.317" fill="#263238"/>
<path d="M274.584 232.268L270.63 229.778C270.265 229.521 269.855 229.328 269.42 229.21C269.201 229.157 268.972 229.162 268.756 229.225C268.541 229.289 268.347 229.407 268.196 229.569C268.078 229.753 268.016 229.965 268.016 230.182C268.016 230.398 268.078 230.611 268.196 230.795C268.432 231.166 268.745 231.486 269.116 231.734C269.945 232.387 270.888 232.895 271.901 233.233C272.353 233.419 272.839 233.515 273.33 233.515C273.822 233.515 274.308 233.419 274.76 233.233" fill="#263238"/>
<path d="M272.759 225.357C271.67 223.917 270.206 222.781 268.514 222.065C268.241 221.928 267.936 221.863 267.628 221.875C267.33 221.948 267.066 222.117 266.88 222.354C266.694 222.591 266.598 222.882 266.608 223.179C266.616 223.512 266.697 223.84 266.845 224.141C266.993 224.442 267.205 224.709 267.466 224.927C267.993 225.36 268.604 225.685 269.264 225.885C270.458 226.304 271.713 226.535 272.982 226.57" fill="#263238"/>
<path d="M271.914 218.954C271.002 217.09 269.42 215.786 267.682 214.579C267.521 214.428 267.321 214.32 267.103 214.267C266.884 214.214 266.655 214.219 266.439 214.279C266.317 214.346 266.213 214.44 266.138 214.553C266.062 214.667 266.017 214.797 266.006 214.931C265.989 215.21 266.037 215.489 266.148 215.746C266.587 216.91 267.372 217.924 268.405 218.66C269.438 219.396 270.672 219.823 271.955 219.887" fill="#263238"/>
<path d="M271.705 215.616C271.241 214.66 270.874 213.662 270.61 212.637C270.346 211.606 270.386 210.524 270.724 209.514C270.872 209.08 271.141 208.694 271.502 208.399C271.686 208.249 271.909 208.149 272.147 208.11C272.384 208.071 272.629 208.094 272.854 208.177C273.051 208.267 273.225 208.398 273.362 208.562C273.499 208.726 273.596 208.917 273.645 209.122C273.739 209.533 273.76 209.957 273.706 210.374C273.523 212.376 272.894 214.717 271.732 215.59" fill="#263238"/>
<path d="M301.408 209.455C301.439 209.574 301.453 209.697 301.449 209.82C301.449 210.094 301.449 210.439 301.496 210.856C301.537 211.756 301.543 213.067 301.496 214.684C301.449 216.301 301.313 218.217 301.077 220.343C300.84 222.469 300.448 224.79 299.934 227.209C299.421 229.627 298.792 231.89 298.116 233.937C297.44 235.984 296.764 237.784 296.149 239.284C295.534 240.783 294.973 241.976 294.56 242.791L294.087 243.724C294.038 243.835 293.975 243.941 293.898 244.037C293.923 243.917 293.964 243.801 294.019 243.691C294.128 243.437 294.27 243.124 294.439 242.733C294.81 241.911 295.317 240.698 295.912 239.192C296.507 237.686 297.163 235.88 297.805 233.846C298.447 231.812 299.056 229.543 299.59 227.137C300.124 224.731 300.475 222.416 300.752 220.304C301.03 218.191 301.172 216.281 301.246 214.671C301.32 213.06 301.368 211.756 301.368 210.856C301.368 210.422 301.368 210.076 301.368 209.82C301.37 209.697 301.383 209.575 301.408 209.455Z" fill="#455A64"/>
<path d="M300.752 221.191C300.727 219.792 300.197 218.445 299.252 217.383C299.117 217.183 298.933 217.018 298.716 216.904C298.499 216.79 298.255 216.731 298.008 216.731C297.366 216.822 297.068 217.566 297.048 218.198C297.018 219.277 297.398 220.33 298.116 221.158C298.717 221.953 299.617 222.49 300.624 222.651" fill="#455A64"/>
<path d="M299.326 228.806C299.407 227.17 298.86 224.64 297.873 223.31C297.723 223.093 297.533 222.905 297.312 222.756C297.198 222.685 297.069 222.642 296.935 222.63C296.8 222.619 296.665 222.64 296.541 222.69C296.384 222.798 296.257 222.941 296.17 223.107C296.084 223.273 296.042 223.457 296.047 223.642C295.954 224.827 296.203 226.013 296.767 227.069C297.332 228.125 298.19 229.008 299.245 229.621" fill="#455A64"/>
<path d="M297.481 235.372C297.312 233.723 296.691 232.148 295.682 230.808C295.474 230.482 295.142 230.248 294.756 230.156C294.155 230.084 293.681 230.671 293.546 231.245C293.276 232.412 293.877 233.605 294.581 234.596C295.25 235.429 296.029 236.175 296.899 236.813" fill="#455A64"/>
<path d="M295.811 239.936C295.548 238.643 294.992 237.423 294.182 236.363C294.005 236.128 293.773 235.936 293.506 235.802C293.375 235.735 293.228 235.704 293.08 235.712C292.932 235.72 292.79 235.767 292.667 235.848C292.296 236.135 292.377 236.695 292.539 237.152C293.039 238.632 294.014 239.92 295.324 240.829" fill="#455A64"/>
<path d="M296.554 238.084C298.077 237.121 299.688 236.296 301.368 235.619C301.489 235.549 301.626 235.508 301.767 235.5C301.909 235.492 302.05 235.517 302.179 235.574C302.262 235.643 302.323 235.734 302.354 235.836C302.385 235.938 302.385 236.046 302.355 236.148C302.29 236.351 302.177 236.536 302.023 236.689C301.285 237.491 300.368 238.121 299.342 238.532C298.315 238.943 297.205 239.124 296.095 239.062" fill="#455A64"/>
<path d="M298.413 232.014L302.375 229.504C302.736 229.24 303.147 229.048 303.585 228.937C303.803 228.882 304.033 228.886 304.249 228.949C304.465 229.013 304.659 229.132 304.808 229.295C304.926 229.479 304.989 229.692 304.989 229.908C304.989 230.124 304.926 230.337 304.808 230.521C304.575 230.892 304.261 231.21 303.889 231.453C303.063 232.112 302.119 232.62 301.104 232.953C300.651 233.14 300.163 233.237 299.671 233.237C299.178 233.237 298.691 233.14 298.238 232.953" fill="#455A64"/>
<path d="M300.245 225.103C301.339 223.678 302.8 222.554 304.484 221.843C304.758 221.703 305.067 221.638 305.376 221.654C305.675 221.726 305.939 221.895 306.125 222.132C306.31 222.369 306.406 222.661 306.397 222.958C306.385 223.291 306.302 223.618 306.154 223.918C306.005 224.219 305.793 224.487 305.532 224.705C305.006 225.135 304.397 225.461 303.74 225.663C302.544 226.068 301.29 226.288 300.022 226.315" fill="#455A64"/>
<path d="M301.09 218.7C302.003 216.835 303.585 215.538 305.322 214.332C305.484 214.18 305.684 214.072 305.902 214.019C306.12 213.965 306.349 213.967 306.566 214.025C306.687 214.092 306.789 214.187 306.865 214.3C306.94 214.414 306.986 214.543 306.999 214.677C307.012 214.955 306.964 215.233 306.857 215.492C306.417 216.657 305.631 217.671 304.597 218.408C303.563 219.144 302.327 219.57 301.043 219.632" fill="#455A64"/>
<path d="M301.3 215.368C301.761 214.41 302.127 213.413 302.395 212.389C302.66 211.357 302.618 210.275 302.273 209.266C302.134 208.83 301.867 208.442 301.503 208.151C301.319 208 301.097 207.899 300.859 207.859C300.621 207.819 300.377 207.841 300.151 207.923C299.954 208.015 299.781 208.148 299.645 208.313C299.508 208.478 299.411 208.669 299.36 208.874C299.264 209.285 299.246 209.709 299.306 210.126C299.488 212.121 300.117 214.469 301.28 215.342" fill="#455A64"/>
<path d="M266.554 244.037V248.848C266.553 249.097 266.603 249.344 266.701 249.574C266.799 249.804 266.943 250.013 267.125 250.19C267.307 250.366 267.524 250.506 267.762 250.601C268 250.697 268.256 250.746 268.514 250.746H302.665C303.187 250.746 303.688 250.546 304.056 250.19C304.425 249.834 304.633 249.352 304.633 248.848V244.037H266.554Z" fill="black"/>
<path d="M266.479 254.443H266.236C265.448 254.443 264.809 255.059 264.809 255.819V311.05C264.809 311.809 265.448 312.425 266.236 312.425H266.479C267.267 312.425 267.906 311.809 267.906 311.05V255.819C267.906 255.059 267.267 254.443 266.479 254.443Z" fill="#263238"/>
<path d="M304.754 254.443H304.511C303.723 254.443 303.085 255.059 303.085 255.819V311.05C303.085 311.809 303.723 312.425 304.511 312.425H304.754C305.542 312.425 306.181 311.809 306.181 311.05V255.819C306.181 255.059 305.542 254.443 304.754 254.443Z" fill="#263238"/>
<path d="M286.185 254.443H285.941C285.153 254.443 284.515 255.059 284.515 255.819V311.05C284.515 311.809 285.153 312.425 285.941 312.425H286.185C286.972 312.425 287.611 311.809 287.611 311.05V255.819C287.611 255.059 286.972 254.443 286.185 254.443Z" fill="#263238"/>
<path d="M303.186 274.27H268V275.457H303.186V274.27Z" fill="#263238"/>
<path opacity="0.4" d="M269.514 250.746L269.798 252.278L301.307 254.443L302.104 250.746H269.514Z" fill="black"/>
<path d="M164.944 136.77L135.369 182.632C129.86 180.389 122.234 174.932 118.597 170.896C107.991 159.192 109.255 143.394 111.946 128.066L164.944 136.77Z" fill="#263238"/>
<path d="M157.86 135.616L130.069 179.952C120.852 174.577 113.524 166.652 109.039 157.206C104.555 147.761 103.12 137.233 104.922 126.99L157.86 135.616Z" fill="#455A64"/>
<path d="M129.792 178.648C129.937 177.348 129.937 176.036 129.792 174.736C129.616 173.341 129.214 171.982 128.602 170.707C127.878 169.142 126.83 167.736 125.524 166.575C124.218 165.414 122.68 164.521 121.004 163.952C119.63 163.479 118.189 163.211 116.732 163.157C115.386 163.14 114.042 163.262 112.723 163.522C112.723 163.522 112.811 163.476 112.987 163.417C113.244 163.335 113.506 163.265 113.771 163.209C114.745 163 115.741 162.902 116.738 162.915C120.082 162.956 123.297 164.168 125.783 166.325C128.222 168.535 129.745 171.524 130.069 174.736C130.168 175.695 130.152 176.662 130.022 177.618C129.981 177.957 129.907 178.211 129.873 178.387C129.839 178.563 129.792 178.648 129.792 178.648Z" fill="#FAFAFA"/>
<path d="M110.965 128.666C111.101 128.764 111.226 128.875 111.337 128.999C111.678 129.335 111.986 129.702 112.257 130.094C113.243 131.566 113.793 133.271 113.845 135.023C113.888 136.233 113.698 137.44 113.284 138.583C112.803 139.901 112.001 141.089 110.945 142.045C110.359 142.577 109.623 142.929 108.829 143.056C108.4 143.107 107.965 143.049 107.567 142.888C107.168 142.727 106.82 142.468 106.558 142.136C106.286 141.778 106.171 141.33 106.24 140.891C106.329 140.451 106.567 140.052 106.916 139.757C107.265 139.475 107.676 139.275 108.118 139.17C108.559 139.065 109.02 139.058 109.465 139.15C111.171 139.474 112.708 140.356 113.818 141.647C114.853 142.823 115.57 144.228 115.907 145.735C116.221 147.098 116.21 148.512 115.873 149.869C115.593 151.044 115.116 152.167 114.46 153.194C113.517 154.679 112.295 155.981 110.857 157.035C110.471 157.323 110.067 157.588 109.647 157.83C109.508 157.923 109.358 158.002 109.201 158.065C109.33 157.956 109.468 157.858 109.613 157.771C109.884 157.589 110.289 157.315 110.769 156.93C112.156 155.852 113.332 154.545 114.244 153.07C114.876 152.062 115.332 150.961 115.596 149.81C115.911 148.495 115.911 147.129 115.596 145.814C115.262 144.369 114.566 143.026 113.568 141.902C112.509 140.677 111.046 139.839 109.424 139.528C109.033 139.442 108.626 139.445 108.235 139.535C107.845 139.626 107.481 139.802 107.173 140.05C106.884 140.291 106.688 140.62 106.619 140.982C106.589 141.157 106.597 141.335 106.641 141.507C106.685 141.678 106.765 141.839 106.876 141.98C107.1 142.265 107.397 142.488 107.739 142.628C108.081 142.768 108.454 142.818 108.822 142.775C109.551 142.661 110.226 142.338 110.763 141.849C111.788 140.934 112.57 139.793 113.041 138.524C113.457 137.417 113.656 136.246 113.629 135.069C113.598 133.352 113.096 131.674 112.175 130.205C111.466 129.142 110.925 128.699 110.965 128.666Z" fill="#FAFAFA"/>
<path d="M134.389 131.352C133.57 131.788 132.815 132.328 132.144 132.956C130.363 134.734 129.265 137.046 129.035 139.509C128.864 141.197 128.957 142.9 129.312 144.562C129.63 146.48 130.372 148.31 131.489 149.928C132.101 150.781 132.923 151.476 133.882 151.949C134.883 152.426 136.025 152.553 137.113 152.307C138.244 152.062 139.27 151.489 140.054 150.664C140.448 150.245 140.766 149.765 140.993 149.243C141.202 148.71 141.3 148.143 141.284 147.574C141.171 146.451 140.664 145.398 139.846 144.591C139.029 143.784 137.95 143.269 136.789 143.134C135.676 143.054 134.575 143.396 133.72 144.086C132.892 144.749 132.235 145.588 131.8 146.537C131.372 147.442 131.105 148.409 131.009 149.399C130.89 150.33 130.89 151.272 131.009 152.203C131.247 153.882 131.821 155.501 132.699 156.969C133.422 158.183 134.334 159.282 135.403 160.229C136.211 160.942 137.108 161.555 138.073 162.055C138.912 162.455 139.779 162.797 140.669 163.078L140.486 163.046L139.959 162.909C139.672 162.843 139.392 162.753 139.121 162.642C138.741 162.508 138.371 162.351 138.012 162.172C137.022 161.686 136.1 161.082 135.268 160.373C134.174 159.43 133.237 158.33 132.489 157.113C131.579 155.624 130.98 153.979 130.725 152.268C130.603 151.313 130.603 150.348 130.725 149.393C130.819 148.369 131.094 147.368 131.536 146.433C131.986 145.42 132.682 144.525 133.564 143.825C134.485 143.079 135.671 142.71 136.87 142.795C137.48 142.844 138.075 143.008 138.621 143.277C139.176 143.538 139.682 143.888 140.115 144.314C141.042 145.174 141.603 146.336 141.69 147.574C141.707 148.192 141.599 148.808 141.372 149.386C141.13 149.945 140.789 150.459 140.365 150.906C139.53 151.777 138.441 152.384 137.242 152.646C136.078 152.905 134.857 152.766 133.787 152.255C132.783 151.753 131.922 151.021 131.279 150.123C130.142 148.466 129.39 146.591 129.075 144.627C128.731 142.937 128.654 141.207 128.846 139.496C129.098 136.991 130.251 134.65 132.104 132.878C132.609 132.406 133.175 131.999 133.787 131.665C133.944 131.577 134.107 131.499 134.274 131.43C134.31 131.401 134.348 131.375 134.389 131.352Z" fill="#FAFAFA"/>
<path d="M137.228 179.828C136.668 178.627 136.215 177.382 135.876 176.106C135.423 174.861 135.084 173.58 134.862 172.278C135.422 173.482 135.874 174.73 136.214 176.008C136.667 177.25 137.006 178.529 137.228 179.828Z" fill="#455A64"/>
<path d="M140.75 174.475C140.187 173.273 139.734 172.025 139.398 170.746C138.945 169.504 138.605 168.225 138.384 166.925C138.941 168.128 139.393 169.373 139.736 170.648C140.181 171.895 140.52 173.175 140.75 174.475Z" fill="#455A64"/>
<path d="M144.191 168.953C143.617 167.712 143.151 166.428 142.798 165.113C142.336 163.828 141.986 162.509 141.75 161.168C142.321 162.411 142.784 163.698 143.136 165.015C143.602 166.297 143.955 167.614 144.191 168.953Z" fill="#455A64"/>
<path d="M147.672 163.554C147.095 162.31 146.627 161.021 146.273 159.701C145.807 158.412 145.455 157.088 145.218 155.743C145.793 156.99 146.259 158.281 146.611 159.603C147.072 160.891 147.427 162.212 147.672 163.554Z" fill="#455A64"/>
<path d="M151.228 158.436C150.664 157.236 150.212 155.991 149.876 154.713C149.423 153.469 149.084 152.188 148.862 150.886C149.418 152.091 149.87 153.339 150.214 154.616C150.66 155.86 150.999 157.138 151.228 158.436Z" fill="#455A64"/>
<path d="M154.628 152.764C154.044 151.483 153.567 150.16 153.202 148.806C152.728 147.481 152.359 146.123 152.1 144.744C152.691 146.022 153.168 147.346 153.526 148.702C154.009 150.024 154.378 151.383 154.628 152.764Z" fill="#455A64"/>
<path d="M158.11 147.352C157.518 146.055 157.036 144.714 156.67 143.342C156.191 142.003 155.821 140.63 155.561 139.235C156.156 140.531 156.639 141.872 157.008 143.245C157.489 144.583 157.858 145.957 158.11 147.352Z" fill="#455A64"/>
<path d="M161.564 141.973C161.081 141.019 160.705 140.018 160.442 138.987C160.07 137.991 159.809 136.959 159.664 135.91C160.139 136.864 160.513 137.862 160.78 138.889C161.152 139.888 161.415 140.922 161.564 141.973Z" fill="#455A64"/>
<path d="M57.291 125.484C53.5865 127.068 38.1332 146.172 37.011 158.579C36.1998 167.825 54.8506 166.821 54.8506 166.821C54.8506 166.821 56.1215 128.874 55.5672 129.409" fill="black"/>
<path d="M53.7488 151.179C53.7488 151.179 53.6879 151.284 53.5527 151.46C53.4175 151.636 53.2215 151.877 52.9714 152.17C52.4644 152.77 51.741 153.572 50.9434 154.446C50.1457 155.319 49.3683 156.089 48.8072 156.63C48.5233 156.904 48.2867 157.119 48.1312 157.282C48.0512 157.362 47.9628 157.434 47.8676 157.497C47.9327 157.405 48.0075 157.32 48.0906 157.243L48.7666 156.591L50.8758 154.381L52.9443 152.138L53.5662 151.453C53.6195 151.357 53.6805 151.266 53.7488 151.179Z" fill="#263238"/>
<path d="M53.1268 148.343C52.895 148.416 52.669 148.506 52.4508 148.611C51.8806 148.913 51.3794 149.323 50.9772 149.817C50.4431 150.423 49.9632 151.258 49.348 152.138C48.6882 153.11 47.7895 153.909 46.7319 154.466C45.6732 155.018 44.4881 155.307 43.2843 155.307C42.3021 155.299 41.3325 155.092 40.4383 154.7C39.8355 154.446 39.2733 154.11 38.7686 153.703C38.5837 153.554 38.4119 153.39 38.2548 153.214C38.2548 153.214 38.4441 153.383 38.8024 153.657C39.3133 154.049 39.8774 154.371 40.4789 154.615C41.3655 154.983 42.3193 155.176 43.2843 155.183C44.4658 155.177 45.6272 154.888 46.6643 154.342C47.7031 153.798 48.5876 153.017 49.2398 152.066C49.7509 151.27 50.3037 150.5 50.896 149.758C51.3131 149.262 51.8336 148.855 52.4238 148.565C52.6442 148.455 52.8816 148.38 53.1268 148.343Z" fill="white"/>
<path d="M43.771 165.608C43.6647 165.578 43.5608 165.541 43.46 165.497C43.1689 165.37 42.8981 165.203 42.6556 165.002C41.7814 164.232 41.2326 163.178 41.1143 162.042C41.0031 160.367 41.2564 158.688 41.8579 157.113C42.5907 155.192 43.5526 153.361 44.7242 151.655C47.1442 147.991 49.5914 144.842 50.9231 142.299C51.2814 141.68 51.5315 141.086 51.7884 140.578C52.0452 140.069 52.1737 139.6 52.3156 139.228C52.4576 138.856 52.4982 138.576 52.5658 138.341C52.6334 138.107 52.6672 138.042 52.6672 138.042C52.6672 138.042 52.6672 138.146 52.5928 138.348C52.5184 138.55 52.4576 138.889 52.363 139.241C52.2683 139.593 52.0655 140.076 51.856 140.604C51.6464 141.132 51.3692 141.719 51.011 142.345C49.6928 144.907 47.2592 148.076 44.8458 151.727C43.6788 153.424 42.7172 155.244 41.9796 157.152C41.3812 158.716 41.1279 160.384 41.236 162.048C41.3378 163.169 41.865 164.214 42.7164 164.982C43.0334 165.241 43.3889 165.452 43.771 165.608Z" fill="white"/>
<path d="M54.249 160.621C54.1781 160.771 54.0796 160.908 53.9583 161.025C53.6151 161.347 53.1913 161.579 52.728 161.696C52.0582 161.879 51.3608 161.95 50.6662 161.905C49.8298 161.846 48.989 161.892 48.165 162.042C46.6711 162.358 45.3085 163.095 44.251 164.161C43.9328 164.485 43.6434 164.834 43.3857 165.204C43.3006 165.346 43.2081 165.483 43.1085 165.615C43.3742 165.055 43.7352 164.541 44.1766 164.096C45.2311 162.99 46.6151 162.227 48.138 161.912C48.9729 161.757 49.8257 161.713 50.673 161.781C51.3544 161.83 52.0395 161.77 52.701 161.605C53.1463 161.484 53.5545 161.26 53.8907 160.953C54.0158 160.848 54.1354 160.737 54.249 160.621Z" fill="white"/>
<g opacity="0.3">
<path d="M54.8777 166.821C51.9844 158.612 49.6049 150.064 52.8091 141.888C53.8569 152.02 55.094 161.253 54.8777 166.821Z" fill="black"/>
</g>
<path d="M82.0394 154.303L42.588 188.767C40.56 186.609 37.8966 184.888 36.7541 182.15C35.6117 179.411 33.7256 177.116 32.5562 174.436L82.0394 154.303Z" fill="#263238"/>
<path d="M78.5512 150.325L38.7618 185.103C36.7366 182.947 34.9027 180.631 33.2795 178.179C31.6518 175.727 30.2429 173.147 29.068 170.465L78.5512 150.325Z" fill="#455A64"/>
<path d="M73.684 293.987L73.008 305.651C73.008 305.651 85.0678 310.215 85.176 312.419L61.6782 311.937L61.9824 293.72L73.684 293.987Z" fill="black"/>
<path d="M65.7275 304.523C65.5019 304.587 65.3085 304.729 65.1839 304.921C65.0593 305.113 65.0122 305.343 65.0515 305.567C65.1108 305.785 65.254 305.975 65.4523 306.096C65.6505 306.217 65.889 306.261 66.1196 306.219C66.3605 306.153 66.5673 306.003 66.6998 305.798C66.8323 305.593 66.8809 305.348 66.8361 305.11C66.7559 304.884 66.5871 304.698 66.366 304.59C66.1448 304.483 65.8889 304.464 65.6531 304.536" fill="#E0E0E0"/>
<path d="M61.6242 311.937V310.124L84.189 311.245C84.189 311.245 85.2233 311.708 85.0949 312.419L61.6242 311.937Z" fill="#E0E0E0"/>
<path d="M73.3528 305.547C73.3528 305.658 72.7714 305.697 72.1968 306.042C71.6222 306.388 71.318 306.844 71.2098 306.799C71.1017 306.753 71.291 306.114 71.994 305.71C72.697 305.306 73.3798 305.443 73.3528 305.547Z" fill="#263238"/>
<path d="M75.7931 306.577C75.7931 306.688 75.3199 306.864 74.9211 307.327C74.5222 307.79 74.3938 308.279 74.2451 308.272C74.0964 308.266 74.0761 307.62 74.5831 307.072C75.0901 306.525 75.7931 306.473 75.7931 306.577Z" fill="#263238"/>
<path d="M77.1316 309.452C77.0302 309.452 76.8815 308.918 77.1857 308.318C77.4899 307.718 78.0374 307.49 78.0848 307.581C78.1321 307.672 77.7941 307.992 77.544 308.487C77.2938 308.983 77.2465 309.446 77.1316 309.452Z" fill="#263238"/>
<path d="M73.204 302.874C73.1567 302.972 72.6294 302.809 71.9805 302.835C71.3315 302.861 70.8245 303.05 70.7637 302.959C70.7028 302.867 71.2031 302.476 71.967 302.45C72.7308 302.424 73.2649 302.783 73.204 302.874Z" fill="#263238"/>
<path d="M73.2987 300.513C72.9137 300.615 72.5075 300.615 72.1224 300.513C71.6999 300.431 71.2891 300.299 70.8989 300.122C70.6651 300.018 70.4393 299.898 70.2229 299.764C70.0949 299.689 69.9788 299.597 69.8781 299.49C69.8025 299.41 69.7573 299.308 69.75 299.2C69.7426 299.092 69.7735 298.985 69.8376 298.897C69.8967 298.821 69.9733 298.76 70.0614 298.718C70.1494 298.676 70.2464 298.655 70.3446 298.655C70.4934 298.657 70.6413 298.679 70.784 298.72C71.0326 298.787 71.2747 298.874 71.5073 298.981C71.9026 299.161 72.2655 299.401 72.5821 299.692C73.1162 300.187 73.2919 300.605 73.2581 300.624C73.2243 300.644 72.9472 300.311 72.3996 299.894C71.8986 299.51 71.3176 299.234 70.6961 299.086C70.446 299.02 70.2364 299.014 70.1688 299.118C70.1012 299.223 70.1688 299.177 70.1688 299.249C70.2463 299.325 70.3324 299.393 70.4257 299.451C70.6352 299.581 70.838 299.698 71.0408 299.803C71.4027 299.983 71.7805 300.131 72.1698 300.246C72.552 300.31 72.9292 300.399 73.2987 300.513Z" fill="#263238"/>
<path d="M73.1432 300.67C72.9287 300.341 72.8291 299.955 72.8593 299.568C72.8461 299.147 72.9102 298.728 73.0486 298.329C73.1288 298.091 73.2353 297.861 73.3663 297.645C73.4312 297.496 73.5353 297.367 73.6681 297.27C73.801 297.173 73.958 297.111 74.1234 297.09C74.2286 297.093 74.3307 297.125 74.4172 297.183C74.5036 297.241 74.5707 297.322 74.6101 297.416C74.6671 297.55 74.7057 297.69 74.725 297.834C74.766 298.086 74.766 298.344 74.725 298.596C74.6536 299.02 74.4722 299.419 74.1978 299.757C73.7246 300.337 73.2446 300.461 73.2378 300.409C73.2311 300.357 73.6029 300.148 73.9679 299.587C74.1765 299.267 74.3103 298.907 74.36 298.531C74.393 298.315 74.393 298.095 74.36 297.879C74.36 297.638 74.2383 297.442 74.1504 297.468C74.0626 297.495 73.826 297.638 73.7246 297.827C73.6068 298.023 73.5051 298.228 73.4204 298.44C73.2801 298.802 73.1959 299.182 73.1702 299.568C73.0959 300.239 73.2108 300.657 73.1432 300.67Z" fill="#263238"/>
<path d="M90.3339 294.9L88.0828 306.375C88.0828 306.375 99.4261 312.439 99.2233 314.597L75.9892 311.193L78.7337 293.166L90.3339 294.9Z" fill="black"/>
<path d="M81.0524 304.354C80.8184 304.386 80.6048 304.5 80.4526 304.675C80.3004 304.849 80.2203 305.072 80.2277 305.299C80.2517 305.527 80.3655 305.736 80.5456 305.884C80.7257 306.032 80.958 306.108 81.1944 306.095C81.4427 306.06 81.6687 305.937 81.8285 305.75C81.9883 305.563 82.0707 305.326 82.0596 305.084C82.0074 304.851 81.8636 304.646 81.6582 304.512C81.4529 304.378 81.2019 304.326 80.9578 304.367" fill="#E0E0E0"/>
<path d="M75.9892 311.193L76.2596 309.4L98.4864 313.312C98.4864 313.312 99.4531 313.899 99.2233 314.584L75.9892 311.193Z" fill="#E0E0E0"/>
<path d="M88.4749 306.316C88.4749 306.427 87.88 306.395 87.2648 306.662C86.6497 306.929 86.2846 307.353 86.1832 307.314C86.0818 307.275 86.359 306.662 87.1026 306.329C87.8462 305.997 88.5154 306.225 88.4749 306.316Z" fill="#263238"/>
<path d="M90.7598 307.646C90.7598 307.757 90.246 307.875 89.7931 308.298C89.3402 308.722 89.1171 309.179 89.0292 309.159C88.9413 309.139 88.9413 308.507 89.5227 308.011C90.104 307.516 90.7733 307.542 90.7598 307.646Z" fill="#263238"/>
<path d="M91.6994 310.665C91.5912 310.665 91.5236 310.104 91.909 309.544C92.2943 308.983 92.8621 308.826 92.8959 308.931C92.9297 309.035 92.5512 309.296 92.2199 309.759C91.8887 310.222 91.8143 310.671 91.6994 310.665Z" fill="#263238"/>
<path d="M88.6912 303.65C88.6236 303.741 88.1301 303.513 87.4812 303.46C86.8322 303.408 86.3049 303.532 86.2576 303.428C86.2103 303.324 86.7578 303.004 87.515 303.076C88.2721 303.148 88.7588 303.571 88.6912 303.65Z" fill="#263238"/>
<path d="M89.0968 301.322C88.6998 301.369 88.297 301.308 87.9341 301.146C87.5264 301.012 87.1362 300.832 86.7714 300.611C86.5578 300.478 86.3545 300.329 86.163 300.168C86.0429 300.08 85.9379 299.974 85.852 299.855C85.7891 299.766 85.7589 299.659 85.7663 299.551C85.7736 299.444 85.8181 299.342 85.8926 299.262C85.9605 299.193 86.0445 299.142 86.1374 299.111C86.2303 299.08 86.3295 299.072 86.4266 299.086C86.5744 299.105 86.718 299.147 86.8525 299.209C87.0884 299.304 87.3147 299.42 87.5285 299.555C87.8931 299.784 88.2192 300.065 88.4952 300.39C88.9548 300.95 89.0765 301.387 89.0292 301.4C88.9819 301.413 88.7656 301.048 88.2788 300.572C87.9997 300.292 87.6811 300.05 87.3324 299.855C87.1282 299.741 86.9158 299.64 86.697 299.555C86.4604 299.457 86.2508 299.425 86.1697 299.522C86.0886 299.62 86.1697 299.575 86.1697 299.653C86.2335 299.74 86.3111 299.817 86.3996 299.881C86.5751 300.038 86.7627 300.182 86.9606 300.311C87.2917 300.537 87.6449 300.732 88.0152 300.892C88.3857 301.01 88.7472 301.154 89.0968 301.322Z" fill="#263238"/>
<path d="M88.9278 301.459C88.7533 301.108 88.7057 300.711 88.7926 300.331C88.8345 299.912 88.9535 299.503 89.1441 299.125C89.252 298.894 89.3857 298.675 89.543 298.473C89.6291 298.334 89.7509 298.219 89.8966 298.139C90.0422 298.059 90.2068 298.017 90.3744 298.016C90.4783 298.033 90.5749 298.078 90.6529 298.146C90.7308 298.214 90.7867 298.303 90.8138 298.401C90.8536 298.541 90.8718 298.686 90.8679 298.831C90.8683 299.087 90.8296 299.342 90.753 299.587C90.6211 299.995 90.3892 300.367 90.077 300.67C89.5294 301.185 89.036 301.244 89.036 301.211C89.036 301.178 89.4348 300.996 89.8674 300.487C90.1184 300.196 90.3007 299.856 90.4015 299.49C90.4592 299.277 90.4865 299.058 90.4826 298.838C90.4826 298.59 90.4218 298.388 90.3271 298.394C90.2325 298.401 89.9891 298.531 89.8607 298.707C89.7168 298.884 89.5879 299.071 89.4754 299.268C89.2893 299.611 89.155 299.977 89.0765 300.357C88.9346 301.022 88.9886 301.452 88.9278 301.459Z" fill="#263238"/>
<path d="M66.6063 94.6446L66.5116 124.943L79.9911 125.595L80.3764 118.227C80.3764 118.227 85.1625 119.147 86.3996 114.857C87.1905 112.118 86.9944 90.9478 86.9944 90.9478L66.6063 94.6446Z" fill="#B78876"/>
<path d="M53.404 188.428L53.3364 191.577C53.2483 195.736 53.7625 199.886 54.8642 203.907L56.3514 209.331L59.9882 300.253L77.4088 301.231L76.584 191.623L53.404 188.428Z" fill="#263238"/>
<path d="M59.488 189.843V193.703C59.4929 196.113 60.1638 198.478 61.4316 200.555C62.6994 202.631 64.5183 204.344 66.7009 205.517L80.6468 242.544L74.2856 299.086L92.1861 300.781L101.319 242.544C100.4 239.708 90.1852 189.85 90.1852 189.85L59.488 189.843Z" fill="#263238"/>
<path d="M90.2663 241.377C88.7353 241.828 87.1717 242.168 85.5884 242.394C84.0298 242.723 82.4482 242.941 80.8564 243.046C82.3878 242.599 83.9513 242.261 85.5343 242.035C87.0931 241.706 88.6745 241.486 90.2663 241.377Z" fill="#455A64"/>
<path d="M90.273 246C89.7899 245.937 89.3158 245.821 88.8602 245.654L85.4802 244.702C83.8723 244.312 82.3095 243.766 80.8158 243.072C81.2982 243.139 81.7718 243.254 82.2286 243.418L85.6086 244.376C87.2157 244.766 88.7783 245.31 90.273 246Z" fill="#455A64"/>
<path d="M74.2856 299.079C74.2767 298.981 74.2767 298.883 74.2856 298.786C74.2856 298.584 74.333 298.303 74.3668 297.938C74.4479 297.182 74.5628 296.086 74.7115 294.678C75.036 291.835 75.4957 287.741 76.0635 282.688C77.233 272.549 78.8554 258.564 80.6468 243.053V243.131L80.3832 242.427C77.6318 234.994 75.009 227.92 72.6227 221.485C71.4397 218.27 70.304 215.206 69.2427 212.357C68.3817 209.68 67.1781 207.117 65.6599 204.728C64.1524 202.603 62.4894 200.888 61.2794 199.186C60.1814 197.742 59.4582 196.065 59.1703 194.296C58.9789 193.198 58.9109 192.083 58.9675 190.971C58.9826 190.584 59.0209 190.199 59.0824 189.817C59.0884 189.915 59.0884 190.013 59.0824 190.11C59.0824 190.306 59.0689 190.593 59.0418 190.971C59.0181 192.079 59.1087 193.186 59.3122 194.277C59.6281 195.999 60.3574 197.627 61.4416 199.03C62.6584 200.712 64.3349 202.407 65.8694 204.552C67.433 206.949 68.6755 209.528 69.5672 212.226C70.6285 215.082 71.7709 218.14 72.9472 221.354C75.3334 227.789 77.9698 234.857 80.7279 242.283L80.9916 242.987V243.027V243.066C79.1596 258.564 77.5034 272.556 76.3001 282.694C75.685 287.741 75.1847 291.822 74.84 294.672C74.6642 296.067 74.5222 297.162 74.4276 297.932L74.3127 298.773C74.3099 298.875 74.3009 298.978 74.2856 299.079Z" fill="#455A64"/>
<path opacity="0.4" d="M75.9892 306.877L75.0022 310.789L75.9892 310.841L76.6043 307.144L75.9892 306.877Z" fill="black"/>
<path d="M52.5725 189.843H90.2325L88.7115 159.238C88.4614 153.227 88.4952 152.51 88.3464 146.954C88.3464 146.954 94.2074 153.794 98.8109 158.586C100.171 159.996 101.961 160.951 103.921 161.313C105.882 161.675 107.911 161.426 109.715 160.601L133.848 144.373L129.995 134.853L107.416 146.172C106.416 145.566 97.878 133.83 91.9833 128.092C88.2129 124.436 83.1316 122.315 77.7873 122.165C73.3414 122.06 68.893 122.232 64.4701 122.681C61.2471 123.011 58.2441 124.414 55.9777 126.649C53.7112 128.883 52.3231 131.81 52.052 134.925C51.6261 139.841 53.9989 155.274 53.9989 155.274L54.898 166.821L52.5725 189.843Z" fill="black"/>
<path d="M53.5122 128.725L53.4513 129.109L53.2688 130.205C53.1566 130.783 53.0754 131.366 53.0254 131.952C52.9646 132.637 52.8429 133.412 52.8226 134.28C52.6333 138.782 52.8277 143.292 53.404 147.763C53.9921 153.018 54.6816 157.758 54.8777 161.22C55.0336 163.084 55.0336 164.957 54.8777 166.821C54.8777 166.821 54.8777 166.684 54.8777 166.43C54.8777 166.175 54.8777 165.778 54.9182 165.315C54.9182 164.35 54.9182 162.948 54.7898 161.227C54.5667 157.771 53.8637 153.031 53.2756 147.783C52.6976 143.302 52.5144 138.783 52.728 134.273C52.728 133.406 52.8835 132.63 52.9511 131.945C53.0187 131.261 53.1268 130.641 53.2215 130.198C53.3161 129.755 53.404 129.39 53.404 129.096C53.404 128.803 53.5122 128.725 53.5122 128.725Z" fill="#263238"/>
<path d="M106.497 149.96C106.5 149.775 106.528 149.591 106.578 149.412C106.646 149.08 106.747 148.617 106.869 148.108C106.991 147.6 107.112 147.137 107.207 146.804C107.247 146.623 107.306 146.446 107.383 146.276C107.38 146.462 107.353 146.646 107.301 146.824C107.234 147.163 107.132 147.626 107.011 148.128C106.889 148.63 106.767 149.093 106.673 149.432C106.633 149.613 106.574 149.79 106.497 149.96Z" fill="#263238"/>
<path d="M108.694 150.253C108.454 149.572 108.265 148.874 108.126 148.167C107.939 147.467 107.794 146.758 107.694 146.042C107.929 146.727 108.119 147.426 108.261 148.134C108.449 148.832 108.594 149.539 108.694 150.253Z" fill="#263238"/>
<path d="M89.3604 147.946C89.3604 147.946 89.2793 147.88 89.1374 147.744L88.5019 147.157C87.9611 146.642 87.1499 145.892 86.2373 144.94C85.1334 143.821 84.1038 142.637 83.1548 141.393C81.9892 139.869 81.0474 138.197 80.3561 136.425C79.657 134.649 79.3418 132.754 79.43 130.857C79.4564 129.304 79.8107 127.774 80.471 126.358C80.938 125.411 81.6334 124.586 82.499 123.952C82.7304 123.779 82.9744 123.622 83.2291 123.483C83.3167 123.432 83.4069 123.387 83.4995 123.346C83.4995 123.346 83.1277 123.541 82.5261 123.998C81.6851 124.643 81.0097 125.466 80.5522 126.404C79.9163 127.812 79.5763 129.328 79.5517 130.863C79.4699 132.746 79.785 134.624 80.4778 136.386C81.9244 140.167 84.4865 142.951 86.3049 144.862C87.231 145.827 88.0017 146.583 88.5357 147.111L89.1509 147.717L89.3604 147.946Z" fill="#263238"/>
<path d="M94.0384 130.4L93.6936 130.693C93.3489 130.961 92.9775 131.194 92.585 131.391C91.1192 132.109 89.4967 132.477 87.853 132.467C85.443 132.403 83.0521 132.035 80.7414 131.371C79.3729 131.022 77.9849 130.747 76.584 130.55C75.0815 130.331 73.5523 130.347 72.0548 130.596C71.3019 130.725 70.5684 130.944 69.8714 131.248C69.2035 131.573 68.5578 131.939 67.938 132.343C67.3359 132.735 66.7004 133.078 66.0384 133.367C65.3985 133.637 64.709 133.781 64.0104 133.79C62.7113 133.744 61.4382 133.426 60.2789 132.858C59.1838 132.369 58.2036 131.841 57.264 131.456C55.795 130.768 54.1309 130.568 52.532 130.889C52.1038 130.981 51.6932 131.137 51.3152 131.352C51.0515 131.502 50.9366 131.606 50.9298 131.6C51.0407 131.497 51.1631 131.408 51.2949 131.332C51.6718 131.103 52.0851 130.936 52.5184 130.837C54.1129 130.503 55.7771 130.689 57.2504 131.365C58.2036 131.75 59.1906 132.271 60.2857 132.76C61.4469 133.318 62.7203 133.625 64.0172 133.66C66.8496 133.738 68.8506 130.85 72.0616 130.439C73.5749 130.19 75.1198 130.174 76.6381 130.393C78.0432 130.598 79.4356 130.876 80.809 131.228C83.1058 131.896 85.4825 132.275 87.88 132.356C89.5007 132.371 91.1027 132.021 92.5579 131.332C92.9485 131.146 93.3216 130.928 93.6733 130.68L94.0384 130.4Z" fill="white"/>
<path d="M93.6801 153.031L93.8964 152.796C94.1087 152.582 94.2989 152.349 94.4642 152.099C95.0729 151.179 95.4116 150.118 95.4444 149.028C95.4872 147.412 95.1594 145.807 94.4845 144.327C93.6167 142.535 92.5515 140.839 91.3073 139.267C90.0553 137.689 88.962 135.999 88.0422 134.221C87.6553 133.433 87.3606 132.607 87.1634 131.756C87.0013 131.015 86.9309 130.258 86.9539 129.5C86.9681 128.399 87.2482 127.317 87.7718 126.338C87.9522 125.981 88.1794 125.648 88.4478 125.347C88.3922 125.435 88.3312 125.52 88.2653 125.601C88.088 125.844 87.9298 126.099 87.7921 126.364C87.2958 127.341 87.0325 128.413 87.0215 129.5C87.0107 131.118 87.3902 132.717 88.1301 134.169C89.0575 135.935 90.1504 137.615 91.3952 139.189C92.6478 140.768 93.7156 142.476 94.5792 144.281C95.257 145.778 95.5759 147.402 95.512 149.034C95.4739 150.14 95.1156 151.212 94.4778 152.131C94.2535 152.463 93.9853 152.766 93.6801 153.031Z" fill="white"/>
<path d="M104.523 142.56C104.481 142.769 104.413 142.973 104.32 143.167C104.061 143.7 103.679 144.171 103.205 144.542C102.509 145.097 101.697 145.502 100.825 145.729C99.7565 145.983 98.6611 146.119 97.5603 146.133C96.4704 146.141 95.3829 146.235 94.3088 146.414C93.4427 146.602 92.6063 146.9 91.8211 147.3C91.2851 147.559 90.7873 147.886 90.3406 148.272C90.0229 148.546 89.8877 148.728 89.8742 148.722C89.9971 148.544 90.1399 148.38 90.3001 148.233C90.7393 147.828 91.2354 147.486 91.7738 147.215C92.5619 146.799 93.4059 146.49 94.2817 146.296C95.3613 146.105 96.456 146.005 97.5536 145.996C98.6447 145.984 99.731 145.853 100.792 145.605C101.65 145.391 102.452 145.004 103.144 144.471C103.609 144.115 103.993 143.671 104.273 143.167C104.456 142.788 104.51 142.554 104.523 142.56Z" fill="white"/>
<path d="M113.94 157.634C113.94 157.634 114.021 157.445 114.143 157.093C114.307 156.599 114.396 156.085 114.406 155.567C114.418 154.796 114.313 154.027 114.095 153.285C113.816 152.378 113.464 151.492 113.041 150.638C112.615 149.719 112.196 148.839 111.912 148.03C111.648 147.292 111.483 146.526 111.418 145.748C111.38 145.222 111.418 144.693 111.533 144.177C111.571 143.987 111.628 143.802 111.702 143.623C111.702 143.623 111.648 143.825 111.581 144.183C111.493 144.698 111.472 145.222 111.52 145.742C111.596 146.509 111.769 147.264 112.033 147.991C112.324 148.812 112.743 149.686 113.169 150.599C113.595 151.459 113.947 152.351 114.224 153.266C114.437 154.019 114.533 154.799 114.508 155.58C114.487 156.108 114.382 156.629 114.197 157.125C114.127 157.302 114.041 157.472 113.94 157.634Z" fill="white"/>
<path d="M131.016 137.664L130.833 137.996C130.711 138.211 130.515 138.524 130.245 138.909C129.463 139.994 128.536 140.974 127.487 141.823C125.92 143.073 124.21 144.145 122.39 145.018C120.362 146.035 118.03 146.974 115.63 148.024C113.362 148.979 111.222 150.194 109.255 151.642C107.667 152.853 106.331 154.345 105.321 156.037C104.638 157.176 104.18 158.427 103.969 159.727C103.914 160.081 103.885 160.439 103.881 160.797V161.168C103.881 161.168 103.881 161.044 103.881 160.797C103.879 160.437 103.902 160.078 103.949 159.721C104.133 158.408 104.573 157.14 105.246 155.985C106.253 154.275 107.591 152.768 109.188 151.545C111.16 150.083 113.31 148.859 115.589 147.9C117.982 146.831 120.321 145.911 122.349 144.907C124.159 144.038 125.863 142.98 127.433 141.752C128.482 140.912 129.418 139.948 130.218 138.883C130.488 138.498 130.698 138.231 130.82 137.983C130.879 137.873 130.944 137.767 131.016 137.664Z" fill="white"/>
<path d="M128.717 147.646C128.717 147.646 128.717 147.489 128.717 147.209C128.686 146.814 128.616 146.424 128.508 146.042C128.098 144.793 127.491 143.612 126.709 142.541C126.277 141.889 125.858 141.289 125.432 140.761C125.023 140.309 124.711 139.784 124.512 139.215C124.412 138.823 124.391 138.416 124.452 138.016C124.452 137.872 124.499 137.768 124.512 137.696C124.508 137.659 124.508 137.622 124.512 137.585C124.508 137.732 124.495 137.878 124.472 138.022C124.436 138.414 124.47 138.809 124.573 139.189C124.78 139.74 125.094 140.247 125.499 140.682C125.963 141.255 126.395 141.851 126.791 142.469C127.585 143.548 128.188 144.746 128.575 146.016C128.672 146.405 128.726 146.803 128.737 147.202C128.737 147.346 128.737 147.457 128.737 147.528C128.737 147.6 128.724 147.646 128.717 147.646Z" fill="white"/>
<path d="M88.6844 152.607C88.2867 152.897 87.8558 153.142 87.4 153.337C86.155 153.882 84.8056 154.168 83.4387 154.179C81.409 154.195 79.3962 153.823 77.5169 153.083C75.3808 152.307 73.1838 151.127 70.838 150.006C68.6673 148.883 66.3302 148.089 63.909 147.652C62.8489 147.49 61.7706 147.47 60.7048 147.593C59.7715 147.702 58.8602 147.943 58.0008 148.311C56.7472 148.818 55.6522 149.631 54.8236 150.671C54.6963 150.834 54.579 151.003 54.4721 151.179C54.3862 151.304 54.3094 151.435 54.2422 151.571C54.1341 151.792 54.0665 151.903 54.0665 151.903C54.0665 151.903 54.1138 151.786 54.2152 151.558C54.2796 151.42 54.3541 151.287 54.4383 151.16C54.539 150.978 54.6543 150.803 54.783 150.638C55.599 149.573 56.6961 148.737 57.9602 148.219C58.8202 147.848 59.7307 147.598 60.6642 147.476C61.7387 147.351 62.826 147.368 63.8955 147.528C66.3339 147.961 68.6875 148.757 70.8718 149.888C73.2243 151.016 75.4146 152.19 77.5372 152.966C79.3985 153.705 81.3919 154.086 83.4049 154.087C84.7632 154.084 86.1066 153.813 87.3527 153.292C87.6896 153.15 88.0149 152.985 88.3262 152.796C88.556 152.666 88.6844 152.607 88.6844 152.607Z" fill="white"/>
<path d="M73.7989 171.796C73.7989 171.796 73.7043 171.639 73.542 171.339C73.3157 170.892 73.1346 170.425 73.0012 169.944C72.5558 168.163 72.5166 166.31 72.8863 164.513C73.0756 163.372 73.3933 162.14 73.7313 160.829C74.1223 159.438 74.4204 158.025 74.6236 156.598C74.9451 153.307 74.6124 149.988 73.6434 146.818C72.7038 143.421 71.4126 140.298 70.3784 137.416C69.4003 134.873 68.6451 132.256 68.1205 129.592C67.6976 127.8 67.803 125.93 68.4247 124.193C68.6239 123.732 68.8952 123.303 69.2292 122.922C69.4658 122.674 69.601 122.557 69.601 122.557C69.1208 123.035 68.7399 123.597 68.4788 124.213C67.8798 125.944 67.7909 127.802 68.2219 129.579C68.7598 132.227 69.5217 134.829 70.5 137.357C71.5411 140.232 72.839 143.355 73.7786 146.759C74.7536 149.948 75.0841 153.288 74.7521 156.598C74.5425 158.029 74.24 159.447 73.8462 160.842C73.5015 162.146 73.1702 163.378 72.981 164.513C72.6086 166.299 72.6339 168.142 73.0553 169.918C73.1865 170.395 73.356 170.862 73.5623 171.313L73.7989 171.796Z" fill="white"/>
<path d="M75.0968 189.875C75.0908 189.817 75.0908 189.758 75.0968 189.699C75.0968 189.556 75.1374 189.393 75.1577 189.217C75.449 186.648 75.0679 184.05 74.049 181.66C73.5894 180.591 73.008 179.639 72.5483 178.733C72.1149 177.941 71.7857 177.1 71.5681 176.229C71.4239 175.638 71.3805 175.028 71.4397 174.423C71.4586 174.202 71.5017 173.983 71.5681 173.771C71.5681 173.771 71.5208 173.999 71.4938 174.423C71.4589 175.019 71.5158 175.617 71.6628 176.196C71.8967 177.049 72.2348 177.872 72.67 178.648C73.1297 179.548 73.7178 180.506 74.1842 181.582C74.9831 183.423 75.3834 185.402 75.3605 187.398C75.3652 188.23 75.2768 189.061 75.0968 189.875Z" fill="white"/>
<path d="M87.204 189.836C87.204 189.836 87.1229 189.699 86.9809 189.426C86.7757 189.034 86.6061 188.626 86.4739 188.206C85.9973 186.647 85.8479 185.011 86.0345 183.395C86.1406 182.281 86.3303 181.176 86.6024 180.089C86.893 178.915 87.2784 177.677 87.6366 176.373C88.3735 173.765 89.1712 170.831 88.6912 167.727C88.2112 164.624 86.9674 161.859 86.3117 159.251C85.731 156.904 85.5034 154.489 85.6357 152.079C85.716 150.46 85.9606 148.853 86.3658 147.28C86.6564 146.172 86.8863 145.579 86.8863 145.579C86.8863 145.579 86.8525 145.735 86.7646 146.022C86.6767 146.309 86.5618 146.739 86.4198 147.293C85.4619 151.208 85.4804 155.286 86.4739 159.192C87.1499 161.8 88.3802 164.578 88.867 167.668C89.3537 170.759 88.5425 173.784 87.7989 176.366C87.4203 177.67 87.0418 178.902 86.7511 180.076C86.4775 181.148 86.281 182.238 86.163 183.336C85.9722 184.941 86.1053 186.566 86.555 188.122C86.6852 188.543 86.8455 188.954 87.035 189.354C87.1026 189.686 87.204 189.836 87.204 189.836Z" fill="white"/>
<path d="M58.812 179.353C58.8043 179.494 58.7794 179.634 58.7376 179.77C58.6836 180.037 58.6092 180.422 58.5484 180.904C58.3738 182.162 58.3534 183.436 58.4875 184.699C58.6283 185.97 58.9186 187.221 59.3528 188.428C59.5286 188.885 59.6773 189.25 59.7922 189.498C59.8616 189.624 59.916 189.757 59.9544 189.895C59.8775 189.775 59.8075 189.651 59.7449 189.524C59.6164 189.276 59.4474 188.917 59.2649 188.461C58.7884 187.267 58.477 186.017 58.3388 184.745C58.1998 183.472 58.2316 182.188 58.4334 180.924C58.4912 180.541 58.5725 180.163 58.6768 179.789C58.7063 179.64 58.7516 179.493 58.812 179.353Z" fill="white"/>
<path d="M55.8106 126.442L55.9322 126.514C56.0593 126.581 56.1792 126.66 56.2905 126.749C56.7249 127.085 57.0702 127.517 57.2978 128.007C57.6309 128.793 57.792 129.636 57.771 130.485C57.7829 131.604 57.6397 132.72 57.3451 133.803C57.0544 135.016 56.6691 136.314 56.419 137.755C56.1754 139.284 56.0758 140.831 56.1215 142.377C56.2915 145.925 56.8259 149.448 57.7169 152.894C58.6091 156.344 59.3131 159.837 59.826 163.359C60.2229 166.247 60.15 169.177 59.6097 172.043C59.2468 173.975 58.5619 175.838 57.5817 177.559C57.3118 178.023 57.0138 178.472 56.6894 178.902L56.3446 179.346C56.3446 179.346 56.4528 179.183 56.6691 178.883C56.8854 178.583 57.1828 178.133 57.5344 177.533C58.5072 175.814 59.1916 173.956 59.5624 172.03C60.0856 169.173 60.1494 166.254 59.7516 163.378C59.2305 159.868 58.522 156.386 57.629 152.946C56.739 149.489 56.2069 145.955 56.0404 142.397C56.0013 140.843 56.1077 139.29 56.3581 137.755C56.588 136.307 57.0341 135.003 57.3045 133.803C57.5987 132.727 57.7486 131.618 57.7507 130.504C57.7709 129.664 57.6169 128.828 57.2978 128.046C57.0812 127.558 56.7475 127.127 56.3243 126.788C55.9796 126.54 55.797 126.488 55.8106 126.442Z" fill="white"/>
<path d="M69.5672 174.625L69.4184 174.547L69.0196 174.306C68.6816 174.091 68.1678 173.81 67.5256 173.491C65.8229 172.666 63.999 172.099 62.1176 171.809C60.2424 171.533 58.3348 171.533 56.4595 171.809C55.743 171.92 55.1616 172.037 54.7695 172.135L54.3166 172.246H54.1544C54.8998 171.996 55.6667 171.811 56.446 171.691C60.2613 171.068 64.1831 171.68 67.6 173.432C68.2894 173.776 68.9474 174.175 69.5672 174.625Z" fill="white"/>
<path d="M89.3064 171.613L89.1374 171.672L88.6506 171.822L86.8525 172.35L84.1823 173.119C83.175 173.406 82.0664 173.732 80.8834 173.987C79.7753 174.243 78.6425 174.387 77.5034 174.417C76.567 174.432 75.6326 174.327 74.725 174.104C74.1168 173.954 73.5292 173.735 72.9742 173.452C72.7737 173.344 72.5817 173.222 72.3996 173.087C72.3996 173.087 72.6092 173.211 73.0012 173.4C73.5566 173.682 74.1441 173.901 74.7521 174.052C75.6524 174.262 76.5773 174.359 77.5034 174.339C78.6426 174.305 79.7752 174.158 80.8834 173.902C82.0664 173.648 83.1683 173.328 84.1755 173.048L86.8795 172.304L88.6912 171.815L89.1847 171.692C89.2219 171.661 89.2627 171.635 89.3064 171.613Z" fill="white"/>
<path d="M80.3629 161.794L80.248 162.087C80.1533 162.316 80.0384 162.589 79.8964 162.915C79.7207 163.361 79.5176 163.797 79.288 164.219C79.0244 164.708 78.7608 165.289 78.3754 165.875L77.7941 166.814C77.5913 167.14 77.3412 167.466 77.1181 167.799C76.6584 168.483 76.077 169.155 75.4822 169.879C72.8135 172.952 69.5245 175.47 65.8154 177.279C64.9568 177.677 64.1456 178.068 63.3412 178.348C62.9491 178.492 62.5706 178.655 62.1988 178.772L61.1172 179.098C60.4412 179.333 59.7652 179.45 59.2379 179.587C58.7638 179.707 58.2831 179.8 57.798 179.867L56.8786 180.004C56.6691 180.037 56.5609 180.043 56.5609 180.043L56.8786 179.978L57.7845 179.815C58.1833 179.75 58.67 179.659 59.2176 179.515C59.7652 179.372 60.4074 179.241 61.0901 179.007L62.1582 178.674C62.53 178.55 62.9086 178.387 63.3006 178.244C64.0983 177.957 64.9028 177.592 65.7613 177.168C67.5915 176.252 69.3295 175.174 70.953 173.947C72.5576 172.699 74.0398 171.311 75.3808 169.801C75.9756 169.083 76.557 168.412 77.0234 167.734C77.26 167.395 77.5102 167.082 77.6994 166.756L78.2876 165.83C78.6796 165.243 78.9636 164.669 79.2204 164.187C79.4773 163.704 79.6936 163.267 79.8491 162.883L80.2209 162.061C80.3088 161.892 80.3629 161.794 80.3629 161.794Z" fill="#263238"/>
<g opacity="0.3">
<path d="M59.9274 179.333C59.63 179.411 59.657 178.792 59.6638 178.492C59.6931 178.017 59.911 177.571 60.2722 177.247C61.0799 176.624 62.0381 176.209 63.0573 176.04C64.7093 175.586 66.2982 174.94 67.7893 174.117C69.8578 172.887 71.81 171.485 73.6232 169.925L77.8211 166.534C73.7561 172.835 67.3595 177.411 59.9274 179.333Z" fill="black"/>
</g>
<g opacity="0.3">
<path d="M81.8839 139.398C84.4324 147.124 86.3996 155.235 88.9548 162.961L88.3464 146.955C85.8654 144.713 83.6935 142.174 81.8839 139.398Z" fill="black"/>
</g>
<path d="M132.611 141.367L135.153 138.759C135.153 138.759 138.127 138.85 138.607 138.296C139.087 137.742 143.292 133.328 143.292 133.328C142.825 132.75 142.232 132.278 141.554 131.946C140.642 131.489 140.791 131.646 140.121 131.333C138.898 130.766 139.891 130.185 138.817 130.029C138.195 129.931 136.829 131 136.295 131.333L130.076 135.147L132.611 141.367Z" fill="#B78876"/>
<path d="M132.374 133.953C132.286 133.582 133.895 130.693 133.679 129.591C133.463 128.49 134.639 128.874 134.855 129.591C135.072 130.309 135.362 131.913 135.362 131.913L132.374 133.953Z" fill="#B78876"/>
<path d="M136.937 130.863C136.937 130.863 135.91 131.574 134.605 132.389C133.827 132.902 133.022 133.374 132.192 133.804C132.192 133.771 133.219 133.086 134.524 132.271C135.829 131.456 136.917 130.83 136.937 130.863Z" fill="#AA6550"/>
<path d="M140.256 131.3C140.083 131.291 139.909 131.291 139.736 131.3C139.32 131.331 138.92 131.471 138.58 131.704C138.243 131.95 137.939 132.234 137.674 132.552C137.57 132.688 137.449 132.813 137.316 132.923C137.386 132.766 137.482 132.621 137.6 132.493C137.847 132.15 138.148 131.846 138.492 131.593C138.848 131.34 139.274 131.197 139.716 131.182C139.904 131.164 140.094 131.205 140.256 131.3Z" fill="#AA6550"/>
<path d="M142.041 132.232C141.87 132.189 141.703 132.132 141.541 132.063C141.352 131.987 141.147 131.96 140.944 131.984C140.742 132.008 140.549 132.083 140.385 132.2C139.913 132.565 139.461 132.954 139.033 133.367C139.108 133.21 139.211 133.066 139.337 132.943C139.616 132.622 139.933 132.335 140.284 132.089C140.478 131.945 140.714 131.863 140.96 131.854C141.342 131.868 141.709 132.001 142.007 132.232H142.041Z" fill="#AA6550"/>
<path d="M89.3402 95.8442C89.712 98.7195 85.541 100.408 85.541 100.408L84.811 107.215C84.1583 107.17 83.5032 107.17 82.8506 107.215C83.2021 104.02 78.9365 104.646 78.5039 106.824C78.0712 109.002 80.5319 110.319 80.5319 110.319C78.8216 112.848 78.1321 114.178 75.7052 116.545C73.0824 119.108 71.6492 119.316 68.9452 119.238L65.9641 119.108C65.9641 119.108 64.9028 116.649 64.1254 110.847C63.7468 108.05 61.489 104.392 62.0974 99.8475C63.9293 86.9444 76.7463 88.3071 76.7463 88.3071C83.4792 88.4701 88.4614 89.1807 89.3402 95.8442Z" fill="#263238"/>
</svg>
