<svg width="348" height="66" viewBox="0 0 348 66" fill="none" xmlns="http://www.w3.org/2000/svg">
<g clip-path="url(#clip0_191_145)">
<path d="M60.2292 49.9727H59.7217V49.002H60.3633C60.6958 49.002 61.075 49.0515 61.075 49.4612C61.075 49.9315 60.6929 49.97 60.2292 49.97V49.9727Z" fill="white" fill-opacity="0.71"/>
<path d="M60.1971 47.7568C58.8175 47.7788 57.7179 48.8513 57.7383 50.1521C57.7617 51.4528 58.8992 52.4923 60.2787 52.4703H60.3429C61.6933 52.4428 62.7637 51.3896 62.7375 50.1163V50.0778C62.7142 48.7771 61.5767 47.7376 60.1971 47.7596V47.7568ZM61.1012 51.5463L60.27 50.3116L60.2583 50.2978H59.7217V51.5463H59.2871V48.6781H60.4479C61.1654 48.6781 61.5183 48.9393 61.5183 49.4866C61.5183 49.5031 61.5183 49.5196 61.5183 49.5361C61.5154 49.9403 61.2412 50.2676 60.6754 50.2676L61.5737 51.5463H61.1071H61.1012Z" fill="white" fill-opacity="0.71"/>
<path d="M35 0C15.6712 0 0 14.7758 0 33C0 51.2243 15.6712 66 35 66C54.3288 66 70 51.2243 70 33C70 14.7758 54.3288 0 35 0ZM55.5246 49.654C55.5013 51.2435 54.1158 52.5195 52.4271 52.4975H16.8C15.1171 52.514 13.7346 51.2407 13.7142 49.654V15.9225C13.7346 14.3357 15.1142 13.0625 16.8 13.0817H52.4271C54.1129 13.057 55.4983 14.3302 55.5246 15.9198V49.654ZM60.3371 52.778C58.7621 52.7917 57.4729 51.601 57.4583 50.116C57.4438 48.6338 58.7067 47.4182 60.2817 47.4017H60.3371C61.8887 47.4155 63.1458 48.6007 63.1604 50.0638C63.175 51.546 61.9121 52.7615 60.3371 52.778ZM41.9037 27.39C39.5033 27.3075 37.2487 28.4735 36.0354 30.4287H35.9538V27.8575H30.0067V46.6675H36.2017V37.3643C36.2017 34.9085 36.6946 32.5353 39.9233 32.5353C43.1025 32.5353 43.1433 35.343 43.1433 37.5238V46.6702H49.3383V36.3522C49.3383 31.284 48.1833 27.3928 41.9037 27.3928V27.39ZM19.9121 46.6675H26.1129V27.8575H19.9121V46.6675ZM23.0154 18.5075C21.0292 18.5075 19.4192 20.0255 19.4192 21.8982C19.4192 23.771 21.0292 25.2862 23.0154 25.2862C25.0017 25.2862 26.6117 23.7682 26.6117 21.8955C26.6117 20.0228 25.0017 18.5047 23.0154 18.5075Z" fill="white" fill-opacity="0.71"/>
</g>
<g clip-path="url(#clip1_191_145)">
<path d="M114.439 16.9375L139.588 48.8512H143.441L118.579 16.9375H114.439Z" fill="white" fill-opacity="0.71"/>
<path d="M129 0C110.224 0 95 14.7758 95 33C95 51.2243 110.224 66 129 66C147.776 66 163 51.2243 163 33C163 14.7758 147.776 0 129 0ZM137.678 52.888L126.713 38.9868L114.184 52.888H107.22L123.464 34.8645L106.333 13.112H120.676L130.575 25.8197L142.031 13.112H148.986L133.797 29.9585L151.667 52.8853L137.678 52.888Z" fill="white" fill-opacity="0.71"/>
</g>
<g clip-path="url(#clip2_191_145)">
<path d="M217.492 26.0342L230.291 32.9999L217.492 39.9657V26.0369V26.0342Z" fill="white" fill-opacity="0.71"/>
<path d="M222.5 0C203.447 0 188 14.7758 188 33C188 51.2243 203.447 66 222.5 66C241.553 66 257 51.2243 257 33C257 14.7758 241.553 0 222.5 0ZM245.96 44.3465C245.399 46.3732 243.738 47.971 241.63 48.5155C237.812 49.5 222.5 49.5 222.5 49.5C222.5 49.5 207.188 49.5 203.37 48.5155C201.262 47.9737 199.603 46.376 199.04 44.3465C198.014 40.6697 198.014 33 198.014 33C198.014 33 198.014 25.3302 199.04 21.6535C199.601 19.6267 201.262 18.029 203.37 17.4873C207.188 16.5028 222.5 16.5028 222.5 16.5028C222.5 16.5028 237.812 16.5028 241.63 17.4873C243.738 18.029 245.396 19.6267 245.96 21.6535C246.983 25.3302 246.984 33 246.984 33C246.984 33 246.983 40.6697 245.96 44.3465Z" fill="white" fill-opacity="0.71"/>
</g>
<path fill-rule="evenodd" clip-rule="evenodd" d="M294 3C290.817 3 287.765 4.20682 285.515 6.35496C283.264 8.5031 282 11.4166 282 14.4545V54.5455C282 57.5834 283.264 60.4969 285.515 62.645C287.765 64.7932 290.817 66 294 66H336C339.183 66 342.235 64.7932 344.485 62.645C346.736 60.4969 348 57.5834 348 54.5455V14.4545C348 11.4166 346.736 8.5031 344.485 6.35496C342.235 4.20682 339.183 3 336 3H294ZM299.445 17.6332C303.784 14.1113 309.295 12.1794 314.991 12.1837C320.687 12.1766 326.2 14.1059 330.541 17.626C334.882 21.146 337.768 26.0267 338.682 31.3934C339.596 36.7601 338.477 42.262 335.528 46.9133C332.578 51.5645 327.989 55.061 322.584 56.7762C321.369 56.9967 320.979 56.3209 320.979 55.711V49.3766C321.038 48.6025 320.923 47.8254 320.64 47.0977C320.357 46.37 319.914 45.7086 319.341 45.1585C324.681 44.5943 330.285 42.6642 330.285 33.87C330.322 31.5949 329.439 29.3937 327.819 27.7246C328.549 25.7512 328.464 23.586 327.579 21.6709C327.579 21.6709 325.581 21.0581 320.997 24.0191C317.068 22.9898 312.92 22.9898 308.991 24.0191C304.416 21.0581 302.4 21.6709 302.4 21.6709C301.516 23.5866 301.433 25.752 302.166 27.7246C300.547 29.3924 299.663 31.591 299.697 33.8643C299.697 42.6356 305.295 44.5972 310.617 45.1756C309.745 45.9867 309.205 47.0681 309.093 48.2254C308.505 48.5407 307.857 48.7417 307.187 48.8167C306.518 48.8917 305.839 48.8393 305.19 48.6625C304.542 48.4857 303.936 48.188 303.409 47.7866C302.882 47.3853 302.443 46.8881 302.118 46.324C301.734 45.6901 301.204 45.1483 300.568 44.7398C299.931 44.3314 299.206 44.0671 298.446 43.9672C298.446 43.9672 296.106 43.9385 298.284 45.3618C299.562 46.1378 300.504 47.3262 300.945 48.7065C300.945 48.7065 302.322 53.1022 308.991 51.7219C309 53.1652 308.997 54.3822 308.991 55.1296V55.7024C308.991 56.3037 308.613 56.9767 307.416 56.7762C303.381 55.4966 299.776 53.2156 296.969 50.1672C294.162 47.1187 292.255 43.4125 291.444 39.4287C290.633 35.4449 290.946 31.3268 292.352 27.4967C293.758 23.6666 296.206 20.2624 299.445 17.6332Z" fill="white" fill-opacity="0.71"/>
<defs>
<clipPath id="clip0_191_145">
<rect width="70" height="66" fill="white"/>
</clipPath>
<clipPath id="clip1_191_145">
<rect width="68" height="66" fill="white" transform="translate(95)"/>
</clipPath>
<clipPath id="clip2_191_145">
<rect width="69" height="66" fill="white" transform="translate(188)"/>
</clipPath>
</defs>
</svg>
