<svg width="83" height="83" viewBox="0 0 83 83" fill="none" xmlns="http://www.w3.org/2000/svg">
<path fill-rule="evenodd" clip-rule="evenodd" d="M0 41.25C0 18.4676 18.4676 0 41.25 0C64.0324 0 82.5 18.4676 82.5 41.25C82.5 64.0324 64.0324 82.5 41.25 82.5C18.4676 82.5 0 64.0324 0 41.25ZM47.4375 20.625C47.4373 19.8093 47.1953 19.0119 46.742 18.3337C46.2888 17.6555 45.6446 17.127 44.8909 16.8148C44.1373 16.5027 43.3081 16.421 42.508 16.5801C41.7079 16.7392 40.973 17.1319 40.3961 17.7086L32.1461 25.9586C31.3947 26.7366 30.9789 27.7786 30.9883 28.8602C30.9977 29.9417 31.4316 30.9763 32.1964 31.7411C32.9612 32.5059 33.9958 32.9398 35.0773 32.9492C36.1589 32.9586 37.2009 32.5428 37.9789 31.7914L39.1875 30.5827V61.875C39.1875 62.969 39.6221 64.0182 40.3957 64.7918C41.1693 65.5654 42.2185 66 43.3125 66C44.4065 66 45.4557 65.5654 46.2293 64.7918C47.0029 64.0182 47.4375 62.969 47.4375 61.875V20.625Z" fill="white"/>
</svg>
