<svg width="83" height="83" viewBox="0 0 83 83" fill="none" xmlns="http://www.w3.org/2000/svg">
<path d="M41.25 0C64.0312 0 82.5 18.4688 82.5 41.25C82.5 64.0312 64.0312 82.5 41.25 82.5C18.4688 82.5 0 64.0312 0 41.25C0 18.4688 18.4688 0 41.25 0ZM41.25 16.875C33.045 16.875 26.25 23.4 26.25 31.6275V35.3775H33.75V31.6275C33.75 27.7013 37.0275 24.375 41.25 24.375C45.4725 24.375 48.75 27.7013 48.75 31.6275V31.8037C48.75 34.0088 47.7375 36.12 45.945 37.5412L28.7062 51.24C27.36 52.3087 26.4937 53.865 26.295 55.5675L26.25 56.31V65.625H56.25V58.125H33.75V56.8125L50.61 43.4175C52.3636 42.031 53.7816 40.2665 54.7582 38.2556C55.7347 36.2447 56.2447 34.0392 56.25 31.8037V31.6275C56.25 23.4 49.455 16.875 41.25 16.875Z" fill="white"/>
</svg>
