<svg width="76" height="76" viewBox="0 0 76 76" fill="none" xmlns="http://www.w3.org/2000/svg">
<path d="M37.8125 0C58.6953 0 75.625 16.9297 75.625 37.8125C75.625 58.6953 58.6953 75.625 37.8125 75.625C16.9297 75.625 0 58.6953 0 37.8125C0 16.9297 16.9297 0 37.8125 0ZM25.1728 18.9062V25.7812H42.2091L30.8378 32.6872V40.5144H38.5206C43.3503 40.5144 46.4062 43.8144 46.4062 46.8978C46.4062 49.9778 43.3503 53.2812 38.5206 53.2812H37.1044C32.2747 53.2812 29.2188 49.9812 29.2188 46.8978V43.4603H22.3438V46.8978C22.3438 54.6631 29.425 60.1562 37.1044 60.1562H38.5206C46.1966 60.1562 53.2812 54.6631 53.2812 46.8978C53.2812 40.2978 48.1594 35.3375 41.91 34.0003L51.865 27.9606V18.9062H25.1728Z" fill="white"/>
</svg>
