<svg width="502" height="328" viewBox="0 0 502 328" fill="none" xmlns="http://www.w3.org/2000/svg">
<path d="M463.4 98.9118C451.88 74.1281 434.478 52.5654 408.769 40.495C374.418 24.3705 333.696 23.9703 298.061 36.3359C277.727 43.3814 259.701 55.2287 242.185 67.3057C226.609 78.0641 208.832 94.4641 189.589 97.895C163.525 102.592 101.946 64.5439 55.7622 75.0399C9.57817 85.5359 -3.8085 144.576 7.57017 181.312C18.9488 218.048 63.1248 218.048 79.1888 248.224C95.2528 278.4 152.816 303.984 223.765 286.928C294.714 269.872 331.528 260.032 369.01 273.808C406.493 287.584 458.032 291.52 475.434 233.792C482.442 210.615 484.385 186.25 481.137 162.288C478.252 141.335 472.777 119.071 463.4 98.9118Z" fill="black"/>
<path opacity="0.7" d="M463.4 98.9118C451.88 74.1281 434.478 52.5654 408.769 40.495C374.418 24.3705 333.696 23.9703 298.061 36.3359C277.727 43.3814 259.701 55.2287 242.185 67.3057C226.609 78.0641 208.832 94.4641 189.589 97.895C163.525 102.592 101.946 64.5439 55.7622 75.0399C9.57817 85.5359 -3.8085 144.576 7.57017 181.312C18.9488 218.048 63.1248 218.048 79.1888 248.224C95.2528 278.4 152.816 303.984 223.765 286.928C294.714 269.872 331.528 260.032 369.01 273.808C406.493 287.584 458.032 291.52 475.434 233.792C482.442 210.615 484.385 186.25 481.137 162.288C478.252 141.335 472.777 119.071 463.4 98.9118Z" fill="white"/>
<path d="M484.417 113.6V99.8236H467.295V17.922H456.847V99.8236H439.297V78.8644C441.96 78.2775 444.303 76.7369 445.868 74.5448C447.432 72.3526 448.105 69.6669 447.754 67.0139C447.403 64.3609 446.054 61.9321 443.971 60.2034C441.888 58.4746 439.221 57.5707 436.493 57.6687C433.766 57.7668 431.174 58.8597 429.225 60.7333C427.277 62.6069 426.113 65.126 425.961 67.7971C425.809 70.4681 426.681 73.0983 428.405 75.1723C430.129 77.2463 432.581 78.6145 435.281 79.0087V99.8236H236.335V95.002H225.88V99.8236H104.925V95.002H94.4697V99.8236H74.6173V67.8042H81.0295V61.71H87.9973V50.9778H81.0295V44.877H74.6173V30.3663H79.0416V20.1196H74.6173V13.5596H60.5613V20.1196H56.1437V30.3663H60.5613V106.712C60.5613 107.616 60.7431 108.512 61.0963 109.347C61.4495 110.183 61.9671 110.943 62.6198 111.582C63.2724 112.222 64.0471 112.729 64.8998 113.075C65.7525 113.421 66.6664 113.6 67.5893 113.6H94.4697V151.051H63.1115V146.229H52.6565V151.051H32.7974V119.031H39.2029V112.93H46.184V102.198H39.2163V96.104H32.7974V81.5868H37.215V71.3466H32.7974V14.0188H18.7414V71.3466H14.3304V81.5868H18.7414V157.939C18.7414 159.765 19.4818 161.517 20.7998 162.809C22.1178 164.101 23.9054 164.827 25.7694 164.827H52.6565V298.959H63.1115V164.827H94.4697V299.182H104.925V164.827H184.067V299.195H194.522V164.827H225.88V298.815H236.335V164.827H456.847V168.671H467.295V164.827H483.259V151.051H467.329V113.6H484.417ZM194.522 151.051V146.229H184.067V151.051H104.925V113.6H225.88V151.051H194.522ZM456.847 151.051H236.335V113.6H456.847V151.051Z" fill="#263238"/>
<path d="M437.162 68.6699L439.832 73.38" stroke="white" stroke-miterlimit="10"/>
<path d="M439.042 76.0657C443.191 75.0495 445.714 70.9289 444.678 66.8622C443.641 62.7954 439.436 60.3225 435.287 61.3387C431.138 62.3549 428.614 66.4755 429.651 70.5422C430.688 74.609 434.892 77.0819 439.042 76.0657Z" stroke="white" stroke-miterlimit="10"/>
<path d="M294.574 15.4751H249.702V298.985H294.574V15.4751Z" fill="white" stroke="#263238" stroke-linecap="round" stroke-linejoin="round"/>
<path d="M288.65 62.4253V106.935" stroke="#263238" stroke-linecap="round" stroke-linejoin="round"/>
<path d="M288.175 37.858V34.6108" stroke="#263238" stroke-linecap="round" stroke-linejoin="round"/>
<path d="M294.105 57.3673C296.423 57.3673 298.302 55.5258 298.302 53.2542C298.302 50.9826 296.423 49.1411 294.105 49.1411C291.787 49.1411 289.908 50.9826 289.908 53.2542C289.908 55.5258 291.787 57.3673 294.105 57.3673Z" fill="white" stroke="#263238" stroke-linecap="round" stroke-linejoin="round"/>
<path d="M283.121 57.3673C285.439 57.3673 287.318 55.5258 287.318 53.2542C287.318 50.9826 285.439 49.1411 283.121 49.1411C280.803 49.1411 278.925 50.9826 278.925 53.2542C278.925 55.5258 280.803 57.3673 283.121 57.3673Z" fill="white" stroke="#263238" stroke-linecap="round" stroke-linejoin="round"/>
<path d="M272.144 57.3673C274.462 57.3673 276.341 55.5258 276.341 53.2542C276.341 50.9826 274.462 49.1411 272.144 49.1411C269.826 49.1411 267.948 50.9826 267.948 53.2542C267.948 55.5258 269.826 57.3673 272.144 57.3673Z" fill="white" stroke="#263238" stroke-linecap="round" stroke-linejoin="round"/>
<path d="M261.167 57.3673C263.485 57.3673 265.364 55.5258 265.364 53.2542C265.364 50.9826 263.485 49.1411 261.167 49.1411C258.849 49.1411 256.97 50.9826 256.97 53.2542C256.97 55.5258 258.849 57.3673 261.167 57.3673Z" fill="white" stroke="#263238" stroke-linecap="round" stroke-linejoin="round"/>
<path d="M250.183 57.3673C252.501 57.3673 254.38 55.5258 254.38 53.2542C254.38 50.9826 252.501 49.1411 250.183 49.1411C247.866 49.1411 245.987 50.9826 245.987 53.2542C245.987 55.5258 247.866 57.3673 250.183 57.3673Z" fill="white" stroke="#263238" stroke-linecap="round" stroke-linejoin="round"/>
<path d="M294.105 49.1476C293.275 49.1489 292.463 48.9088 291.772 48.4576C291.081 48.0065 290.542 47.3645 290.223 46.6131C289.904 45.8616 289.82 45.0344 289.981 44.2361C290.143 43.4378 290.542 42.7043 291.128 42.1284C291.715 41.5525 292.463 41.1601 293.277 41.0009C294.091 40.8417 294.936 40.9227 295.703 41.2339C296.47 41.545 297.126 42.0722 297.587 42.7487C298.049 43.4252 298.295 44.2207 298.295 45.0345C298.295 46.1242 297.854 47.1694 297.068 47.9406C296.283 48.7118 295.217 49.1459 294.105 49.1476Z" fill="white" stroke="#263238" stroke-linecap="round" stroke-linejoin="round"/>
<path d="M283.128 49.1476C282.298 49.1476 281.487 48.9064 280.796 48.4544C280.106 48.0025 279.568 47.3601 279.251 46.6085C278.933 45.857 278.85 45.0299 279.012 44.2321C279.174 43.4342 279.574 42.7013 280.16 42.1261C280.747 41.5509 281.495 41.1591 282.309 41.0004C283.123 40.8417 283.967 40.9232 284.734 41.2345C285.501 41.5458 286.156 42.073 286.617 42.7494C287.079 43.4258 287.325 44.221 287.325 45.0345C287.325 46.1254 286.883 47.1716 286.096 47.9429C285.308 48.7143 284.241 49.1476 283.128 49.1476Z" fill="white" stroke="#263238" stroke-linecap="round" stroke-linejoin="round"/>
<path d="M272.144 49.1476C271.314 49.1476 270.503 48.9064 269.813 48.4544C269.123 48.0025 268.585 47.3601 268.267 46.6085C267.949 45.857 267.866 45.0299 268.028 44.2321C268.19 43.4342 268.59 42.7013 269.177 42.1261C269.764 41.5509 270.511 41.1591 271.325 41.0004C272.14 40.8417 272.983 40.9232 273.75 41.2345C274.517 41.5458 275.173 42.073 275.634 42.7494C276.095 43.4258 276.341 44.221 276.341 45.0345C276.341 46.1254 275.899 47.1716 275.112 47.9429C274.325 48.7143 273.257 49.1476 272.144 49.1476Z" fill="white" stroke="#263238" stroke-linecap="round" stroke-linejoin="round"/>
<path d="M261.167 49.1476C260.337 49.1489 259.525 48.9088 258.834 48.4576C258.143 48.0065 257.604 47.3645 257.285 46.6131C256.966 45.8616 256.882 45.0344 257.044 44.2361C257.205 43.4378 257.604 42.7043 258.191 42.1284C258.777 41.5525 259.525 41.1601 260.339 41.0009C261.154 40.8417 261.998 40.9227 262.765 41.2339C263.532 41.545 264.188 42.0722 264.649 42.7487C265.111 43.4252 265.357 44.2207 265.357 45.0345C265.357 46.1242 264.916 47.1694 264.13 47.9406C263.345 48.7118 262.279 49.1459 261.167 49.1476Z" fill="white" stroke="#263238" stroke-linecap="round" stroke-linejoin="round"/>
<path d="M250.183 49.1476C249.353 49.1476 248.542 48.9064 247.852 48.4544C247.162 48.0025 246.624 47.3601 246.306 46.6085C245.989 45.857 245.905 45.0299 246.067 44.2321C246.229 43.4342 246.629 42.7013 247.216 42.1261C247.803 41.5509 248.551 41.1591 249.365 41.0004C250.179 40.8417 251.023 40.9232 251.789 41.2345C252.556 41.5458 253.212 42.073 253.673 42.7494C254.134 43.4258 254.38 44.221 254.38 45.0345C254.38 46.1254 253.938 47.1716 253.151 47.9429C252.364 48.7143 251.296 49.1476 250.183 49.1476Z" fill="white" stroke="#263238" stroke-linecap="round" stroke-linejoin="round"/>
<path d="M300.122 54.2577V43.8667H244.474V54.2577H300.122Z" fill="white" stroke="#263238" stroke-linecap="round" stroke-linejoin="round"/>
<path d="M299.928 48.8789H244.668" stroke="#263238" stroke-linecap="round" stroke-linejoin="round"/>
<path d="M294.105 148.597C293.275 148.599 292.463 148.359 291.772 147.907C291.081 147.456 290.542 146.814 290.223 146.063C289.904 145.311 289.82 144.484 289.981 143.686C290.143 142.888 290.542 142.154 291.128 141.578C291.715 141.002 292.463 140.61 293.277 140.451C294.091 140.291 294.936 140.372 295.703 140.684C296.47 140.995 297.126 141.522 297.587 142.198C298.049 142.875 298.295 143.67 298.295 144.484C298.295 145.574 297.854 146.619 297.068 147.39C296.283 148.161 295.217 148.596 294.105 148.597Z" fill="white" stroke="#263238" stroke-linecap="round" stroke-linejoin="round"/>
<path d="M283.128 148.597C282.298 148.597 281.487 148.356 280.796 147.904C280.106 147.452 279.568 146.81 279.251 146.058C278.933 145.307 278.85 144.48 279.012 143.682C279.174 142.884 279.574 142.151 280.16 141.576C280.747 141.001 281.495 140.609 282.309 140.45C283.123 140.291 283.967 140.373 284.734 140.684C285.501 140.995 286.156 141.523 286.617 142.199C287.079 142.875 287.325 143.671 287.325 144.484C287.325 145.575 286.883 146.621 286.096 147.393C285.308 148.164 284.241 148.597 283.128 148.597Z" fill="white" stroke="#263238" stroke-linecap="round" stroke-linejoin="round"/>
<path d="M272.144 148.597C271.314 148.597 270.503 148.356 269.813 147.904C269.123 147.452 268.585 146.81 268.267 146.058C267.949 145.307 267.866 144.48 268.028 143.682C268.19 142.884 268.59 142.151 269.177 141.576C269.764 141.001 270.511 140.609 271.325 140.45C272.14 140.291 272.983 140.373 273.75 140.684C274.517 140.995 275.173 141.523 275.634 142.199C276.095 142.875 276.341 143.671 276.341 144.484C276.341 145.575 275.899 146.621 275.112 147.393C274.325 148.164 273.257 148.597 272.144 148.597Z" fill="white" stroke="#263238" stroke-linecap="round" stroke-linejoin="round"/>
<path d="M261.167 148.597C260.337 148.599 259.525 148.359 258.834 147.907C258.143 147.456 257.604 146.814 257.285 146.063C256.966 145.311 256.882 144.484 257.044 143.686C257.205 142.888 257.604 142.154 258.191 141.578C258.777 141.002 259.525 140.61 260.339 140.451C261.154 140.291 261.998 140.372 262.765 140.684C263.532 140.995 264.188 141.522 264.649 142.198C265.111 142.875 265.357 143.67 265.357 144.484C265.357 145.574 264.916 146.619 264.13 147.39C263.345 148.161 262.279 148.596 261.167 148.597Z" fill="white" stroke="#263238" stroke-linecap="round" stroke-linejoin="round"/>
<path d="M250.183 148.597C249.353 148.597 248.542 148.356 247.852 147.904C247.162 147.452 246.624 146.81 246.306 146.058C245.989 145.307 245.905 144.48 246.067 143.682C246.229 142.884 246.629 142.151 247.216 141.576C247.803 141.001 248.551 140.609 249.365 140.45C250.179 140.291 251.023 140.373 251.789 140.684C252.556 140.995 253.212 141.523 253.673 142.199C254.134 142.875 254.38 143.671 254.38 144.484C254.38 145.575 253.938 146.621 253.151 147.393C252.364 148.164 251.296 148.597 250.183 148.597Z" fill="white" stroke="#263238" stroke-linecap="round" stroke-linejoin="round"/>
<path d="M294.105 140.378C296.423 140.378 298.302 138.536 298.302 136.264C298.302 133.993 296.423 132.151 294.105 132.151C291.787 132.151 289.908 133.993 289.908 136.264C289.908 138.536 291.787 140.378 294.105 140.378Z" fill="white" stroke="#263238" stroke-linecap="round" stroke-linejoin="round"/>
<path d="M283.121 140.378C285.439 140.378 287.318 138.536 287.318 136.264C287.318 133.993 285.439 132.151 283.121 132.151C280.803 132.151 278.925 133.993 278.925 136.264C278.925 138.536 280.803 140.378 283.121 140.378Z" fill="white" stroke="#263238" stroke-linecap="round" stroke-linejoin="round"/>
<path d="M272.144 140.378C274.462 140.378 276.341 138.536 276.341 136.264C276.341 133.993 274.462 132.151 272.144 132.151C269.826 132.151 267.948 133.993 267.948 136.264C267.948 138.536 269.826 140.378 272.144 140.378Z" fill="white" stroke="#263238" stroke-linecap="round" stroke-linejoin="round"/>
<path d="M261.167 140.378C263.485 140.378 265.364 138.536 265.364 136.264C265.364 133.993 263.485 132.151 261.167 132.151C258.849 132.151 256.97 133.993 256.97 136.264C256.97 138.536 258.849 140.378 261.167 140.378Z" fill="white" stroke="#263238" stroke-linecap="round" stroke-linejoin="round"/>
<path d="M250.183 140.378C252.501 140.378 254.38 138.536 254.38 136.264C254.38 133.993 252.501 132.151 250.183 132.151C247.866 132.151 245.987 133.993 245.987 136.264C245.987 138.536 247.866 140.378 250.183 140.378Z" fill="white" stroke="#263238" stroke-linecap="round" stroke-linejoin="round"/>
<path d="M300.129 145.488V135.097H244.481V145.488H300.129Z" fill="white" stroke="#263238" stroke-linecap="round" stroke-linejoin="round"/>
<path d="M299.928 140.109H244.668" stroke="#263238" stroke-linecap="round" stroke-linejoin="round"/>
<path d="M294.105 272.024C296.423 272.024 298.302 270.182 298.302 267.91C298.302 265.639 296.423 263.797 294.105 263.797C291.787 263.797 289.908 265.639 289.908 267.91C289.908 270.182 291.787 272.024 294.105 272.024Z" fill="white" stroke="#263238" stroke-linecap="round" stroke-linejoin="round"/>
<path d="M283.121 272.024C285.439 272.024 287.318 270.182 287.318 267.91C287.318 265.639 285.439 263.797 283.121 263.797C280.803 263.797 278.925 265.639 278.925 267.91C278.925 270.182 280.803 272.024 283.121 272.024Z" fill="white" stroke="#263238" stroke-linecap="round" stroke-linejoin="round"/>
<path d="M272.144 272.024C274.462 272.024 276.341 270.182 276.341 267.91C276.341 265.639 274.462 263.797 272.144 263.797C269.826 263.797 267.948 265.639 267.948 267.91C267.948 270.182 269.826 272.024 272.144 272.024Z" fill="white" stroke="#263238" stroke-linecap="round" stroke-linejoin="round"/>
<path d="M261.167 272.024C263.485 272.024 265.364 270.182 265.364 267.91C265.364 265.639 263.485 263.797 261.167 263.797C258.849 263.797 256.97 265.639 256.97 267.91C256.97 270.182 258.849 272.024 261.167 272.024Z" fill="white" stroke="#263238" stroke-linecap="round" stroke-linejoin="round"/>
<path d="M250.183 272.024C252.501 272.024 254.38 270.182 254.38 267.91C254.38 265.639 252.501 263.797 250.183 263.797C247.866 263.797 245.987 265.639 245.987 267.91C245.987 270.182 247.866 272.024 250.183 272.024Z" fill="white" stroke="#263238" stroke-linecap="round" stroke-linejoin="round"/>
<path d="M294.105 263.798C293.274 263.799 292.462 263.559 291.771 263.107C291.08 262.656 290.541 262.013 290.222 261.261C289.904 260.51 289.82 259.682 289.982 258.884C290.144 258.085 290.543 257.352 291.131 256.776C291.718 256.2 292.467 255.809 293.281 255.65C294.096 255.492 294.94 255.574 295.707 255.886C296.475 256.198 297.13 256.726 297.591 257.403C298.051 258.081 298.296 258.877 298.295 259.691C298.293 260.78 297.851 261.823 297.066 262.593C296.28 263.363 295.216 263.796 294.105 263.798Z" fill="white" stroke="#263238" stroke-linecap="round" stroke-linejoin="round"/>
<path d="M283.128 263.798C282.298 263.798 281.486 263.556 280.796 263.104C280.105 262.652 279.568 262.009 279.25 261.257C278.933 260.505 278.85 259.678 279.012 258.88C279.175 258.082 279.575 257.349 280.163 256.774C280.75 256.199 281.499 255.807 282.313 255.65C283.128 255.492 283.972 255.574 284.739 255.886C285.505 256.199 286.16 256.727 286.621 257.404C287.081 258.081 287.326 258.877 287.325 259.691C287.325 260.231 287.216 260.765 287.005 261.264C286.794 261.763 286.485 262.216 286.095 262.597C285.705 262.978 285.243 263.281 284.734 263.487C284.224 263.693 283.679 263.798 283.128 263.798Z" fill="white" stroke="#263238" stroke-linecap="round" stroke-linejoin="round"/>
<path d="M272.144 263.798C271.314 263.798 270.502 263.556 269.812 263.104C269.122 262.652 268.584 262.009 268.266 261.257C267.949 260.505 267.866 259.678 268.029 258.88C268.191 258.082 268.591 257.349 269.179 256.774C269.767 256.199 270.515 255.807 271.33 255.65C272.144 255.492 272.988 255.574 273.755 255.886C274.522 256.199 275.177 256.727 275.637 257.404C276.097 258.081 276.342 258.877 276.341 259.691C276.339 260.781 275.896 261.825 275.109 262.595C274.323 263.365 273.256 263.798 272.144 263.798Z" fill="white" stroke="#263238" stroke-linecap="round" stroke-linejoin="round"/>
<path d="M261.167 263.798C260.337 263.799 259.524 263.559 258.833 263.107C258.142 262.656 257.603 262.013 257.284 261.261C256.966 260.51 256.882 259.682 257.044 258.884C257.206 258.085 257.606 257.352 258.193 256.776C258.78 256.2 259.529 255.809 260.343 255.65C261.158 255.492 262.002 255.574 262.77 255.886C263.537 256.198 264.192 256.726 264.653 257.403C265.113 258.081 265.359 258.877 265.357 259.691C265.355 260.78 264.913 261.823 264.128 262.593C263.343 263.363 262.278 263.796 261.167 263.798Z" fill="white" stroke="#263238" stroke-linecap="round" stroke-linejoin="round"/>
<path d="M250.183 263.798C249.353 263.798 248.541 263.556 247.851 263.104C247.161 262.652 246.623 262.009 246.306 261.257C245.988 260.505 245.905 259.678 246.068 258.88C246.23 258.082 246.631 257.349 247.218 256.774C247.806 256.199 248.554 255.807 249.369 255.65C250.183 255.492 251.027 255.574 251.794 255.886C252.561 256.199 253.216 256.727 253.676 257.404C254.136 258.081 254.381 258.877 254.38 259.691C254.38 260.231 254.272 260.765 254.061 261.264C253.85 261.763 253.54 262.216 253.151 262.597C252.761 262.978 252.298 263.281 251.789 263.487C251.28 263.693 250.734 263.798 250.183 263.798Z" fill="white" stroke="#263238" stroke-linecap="round" stroke-linejoin="round"/>
<path d="M300.129 268.914V258.523H244.481V268.914H300.129Z" fill="white" stroke="#263238" stroke-linecap="round" stroke-linejoin="round"/>
<path d="M299.928 263.535H244.668" stroke="#263238" stroke-linecap="round" stroke-linejoin="round"/>
<path d="M214.782 15.0947H203.203V298.749H214.782V15.0947Z" fill="white" stroke="#263238" stroke-linecap="round" stroke-linejoin="round"/>
<path d="M202.427 112.668C203.11 112.668 203.665 112.125 203.665 111.455C203.665 110.785 203.11 110.241 202.427 110.241C201.743 110.241 201.188 110.785 201.188 111.455C201.188 112.125 201.743 112.668 202.427 112.668Z" fill="white" stroke="#263238" stroke-linecap="round" stroke-linejoin="round"/>
<path d="M205.679 112.668C206.363 112.668 206.918 112.125 206.918 111.455C206.918 110.785 206.363 110.241 205.679 110.241C204.996 110.241 204.441 110.785 204.441 111.455C204.441 112.125 204.996 112.668 205.679 112.668Z" fill="white" stroke="#263238" stroke-linecap="round" stroke-linejoin="round"/>
<path d="M208.926 112.668C209.61 112.668 210.164 112.125 210.164 111.455C210.164 110.785 209.61 110.241 208.926 110.241C208.242 110.241 207.688 110.785 207.688 111.455C207.688 112.125 208.242 112.668 208.926 112.668Z" fill="white" stroke="#263238" stroke-linecap="round" stroke-linejoin="round"/>
<path d="M212.172 112.668C212.856 112.668 213.41 112.125 213.41 111.455C213.41 110.785 212.856 110.241 212.172 110.241C211.488 110.241 210.934 110.785 210.934 111.455C210.934 112.125 211.488 112.668 212.172 112.668Z" fill="white" stroke="#263238" stroke-linecap="round" stroke-linejoin="round"/>
<path d="M215.418 112.668C216.102 112.668 216.656 112.125 216.656 111.455C216.656 110.785 216.102 110.241 215.418 110.241C214.734 110.241 214.18 110.785 214.18 111.455C214.18 112.125 214.734 112.668 215.418 112.668Z" fill="white" stroke="#263238" stroke-linecap="round" stroke-linejoin="round"/>
<path d="M202.427 115.095C203.11 115.095 203.665 114.552 203.665 113.882C203.665 113.211 203.11 112.668 202.427 112.668C201.743 112.668 201.188 113.211 201.188 113.882C201.188 114.552 201.743 115.095 202.427 115.095Z" fill="white" stroke="#263238" stroke-linecap="round" stroke-linejoin="round"/>
<path d="M205.679 115.095C206.363 115.095 206.918 114.552 206.918 113.882C206.918 113.211 206.363 112.668 205.679 112.668C204.996 112.668 204.441 113.211 204.441 113.882C204.441 114.552 204.996 115.095 205.679 115.095Z" fill="white" stroke="#263238" stroke-linecap="round" stroke-linejoin="round"/>
<path d="M208.926 115.095C209.61 115.095 210.164 114.552 210.164 113.882C210.164 113.211 209.61 112.668 208.926 112.668C208.242 112.668 207.688 113.211 207.688 113.882C207.688 114.552 208.242 115.095 208.926 115.095Z" fill="white" stroke="#263238" stroke-linecap="round" stroke-linejoin="round"/>
<path d="M212.172 115.095C212.856 115.095 213.41 114.552 213.41 113.882C213.41 113.211 212.856 112.668 212.172 112.668C211.488 112.668 210.934 113.211 210.934 113.882C210.934 114.552 211.488 115.095 212.172 115.095Z" fill="white" stroke="#263238" stroke-linecap="round" stroke-linejoin="round"/>
<path d="M215.418 115.095C216.102 115.095 216.656 114.552 216.656 113.882C216.656 113.211 216.102 112.668 215.418 112.668C214.734 112.668 214.18 113.211 214.18 113.882C214.18 114.552 214.734 115.095 215.418 115.095Z" fill="white" stroke="#263238" stroke-linecap="round" stroke-linejoin="round"/>
<path d="M200.653 111.159V114.229H217.105V111.159H200.653Z" fill="white" stroke="#263238" stroke-linecap="round" stroke-linejoin="round"/>
<path d="M200.706 112.747H217.045" stroke="#263238" stroke-linecap="round" stroke-linejoin="round"/>
<path d="M202.427 46.2285C203.11 46.2285 203.665 45.6851 203.665 45.0149C203.665 44.3446 203.11 43.8013 202.427 43.8013C201.743 43.8013 201.188 44.3446 201.188 45.0149C201.188 45.6851 201.743 46.2285 202.427 46.2285Z" fill="white" stroke="#263238" stroke-linecap="round" stroke-linejoin="round"/>
<path d="M205.679 46.2285C206.363 46.2285 206.918 45.6851 206.918 45.0149C206.918 44.3446 206.363 43.8013 205.679 43.8013C204.996 43.8013 204.441 44.3446 204.441 45.0149C204.441 45.6851 204.996 46.2285 205.679 46.2285Z" fill="white" stroke="#263238" stroke-linecap="round" stroke-linejoin="round"/>
<path d="M208.926 46.2285C209.61 46.2285 210.164 45.6851 210.164 45.0149C210.164 44.3446 209.61 43.8013 208.926 43.8013C208.242 43.8013 207.688 44.3446 207.688 45.0149C207.688 45.6851 208.242 46.2285 208.926 46.2285Z" fill="white" stroke="#263238" stroke-linecap="round" stroke-linejoin="round"/>
<path d="M212.172 46.2285C212.856 46.2285 213.41 45.6851 213.41 45.0149C213.41 44.3446 212.856 43.8013 212.172 43.8013C211.488 43.8013 210.934 44.3446 210.934 45.0149C210.934 45.6851 211.488 46.2285 212.172 46.2285Z" fill="white" stroke="#263238" stroke-linecap="round" stroke-linejoin="round"/>
<path d="M215.418 46.2285C216.102 46.2285 216.656 45.6851 216.656 45.0149C216.656 44.3446 216.102 43.8013 215.418 43.8013C214.734 43.8013 214.18 44.3446 214.18 45.0149C214.18 45.6851 214.734 46.2285 215.418 46.2285Z" fill="white" stroke="#263238" stroke-linecap="round" stroke-linejoin="round"/>
<path d="M202.427 48.6557C203.11 48.6557 203.665 48.1124 203.665 47.4421C203.665 46.7719 203.11 46.2285 202.427 46.2285C201.743 46.2285 201.188 46.7719 201.188 47.4421C201.188 48.1124 201.743 48.6557 202.427 48.6557Z" fill="white" stroke="#263238" stroke-linecap="round" stroke-linejoin="round"/>
<path d="M205.679 48.6557C206.363 48.6557 206.918 48.1124 206.918 47.4421C206.918 46.7719 206.363 46.2285 205.679 46.2285C204.996 46.2285 204.441 46.7719 204.441 47.4421C204.441 48.1124 204.996 48.6557 205.679 48.6557Z" fill="white" stroke="#263238" stroke-linecap="round" stroke-linejoin="round"/>
<path d="M208.926 48.6557C209.61 48.6557 210.164 48.1124 210.164 47.4421C210.164 46.7719 209.61 46.2285 208.926 46.2285C208.242 46.2285 207.688 46.7719 207.688 47.4421C207.688 48.1124 208.242 48.6557 208.926 48.6557Z" fill="white" stroke="#263238" stroke-linecap="round" stroke-linejoin="round"/>
<path d="M212.172 48.6557C212.856 48.6557 213.41 48.1124 213.41 47.4421C213.41 46.7719 212.856 46.2285 212.172 46.2285C211.488 46.2285 210.934 46.7719 210.934 47.4421C210.934 48.1124 211.488 48.6557 212.172 48.6557Z" fill="white" stroke="#263238" stroke-linecap="round" stroke-linejoin="round"/>
<path d="M215.418 48.6557C216.102 48.6557 216.656 48.1124 216.656 47.4421C216.656 46.7719 216.102 46.2285 215.418 46.2285C214.734 46.2285 214.18 46.7719 214.18 47.4421C214.18 48.1124 214.734 48.6557 215.418 48.6557Z" fill="white" stroke="#263238" stroke-linecap="round" stroke-linejoin="round"/>
<path d="M200.653 44.7195V47.7896H217.105V44.7195H200.653Z" fill="white" stroke="#263238" stroke-linecap="round" stroke-linejoin="round"/>
<path d="M200.706 46.3071H217.045" stroke="#263238" stroke-linecap="round" stroke-linejoin="round"/>
<path d="M202.427 139.439C203.11 139.439 203.665 138.896 203.665 138.226C203.665 137.556 203.11 137.012 202.427 137.012C201.743 137.012 201.188 137.556 201.188 138.226C201.188 138.896 201.743 139.439 202.427 139.439Z" fill="white" stroke="#263238" stroke-linecap="round" stroke-linejoin="round"/>
<path d="M205.679 139.439C206.363 139.439 206.918 138.896 206.918 138.226C206.918 137.556 206.363 137.012 205.679 137.012C204.996 137.012 204.441 137.556 204.441 138.226C204.441 138.896 204.996 139.439 205.679 139.439Z" fill="white" stroke="#263238" stroke-linecap="round" stroke-linejoin="round"/>
<path d="M208.926 139.439C209.61 139.439 210.164 138.896 210.164 138.226C210.164 137.556 209.61 137.012 208.926 137.012C208.242 137.012 207.688 137.556 207.688 138.226C207.688 138.896 208.242 139.439 208.926 139.439Z" fill="white" stroke="#263238" stroke-linecap="round" stroke-linejoin="round"/>
<path d="M212.172 139.439C212.856 139.439 213.41 138.896 213.41 138.226C213.41 137.556 212.856 137.012 212.172 137.012C211.488 137.012 210.934 137.556 210.934 138.226C210.934 138.896 211.488 139.439 212.172 139.439Z" fill="white" stroke="#263238" stroke-linecap="round" stroke-linejoin="round"/>
<path d="M215.418 139.439C216.102 139.439 216.656 138.896 216.656 138.226C216.656 137.556 216.102 137.012 215.418 137.012C214.734 137.012 214.18 137.556 214.18 138.226C214.18 138.896 214.734 139.439 215.418 139.439Z" fill="white" stroke="#263238" stroke-linecap="round" stroke-linejoin="round"/>
<path d="M202.427 141.873C203.11 141.873 203.665 141.33 203.665 140.66C203.665 139.99 203.11 139.446 202.427 139.446C201.743 139.446 201.188 139.99 201.188 140.66C201.188 141.33 201.743 141.873 202.427 141.873Z" fill="white" stroke="#263238" stroke-linecap="round" stroke-linejoin="round"/>
<path d="M205.679 141.873C206.363 141.873 206.918 141.33 206.918 140.66C206.918 139.99 206.363 139.446 205.679 139.446C204.996 139.446 204.441 139.99 204.441 140.66C204.441 141.33 204.996 141.873 205.679 141.873Z" fill="white" stroke="#263238" stroke-linecap="round" stroke-linejoin="round"/>
<path d="M208.926 141.873C209.61 141.873 210.164 141.33 210.164 140.66C210.164 139.99 209.61 139.446 208.926 139.446C208.242 139.446 207.688 139.99 207.688 140.66C207.688 141.33 208.242 141.873 208.926 141.873Z" fill="white" stroke="#263238" stroke-linecap="round" stroke-linejoin="round"/>
<path d="M212.172 141.873C212.856 141.873 213.41 141.33 213.41 140.66C213.41 139.99 212.856 139.446 212.172 139.446C211.488 139.446 210.934 139.99 210.934 140.66C210.934 141.33 211.488 141.873 212.172 141.873Z" fill="white" stroke="#263238" stroke-linecap="round" stroke-linejoin="round"/>
<path d="M215.418 141.873C216.102 141.873 216.656 141.33 216.656 140.66C216.656 139.99 216.102 139.446 215.418 139.446C214.734 139.446 214.18 139.99 214.18 140.66C214.18 141.33 214.734 141.873 215.418 141.873Z" fill="white" stroke="#263238" stroke-linecap="round" stroke-linejoin="round"/>
<path d="M200.646 137.937V141.007H217.098V137.937H200.646Z" fill="white" stroke="#263238" stroke-linecap="round" stroke-linejoin="round"/>
<path d="M200.706 139.525H217.045" stroke="#263238" stroke-linecap="round" stroke-linejoin="round"/>
<path d="M205.191 99.161C212.122 99.161 217.741 91.3985 217.741 81.8229C217.741 72.2474 212.122 64.4849 205.191 64.4849C198.26 64.4849 192.641 72.2474 192.641 81.8229C192.641 91.3985 198.26 99.161 205.191 99.161Z" fill="white" stroke="#263238" stroke-linecap="round" stroke-linejoin="round"/>
<path d="M201.362 99.161C208.293 99.161 213.912 91.3985 213.912 81.8229C213.912 72.2474 208.293 64.4849 201.362 64.4849C194.431 64.4849 188.812 72.2474 188.812 81.8229C188.812 91.3985 194.431 99.161 201.362 99.161Z" fill="white" stroke="#263238" stroke-linecap="round" stroke-linejoin="round"/>
<path d="M199.803 72.2061H193.183V78.5955C192.594 80.7997 192.594 83.1153 193.183 85.3195V91.7089H199.803C203.698 91.7089 206.858 87.3465 206.858 81.9608C206.858 76.575 203.698 72.2061 199.803 72.2061Z" fill="white" stroke="#263238" stroke-linecap="round" stroke-linejoin="round"/>
<path d="M193.183 91.7092C197.079 91.7092 200.238 87.3448 200.238 81.9611C200.238 76.5773 197.079 72.2129 193.183 72.2129C189.287 72.2129 186.128 76.5773 186.128 81.9611C186.128 87.3448 189.287 91.7092 193.183 91.7092Z" fill="white" stroke="#263238" stroke-linecap="round" stroke-linejoin="round"/>
<path d="M419.712 156.856H404.344V178.675H419.712V156.856Z" fill="white" stroke="#263238" stroke-linecap="round" stroke-linejoin="round"/>
<path d="M427.135 148.545H395.864V167.766H427.135V148.545Z" fill="white" stroke="#263238" stroke-linecap="round" stroke-linejoin="round"/>
<path d="M411.761 155.171C421.346 155.171 429.116 147.555 429.116 138.16C429.116 128.766 421.346 121.15 411.761 121.15C402.175 121.15 394.405 128.766 394.405 138.16C394.405 147.555 402.175 155.171 411.761 155.171Z" fill="white" stroke="#263238" stroke-linecap="round" stroke-linejoin="round"/>
<path d="M411.76 164.132C426.395 164.132 438.259 152.504 438.259 138.16C438.259 123.817 426.395 112.189 411.76 112.189C397.126 112.189 385.262 123.817 385.262 138.16C385.262 152.504 397.126 164.132 411.76 164.132Z" stroke="#263238" stroke-width="4" stroke-linecap="round" stroke-linejoin="round"/>
<path d="M416.084 138.16C416.086 137.322 415.833 136.502 415.359 135.804C414.885 135.106 414.21 134.562 413.42 134.24C412.63 133.919 411.76 133.834 410.921 133.997C410.082 134.159 409.311 134.563 408.705 135.155C408.1 135.747 407.688 136.502 407.52 137.325C407.353 138.147 407.438 138.999 407.765 139.774C408.092 140.549 408.646 141.211 409.358 141.677C410.069 142.143 410.905 142.392 411.761 142.392C412.906 142.392 414.005 141.946 414.816 141.153C415.626 140.359 416.083 139.283 416.084 138.16Z" stroke="#263238" stroke-width="4" stroke-linecap="round" stroke-linejoin="round"/>
<path d="M411.76 112.189V163.607" stroke="#263238" stroke-width="4" stroke-linecap="round" stroke-linejoin="round"/>
<path d="M385.262 138.16H438.259" stroke="#263238" stroke-width="4" stroke-linecap="round" stroke-linejoin="round"/>
<path d="M6.97449 174.687H431.72C446.429 174.706 460.529 180.441 470.93 190.634C481.33 200.827 487.182 214.647 487.201 229.062V298.985H442.356V229.062C442.354 226.298 441.233 223.648 439.239 221.694C437.244 219.739 434.54 218.64 431.72 218.639H6.97449" fill="white"/>
<path d="M6.97449 174.687H431.72C446.429 174.706 460.529 180.441 470.93 190.634C481.33 200.827 487.182 214.647 487.201 229.062V298.985H442.356V229.062C442.354 226.298 441.233 223.648 439.239 221.694C437.244 219.739 434.54 218.64 431.72 218.639H6.97449" stroke="#263238" stroke-linecap="round" stroke-linejoin="round"/>
<path d="M205.907 214.296H217.493" stroke="#263238" stroke-linecap="round" stroke-linejoin="round"/>
<path d="M161.028 214.296H202.935" stroke="#263238" stroke-linecap="round" stroke-linejoin="round"/>
<path d="M361.721 214.296H373.307" stroke="#263238" stroke-linecap="round" stroke-linejoin="round"/>
<path d="M254.052 214.296H358.749" stroke="#263238" stroke-linecap="round" stroke-linejoin="round"/>
<path d="M398.32 176.589C398.322 177.403 398.077 178.199 397.616 178.876C397.156 179.553 396.501 180.081 395.734 180.394C394.968 180.706 394.123 180.788 393.309 180.63C392.494 180.472 391.746 180.081 391.158 179.506C390.571 178.931 390.17 178.198 390.008 177.4C389.846 176.602 389.928 175.775 390.246 175.023C390.563 174.271 391.101 173.628 391.791 173.176C392.482 172.724 393.293 172.482 394.124 172.482C395.235 172.482 396.302 172.915 397.089 173.685C397.876 174.455 398.319 175.499 398.32 176.589Z" fill="white" stroke="#263238" stroke-linecap="round" stroke-linejoin="round"/>
<path d="M398.32 187.354C398.32 188.167 398.074 188.963 397.613 189.639C397.152 190.315 396.496 190.843 395.73 191.154C394.963 191.465 394.119 191.547 393.305 191.388C392.491 191.229 391.743 190.838 391.156 190.262C390.569 189.687 390.169 188.954 390.008 188.156C389.846 187.358 389.929 186.531 390.246 185.78C390.564 185.028 391.102 184.386 391.792 183.934C392.482 183.482 393.294 183.241 394.124 183.241C395.237 183.241 396.304 183.674 397.091 184.445C397.878 185.217 398.32 186.263 398.32 187.354Z" fill="white" stroke="#263238" stroke-linecap="round" stroke-linejoin="round"/>
<path d="M398.32 198.112C398.322 198.926 398.077 199.722 397.616 200.399C397.156 201.076 396.501 201.604 395.734 201.917C394.968 202.229 394.123 202.311 393.309 202.153C392.494 201.995 391.746 201.604 391.158 201.029C390.571 200.454 390.17 199.721 390.008 198.923C389.846 198.125 389.928 197.298 390.246 196.546C390.563 195.794 391.101 195.151 391.791 194.699C392.482 194.247 393.293 194.005 394.124 194.005C395.235 194.005 396.302 194.438 397.089 195.208C397.876 195.978 398.319 197.022 398.32 198.112Z" fill="white" stroke="#263238" stroke-linecap="round" stroke-linejoin="round"/>
<path d="M398.32 208.877C398.32 209.691 398.074 210.486 397.613 211.162C397.152 211.839 396.496 212.366 395.73 212.677C394.963 212.989 394.119 213.07 393.305 212.911C392.491 212.753 391.743 212.361 391.156 211.786C390.569 211.21 390.169 210.478 390.008 209.68C389.846 208.882 389.929 208.055 390.246 207.303C390.564 206.552 391.102 205.909 391.792 205.457C392.482 205.005 393.294 204.764 394.124 204.764C395.237 204.764 396.304 205.197 397.091 205.969C397.878 206.74 398.32 207.786 398.32 208.877Z" fill="white" stroke="#263238" stroke-linecap="round" stroke-linejoin="round"/>
<path d="M398.32 219.636C398.32 220.449 398.074 221.244 397.613 221.921C397.152 222.597 396.496 223.124 395.73 223.436C394.963 223.747 394.119 223.828 393.305 223.67C392.491 223.511 391.743 223.119 391.156 222.544C390.569 221.969 390.169 221.236 390.008 220.438C389.846 219.64 389.929 218.813 390.246 218.062C390.564 217.31 391.102 216.668 391.792 216.216C392.482 215.764 393.294 215.522 394.124 215.522C395.237 215.522 396.304 215.956 397.091 216.727C397.878 217.499 398.32 218.545 398.32 219.636Z" fill="white" stroke="#263238" stroke-linecap="round" stroke-linejoin="round"/>
<path d="M385.737 180.702C388.055 180.702 389.934 178.86 389.934 176.589C389.934 174.317 388.055 172.476 385.737 172.476C383.419 172.476 381.54 174.317 381.54 176.589C381.54 178.86 383.419 180.702 385.737 180.702Z" fill="white" stroke="#263238" stroke-linecap="round" stroke-linejoin="round"/>
<path d="M385.737 191.467C388.055 191.467 389.934 189.625 389.934 187.354C389.934 185.082 388.055 183.241 385.737 183.241C383.419 183.241 381.54 185.082 381.54 187.354C381.54 189.625 383.419 191.467 385.737 191.467Z" fill="white" stroke="#263238" stroke-linecap="round" stroke-linejoin="round"/>
<path d="M385.737 202.225C388.055 202.225 389.934 200.384 389.934 198.112C389.934 195.841 388.055 193.999 385.737 193.999C383.419 193.999 381.54 195.841 381.54 198.112C381.54 200.384 383.419 202.225 385.737 202.225Z" fill="white" stroke="#263238" stroke-linecap="round" stroke-linejoin="round"/>
<path d="M385.737 212.99C388.055 212.99 389.934 211.149 389.934 208.877C389.934 206.606 388.055 204.764 385.737 204.764C383.419 204.764 381.54 206.606 381.54 208.877C381.54 211.149 383.419 212.99 385.737 212.99Z" fill="white" stroke="#263238" stroke-linecap="round" stroke-linejoin="round"/>
<path d="M385.737 223.749C388.055 223.749 389.934 221.907 389.934 219.636C389.934 217.364 388.055 215.522 385.737 215.522C383.419 215.522 381.54 217.364 381.54 219.636C381.54 221.907 383.419 223.749 385.737 223.749Z" fill="white" stroke="#263238" stroke-linecap="round" stroke-linejoin="round"/>
<path d="M395.148 170.691H384.545V225.231H395.148V170.691Z" fill="white" stroke="#263238" stroke-linecap="round" stroke-linejoin="round"/>
<path d="M389.659 170.882V225.041" stroke="#263238" stroke-linecap="round" stroke-linejoin="round"/>
<path d="M434.94 180.702C437.257 180.702 439.136 178.86 439.136 176.589C439.136 174.317 437.257 172.476 434.94 172.476C432.622 172.476 430.743 174.317 430.743 176.589C430.743 178.86 432.622 180.702 434.94 180.702Z" fill="white" stroke="#263238" stroke-linecap="round" stroke-linejoin="round"/>
<path d="M434.94 191.467C437.257 191.467 439.136 189.625 439.136 187.354C439.136 185.082 437.257 183.241 434.94 183.241C432.622 183.241 430.743 185.082 430.743 187.354C430.743 189.625 432.622 191.467 434.94 191.467Z" fill="white" stroke="#263238" stroke-linecap="round" stroke-linejoin="round"/>
<path d="M434.94 202.225C437.257 202.225 439.136 200.384 439.136 198.112C439.136 195.841 437.257 193.999 434.94 193.999C432.622 193.999 430.743 195.841 430.743 198.112C430.743 200.384 432.622 202.225 434.94 202.225Z" fill="white" stroke="#263238" stroke-linecap="round" stroke-linejoin="round"/>
<path d="M434.94 212.99C437.257 212.99 439.136 211.149 439.136 208.877C439.136 206.606 437.257 204.764 434.94 204.764C432.622 204.764 430.743 206.606 430.743 208.877C430.743 211.149 432.622 212.99 434.94 212.99Z" fill="white" stroke="#263238" stroke-linecap="round" stroke-linejoin="round"/>
<path d="M434.94 223.749C437.257 223.749 439.136 221.907 439.136 219.636C439.136 217.364 437.257 215.522 434.94 215.522C432.622 215.522 430.743 217.364 430.743 219.636C430.743 221.907 432.622 223.749 434.94 223.749Z" fill="white" stroke="#263238" stroke-linecap="round" stroke-linejoin="round"/>
<path d="M430.75 176.589C430.751 177.403 430.506 178.199 430.045 178.876C429.585 179.553 428.93 180.081 428.163 180.394C427.397 180.706 426.553 180.788 425.738 180.63C424.924 180.472 424.175 180.081 423.588 179.506C423 178.931 422.6 178.198 422.437 177.4C422.275 176.602 422.357 175.775 422.675 175.023C422.992 174.271 423.53 173.628 424.221 173.176C424.911 172.724 425.722 172.482 426.553 172.482C427.665 172.482 428.731 172.915 429.518 173.685C430.305 174.455 430.748 175.499 430.75 176.589Z" fill="white" stroke="#263238" stroke-linecap="round" stroke-linejoin="round"/>
<path d="M430.749 187.354C430.749 188.167 430.503 188.963 430.042 189.639C429.581 190.315 428.926 190.843 428.159 191.154C427.392 191.465 426.548 191.547 425.734 191.388C424.92 191.229 424.172 190.838 423.585 190.262C422.998 189.687 422.599 188.954 422.437 188.156C422.275 187.358 422.358 186.531 422.676 185.78C422.993 185.028 423.531 184.386 424.221 183.934C424.911 183.482 425.723 183.241 426.553 183.241C427.666 183.241 428.733 183.674 429.52 184.445C430.307 185.217 430.749 186.263 430.749 187.354Z" fill="white" stroke="#263238" stroke-linecap="round" stroke-linejoin="round"/>
<path d="M430.75 198.112C430.751 198.926 430.506 199.722 430.045 200.399C429.585 201.076 428.93 201.604 428.163 201.917C427.397 202.229 426.553 202.311 425.738 202.153C424.924 201.995 424.175 201.604 423.588 201.029C423 200.454 422.6 199.721 422.437 198.923C422.275 198.125 422.357 197.298 422.675 196.546C422.992 195.794 423.53 195.151 424.221 194.699C424.911 194.247 425.722 194.005 426.553 194.005C427.665 194.005 428.731 194.438 429.518 195.208C430.305 195.978 430.748 197.022 430.75 198.112Z" fill="white" stroke="#263238" stroke-linecap="round" stroke-linejoin="round"/>
<path d="M430.749 208.877C430.749 209.691 430.503 210.486 430.042 211.162C429.581 211.839 428.926 212.366 428.159 212.677C427.392 212.989 426.548 213.07 425.734 212.911C424.92 212.753 424.172 212.361 423.585 211.786C422.998 211.21 422.599 210.478 422.437 209.68C422.275 208.882 422.358 208.055 422.676 207.303C422.993 206.552 423.531 205.909 424.221 205.457C424.911 205.005 425.723 204.764 426.553 204.764C427.666 204.764 428.733 205.197 429.52 205.969C430.307 206.74 430.749 207.786 430.749 208.877Z" fill="white" stroke="#263238" stroke-linecap="round" stroke-linejoin="round"/>
<path d="M430.749 219.636C430.749 220.449 430.503 221.244 430.042 221.921C429.581 222.597 428.926 223.124 428.159 223.436C427.392 223.747 426.548 223.828 425.734 223.67C424.92 223.511 424.172 223.119 423.585 222.544C422.998 221.969 422.599 221.236 422.437 220.438C422.275 219.64 422.358 218.813 422.676 218.062C422.993 217.31 423.531 216.668 424.221 216.216C424.911 215.764 425.723 215.522 426.553 215.522C427.666 215.522 428.733 215.956 429.52 216.727C430.307 217.499 430.749 218.545 430.749 219.636Z" fill="white" stroke="#263238" stroke-linecap="round" stroke-linejoin="round"/>
<path d="M435.964 170.691H425.361V225.231H435.964V170.691Z" fill="white" stroke="#263238" stroke-linecap="round" stroke-linejoin="round"/>
<path d="M430.482 170.882V225.041" stroke="#263238" stroke-linecap="round" stroke-linejoin="round"/>
<path d="M240.317 180.702C242.635 180.702 244.514 178.86 244.514 176.589C244.514 174.317 242.635 172.476 240.317 172.476C238 172.476 236.121 174.317 236.121 176.589C236.121 178.86 238 180.702 240.317 180.702Z" fill="white" stroke="#263238" stroke-linecap="round" stroke-linejoin="round"/>
<path d="M240.317 191.467C242.635 191.467 244.514 189.625 244.514 187.354C244.514 185.082 242.635 183.241 240.317 183.241C238 183.241 236.121 185.082 236.121 187.354C236.121 189.625 238 191.467 240.317 191.467Z" fill="white" stroke="#263238" stroke-linecap="round" stroke-linejoin="round"/>
<path d="M240.317 202.225C242.635 202.225 244.514 200.384 244.514 198.112C244.514 195.841 242.635 193.999 240.317 193.999C238 193.999 236.121 195.841 236.121 198.112C236.121 200.384 238 202.225 240.317 202.225Z" fill="white" stroke="#263238" stroke-linecap="round" stroke-linejoin="round"/>
<path d="M240.317 212.99C242.635 212.99 244.514 211.149 244.514 208.877C244.514 206.606 242.635 204.764 240.317 204.764C238 204.764 236.121 206.606 236.121 208.877C236.121 211.149 238 212.99 240.317 212.99Z" fill="white" stroke="#263238" stroke-linecap="round" stroke-linejoin="round"/>
<path d="M240.317 223.749C242.635 223.749 244.514 221.907 244.514 219.636C244.514 217.364 242.635 215.522 240.317 215.522C238 215.522 236.121 217.364 236.121 219.636C236.121 221.907 238 223.749 240.317 223.749Z" fill="white" stroke="#263238" stroke-linecap="round" stroke-linejoin="round"/>
<path d="M236.121 176.589C236.122 177.403 235.877 178.199 235.416 178.877C234.956 179.554 234.3 180.082 233.533 180.394C232.766 180.706 231.922 180.788 231.107 180.63C230.292 180.471 229.544 180.08 228.956 179.504C228.369 178.928 227.969 178.195 227.808 177.396C227.646 176.598 227.73 175.77 228.048 175.019C228.366 174.267 228.905 173.624 229.597 173.173C230.288 172.721 231.1 172.481 231.931 172.482C233.041 172.484 234.106 172.917 234.892 173.687C235.677 174.457 236.119 175.5 236.121 176.589Z" fill="white" stroke="#263238" stroke-linecap="round" stroke-linejoin="round"/>
<path d="M236.121 187.354C236.121 188.168 235.874 188.963 235.413 189.64C234.952 190.316 234.296 190.843 233.528 191.155C232.761 191.466 231.917 191.547 231.103 191.387C230.289 191.228 229.541 190.836 228.954 190.26C228.367 189.684 227.968 188.951 227.807 188.152C227.646 187.354 227.73 186.527 228.049 185.775C228.367 185.024 228.906 184.382 229.597 183.931C230.288 183.48 231.1 183.239 231.931 183.241C232.482 183.241 233.027 183.347 233.536 183.554C234.044 183.761 234.507 184.064 234.896 184.446C235.285 184.828 235.594 185.281 235.804 185.78C236.014 186.279 236.122 186.814 236.121 187.354Z" fill="white" stroke="#263238" stroke-linecap="round" stroke-linejoin="round"/>
<path d="M236.121 198.112C236.122 198.926 235.877 199.722 235.416 200.4C234.956 201.077 234.3 201.605 233.533 201.917C232.766 202.229 231.922 202.311 231.107 202.153C230.292 201.994 229.544 201.603 228.956 201.027C228.369 200.451 227.969 199.718 227.808 198.919C227.646 198.121 227.73 197.293 228.048 196.541C228.366 195.79 228.905 195.147 229.597 194.696C230.288 194.244 231.1 194.004 231.931 194.005C233.041 194.007 234.106 194.44 234.892 195.21C235.677 195.98 236.119 197.023 236.121 198.112Z" fill="white" stroke="#263238" stroke-linecap="round" stroke-linejoin="round"/>
<path d="M236.121 208.877C236.121 209.691 235.874 210.487 235.413 211.163C234.952 211.84 234.296 212.367 233.528 212.678C232.761 212.989 231.917 213.07 231.103 212.911C230.289 212.752 229.541 212.359 228.954 211.783C228.367 211.207 227.968 210.474 227.807 209.676C227.646 208.877 227.73 208.05 228.049 207.299C228.367 206.547 228.906 205.905 229.597 205.454C230.288 205.003 231.1 204.763 231.931 204.764C232.482 204.764 233.027 204.871 233.536 205.077C234.044 205.284 234.507 205.587 234.896 205.969C235.285 206.351 235.594 206.805 235.804 207.304C236.014 207.803 236.122 208.337 236.121 208.877Z" fill="white" stroke="#263238" stroke-linecap="round" stroke-linejoin="round"/>
<path d="M236.121 219.636C236.121 220.449 235.874 221.245 235.413 221.921C234.952 222.598 234.296 223.125 233.528 223.436C232.761 223.747 231.917 223.828 231.103 223.669C230.289 223.51 229.541 223.118 228.954 222.542C228.367 221.966 227.968 221.232 227.807 220.434C227.646 219.636 227.73 218.808 228.049 218.057C228.367 217.306 228.906 216.664 229.597 216.212C230.288 215.761 231.1 215.521 231.931 215.522C233.043 215.524 234.108 215.958 234.894 216.729C235.68 217.501 236.121 218.546 236.121 219.636Z" fill="white" stroke="#263238" stroke-linecap="round" stroke-linejoin="round"/>
<path d="M241.335 170.691H230.733V225.231H241.335V170.691Z" fill="white" stroke="#263238" stroke-linecap="round" stroke-linejoin="round"/>
<path d="M235.853 170.882V225.041" stroke="#263238" stroke-linecap="round" stroke-linejoin="round"/>
<path d="M92.1472 180.702C94.4649 180.702 96.3439 178.86 96.3439 176.589C96.3439 174.317 94.4649 172.476 92.1472 172.476C89.8294 172.476 87.9504 174.317 87.9504 176.589C87.9504 178.86 89.8294 180.702 92.1472 180.702Z" fill="white" stroke="#263238" stroke-linecap="round" stroke-linejoin="round"/>
<path d="M92.1472 191.467C94.4649 191.467 96.3439 189.625 96.3439 187.354C96.3439 185.082 94.4649 183.241 92.1472 183.241C89.8294 183.241 87.9504 185.082 87.9504 187.354C87.9504 189.625 89.8294 191.467 92.1472 191.467Z" fill="white" stroke="#263238" stroke-linecap="round" stroke-linejoin="round"/>
<path d="M92.1472 202.225C94.4649 202.225 96.3439 200.384 96.3439 198.112C96.3439 195.841 94.4649 193.999 92.1472 193.999C89.8294 193.999 87.9504 195.841 87.9504 198.112C87.9504 200.384 89.8294 202.225 92.1472 202.225Z" fill="white" stroke="#263238" stroke-linecap="round" stroke-linejoin="round"/>
<path d="M92.1472 212.99C94.4649 212.99 96.3439 211.149 96.3439 208.877C96.3439 206.606 94.4649 204.764 92.1472 204.764C89.8294 204.764 87.9504 206.606 87.9504 208.877C87.9504 211.149 89.8294 212.99 92.1472 212.99Z" fill="white" stroke="#263238" stroke-linecap="round" stroke-linejoin="round"/>
<path d="M92.1472 223.749C94.4649 223.749 96.3439 221.907 96.3439 219.636C96.3439 217.364 94.4649 215.522 92.1472 215.522C89.8294 215.522 87.9504 217.364 87.9504 219.636C87.9504 221.907 89.8294 223.749 92.1472 223.749Z" fill="white" stroke="#263238" stroke-linecap="round" stroke-linejoin="round"/>
<path d="M83.7604 180.702C86.0782 180.702 87.9572 178.86 87.9572 176.589C87.9572 174.317 86.0782 172.476 83.7604 172.476C81.4427 172.476 79.5637 174.317 79.5637 176.589C79.5637 178.86 81.4427 180.702 83.7604 180.702Z" fill="white" stroke="#263238" stroke-linecap="round" stroke-linejoin="round"/>
<path d="M83.7604 191.467C86.0782 191.467 87.9572 189.625 87.9572 187.354C87.9572 185.082 86.0782 183.241 83.7604 183.241C81.4427 183.241 79.5637 185.082 79.5637 187.354C79.5637 189.625 81.4427 191.467 83.7604 191.467Z" fill="white" stroke="#263238" stroke-linecap="round" stroke-linejoin="round"/>
<path d="M83.7604 202.225C86.0782 202.225 87.9572 200.384 87.9572 198.112C87.9572 195.841 86.0782 193.999 83.7604 193.999C81.4427 193.999 79.5637 195.841 79.5637 198.112C79.5637 200.384 81.4427 202.225 83.7604 202.225Z" fill="white" stroke="#263238" stroke-linecap="round" stroke-linejoin="round"/>
<path d="M83.7604 212.99C86.0782 212.99 87.9572 211.149 87.9572 208.877C87.9572 206.606 86.0782 204.764 83.7604 204.764C81.4427 204.764 79.5637 206.606 79.5637 208.877C79.5637 211.149 81.4427 212.99 83.7604 212.99Z" fill="white" stroke="#263238" stroke-linecap="round" stroke-linejoin="round"/>
<path d="M83.7604 223.749C86.0782 223.749 87.9572 221.907 87.9572 219.636C87.9572 217.364 86.0782 215.522 83.7604 215.522C81.4427 215.522 79.5637 217.364 79.5637 219.636C79.5637 221.907 81.4427 223.749 83.7604 223.749Z" fill="white" stroke="#263238" stroke-linecap="round" stroke-linejoin="round"/>
<path d="M93.1712 170.691H82.569V225.231H93.1712V170.691Z" fill="white" stroke="#263238" stroke-linecap="round" stroke-linejoin="round"/>
<path d="M87.6827 170.882V225.041" stroke="#263238" stroke-linecap="round" stroke-linejoin="round"/>
<path d="M486.766 265.424C489.084 265.424 490.963 263.583 490.963 261.311C490.963 259.04 489.084 257.198 486.766 257.198C484.448 257.198 482.569 259.04 482.569 261.311C482.569 263.583 484.448 265.424 486.766 265.424Z" fill="white" stroke="#263238" stroke-linecap="round" stroke-linejoin="round"/>
<path d="M475.789 265.424C478.107 265.424 479.986 263.583 479.986 261.311C479.986 259.04 478.107 257.198 475.789 257.198C473.471 257.198 471.592 259.04 471.592 261.311C471.592 263.583 473.471 265.424 475.789 265.424Z" fill="white" stroke="#263238" stroke-linecap="round" stroke-linejoin="round"/>
<path d="M464.805 265.424C467.123 265.424 469.002 263.583 469.002 261.311C469.002 259.04 467.123 257.198 464.805 257.198C462.487 257.198 460.608 259.04 460.608 261.311C460.608 263.583 462.487 265.424 464.805 265.424Z" fill="white" stroke="#263238" stroke-linecap="round" stroke-linejoin="round"/>
<path d="M453.828 265.424C456.146 265.424 458.025 263.583 458.025 261.311C458.025 259.04 456.146 257.198 453.828 257.198C451.51 257.198 449.631 259.04 449.631 261.311C449.631 263.583 451.51 265.424 453.828 265.424Z" fill="white" stroke="#263238" stroke-linecap="round" stroke-linejoin="round"/>
<path d="M442.844 265.424C445.162 265.424 447.041 263.583 447.041 261.311C447.041 259.04 445.162 257.198 442.844 257.198C440.527 257.198 438.648 259.04 438.648 261.311C438.648 263.583 440.527 265.424 442.844 265.424Z" fill="white" stroke="#263238" stroke-linecap="round" stroke-linejoin="round"/>
<path d="M486.766 257.205C489.084 257.205 490.963 255.363 490.963 253.092C490.963 250.82 489.084 248.979 486.766 248.979C484.448 248.979 482.569 250.82 482.569 253.092C482.569 255.363 484.448 257.205 486.766 257.205Z" fill="white" stroke="#263238" stroke-linecap="round" stroke-linejoin="round"/>
<path d="M475.789 257.205C478.107 257.205 479.986 255.363 479.986 253.092C479.986 250.82 478.107 248.979 475.789 248.979C473.471 248.979 471.592 250.82 471.592 253.092C471.592 255.363 473.471 257.205 475.789 257.205Z" fill="white" stroke="#263238" stroke-linecap="round" stroke-linejoin="round"/>
<path d="M464.805 257.205C467.123 257.205 469.002 255.363 469.002 253.092C469.002 250.82 467.123 248.979 464.805 248.979C462.487 248.979 460.608 250.82 460.608 253.092C460.608 255.363 462.487 257.205 464.805 257.205Z" fill="white" stroke="#263238" stroke-linecap="round" stroke-linejoin="round"/>
<path d="M453.828 257.205C456.146 257.205 458.025 255.363 458.025 253.092C458.025 250.82 456.146 248.979 453.828 248.979C451.51 248.979 449.631 250.82 449.631 253.092C449.631 255.363 451.51 257.205 453.828 257.205Z" fill="white" stroke="#263238" stroke-linecap="round" stroke-linejoin="round"/>
<path d="M442.844 257.205C445.162 257.205 447.041 255.363 447.041 253.092C447.041 250.82 445.162 248.979 442.844 248.979C440.527 248.979 438.648 250.82 438.648 253.092C438.648 255.363 440.527 257.205 442.844 257.205Z" fill="white" stroke="#263238" stroke-linecap="round" stroke-linejoin="round"/>
<path d="M492.783 262.315V251.924H437.135V262.315H492.783Z" fill="white" stroke="#263238" stroke-linecap="round" stroke-linejoin="round"/>
<path d="M492.589 256.936H437.329" stroke="#263238" stroke-linecap="round" stroke-linejoin="round"/>
<path d="M416.138 298.926H490.193" stroke="#263238" stroke-miterlimit="10"/>
<path d="M21.8002 298.926H410.663" stroke="#263238" stroke-miterlimit="10"/>
<path d="M340.945 122.304L335.162 139.315L333.013 139.524L331.728 141.624L320.611 133.647V151.496L335.61 159.264C337.366 158.667 339.083 157.966 340.751 157.164C342.25 156.325 344.82 118.736 344.82 118.736L340.945 122.304Z" fill="black" stroke="#263238" stroke-linecap="round" stroke-linejoin="round"/>
<path d="M377.049 291.729C377.049 291.729 381.065 304.193 380.911 306.221C380.757 308.248 380.108 308.746 378.977 309.061C377.845 309.376 369.981 308.746 369.981 308.746L369.499 292.674L377.049 291.729Z" fill="white" stroke="#263238" stroke-linecap="round" stroke-linejoin="round"/>
<path d="M380.911 306.22V306.03C377.471 306.201 372.049 306.516 369.914 306.64L369.981 308.746C369.981 308.746 377.852 309.402 378.976 309.061C380.101 308.72 380.75 308.267 380.911 306.22Z" fill="white" stroke="#263238" stroke-linecap="round" stroke-linejoin="round"/>
<path d="M373.675 276.136C373.675 276.136 373.997 281.653 375.924 286.062C377.852 290.47 377.852 291.729 376.888 292.674C375.924 293.619 371.587 294.255 369.82 294.57C368.053 294.885 368.535 289.368 368.535 285.904C368.535 282.441 372.39 275.192 373.675 276.136Z" fill="black" stroke="#263238" stroke-linecap="round" stroke-linejoin="round"/>
<path d="M352.464 288.896C352.464 288.896 348.602 294.255 346.353 296.144C344.104 298.034 340.57 300.238 336.715 302.599C332.86 304.961 333.013 304.961 333.335 306.535C333.656 308.11 335.912 309.533 338.02 309.533H371.125C371.125 309.533 373.696 308.589 372.892 303.072C372.089 297.555 371.286 289.998 371.286 289.998L352.464 288.896Z" fill="white" stroke="#263238" stroke-linecap="round" stroke-linejoin="round"/>
<path d="M372.819 307.041C366.4 307.133 344.994 307.408 340.095 307.008C337.735 306.806 335.415 306.285 333.201 305.46C333.198 305.823 333.245 306.185 333.341 306.536C333.663 308.11 335.918 309.534 338.027 309.534H371.132C371.132 309.534 372.31 309.088 372.819 307.041Z" fill="white" stroke="#263238" stroke-linecap="round" stroke-linejoin="round"/>
<path d="M344.8 104.455C344.8 104.455 341.588 114.531 340.945 120.415C340.302 126.299 336.661 156.744 335.59 161.789C334.519 166.834 336.675 167.28 336.675 167.28C336.675 167.28 336.889 181.141 336.246 187.019C335.604 192.897 338.388 223.355 339.887 236.796C341.387 250.238 345.242 253.806 346.099 257.375C346.956 260.943 352.96 277.114 352.96 277.711C352.96 278.308 355.101 282.755 354.459 283.805C353.816 284.855 351.674 284.015 351.674 286.324C351.674 288.633 351.46 290.522 351.46 290.522C351.46 290.522 361.099 293.678 364.747 294.308C366.73 294.697 368.764 294.768 370.771 294.518C371.891 292.826 372.756 290.986 373.341 289.053C374.449 285.893 374.886 282.545 374.626 279.213C374.412 276.268 373.769 271.02 373.769 269.373V261.121C373.769 258.602 373.983 252.094 373.983 252.094L377.624 212.819C377.839 210.51 378.481 206.915 379.124 205.472C379.766 204.029 383.809 189.512 383.628 182.578C383.448 175.644 382.557 168.506 382.557 168.506C382.557 168.506 384.271 164.308 383.843 157.164C383.414 150.02 382.986 137.845 382.986 137.215C382.986 136.586 384.057 115.797 379.987 107.184C375.918 98.5703 365.416 93.5322 365.416 93.5322L344.8 104.455Z" fill="black" stroke="#263238" stroke-linecap="round" stroke-linejoin="round"/>
<path d="M371.56 97.4551C368.883 97.5469 363.087 98.7015 357.872 106.134C350.804 116.217 349.519 127.972 349.519 129.232C349.519 130.491 347.156 169.346 347.156 169.346L354.017 171.216C354.017 171.216 354.231 139.072 357.016 126.063C359.8 113.055 363.655 107.374 367.725 104.645C370.617 102.677 374.472 102.145 376.467 101.981C374.985 100.32 373.342 98.8039 371.56 97.4551Z" fill="white" stroke="#263238" stroke-linecap="round" stroke-linejoin="round"/>
<path d="M349.084 130.918L339.874 129.442L338.803 138.685L349.084 140.364V130.918Z" fill="white" stroke="#263238" stroke-linecap="round" stroke-linejoin="round"/>
<path d="M346.942 99.2002C346.942 99.2002 340.517 103.405 340.088 104.665C339.66 105.924 338.589 113.061 338.589 113.061L347.799 107.157L346.942 99.2002Z" fill="black" stroke="#263238" stroke-linecap="round" stroke-linejoin="round"/>
<path d="M330.61 73.8194C330.61 73.8194 329.687 77.4012 329.941 78.0637C330.196 78.7263 332.618 81.4159 332.618 81.4159C332.618 81.4159 329.432 86.4408 330.329 87.9759C331.226 89.5109 333.469 89.0714 333.469 89.0714C333.469 89.0714 335.704 97.1992 338.395 97.8552C341.086 98.5112 343.08 96.3202 343.08 96.3202L347.766 102.88L362.993 90.1472L361.206 83.5872C361.206 83.5872 362.993 77.88 362.993 73.0453C362.993 68.2106 362.324 66.6821 362.324 66.6821L330.196 72.7239L330.61 73.8194Z" fill="white" stroke="#263238" stroke-linecap="round" stroke-linejoin="round"/>
<path d="M362.317 66.6821L342.518 71.3725L342.377 71.9498C342.377 71.9498 342.377 74.1474 343.716 75.2298C345.055 76.3122 347.525 76.3253 347.525 76.3253C347.525 76.3253 347.525 79.1855 349.533 78.0834C351.541 76.9813 349.533 74.3508 352.879 73.9112C356.226 73.4717 357.812 76.1088 356.895 79.1592C355.978 82.2096 354.432 83.3248 354.432 83.3248C354.432 83.3248 358.91 84.4269 361.125 83.5479C361.125 83.5479 362.913 77.8407 362.913 73.006C362.913 68.1712 362.317 66.6821 362.317 66.6821Z" fill="#263238" stroke="#263238" stroke-linecap="round" stroke-linejoin="round"/>
<path d="M336.066 80.1764C336.387 81.0292 336.367 81.823 336.019 81.9476C335.671 82.0723 335.128 81.4819 334.807 80.6356C334.486 79.7894 334.506 78.9891 334.854 78.8644C335.202 78.7398 335.744 79.3236 336.066 80.1764Z" fill="#263238"/>
<path d="M335.108 82.4067C335.108 82.4067 336.119 84.1451 339.667 83.7778" stroke="#263238" stroke-linecap="round" stroke-linejoin="round"/>
<path d="M333.422 89.0715C333.147 89.6699 333.03 90.3262 333.08 90.9804C333.05 91.2437 333.077 91.5102 333.159 91.7627C333.24 92.0153 333.375 92.2483 333.554 92.4467C333.733 92.6451 333.953 92.8045 334.199 92.9146C334.444 93.0248 334.711 93.0832 334.981 93.0862C335.992 93.0862 340.811 94.4572 341.186 92.3449C341.561 90.2326 340.048 89.7209 338.02 88.4942C335.992 87.2674 333.756 89.0321 333.422 89.0715Z" fill="#263238" stroke="#263238" stroke-linecap="round" stroke-linejoin="round"/>
<path d="M326.909 69.7983C326.909 69.7983 326.909 70.7495 325.303 73.2685C323.696 75.7876 320.162 78.9364 320.162 78.9364C320.162 78.9364 333.656 78.2804 337.518 76.4173C341.38 74.5543 346.219 72.3239 347.799 72.009C349.379 71.6941 364.84 68.2239 364.84 68.2239L362.263 64.1305L359.144 54.0149C358.803 52.8913 358.176 51.871 357.323 51.0495C356.469 50.228 355.417 49.6323 354.265 49.318C350.184 48.1678 345.906 47.8486 341.695 48.3799C333.335 49.6394 327.552 54.0477 326.588 58.4626C325.624 62.8775 326.909 69.7983 326.909 69.7983Z" fill="white" stroke="#263238" stroke-linecap="round" stroke-linejoin="round"/>
<path d="M362.779 86.8149C362.779 86.8149 343.281 104.455 342.853 105.085C342.424 105.714 347.384 113.796 347.384 113.796L368.133 93.3225L362.779 86.8149Z" fill="black" stroke="#263238" stroke-linecap="round" stroke-linejoin="round"/>
<path d="M312.579 123.328C312.579 123.328 310.229 123.157 309.982 124.568C309.734 125.978 311.655 130.052 313.194 130.36C314.734 130.668 315.042 130.012 314.915 129.356C314.787 128.7 312.579 123.328 312.579 123.328Z" fill="white" stroke="#263238" stroke-linecap="round" stroke-linejoin="round"/>
<path d="M315.383 122.586C315.383 122.586 313.101 122.016 312.579 123.328C312.057 124.64 313.174 129.015 314.627 129.606C316.079 130.196 316.508 129.606 316.508 128.95C316.508 128.294 315.383 122.586 315.383 122.586Z" fill="white" stroke="#263238" stroke-linecap="round" stroke-linejoin="round"/>
<path d="M317.933 124.128C317.933 124.128 316.755 121.242 315.383 122.587C314.011 123.931 315.577 127.402 316.166 128.746C316.755 130.091 318.328 130.478 318.328 127.979C318.362 126.684 318.23 125.39 317.933 124.128Z" fill="white" stroke="#263238" stroke-linecap="round" stroke-linejoin="round"/>
<path d="M320.102 124.673C320.102 124.673 318.054 128.687 318.763 130.026C319.473 131.364 320.557 130.682 321.494 129.37C322.431 128.058 323.716 125.604 323.288 124.017C322.86 122.429 320.872 123.164 320.102 124.673Z" fill="white" stroke="#263238" stroke-linecap="round" stroke-linejoin="round"/>
<path d="M319.272 116.643C318.93 118.085 318.751 119.559 318.736 121.039L318.67 128.524L319.339 128.438L319.955 121.124C320.062 119.921 320.062 118.712 319.955 117.509L319.868 116.683C319.845 116.627 319.806 116.578 319.756 116.543C319.706 116.507 319.647 116.486 319.586 116.482C319.524 116.478 319.463 116.491 319.409 116.52C319.354 116.548 319.309 116.591 319.279 116.643H319.272Z" fill="white" stroke="#263238" stroke-linecap="round" stroke-linejoin="round"/>
<path d="M324.446 140.574L320.162 126.713L300.658 125.034L311.16 151.287L328.73 155.065L324.446 140.574Z" fill="#263238" stroke="#263238" stroke-linecap="round" stroke-linejoin="round"/>
<path d="M307.05 125.834L308.817 129.18L315.062 129.527L313.884 126.411L312.117 126.064L311.762 125.027L313.174 125.257V123.984L306.816 123.754L307.17 124.909H309.172V125.945L307.05 125.834Z" fill="white" stroke="#263238" stroke-linecap="round" stroke-linejoin="round"/>
<path d="M335.021 148.38C335.021 148.38 331.487 145.494 331.287 144.917C331.086 144.339 329.714 142.995 328.536 141.637C327.358 140.279 323.629 138.56 323.629 138.56L325.001 142.791C325.001 142.791 319.7 141.256 318.522 141.256C317.344 141.256 317.344 142.411 317.538 144.333C317.636 144.925 317.886 145.483 318.264 145.954C318.642 146.426 319.137 146.796 319.7 147.029C319.798 147.882 319.996 148.72 320.289 149.528C320.878 151.457 321.072 153.189 323.04 154.343C325.008 155.498 326.179 155.498 327.947 155.498C329.137 155.48 330.322 155.35 331.487 155.111L335.216 156.075L335.021 148.38Z" fill="white" stroke="#263238" stroke-linecap="round" stroke-linejoin="round"/>
<path d="M367.303 116.427C365.943 118.394 364.995 120.606 364.512 122.934C363.656 126.923 363.227 147.298 363.227 147.298C363.227 147.298 360.657 146.878 360.443 147.718C360.229 148.558 360.014 149.607 360.014 149.607L334.084 147.718L333.228 160.11C333.228 160.11 353.16 163.678 360.443 164.702C367.725 165.725 374.157 167.011 376.942 164.492C379.726 161.973 382.296 144.116 383.16 137.819C384.023 131.521 385.944 121.019 384.445 114.715C382.946 108.41 378.227 105.688 376.085 105.478" fill="black"/>
<path d="M367.303 116.427C365.943 118.394 364.995 120.606 364.512 122.934C363.656 126.923 363.227 147.298 363.227 147.298C363.227 147.298 360.657 146.878 360.443 147.718C360.229 148.558 360.014 149.607 360.014 149.607L334.084 147.718L333.228 160.11C333.228 160.11 353.16 163.678 360.443 164.702C367.725 165.725 374.157 167.011 376.942 164.492C379.726 161.973 382.296 144.116 383.16 137.819C384.023 131.521 385.944 121.019 384.445 114.715C382.946 108.41 378.227 105.688 376.085 105.478" stroke="#263238" stroke-linecap="round" stroke-linejoin="round"/>
<path d="M360.657 149.188C360.657 149.188 360.657 151.707 363.655 155.485" stroke="#263238" stroke-linecap="round" stroke-linejoin="round"/>
<path d="M364.298 148.558C364.298 148.558 364.733 148.977 367.518 149.607" stroke="#263238" stroke-linecap="round" stroke-linejoin="round"/>
<path d="M380.59 169.136C380.59 169.136 376.942 170.606 367.946 170.606" stroke="#263238" stroke-linecap="round" stroke-linejoin="round"/>
<path d="M383.16 183.208C380.191 183.825 377.184 184.246 374.157 184.467L370.088 184.677C370.088 184.677 371.587 197.908 372.444 200.421C373.301 202.933 376.728 203.57 376.728 203.57" stroke="#263238" stroke-linecap="round" stroke-linejoin="round"/>
<path d="M343.221 197.692C344.178 202.697 345.229 208.444 345.657 211.56C346.514 217.857 345.657 233.398 346.728 240.332C347.799 247.266 349.948 259.651 351.019 264.486C352.089 269.321 354.231 279.607 354.231 279.607L354.446 283.805" stroke="#263238" stroke-linecap="round" stroke-linejoin="round"/>
<path d="M341.36 188.272C341.36 188.272 341.889 190.896 342.585 194.478" stroke="#263238" stroke-linecap="round" stroke-linejoin="round"/>
<path d="M193.417 69.9097L189.749 79.7956L182.782 80.5106L182.969 82.6689L189.381 83.0297L195.251 89.137L196.898 88.0612L192.5 80.5106L195.064 70.6313L193.417 69.9097Z" fill="#263238" stroke="#263238" stroke-linecap="round" stroke-linejoin="round"/>
<path d="M193.049 80.9634C193.049 83.0954 191.985 84.8273 190.666 84.8273C189.348 84.8273 188.283 83.0954 188.283 80.9634C188.283 78.8314 189.348 77.0996 190.666 77.0996C191.985 77.0996 193.049 78.8249 193.049 80.9634Z" fill="#263238" stroke="#263238" stroke-linecap="round" stroke-linejoin="round"/>
<path d="M190.76 65.2388C184.636 65.2388 179.669 72.1596 179.669 80.6941C179.669 89.2287 184.636 96.1429 190.76 96.1429C196.884 96.1429 201.851 89.2156 201.851 80.6876C201.851 72.1596 196.884 65.2388 190.76 65.2388ZM190.76 90.5735C186.838 90.5735 183.665 86.1521 183.665 80.6941C183.665 75.2362 186.838 70.8082 190.76 70.8082C194.682 70.8082 197.855 75.2362 197.855 80.6941C197.855 86.1521 194.676 90.5735 190.76 90.5735Z" fill="#263238" stroke="#263238" stroke-linecap="round" stroke-linejoin="round"/>
<path d="M171.845 82.9902C171.845 82.9902 175.419 75.5578 175.861 74.6853C176.302 73.8128 180.774 67.9022 181.443 67.2462C182.112 66.5902 185.352 67.0363 185.352 67.0363C185.352 67.0363 183.003 69.8702 182.782 70.5262C182.561 71.1822 184.341 75.5578 181.885 78.3982C179.428 81.2387 175.191 88.2382 175.191 88.2382L171.845 82.9902Z" fill="white" stroke="#263238" stroke-linecap="round" stroke-linejoin="round"/>
<path d="M179.207 73.8064L182.782 70.5264C182.782 70.5264 189.475 68.3419 189.475 69.6539C189.475 70.9659 187.467 72.0614 185.901 73.1504C184.334 74.2393 182.782 75.1184 182.782 75.1184C182.782 75.1184 184.341 79.0544 180.546 81.0224C176.751 82.9904 175.64 82.9904 175.64 82.9904" fill="white"/>
<path d="M179.207 73.8064L182.782 70.5264C182.782 70.5264 189.475 68.3419 189.475 69.6539C189.475 70.9659 187.467 72.0614 185.901 73.1504C184.334 74.2393 182.782 75.1184 182.782 75.1184C182.782 75.1184 184.341 79.0544 180.546 81.0224C176.751 82.9904 175.64 82.9904 175.64 82.9904" stroke="#263238" stroke-linecap="round" stroke-linejoin="round"/>
<path d="M136.37 103.326L149.984 105.294L171.175 81.4619L178.317 89.3339C178.317 89.3339 161.135 114.701 159.355 118.414C157.574 122.127 156.008 122.79 153.773 123.229C151.537 123.669 139.047 121.478 139.047 121.478L136.37 103.326Z" fill="black" stroke="#263238" stroke-linecap="round" stroke-linejoin="round"/>
<path d="M161.811 92.3975L171.182 99.6135L167.608 105.517L157.347 97.4224L161.811 92.3975Z" fill="white" stroke="#263238" stroke-linecap="round" stroke-linejoin="round"/>
<path d="M139.891 68.2236C139.891 68.2236 142.334 70.9854 142.434 71.6611C142.535 72.3367 141.611 75.7807 141.611 75.7807C141.611 75.7807 146.705 78.8311 146.611 80.5761C146.517 82.3211 144.342 82.918 144.342 82.918C144.342 82.918 146.049 91.0655 143.98 92.8171C141.912 94.5686 138.418 94.4439 138.418 94.4439L137.963 101.378L118.733 96.7859L117.328 90.1865C117.328 90.1865 113.151 85.9291 110.955 81.6585C108.76 77.3879 108.66 75.7545 108.66 75.7545L139.784 67.0625L139.891 68.2236Z" fill="white" stroke="#263238" stroke-linecap="round" stroke-linejoin="round"/>
<path d="M108.626 75.7287L128.231 71.2285L128.619 71.6812C128.619 71.6812 129.616 73.6492 128.927 75.1776C128.238 76.7061 126.062 77.8016 126.062 77.8016C126.062 77.8016 127.361 80.3207 125.085 80.2288C122.809 80.137 123.385 76.9488 120.219 78.0116C117.053 79.0743 116.872 82.0984 119.054 84.4207C121.236 86.7429 123.124 87.0447 123.124 87.0447C123.124 87.0447 119.67 89.9704 117.294 90.1672C117.294 90.1672 113.117 85.9098 110.922 81.6392C108.727 77.3687 108.626 75.7287 108.626 75.7287Z" fill="#263238" stroke="#263238" stroke-linecap="round" stroke-linejoin="round"/>
<path d="M141.296 63.0348C141.296 63.0348 141.731 63.868 144.295 65.3899C146.858 66.9118 151.41 68.1516 151.41 68.1516C151.41 68.1516 139.221 73.4718 134.938 73.5046C130.654 73.5374 125.42 73.6752 123.853 74.095C122.287 74.5148 107.12 78.1884 107.12 78.1884L107.528 73.4521L105.688 63.1595C105.48 62.0192 105.571 60.8459 105.951 59.7492C106.332 58.6525 106.989 57.6682 107.863 56.8881C110.944 54.0895 114.577 51.9395 118.539 50.5708C126.484 48.0387 133.599 49.4097 136.45 52.88C139.302 56.3502 141.296 63.0348 141.296 63.0348Z" fill="white" stroke="#263238" stroke-linecap="round" stroke-linejoin="round"/>
<path d="M122.99 78.3916L135.901 77.2699L135.62 74.5146L122.04 77.729L122.99 78.3916Z" fill="#263238" stroke="#263238" stroke-linecap="round" stroke-linejoin="round"/>
<path d="M135.045 76.096C135.163 76.5633 135.432 76.9807 135.812 77.2857C136.192 77.5908 136.662 77.7671 137.153 77.7884L142.863 78.0508C143.023 78.0587 143.184 78.032 143.333 77.9726C143.483 77.9132 143.617 77.8224 143.727 77.7068C143.836 77.5912 143.919 77.4534 143.968 77.3032C144.018 77.153 144.034 76.9939 144.014 76.8372L144.114 76.6142C144.379 76.0191 144.473 75.3645 144.387 74.7208C144.301 74.0771 144.038 73.4684 143.626 72.9603L143.512 72.8225C143.493 72.6673 143.441 72.5178 143.358 72.3843C143.275 72.2508 143.164 72.1365 143.031 72.0492C142.899 71.9619 142.749 71.9038 142.592 71.8787C142.434 71.8537 142.273 71.8623 142.12 71.9041L136.651 73.3932C136.076 73.5487 135.586 73.9186 135.286 74.4237C134.986 74.9288 134.899 75.5291 135.045 76.096Z" fill="#263238" stroke="#263238" stroke-linecap="round" stroke-linejoin="round"/>
<path d="M114.51 293.566C114.51 293.566 113.392 300.782 113.613 304.502C113.834 308.221 114.51 308.877 114.51 308.877H147.079C147.079 308.877 147.079 304.502 144.63 302.317C142.057 300.181 139.292 298.278 136.37 296.63C134.141 295.318 129.007 291.821 129.007 291.821L114.51 293.566Z" fill="white" stroke="#263238" stroke-linecap="round" stroke-linejoin="round"/>
<path d="M121.872 232.558C121.872 232.558 122.093 246.774 120.306 252.894C118.519 259.015 113.84 270.829 113.613 278.918C113.385 287.006 113.171 296.63 113.84 296.63C114.51 296.63 115.848 297.286 117.408 297.069C118.967 296.853 123.653 296.63 123.653 296.63L126.33 296.19V285.478C126.33 275.854 123.211 267.766 123.653 259.454C124.094 251.143 128.566 245.678 126.33 237.59C124.094 229.501 121.872 229.718 121.872 232.558Z" fill="black" stroke="#263238" stroke-linecap="round" stroke-linejoin="round"/>
<path d="M145.071 292.91C145.071 292.91 149.315 297.286 151.323 298.158C153.331 299.031 161.363 302.094 162.032 302.534C162.702 302.973 166.048 304.718 166.048 306.47C166.047 307.526 165.819 308.57 165.379 309.533H124.991C124.362 308.163 124.131 306.649 124.322 305.158C124.55 302.317 125.219 295.974 125.219 295.974C125.219 295.974 129.235 291.598 134.362 290.726C139.489 289.853 145.071 292.91 145.071 292.91Z" fill="white" stroke="#263238" stroke-linecap="round" stroke-linejoin="round"/>
<path d="M124.991 309.534H165.379C165.725 308.771 165.94 307.957 166.015 307.126H124.349C124.411 307.96 124.628 308.776 124.991 309.534Z" fill="white" stroke="#263238" stroke-linecap="round" stroke-linejoin="round"/>
<path d="M116.069 98.9575C116.069 98.9575 109.824 105.734 106.25 113.822C102.676 121.911 103.352 137.878 104.69 142.686C106.029 147.495 108.258 153.182 107.816 158.654C107.375 164.125 105.36 167.398 106.698 169.806C107.499 171.244 108.394 172.631 109.376 173.958C109.376 173.958 106.698 181.39 108.486 188.174C110.273 194.957 112.274 201.95 115.4 203.478L118.526 205.006C118.526 205.006 120.085 222.286 121.872 232.558C123.659 242.831 123.88 250.71 120.534 258.582C117.187 266.454 121.203 278.918 122.093 282.638C122.993 286.441 123.515 290.321 123.653 294.222C123.653 297.07 121.424 297.502 124.322 299.254C127.22 301.006 127.896 301.438 129.904 300.35C131.912 299.261 140.834 295.318 142.394 295.102C143.954 294.885 146.41 296.19 147.307 292.91C148.204 289.63 145.968 284.382 145.52 283.07C145.071 281.758 143.291 277.606 143.291 275.638C143.291 273.67 145.071 253.774 148.646 244.806C152.22 235.838 152.213 223.598 152.213 216.382C152.213 209.166 154.67 196.262 154.89 194.95C155.111 193.638 157.568 180.958 157.789 172.206C158.035 164.696 157.21 157.189 155.339 149.902C153.773 144.222 152.662 138.094 152.662 138.094C152.662 138.094 146.638 114.702 142.842 110.11C139.047 105.518 139.717 106.174 133.92 103.982C128.124 101.791 116.069 98.9575 116.069 98.9575Z" fill="black" stroke="#263238" stroke-linecap="round" stroke-linejoin="round"/>
<path d="M111.605 104.422C111.605 104.422 118.077 102.454 128.117 103.11C138.157 103.766 142.394 109.67 144.402 112.51C146.41 115.351 151.765 141.597 152.662 149.902C153.185 154.256 153.409 158.639 153.331 163.022L150.205 164.774C150.205 164.774 149.757 151.654 148.197 140.285C146.638 128.917 143.733 116.013 138.157 110.542C132.582 105.071 125.219 105.078 121.424 105.517C117.629 105.957 108.258 110.326 108.258 110.326L111.605 104.422Z" fill="white" stroke="#263238" stroke-linecap="round" stroke-linejoin="round"/>
<path d="M116.35 93.9258L139.442 100.486L142.287 108.686L114.51 99.5018L116.35 93.9258Z" fill="black" stroke="#263238" stroke-linecap="round" stroke-linejoin="round"/>
<path d="M131.685 133.069C131.685 133.069 123.653 136.126 116.739 137.878" stroke="#263238" stroke-linecap="round" stroke-linejoin="round"/>
<path d="M135.928 132.414C135.928 132.414 129.007 137.222 120.534 142.91" stroke="#263238" stroke-linecap="round" stroke-linejoin="round"/>
<path d="M119.958 149.292C118.264 150.682 116.44 151.912 114.51 152.966" stroke="#263238" stroke-linecap="round" stroke-linejoin="round"/>
<path d="M131.912 138.317C131.912 138.317 126.845 143.565 121.571 147.98" stroke="#263238" stroke-linecap="round" stroke-linejoin="round"/>
<path d="M137.146 158.096C138.238 156.817 139.246 155.471 140.165 154.068" stroke="#263238" stroke-linecap="round" stroke-linejoin="round"/>
<path d="M121.424 169.15C121.424 169.15 127.227 169.583 129.456 166.959C130.56 165.647 132.702 163.292 134.81 160.832" stroke="#263238" stroke-linecap="round" stroke-linejoin="round"/>
<path d="M124.871 171.262C127.468 170.908 129.797 170.435 131.015 169.806C134.81 167.838 138.157 163.902 138.157 163.246" stroke="#263238" stroke-linecap="round" stroke-linejoin="round"/>
<path d="M112.723 172.207C112.723 172.207 117.267 172.069 121.939 171.603" stroke="#263238" stroke-linecap="round" stroke-linejoin="round"/>
<path d="M129.744 190.686C130.005 194.248 130.192 199.699 129.007 200.854C127.227 202.606 121.203 202.606 121.203 202.606" stroke="#263238" stroke-linecap="round" stroke-linejoin="round"/>
<path d="M129.456 187.518C129.456 187.518 129.523 188.055 129.604 188.928" stroke="#263238" stroke-linecap="round" stroke-linejoin="round"/>
<path d="M137.488 168.054C137.488 168.054 145.071 166.526 148.646 164.334" stroke="#263238" stroke-linecap="round" stroke-linejoin="round"/>
<path d="M143.96 85.3981C143.96 85.3981 141.055 86.2706 140.165 85.1816" stroke="#263238" stroke-linecap="round" stroke-linejoin="round"/>
<path d="M151.269 182.138C150.6 180.019 149.998 178.55 149.998 178.55" stroke="#263238" stroke-linecap="round" stroke-linejoin="round"/>
<path d="M152.434 208.286C152.434 208.286 153.103 197.134 153.103 191.67C153.037 189.412 152.698 187.171 152.093 184.992" stroke="#263238" stroke-linecap="round" stroke-linejoin="round"/>
<path d="M190.586 99.3903C190.468 97.424 190.468 95.4526 190.586 93.4863C190.814 91.5183 193.042 88.2383 193.491 85.8374C193.939 83.4364 193.042 81.2453 194.83 81.2453C196.617 81.2453 195.941 85.6143 195.941 85.6143C195.941 85.6143 199.066 82.7738 200.405 81.4618C201.744 80.1498 202.862 79.7103 203.531 81.0223C203.722 81.4343 203.821 81.8817 203.821 82.3343C203.821 82.7869 203.722 83.2343 203.531 83.6463C203.531 83.6463 204.642 86.4933 205.09 88.0218C205.457 89.0632 205.586 90.1704 205.471 91.266C205.355 92.3617 204.997 93.4194 204.421 94.3654C202.862 97.2058 202.192 98.9573 200.184 100.046C198.175 101.306 196.37 102.854 194.83 104.638C194.381 105.294 193.491 106.39 193.491 106.39L190.586 99.3903Z" fill="white" stroke="#263238" stroke-linecap="round" stroke-linejoin="round"/>
<path d="M110.045 112.51C111.592 110.236 113.731 108.408 116.242 107.216C118.752 106.024 121.542 105.513 124.322 105.734C134.141 106.39 140.614 111.421 141.504 111.854C142.394 112.287 159.797 119.95 159.797 119.95L190.814 97.6455L197.279 106.606C197.279 106.606 172.293 130.662 169.616 133.502C166.938 136.343 162.253 138.317 160.694 138.534C159.134 138.75 132.582 134.158 130.125 133.942C127.669 133.725 115.848 130.662 115.848 130.662" fill="black"/>
<path d="M110.045 112.51C111.592 110.236 113.731 108.408 116.242 107.216C118.752 106.024 121.542 105.513 124.322 105.734C134.141 106.39 140.614 111.421 141.504 111.854C142.394 112.287 159.797 119.95 159.797 119.95L190.814 97.6455L197.279 106.606C197.279 106.606 172.293 130.662 169.616 133.502C166.938 136.343 162.253 138.317 160.694 138.534C159.134 138.75 132.582 134.158 130.125 133.942C127.669 133.725 115.848 130.662 115.848 130.662" stroke="#263238" stroke-linecap="round" stroke-linejoin="round"/>
<path d="M172.072 110.982L181.443 122.134L185.907 117.542L177.875 107.262L172.072 110.982Z" fill="white" stroke="#263238" stroke-linecap="round" stroke-linejoin="round"/>
</svg>
