<svg width="249" height="249" viewBox="0 0 249 249" fill="none" xmlns="http://www.w3.org/2000/svg">
<path d="M249 190.436H0V190.56H249V190.436Z" fill="#EBEBEB"/>
<path d="M221.739 196.137H196.391V196.262H221.739V196.137Z" fill="#EBEBEB"/>
<path d="M49.6356 194.664H26.125V194.788H49.6356V194.664Z" fill="#EBEBEB"/>
<path d="M198.204 193.827H188.647V193.951H198.204V193.827Z" fill="#EBEBEB"/>
<path d="M164.948 197.128H157.936V197.253H164.948V197.128Z" fill="#EBEBEB"/>
<path d="M153.498 197.128H135.849V197.253H153.498V197.128Z" fill="#EBEBEB"/>
<path d="M125.601 195.027H97.2196V195.151H125.601V195.027Z" fill="#EBEBEB"/>
<path d="M118.026 168.225H21.8672C21.1139 168.223 20.3919 167.923 19.8597 167.39C19.3275 166.857 19.0286 166.134 19.0286 165.381V30.2088C19.0351 29.4598 19.3369 28.7437 19.8684 28.2159C20.3999 27.6882 21.1182 27.3914 21.8672 27.3901H118.026C118.78 27.3901 119.503 27.6897 120.037 28.223C120.57 28.7563 120.87 29.4796 120.87 30.2337V165.381C120.87 166.135 120.57 166.858 120.037 167.392C119.503 167.925 118.78 168.225 118.026 168.225ZM21.8672 27.4897C21.1469 27.4911 20.4566 27.7781 19.9477 28.2879C19.4389 28.7977 19.1531 29.4885 19.1531 30.2088V165.381C19.1531 166.101 19.4389 166.792 19.9477 167.302C20.4566 167.812 21.1469 168.099 21.8672 168.1H118.026C118.747 168.099 119.438 167.812 119.947 167.302C120.457 166.793 120.744 166.102 120.745 165.381V30.2088C120.744 29.4881 120.457 28.7972 119.947 28.2876C119.438 27.7779 118.747 27.4911 118.026 27.4897H21.8672Z" fill="#EBEBEB"/>
<path d="M225.748 168.225H129.585C128.831 168.223 128.108 167.923 127.575 167.39C127.042 166.857 126.742 166.135 126.741 165.381V30.2088C126.749 29.4594 127.052 28.7432 127.584 28.2156C128.116 27.688 128.835 27.3914 129.585 27.3901H225.748C226.496 27.3927 227.213 27.6901 227.744 28.2177C228.274 28.7453 228.575 29.4607 228.582 30.2088V165.381C228.582 166.133 228.284 166.855 227.753 167.388C227.222 167.921 226.501 168.222 225.748 168.225ZM129.585 27.4897C128.864 27.4911 128.173 27.7779 127.663 28.2876C127.154 28.7972 126.867 29.4881 126.865 30.2088V165.381C126.867 166.102 127.154 166.793 127.663 167.302C128.173 167.812 128.864 168.099 129.585 168.1H225.748C226.469 168.099 227.16 167.812 227.67 167.302C228.179 166.793 228.466 166.102 228.467 165.381V30.2088C228.466 29.4881 228.179 28.7972 227.67 28.2876C227.16 27.7779 226.469 27.4911 225.748 27.4897H129.585Z" fill="#EBEBEB"/>
<path d="M194.404 42.6636H143.708V190.435H194.404V42.6636Z" fill="#EBEBEB"/>
<path d="M190.983 187.447V45.6519H147.129V187.447H190.983Z" fill="#FAFAFA"/>
<path d="M142.189 42.6636H91.4926V190.435H142.189V42.6636Z" fill="#EBEBEB"/>
<path d="M142.189 189.857H143.708L143.708 43.2462H142.189L142.189 189.857Z" fill="#E0E0E0"/>
<path d="M138.768 187.443V45.647H94.9138V187.443H138.768Z" fill="#FAFAFA"/>
<path d="M217.561 41.5532H68.3356C68.1603 41.5519 67.9926 41.4817 67.8687 41.3578C67.7447 41.2338 67.6745 41.0661 67.6732 40.8909C67.6745 40.7156 67.7447 40.5479 67.8687 40.424C67.9926 40.3 68.1603 40.2298 68.3356 40.2285H217.561C217.737 40.2298 217.904 40.3 218.028 40.424C218.152 40.5479 218.222 40.7156 218.224 40.8909C218.222 41.0661 218.152 41.2338 218.028 41.3578C217.904 41.4817 217.737 41.5519 217.561 41.5532Z" fill="#E0E0E0"/>
<path d="M190.983 48.4755V45.6519H147.129V48.4755H190.983Z" fill="#E0E0E0"/>
<path d="M190.983 50.4079V45.647H147.129V50.4079H190.983Z" fill="#E0E0E0"/>
<path d="M138.768 56.0502V45.647H94.9138V56.0502H138.768Z" fill="#E0E0E0"/>
<g opacity="0.8">
<path d="M200.913 37.1309H186.87V188.617H200.913V37.1309Z" fill="#F5F5F5"/>
<path d="M197.208 37.1309H190.58V188.617H197.208V37.1309Z" fill="#F0F0F0"/>
<path d="M208.448 37.1309H194.404V188.617H208.448V37.1309Z" fill="#F5F5F5"/>
<path d="M204.743 37.1309H198.114V188.617H204.743V37.1309Z" fill="#F0F0F0"/>
<path d="M215.47 37.1309H201.426V188.617H215.47V37.1309Z" fill="#F5F5F5"/>
</g>
<g opacity="0.8">
<path d="M90.367 37.1309H69.9839V188.617H90.367V37.1309Z" fill="#F5F5F5"/>
<path d="M84.9837 37.1309H75.3623V188.617H84.9837V37.1309Z" fill="#F0F0F0"/>
<path d="M101.298 37.1309H80.915V188.617H101.298V37.1309Z" fill="#F5F5F5"/>
<path d="M95.9147 37.1309H86.2933V188.617H95.9147V37.1309Z" fill="#F0F0F0"/>
<path d="M111.487 37.1309H91.1041V188.617H111.487V37.1309Z" fill="#F5F5F5"/>
</g>
<path d="M60.3077 52.6538H27.4248V126.691H60.3077V52.6538Z" fill="#F0F0F0"/>
<path d="M60.3078 126.696H61.3436L61.3436 52.6586H60.3078L60.3078 126.696Z" fill="#E6E6E6"/>
<path d="M57.3198 123.703L57.3198 55.6416H30.4129L30.4129 123.703H57.3198Z" fill="#FAFAFA"/>
<path d="M62.3795 163.379H28.625C27.8827 163.377 27.1711 163.082 26.6457 162.558C26.1203 162.033 25.8239 161.322 25.8213 160.58C25.8239 159.838 26.1203 159.127 26.6457 158.602C27.1711 158.078 27.8827 157.783 28.625 157.781H62.3795C63.1209 157.784 63.8313 158.08 64.3556 158.604C64.8799 159.128 65.1756 159.839 65.1782 160.58C65.1756 161.321 64.8799 162.032 64.3556 162.556C63.8313 163.08 63.1209 163.376 62.3795 163.379Z" fill="#F5F5F5"/>
<path d="M36.7423 163.379H31.1996L24.8999 190.435H30.4377L36.7423 163.379Z" fill="#E6E6E6"/>
<path d="M47.798 163.379H42.2603L39.1577 190.435H44.6955L47.798 163.379Z" fill="#E6E6E6"/>
<path d="M54.2621 163.379H59.7998L66.1045 190.435H60.5618L54.2621 163.379Z" fill="#E6E6E6"/>
<path d="M124.5 212.925C177.827 212.925 221.057 210.401 221.057 207.288C221.057 204.174 177.827 201.65 124.5 201.65C71.173 201.65 27.9429 204.174 27.9429 207.288C27.9429 210.401 71.173 212.925 124.5 212.925Z" fill="#F5F5F5"/>
<path d="M156.656 148.583H114.162C113.356 148.583 112.702 149.237 112.702 150.043V151.716C112.702 152.522 113.356 153.175 114.162 153.175H156.656C157.462 153.175 158.115 152.522 158.115 151.716V150.043C158.115 149.237 157.462 148.583 156.656 148.583Z" fill="#263238"/>
<path d="M156.252 204.3H158.115L155.974 153.175H153.394L156.252 204.3Z" fill="black"/>
<path opacity="0.6" d="M156.252 204.3H158.115L155.974 153.175H153.394L156.252 204.3Z" fill="white"/>
<path d="M139.106 204.3H137.244L139.385 153.175H141.965L139.106 204.3Z" fill="black"/>
<path opacity="0.6" d="M139.106 204.3H137.244L139.385 153.175H141.965L139.106 204.3Z" fill="white"/>
<path d="M131.716 204.3H133.579L131.432 153.175H128.858L131.716 204.3Z" fill="black"/>
<path opacity="0.6" d="M131.716 204.3H133.579L131.432 153.175H128.858L131.716 204.3Z" fill="white"/>
<path d="M114.565 204.3H112.702L114.849 153.175H117.423L114.565 204.3Z" fill="black"/>
<path opacity="0.6" d="M114.565 204.3H112.702L114.849 153.175H117.423L114.565 204.3Z" fill="white"/>
<g opacity="0.3">
<path d="M155.974 153.17H153.394L153.513 155.346H156.063L155.974 153.17Z" fill="black"/>
<path d="M139.296 155.346H141.84L141.965 153.17H139.385L139.296 155.346Z" fill="black"/>
<path d="M128.858 153.17L128.977 155.346H131.527L131.432 153.17H128.858Z" fill="black"/>
<path d="M114.754 155.346H117.309L117.428 153.17H114.849L114.754 155.346Z" fill="black"/>
</g>
<path d="M130.516 196.785L126.303 199.026L119.659 190.057L123.877 187.816L130.516 196.785Z" fill="#FFB573"/>
<path d="M124.779 197.642L129.181 194.584C129.217 194.553 129.259 194.53 129.305 194.517C129.35 194.503 129.398 194.5 129.445 194.506C129.491 194.512 129.537 194.528 129.577 194.552C129.617 194.577 129.652 194.61 129.679 194.649L132.314 197.98C132.44 198.164 132.49 198.39 132.452 198.61C132.414 198.829 132.291 199.025 132.109 199.156C130.561 200.191 129.863 200.555 127.837 201.76C126.587 202.497 123.599 204.25 121.761 205.052C119.923 205.854 119.186 204.011 119.894 203.508C121.572 202.323 123.793 199.992 124.296 198.354C124.373 198.069 124.543 197.819 124.779 197.642Z" fill="#263238"/>
<path opacity="0.2" d="M123.882 187.821L119.659 190.057L122.862 194.379L126.985 192.009L123.882 187.821Z" fill="black"/>
<path d="M134.057 134.694C134.057 134.694 101.318 133.674 101.189 147.354C101.029 167.015 119.689 192.836 119.689 192.836L126.99 187.98C126.99 187.98 114.201 169.211 114.092 153.862C123.738 151.138 146.462 152.866 149.405 144.849C151.815 138.305 150.555 134.694 150.555 134.694H134.057Z" fill="black"/>
<path opacity="0.2" d="M134.057 134.694C134.057 134.694 101.318 133.674 101.189 147.354C101.029 167.015 119.689 192.836 119.689 192.836L126.99 187.98C126.99 187.98 114.201 169.211 114.092 153.862C123.738 151.138 146.462 152.866 149.405 144.849C151.815 138.305 150.555 134.694 150.555 134.694H134.057Z" fill="black"/>
<path d="M128.972 189.23L120.287 194.549L117.563 191.785L127.105 185.774L128.972 189.23Z" fill="#263238"/>
<path d="M123.868 199.29C124.215 199.038 124.533 198.747 124.814 198.423C124.829 198.407 124.838 198.387 124.842 198.366C124.845 198.344 124.842 198.322 124.833 198.303C124.824 198.283 124.809 198.266 124.791 198.255C124.772 198.244 124.751 198.238 124.729 198.239C124.545 198.239 122.911 198.239 122.563 198.772C122.523 198.831 122.499 198.9 122.493 198.971C122.487 199.043 122.499 199.115 122.528 199.18C122.561 199.283 122.621 199.376 122.701 199.449C122.782 199.521 122.88 199.571 122.986 199.593C123.307 199.604 123.621 199.496 123.868 199.29ZM124.47 198.468C123.868 199.095 123.335 199.429 123.026 199.374C122.957 199.359 122.893 199.325 122.842 199.276C122.791 199.226 122.755 199.164 122.737 199.095C122.719 199.066 122.709 199.031 122.709 198.996C122.709 198.961 122.719 198.926 122.737 198.896C122.936 198.617 123.818 198.493 124.47 198.468Z" fill="black"/>
<path d="M124.794 198.443C124.808 198.433 124.82 198.419 124.829 198.404C124.838 198.387 124.843 198.368 124.843 198.349C124.843 198.33 124.838 198.311 124.829 198.294C124.799 198.244 124.102 197.059 123.444 196.949C123.356 196.932 123.264 196.936 123.178 196.961C123.091 196.987 123.012 197.032 122.946 197.094C122.871 197.15 122.817 197.229 122.792 197.319C122.766 197.409 122.772 197.505 122.807 197.592C123.016 198.09 124.166 198.493 124.719 198.458L124.794 198.443ZM123.155 197.208C123.191 197.182 123.233 197.162 123.276 197.152C123.32 197.142 123.365 197.141 123.409 197.149C123.803 197.213 124.281 197.836 124.53 198.214C123.987 198.165 123.17 197.816 123.036 197.492C123.011 197.432 122.996 197.348 123.121 197.238C123.131 197.248 123.141 197.233 123.155 197.208Z" fill="black"/>
<path d="M122.722 202.283L117.991 202.059L117.214 190.889L121.945 191.113L122.722 202.283Z" fill="#FFB573"/>
<path d="M117.882 201.252L123.235 201.083C123.325 201.076 123.415 201.105 123.484 201.164C123.553 201.222 123.596 201.306 123.604 201.396L123.997 205.624C124.005 205.848 123.924 206.066 123.772 206.23C123.62 206.394 123.409 206.492 123.185 206.501C121.323 206.501 120.426 206.446 118.071 206.501C116.622 206.546 113.773 206.76 111.786 206.501C109.799 206.242 110.103 204.295 110.964 204.22C113.011 204.056 115.755 202.641 117.07 201.541C117.301 201.358 117.587 201.256 117.882 201.252Z" fill="#263238"/>
<path d="M116.218 202.134C116.646 202.111 117.071 202.04 117.483 201.924C117.504 201.919 117.523 201.908 117.537 201.892C117.551 201.876 117.561 201.856 117.564 201.835C117.567 201.813 117.564 201.792 117.555 201.772C117.546 201.753 117.531 201.736 117.513 201.725C117.359 201.626 115.979 200.729 115.407 200.988C115.341 201.017 115.284 201.061 115.24 201.118C115.197 201.175 115.168 201.241 115.158 201.312C115.128 201.416 115.127 201.527 115.154 201.632C115.181 201.737 115.236 201.832 115.312 201.909C115.575 202.096 115.899 202.176 116.218 202.134ZM117.169 201.775C116.323 201.969 115.675 201.964 115.466 201.75C115.418 201.698 115.383 201.635 115.367 201.566C115.35 201.497 115.352 201.425 115.372 201.357C115.376 201.322 115.389 201.289 115.41 201.261C115.431 201.233 115.459 201.211 115.491 201.197C115.8 201.063 116.607 201.436 117.169 201.775Z" fill="black"/>
<path d="M117.458 201.929C117.475 201.934 117.492 201.934 117.508 201.929C117.524 201.92 117.538 201.908 117.548 201.892C117.557 201.876 117.563 201.858 117.563 201.84C117.563 201.78 117.633 200.405 117.135 199.957C117.07 199.895 116.99 199.849 116.903 199.825C116.816 199.801 116.725 199.798 116.637 199.818C116.541 199.823 116.451 199.86 116.379 199.924C116.308 199.987 116.26 200.072 116.243 200.166C116.149 200.664 116.891 201.66 117.374 201.929C117.401 201.938 117.431 201.938 117.458 201.929ZM116.746 200.017C116.79 200.014 116.834 200.021 116.875 200.036C116.916 200.052 116.954 200.076 116.985 200.107C117.284 200.375 117.344 201.157 117.349 201.601C116.921 201.262 116.423 200.525 116.487 200.181C116.487 200.117 116.532 200.037 116.691 200.012L116.746 200.017Z" fill="black"/>
<path opacity="0.2" d="M121.95 191.113L117.214 190.889L117.657 197.278L122.378 197.273L121.95 191.113Z" fill="black"/>
<path d="M145.7 134.694C145.7 134.694 111.447 137.931 112.692 148.245C114.495 163.115 115.382 195.166 115.382 195.166L124.112 195.51C124.112 195.51 127.812 166.626 125.899 151.372C134.764 151.372 156.467 152.01 158.444 146.671C160.192 141.95 159.569 134.719 159.569 134.719L145.7 134.694Z" fill="black"/>
<path d="M125.078 196.048L114.6 195.53L114.221 190.968L125.715 191.76L125.078 196.048Z" fill="#263238"/>
<path d="M138.1 104.485C138.036 105.322 137.971 106.049 137.876 106.816C137.782 107.583 137.682 108.31 137.563 109.087C137.328 110.581 137.03 112.075 136.681 113.604C136.002 116.763 134.898 119.815 133.399 122.677C132.952 123.481 132.437 124.246 131.86 124.963C131.216 125.773 130.454 126.481 129.6 127.065C127.956 128.156 126.055 128.798 124.087 128.927C122.363 129.04 120.632 128.872 118.962 128.429C118.174 128.228 117.399 127.978 116.642 127.682C116.263 127.538 115.895 127.379 115.531 127.184C115.167 126.99 114.829 126.831 114.411 126.607L115.72 123.275L116.671 123.395L117.667 123.494C118.335 123.549 118.992 123.584 119.659 123.584C120.869 123.604 122.077 123.465 123.25 123.17C124.19 122.945 125.061 122.492 125.785 121.851C126.095 121.56 126.373 121.236 126.612 120.885C126.906 120.432 127.169 119.959 127.398 119.47C127.925 118.328 128.356 117.143 128.688 115.93C129.067 114.67 129.37 113.35 129.644 112.005C129.918 110.661 130.142 109.301 130.366 107.932L130.66 105.87C130.75 105.193 130.85 104.466 130.914 103.878L138.1 104.485Z" fill="#FFB573"/>
<path d="M138.13 100.427C134.644 97.0457 130.312 99.0427 128.589 105.407C127.613 108.805 126.947 112.283 126.597 115.8L137.687 118.091C139.704 112.021 141.716 103.893 138.13 100.427Z" fill="#263238"/>
<path opacity="0.3" d="M134.56 107.349C135.351 106.637 137.602 109.839 138.977 113.788C138.588 115.282 138.145 116.722 137.692 118.071L131.019 116.692C131.552 112.748 132.782 108.953 134.56 107.349Z" fill="black"/>
<path d="M114.968 121.781L112.478 120.83L112.369 126.114C112.369 126.114 116.552 127.922 117.404 125.845L117.105 124.525C116.961 123.944 116.696 123.399 116.328 122.926C115.96 122.454 115.497 122.064 114.968 121.781Z" fill="#FFB573"/>
<path d="M109.54 120.97L108.071 125.402L112.389 126.114L112.498 120.83L109.54 120.97Z" fill="#FFB573"/>
<path d="M113.305 124.5C113.252 124.501 113.201 124.487 113.156 124.46C113.111 124.432 113.074 124.393 113.051 124.346L108.604 115.785C108.569 115.718 108.561 115.639 108.584 115.567C108.606 115.494 108.656 115.433 108.723 115.397C108.792 115.363 108.87 115.357 108.943 115.381C109.015 115.404 109.076 115.454 109.112 115.521L113.544 124.067C113.579 124.134 113.586 124.213 113.564 124.286C113.542 124.359 113.492 124.42 113.424 124.455C113.388 124.478 113.347 124.493 113.305 124.5Z" fill="#263238"/>
<path d="M137.717 97.0354L143.036 95.5414L149.868 95.2227C150.906 95.173 151.931 95.4658 152.786 96.0561C153.641 96.6465 154.278 97.5015 154.599 98.4896C155.899 102.474 157.089 108.211 157.971 113.176C158.967 118.748 159.465 127.12 159.569 134.719H134.057C133.474 118.858 131.457 109.48 130.571 104.291C130.394 103.274 130.555 102.227 131.03 101.311C131.505 100.394 132.267 99.6588 133.2 99.2167L137.717 97.0354Z" fill="#263238"/>
<path opacity="0.3" d="M157.971 113.156C157.283 109.247 156.397 104.844 155.411 101.204C150.864 100.437 148.663 110.407 150.013 115.352C151.362 120.297 158.558 117.299 158.558 117.299C158.389 115.81 158.19 114.411 157.971 113.156Z" fill="black"/>
<path d="M142.129 85.1581C143.225 87.8473 142.567 92.7775 140.406 91.3831C138.245 89.9887 141.462 83.5247 142.129 85.1581Z" fill="#263238"/>
<path d="M140.934 86.8813L138.867 90.0387L136.059 94.3364C136.421 94.7041 136.715 95.1343 136.925 95.6063C137.423 96.6421 137.866 97.414 135.69 98.8981C135.456 99.048 135.27 99.262 135.155 99.5145C135.039 99.767 134.999 100.047 135.038 100.322C135.167 100.995 135.834 101.647 138.18 101.234C140.441 100.801 142.503 99.6562 144.066 97.9668C144.848 97.185 144.669 96.5973 143.917 95.7856C141.766 93.4948 141.128 89.8345 140.934 86.8813Z" fill="#FFB573"/>
<path opacity="0.2" d="M136.731 93.2756L138.454 90.2129C138.491 90.2926 138.53 90.3772 138.574 90.4669C138.727 90.8451 138.85 91.2347 138.942 91.6322C139.256 92.9917 138.2 94.9339 137.04 95.8602L136.905 95.5963C136.696 95.1553 136.428 94.7448 136.108 94.3762C136.088 94.3559 136.064 94.3391 136.039 94.3264L136.731 93.2756Z" fill="black"/>
<path d="M126.387 83.166C125.745 84.6152 128.021 88.7187 130.625 87.0604C133.23 85.402 127.523 80.6013 126.387 83.166Z" fill="#263238"/>
<path d="M138.942 102.115C138.908 102.116 138.874 102.104 138.848 102.082C138.821 102.06 138.803 102.029 138.798 101.995C138.608 100.765 137.802 100.003 136.89 99.0772C135.735 97.9468 134.425 96.6619 133.997 94.147C133.99 94.11 133.999 94.0719 134.02 94.0411C134.042 94.0103 134.074 93.9893 134.111 93.9827C134.148 93.9761 134.186 93.9844 134.217 94.0059C134.248 94.0274 134.269 94.0602 134.276 94.0972C134.694 96.5225 135.969 97.7725 137.089 98.873C138.011 99.7744 138.877 100.626 139.081 101.951C139.085 101.969 139.085 101.989 139.08 102.007C139.076 102.026 139.068 102.043 139.057 102.059C139.046 102.074 139.032 102.087 139.015 102.097C138.999 102.106 138.981 102.113 138.962 102.115H138.942Z" fill="white"/>
<path d="M140.003 81.7069C140.999 86.2188 141.776 88.8134 140.167 91.6669C137.737 95.9846 131.661 95.397 129.351 91.2436C127.269 87.5086 126.029 80.7558 129.898 77.8425C130.764 77.1988 131.778 76.7841 132.847 76.6367C133.916 76.4894 135.004 76.6142 136.012 76.9995C137.02 77.3849 137.914 78.0184 138.611 78.8413C139.309 79.6642 139.788 80.6498 140.003 81.7069Z" fill="#FFB573"/>
<path d="M141.342 84.8045C139.789 87.0106 135.715 82.9619 136.049 80.2428C132.005 82.5436 127.613 85.6162 124.948 83.0266C121.871 80.0386 122.712 75.7558 126.318 75.3724C125.68 76.6174 129.306 77.1701 131.233 75.2479C134.495 72.0208 139.649 72.6931 139.555 75.3076C142.04 74.3216 144.754 79.9589 141.342 84.8045Z" fill="#263238"/>
<path d="M139.077 76.0399C140.038 75.3227 139.4 72.768 137.169 72.021C139.291 72.2949 141.487 73.8736 139.077 76.0399Z" fill="#263238"/>
<path d="M142.782 84.6055C142.824 85.6371 142.488 86.6488 141.835 87.4491C140.979 88.47 139.659 87.6582 139.345 86.3834C139.072 85.2429 139.425 83.475 140.551 82.9272C141.676 82.3794 142.722 83.3206 142.782 84.6055Z" fill="#FFB573"/>
<path d="M133.529 85.3674C133.648 85.731 133.559 86.0995 133.32 86.1842C133.081 86.2688 132.822 86.0447 132.677 85.6862C132.533 85.3276 132.647 84.9541 132.886 84.8645C133.125 84.7748 133.409 84.9989 133.529 85.3674Z" fill="#263238"/>
<path d="M129.445 86.8616C129.57 87.2301 129.475 87.5986 129.236 87.6833C128.997 87.7679 128.713 87.5438 128.594 87.1853C128.474 86.8267 128.569 86.4532 128.803 86.3685C129.037 86.2839 129.326 86.498 129.445 86.8616Z" fill="#263238"/>
<path d="M130.845 86.6523C130.861 87.7416 130.734 88.8283 130.466 89.8844C131.198 90.1533 132.005 89.5208 132.005 89.5208L130.845 86.6523Z" fill="#ED893E"/>
<path d="M133.031 91.5477C133.455 91.4083 133.846 91.1841 134.181 90.8888C134.516 90.5934 134.787 90.233 134.978 89.8296C134.99 89.8018 134.99 89.7706 134.979 89.7426C134.968 89.7147 134.946 89.6922 134.918 89.6802C134.89 89.6701 134.859 89.6712 134.831 89.6832C134.803 89.6952 134.781 89.7173 134.769 89.7449C134.555 90.1799 134.244 90.5597 133.86 90.8551C133.475 91.1504 133.028 91.3534 132.553 91.4481C132.537 91.4501 132.522 91.4553 132.509 91.4634C132.495 91.4714 132.484 91.4822 132.474 91.4949C132.465 91.5077 132.459 91.5222 132.455 91.5375C132.452 91.5529 132.452 91.5688 132.455 91.5842C132.458 91.5996 132.464 91.6142 132.473 91.6271C132.482 91.64 132.494 91.6509 132.507 91.6591C132.521 91.6674 132.535 91.6728 132.551 91.675C132.567 91.6773 132.582 91.6763 132.598 91.6722C132.745 91.6403 132.889 91.5987 133.031 91.5477Z" fill="#263238"/>
<path d="M133.902 83.7837C133.937 83.7672 133.966 83.7413 133.987 83.709C134.019 83.658 134.029 83.5965 134.016 83.5378C134.003 83.4791 133.968 83.4279 133.917 83.3952C133.623 83.1964 133.284 83.0733 132.93 83.0368C132.576 83.0003 132.219 83.0516 131.89 83.1861C131.863 83.1984 131.838 83.2161 131.818 83.2382C131.797 83.2603 131.781 83.2863 131.771 83.3147C131.761 83.343 131.756 83.3732 131.758 83.4033C131.76 83.4334 131.767 83.4628 131.781 83.4898C131.808 83.5436 131.854 83.5848 131.911 83.6043C131.968 83.6239 132.03 83.6203 132.085 83.5944C132.344 83.4942 132.624 83.4581 132.901 83.4893C133.177 83.5205 133.442 83.6181 133.673 83.7737C133.707 83.7969 133.746 83.8102 133.786 83.8119C133.827 83.8137 133.867 83.8039 133.902 83.7837Z" fill="#263238"/>
<path d="M128.638 84.501C128.648 84.4634 128.648 84.4241 128.638 84.3865C128.614 84.3313 128.569 84.2878 128.514 84.2654C128.458 84.243 128.395 84.2436 128.34 84.267C128.008 84.3955 127.713 84.6042 127.482 84.8745C127.251 85.1448 127.091 85.4682 127.015 85.8157C127.005 85.8745 127.019 85.9348 127.053 85.9834C127.088 86.0319 127.14 86.0648 127.199 86.0747C127.258 86.0846 127.318 86.0708 127.367 86.0362C127.415 86.0016 127.448 85.9492 127.458 85.8904C127.523 85.6189 127.653 85.3672 127.837 85.1573C128.021 84.9473 128.253 84.7853 128.514 84.6853C128.549 84.6677 128.578 84.6415 128.6 84.6093C128.622 84.577 128.635 84.5398 128.638 84.501Z" fill="#263238"/>
<path d="M153.718 98.604C154.216 99.4108 154.614 100.138 155.027 100.915C155.441 101.692 155.839 102.449 156.228 103.225C157.014 104.774 157.722 106.368 158.409 107.991C159.096 109.615 159.699 111.288 160.217 113.031C160.783 114.861 161.164 116.743 161.352 118.649C161.453 119.761 161.414 120.882 161.238 121.985C161.124 122.713 160.902 123.419 160.58 124.082C160.207 124.83 159.689 125.497 159.056 126.044C158.487 126.539 157.836 126.933 157.134 127.209C156.545 127.441 155.932 127.608 155.306 127.707C154.25 127.872 153.177 127.901 152.114 127.792C151.165 127.711 150.222 127.56 149.296 127.339C148.411 127.137 147.536 126.891 146.676 126.602C144.986 126.042 143.343 125.346 141.766 124.52L143.026 121.168C146.123 121.756 149.45 122.299 152.244 122.13C152.855 122.098 153.46 121.994 154.046 121.821C154.544 121.671 154.798 121.447 154.778 121.378C154.759 121.308 154.749 121.378 154.739 121.328C154.729 121.278 154.739 121.273 154.739 121.019C154.77 120.459 154.736 119.898 154.639 119.346C154.401 117.924 154.029 116.529 153.529 115.177C153.031 113.733 152.428 112.274 151.776 110.83C151.123 109.386 150.421 107.937 149.709 106.492C149.35 105.769 148.98 105.053 148.598 104.346L147.473 102.259L153.718 98.604Z" fill="#FFB573"/>
<path d="M151.392 95.2724C146.581 94.5404 144.216 98.6688 146.482 104.834C147.652 108.169 149.122 111.391 150.874 114.46L161.247 109.914C159.36 103.813 156.312 96.0244 151.392 95.2724Z" fill="#263238"/>
<path d="M140.356 120.711L138.135 121.378L141.288 125.86C141.288 125.86 145.959 124.187 145.003 122.155L143.827 121.487C142.821 120.905 141.547 120.302 140.356 120.711Z" fill="#FFB573"/>
<path d="M136.168 124.466L138.394 126.687L141.288 125.855L138.135 121.378L136.168 124.466Z" fill="#FFB573"/>
<path d="M141.024 86.0299C141.42 86.0299 141.741 85.642 141.741 85.1634C141.741 84.6848 141.42 84.2969 141.024 84.2969C140.628 84.2969 140.307 84.6848 140.307 85.1634C140.307 85.642 140.628 86.0299 141.024 86.0299Z" fill="white"/>
<path d="M141.616 87.4538L141.203 87.4389L140.949 85.4419L141.736 85.2676L141.616 87.4538Z" fill="white"/>
<path d="M144.475 125.098C142.981 125.098 141.656 124.874 140.854 124.147C140.555 123.859 140.322 123.509 140.172 123.122C140.021 122.735 139.957 122.32 139.983 121.906C140.028 119.852 140.348 117.814 140.934 115.845C141.626 113.131 142.174 110.989 140.511 108.345C137.861 104.147 138.653 98.2754 140.511 94.5952C141.93 91.7815 141.432 88.6441 141.253 87.4888C141.228 87.3394 141.208 87.2198 141.198 87.1402C141.196 87.1214 141.198 87.1025 141.203 87.0845C141.209 87.0665 141.218 87.0497 141.23 87.0353C141.242 87.0209 141.257 87.0091 141.273 87.0005C141.29 86.992 141.309 86.987 141.327 86.9858C141.365 86.9815 141.403 86.9922 141.433 87.0155C141.462 87.0388 141.482 87.0728 141.487 87.1103C141.487 87.185 141.512 87.2995 141.532 87.4439C141.721 88.6441 142.214 91.8263 140.75 94.7247C138.932 98.3352 138.155 104.087 140.75 108.171C142.478 110.915 141.89 113.22 141.208 115.89C140.634 117.832 140.321 119.841 140.277 121.866C140.25 122.24 140.305 122.616 140.438 122.967C140.571 123.318 140.78 123.635 141.049 123.898C142.393 125.108 145.361 124.799 148.23 124.5C149.515 124.371 150.844 124.231 152.014 124.231C152.053 124.231 152.09 124.246 152.117 124.273C152.144 124.301 152.159 124.337 152.159 124.376C152.159 124.414 152.144 124.451 152.117 124.478C152.09 124.505 152.053 124.52 152.014 124.52C150.859 124.52 149.524 124.654 148.26 124.789C147.004 124.955 145.741 125.058 144.475 125.098Z" fill="white"/>
<path d="M157.976 124.032H152.308C152.143 124.032 152.01 124.166 152.01 124.331V124.729C152.01 124.894 152.143 125.028 152.308 125.028H157.976C158.141 125.028 158.274 124.894 158.274 124.729V124.331C158.274 124.166 158.141 124.032 157.976 124.032Z" fill="white"/>
<path d="M193.543 128.345H55.4573C55.0179 128.343 54.5968 128.168 54.2861 127.857C53.9754 127.547 53.8003 127.126 53.799 126.686C53.8003 126.247 53.9754 125.826 54.2861 125.515C54.5968 125.204 55.0179 125.029 55.4573 125.028H193.543C193.982 125.029 194.403 125.204 194.714 125.515C195.025 125.826 195.2 126.247 195.201 126.686C195.2 127.126 195.025 127.547 194.714 127.857C194.403 128.168 193.982 128.343 193.543 128.345Z" fill="black"/>
<path opacity="0.3" d="M193.543 128.345H161.218C160.778 128.343 160.357 128.168 160.046 127.857C159.736 127.547 159.561 127.126 159.559 126.686C159.561 126.247 159.736 125.826 160.046 125.515C160.357 125.204 160.778 125.029 161.218 125.028H193.543C193.982 125.029 194.403 125.204 194.714 125.515C195.025 125.826 195.2 126.247 195.201 126.686C195.2 127.126 195.025 127.547 194.714 127.857C194.403 128.168 193.982 128.343 193.543 128.345Z" fill="#263238"/>
<path d="M192.019 206.481H195.201L191.541 128.345H187.138L192.019 206.481Z" fill="#263238"/>
<path opacity="0.1" d="M192.019 206.481H195.201L191.541 128.345H187.138L192.019 206.481Z" fill="white"/>
<path d="M162.741 206.481H159.559L163.22 128.345H167.622L162.741 206.481Z" fill="#263238"/>
<path opacity="0.2" d="M162.741 206.481H159.559L163.22 128.345H167.622L162.741 206.481Z" fill="white"/>
<path d="M86.2636 206.481H89.4408L85.7805 128.345H81.3782L86.2636 206.481Z" fill="#263238"/>
<path opacity="0.1" d="M86.2636 206.481H89.4408L85.7805 128.345H81.3782L86.2636 206.481Z" fill="white"/>
<path d="M56.9812 206.481H53.799L57.4592 128.345H61.8616L56.9812 206.481Z" fill="#263238"/>
<path opacity="0.2" d="M56.9812 206.481H53.799L57.4592 128.345H61.8616L56.9812 206.481Z" fill="white"/>
<path d="M164.584 132.503H58.3855V139.052H164.584V132.503Z" fill="#263238"/>
<path opacity="0.2" d="M164.584 132.503H58.3855V139.052H164.584V132.503Z" fill="white"/>
<path d="M75.8603 120.625C75.6762 120.625 75.4997 120.698 75.369 120.828C75.2384 120.958 75.1644 121.134 75.1631 121.318V124.306C75.1631 124.491 75.2365 124.668 75.3673 124.799C75.498 124.929 75.6754 125.003 75.8603 125.003H98.4446C98.5045 125.003 98.562 124.979 98.6048 124.938C98.6477 124.896 98.6724 124.839 98.6737 124.779V120.825C98.6724 120.765 98.6477 120.708 98.6048 120.666C98.562 120.624 98.5045 120.601 98.4446 120.601L75.8603 120.625Z" fill="black"/>
<path opacity="0.9" d="M89.2266 121.044H98.6886V124.61H89.2266C89.1196 124.61 89.017 124.567 88.9414 124.491C88.8657 124.416 88.8232 124.313 88.8232 124.206V121.442C88.8246 121.336 88.8676 121.235 88.9431 121.16C89.0186 121.086 89.1205 121.044 89.2266 121.044Z" fill="white"/>
<path d="M87.6729 120.625H64.8596C64.4745 120.625 64.1624 120.938 64.1624 121.323V124.336C64.1624 124.721 64.4745 125.033 64.8596 125.033H87.6729C88.058 125.033 88.3701 124.721 88.3701 124.336V121.323C88.3701 120.938 88.058 120.625 87.6729 120.625Z" fill="black"/>
<path opacity="0.2" d="M87.6729 120.625H64.8596C64.4745 120.625 64.1624 120.938 64.1624 121.323V124.336C64.1624 124.721 64.4745 125.033 64.8596 125.033H87.6729C88.058 125.033 88.3701 124.721 88.3701 124.336V121.323C88.3701 120.938 88.058 120.625 87.6729 120.625Z" fill="black"/>
<path opacity="0.5" d="M76.453 120.625H72.9919C72.8351 120.625 72.708 120.753 72.708 120.909V124.749C72.708 124.906 72.8351 125.033 72.9919 125.033H76.453C76.6097 125.033 76.7368 124.906 76.7368 124.749V120.909C76.7368 120.753 76.6097 120.625 76.453 120.625Z" fill="black"/>
<path opacity="0.5" d="M81.4479 120.625H77.9917C77.835 120.625 77.7079 120.753 77.7079 120.909V124.749C77.7079 124.906 77.835 125.033 77.9917 125.033H81.4479C81.6046 125.033 81.7317 124.906 81.7317 124.749V120.909C81.7317 120.753 81.6046 120.625 81.4479 120.625Z" fill="black"/>
<path d="M71.7768 115.197C71.6852 115.197 71.5946 115.215 71.51 115.251C71.4254 115.286 71.3485 115.337 71.2838 115.402C71.2191 115.466 71.1677 115.543 71.1327 115.628C71.0976 115.712 71.0796 115.803 71.0796 115.895V119.928C71.0796 120.02 71.0976 120.111 71.1327 120.195C71.1677 120.28 71.2191 120.357 71.2838 120.421C71.3485 120.486 71.4254 120.538 71.51 120.573C71.5946 120.608 71.6852 120.626 71.7768 120.626H96.2435C96.3034 120.624 96.3604 120.6 96.4023 120.557C96.4442 120.514 96.4677 120.456 96.4676 120.397V115.417C96.4677 115.357 96.4442 115.299 96.4023 115.256C96.3604 115.214 96.3034 115.189 96.2435 115.188L71.7768 115.197Z" fill="black"/>
<path opacity="0.9" d="M85.158 115.621H96.4825V120.207H85.158C85.051 120.207 84.9484 120.165 84.8728 120.089C84.7971 120.013 84.7546 119.911 84.7546 119.804V116.034C84.7533 115.98 84.7628 115.927 84.7824 115.877C84.8021 115.826 84.8316 115.781 84.8692 115.742C84.9068 115.704 84.9517 115.673 85.0013 115.652C85.0509 115.631 85.1042 115.621 85.158 115.621Z" fill="white"/>
<path d="M83.5844 115.197H64.4014C64.0164 115.197 63.7042 115.509 63.7042 115.894V119.923C63.7042 120.308 64.0164 120.62 64.4014 120.62H83.5844C83.9694 120.62 84.2816 120.308 84.2816 119.923V115.894C84.2816 115.509 83.9694 115.197 83.5844 115.197Z" fill="black"/>
<path opacity="0.2" d="M83.5844 115.197H64.4014C64.0164 115.197 63.7042 115.509 63.7042 115.894V119.923C63.7042 120.308 64.0164 120.62 64.4014 120.62H83.5844C83.9694 120.62 84.2816 120.308 84.2816 119.923V115.894C84.2816 115.509 83.9694 115.197 83.5844 115.197Z" fill="white"/>
<path opacity="0.6" d="M81.7866 116.273H67.738C67.5042 116.273 67.3147 116.462 67.3147 116.696V119.122C67.3147 119.355 67.5042 119.545 67.738 119.545H81.7866C82.0204 119.545 82.2099 119.355 82.2099 119.122V116.696C82.2099 116.462 82.0204 116.273 81.7866 116.273Z" fill="black"/>
<path d="M78.9529 112.603C78.5695 112.603 78.2557 112.787 78.2557 113.011V114.789C78.2557 115.013 78.5695 115.197 78.9529 115.197H101.542C101.667 115.197 101.766 115.137 101.766 115.068V112.737C101.766 112.662 101.667 112.603 101.542 112.603H78.9529Z" fill="black"/>
<path opacity="0.9" d="M92.2297 112.847H101.766V114.948H92.2297C92.1478 114.948 92.0692 114.916 92.0113 114.858C91.9534 114.8 91.9209 114.721 91.9209 114.639V113.145C91.9235 113.065 91.9571 112.989 92.0148 112.934C92.0724 112.878 92.1495 112.847 92.2297 112.847Z" fill="white"/>
<path d="M90.9298 112.603H67.7877C67.4934 112.603 67.2549 112.841 67.2549 113.135V114.669C67.2549 114.964 67.4934 115.202 67.7877 115.202H90.9298C91.2241 115.202 91.4627 114.964 91.4627 114.669V113.135C91.4627 112.841 91.2241 112.603 90.9298 112.603Z" fill="black"/>
<path opacity="0.2" d="M90.9298 112.603H67.7877C67.4934 112.603 67.2549 112.841 67.2549 113.135V114.669C67.2549 114.964 67.4934 115.202 67.7877 115.202H90.9298C91.2241 115.202 91.4627 114.964 91.4627 114.669V113.135C91.4627 112.841 91.2241 112.603 90.9298 112.603Z" fill="black"/>
<path opacity="0.5" d="M70.6961 112.603H69.974C69.9162 112.603 69.8694 112.649 69.8694 112.707V115.098C69.8694 115.155 69.9162 115.202 69.974 115.202H70.6961C70.7538 115.202 70.8006 115.155 70.8006 115.098V112.707C70.8006 112.649 70.7538 112.603 70.6961 112.603Z" fill="black"/>
<path opacity="0.5" d="M89.4807 112.603H88.7735C88.7158 112.603 88.6689 112.649 88.6689 112.707V115.098C88.6689 115.155 88.7158 115.202 88.7735 115.202H89.4807C89.5384 115.202 89.5853 115.155 89.5853 115.098V112.707C89.5853 112.649 89.5384 112.603 89.4807 112.603Z" fill="black"/>
<path d="M74.8693 108.848C74.4859 108.848 74.1721 109.032 74.1721 109.256V112.189C74.1721 112.418 74.4859 112.603 74.8693 112.603H99.3361C99.4606 112.603 99.5651 112.543 99.5651 112.468V108.982C99.5651 108.907 99.4606 108.848 99.3361 108.848H74.8693Z" fill="black"/>
<path opacity="0.9" d="M88.146 109.092H99.5652V112.354H88.146C88.0641 112.354 87.9856 112.321 87.9277 112.263C87.8698 112.205 87.8373 112.127 87.8373 112.045V109.401C87.8373 109.319 87.8698 109.24 87.9277 109.182C87.9856 109.124 88.0641 109.092 88.146 109.092Z" fill="white"/>
<path d="M86.8413 108.848H67.3296C67.0353 108.848 66.7968 109.086 66.7968 109.381V112.07C66.7968 112.364 67.0353 112.603 67.3296 112.603H86.8413C87.1355 112.603 87.3741 112.364 87.3741 112.07V109.381C87.3741 109.086 87.1355 108.848 86.8413 108.848Z" fill="black"/>
<path opacity="0.1" d="M86.8413 108.848H67.3296C67.0353 108.848 66.7968 109.086 66.7968 109.381V112.07C66.7968 112.364 67.0353 112.603 67.3296 112.603H86.8413C87.1355 112.603 87.3741 112.364 87.3741 112.07V109.381C87.3741 109.086 87.1355 108.848 86.8413 108.848Z" fill="black"/>
<path d="M129.44 124.201H108.888C108.778 124.201 108.672 124.245 108.594 124.322C108.515 124.399 108.471 124.504 108.469 124.615C108.471 124.725 108.515 124.83 108.594 124.907C108.672 124.984 108.778 125.028 108.888 125.028H129.44C129.55 125.028 129.655 124.984 129.732 124.907C129.81 124.829 129.853 124.724 129.853 124.615C129.853 124.505 129.81 124.4 129.732 124.322C129.655 124.245 129.55 124.201 129.44 124.201Z" fill="white"/>
<path d="M169.649 123.215H183.154L184.375 124.983H168.429L169.649 123.215Z" fill="#263238"/>
<path d="M190.505 93.0413C190.505 93.4009 190.398 93.7523 190.199 94.0512C189.999 94.3501 189.715 94.5831 189.383 94.7207C189.051 94.8583 188.685 94.8943 188.333 94.8241C187.98 94.754 187.656 94.5809 187.402 94.3266C187.148 94.0724 186.975 93.7486 186.904 93.396C186.834 93.0434 186.87 92.6779 187.008 92.3457C187.145 92.0136 187.378 91.7297 187.677 91.53C187.976 91.3302 188.328 91.2236 188.687 91.2236C188.926 91.223 189.163 91.2696 189.384 91.3607C189.604 91.4518 189.805 91.5857 189.974 91.7546C190.143 91.9235 190.277 92.1241 190.368 92.345C190.459 92.5658 190.506 92.8025 190.505 93.0413Z" fill="black"/>
<path d="M176.85 124.41C176.755 124.41 176.662 124.387 176.578 124.342C176.495 124.297 176.424 124.232 176.371 124.154C176.319 124.075 176.286 123.985 176.277 123.89C176.267 123.796 176.281 123.701 176.317 123.614L189.33 92.8172C189.397 92.6886 189.51 92.5899 189.646 92.5409C189.783 92.4918 189.933 92.4959 190.067 92.5524C190.2 92.6089 190.308 92.7136 190.368 92.8457C190.428 92.9778 190.436 93.1276 190.39 93.2654L177.378 124.057C177.334 124.161 177.26 124.25 177.167 124.313C177.073 124.375 176.963 124.409 176.85 124.41Z" fill="#263238"/>
<path d="M189.858 93.6241C189.734 93.6227 189.614 93.5827 189.514 93.5096L165.884 75.7857C165.762 75.6946 165.682 75.5589 165.661 75.4086C165.639 75.2582 165.678 75.1055 165.769 74.984C165.86 74.8625 165.996 74.7821 166.147 74.7606C166.297 74.7392 166.45 74.7783 166.571 74.8694L190.206 92.5833C190.302 92.6566 190.372 92.758 190.407 92.8731C190.442 92.9883 190.44 93.1116 190.402 93.2257C190.363 93.3398 190.29 93.4391 190.193 93.5096C190.095 93.5802 189.978 93.6185 189.858 93.6191V93.6241Z" fill="#263238"/>
<path d="M191.675 93.0413C191.675 93.4009 191.569 93.7523 191.369 94.0512C191.169 94.3501 190.885 94.5831 190.553 94.7207C190.221 94.8583 189.855 94.8943 189.503 94.8241C189.15 94.754 188.826 94.5809 188.572 94.3266C188.318 94.0724 188.145 93.7486 188.075 93.396C188.005 93.0434 188.041 92.6779 188.178 92.3457C188.316 92.0136 188.549 91.7297 188.848 91.53C189.147 91.3302 189.498 91.2236 189.857 91.2236C190.096 91.223 190.333 91.2696 190.554 91.3607C190.775 91.4518 190.975 91.5857 191.144 91.7546C191.313 91.9235 191.447 92.1241 191.538 92.345C191.629 92.5658 191.676 92.8025 191.675 93.0413Z" fill="#263238"/>
<path d="M166.227 77.1401C167.229 77.1401 168.04 76.3285 168.04 75.3274C168.04 74.3262 167.229 73.5146 166.227 73.5146C165.226 73.5146 164.415 74.3262 164.415 75.3274C164.415 76.3285 165.226 77.1401 166.227 77.1401Z" fill="#263238"/>
<path d="M163.688 83.6144C163.119 84.1827 162.395 84.5697 161.607 84.7265C160.819 84.8833 160.002 84.8028 159.259 84.4953C158.517 84.1877 157.882 83.6669 157.435 82.9986C156.989 82.3303 156.75 81.5447 156.75 80.7409C156.75 79.9372 156.989 79.1515 157.435 78.4833C157.882 77.815 158.517 77.2941 159.259 76.9866C160.002 76.679 160.819 76.5985 161.607 76.7553C162.395 76.9121 163.119 77.2992 163.688 77.8675C164.448 78.6302 164.876 79.6636 164.876 80.7409C164.876 81.8183 164.448 82.8517 163.688 83.6144Z" fill="black"/>
<path opacity="0.7" d="M163.688 83.6144C163.119 84.1827 162.395 84.5697 161.607 84.7265C160.819 84.8833 160.002 84.8028 159.259 84.4953C158.517 84.1877 157.882 83.6669 157.435 82.9986C156.989 82.3303 156.75 81.5447 156.75 80.7409C156.75 79.9372 156.989 79.1515 157.435 78.4833C157.882 77.815 158.517 77.2941 159.259 76.9866C160.002 76.679 160.819 76.5985 161.607 76.7553C162.395 76.9121 163.119 77.2992 163.688 77.8675C164.448 78.6302 164.876 79.6636 164.876 80.7409C164.876 81.8183 164.448 82.8517 163.688 83.6144Z" fill="white"/>
<path d="M166.227 75.3275C165.419 74.5186 164.46 73.8769 163.404 73.4391C162.348 73.0012 161.215 72.7759 160.072 72.7759C158.929 72.7759 157.797 73.0012 156.741 73.4391C155.684 73.8769 154.725 74.5186 153.917 75.3275L166.227 87.648C167.037 86.8395 167.68 85.8792 168.118 84.8222C168.556 83.7652 168.782 82.6321 168.782 81.4877C168.782 80.3434 168.556 79.2103 168.118 78.1533C167.68 77.0962 167.037 76.136 166.227 75.3275Z" fill="#263238"/>
<g opacity="0.2">
<path d="M153.912 75.3276L102.209 125.028H155.251L166.227 87.6432L153.912 75.3276Z" fill="black"/>
<path opacity="0.7" d="M153.912 75.3276L102.209 125.028H155.251L166.227 87.6432L153.912 75.3276Z" fill="white"/>
</g>
</svg>
