<svg width="171" height="171" viewBox="0 0 171 171" fill="none" xmlns="http://www.w3.org/2000/svg">
<path d="M76.0687 116.786L72.5633 116.145C72.3996 117.041 72.5853 117.966 73.0822 118.729C73.5792 119.492 74.3496 120.036 75.2351 120.249L76.0687 116.786ZM75.9547 148.172L76.482 144.652C75.9218 144.567 75.3495 144.617 74.8125 144.798C74.2755 144.979 73.7893 145.285 73.3943 145.691C72.9993 146.097 72.7069 146.591 72.5413 147.133C72.3757 147.675 72.3417 148.249 72.4421 148.806L75.9547 148.172ZM31.7726 138.404L70.6894 168.991L75.0926 163.384L36.1688 132.803L31.7726 138.404ZM31.7726 127.203C30.925 127.87 30.2397 128.72 29.7685 129.69C29.2973 130.661 29.0525 131.725 29.0525 132.803C29.0525 133.882 29.2973 134.946 29.7685 135.916C30.2397 136.886 30.925 137.737 31.7726 138.404L36.1688 132.803L31.7726 127.203ZM70.6894 96.6156L31.7726 127.203L36.1688 132.803L75.0926 102.223L70.6894 96.6156ZM82.1036 103.498C83.2792 97.0431 75.8479 92.5686 70.6894 96.6156L75.0926 102.223L82.1036 103.498ZM79.5743 117.421L82.1036 103.498L75.0926 102.223L72.5633 116.145L79.5743 117.421ZM75.2351 120.249C93.8599 124.717 107.497 122.023 117.33 116.188C127.07 110.417 132.634 101.824 135.691 95.2333L129.228 92.2408C126.535 98.0477 121.776 105.272 113.696 110.06C105.702 114.799 94.0166 117.428 76.9024 113.317L75.2351 120.249ZM135.691 95.2333C135.53 95.5986 135.241 95.8924 134.879 96.0598C134.708 96.1311 134.615 96.1168 134.593 96.1168C134.438 96.0977 134.292 96.0276 134.18 95.9173C133.977 95.754 133.809 95.5511 133.686 95.3208C133.564 95.0905 133.49 94.8377 133.468 94.5778L140.564 93.9366C140.251 90.4738 137.137 89.227 135.363 89.0346C133.567 88.8422 130.546 89.3837 129.228 92.2408L135.691 95.2333ZM133.468 94.5778C135.691 119.43 128.623 132.568 118.263 139.273C107.533 146.22 92.2069 147.018 76.482 144.652L75.4132 151.692C91.6725 154.143 109.179 153.644 122.132 145.258C135.456 136.63 142.937 120.392 140.564 93.9366L133.468 94.5778ZM82.1036 162.109L79.4531 147.531L72.4421 148.813L75.0926 163.384L82.1036 162.109ZM70.6894 168.991C75.8479 173.038 83.2792 168.564 82.1036 162.109L75.0926 163.384L70.6894 168.991Z" fill="#FFF6F6"/>
</svg>
