<svg width="171" height="171" viewBox="0 0 171 171" fill="none" xmlns="http://www.w3.org/2000/svg">
<path d="M94.9313 116.786L98.4367 116.145C98.6004 117.041 98.4147 117.966 97.9178 118.729C97.4208 119.492 96.6504 120.036 95.7649 120.249L94.9313 116.786ZM95.0453 148.172L94.518 144.652C95.0782 144.567 95.6505 144.617 96.1875 144.798C96.7245 144.979 97.2107 145.285 97.6057 145.691C98.0007 146.097 98.2931 146.591 98.4587 147.133C98.6243 147.675 98.6583 148.249 98.5579 148.806L95.0453 148.172ZM139.227 138.404L100.311 168.991L95.9074 163.384L134.831 132.803L139.227 138.404ZM139.227 127.203C140.075 127.87 140.76 128.72 141.232 129.69C141.703 130.661 141.948 131.725 141.948 132.803C141.948 133.882 141.703 134.946 141.232 135.916C140.76 136.886 140.075 137.737 139.227 138.404L134.831 132.803L139.227 127.203ZM100.311 96.6156L139.227 127.203L134.831 132.803L95.9074 102.223L100.311 96.6156ZM88.8964 103.498C87.7208 97.0431 95.1521 92.5686 100.311 96.6156L95.9074 102.223L88.8964 103.498ZM91.4257 117.421L88.8964 103.498L95.9074 102.223L98.4367 116.145L91.4257 117.421ZM95.7649 120.249C77.1401 124.717 63.5029 122.023 53.6704 116.188C43.9305 110.417 38.3659 101.824 35.3092 95.2333L41.7716 92.2408C44.4649 98.0477 49.2244 105.272 57.3041 110.06C65.2984 114.799 76.9834 117.428 94.0976 113.317L95.7649 120.249ZM35.3092 95.2333C35.4703 95.5986 35.7591 95.8924 36.1215 96.0598C36.2925 96.1311 36.3851 96.1168 36.4065 96.1168C36.5625 96.0977 36.7078 96.0276 36.8197 95.9173C37.0231 95.754 37.1911 95.5511 37.3136 95.3208C37.4361 95.0905 37.5105 94.8377 37.5322 94.5778L30.4357 93.9366C30.7492 90.4738 33.8629 89.227 35.637 89.0346C37.4325 88.8422 40.4535 89.3837 41.7716 92.2408L35.3092 95.2333ZM37.5322 94.5778C35.3092 119.43 42.3773 132.568 52.737 139.273C63.4673 146.22 78.7931 147.018 94.518 144.652L95.5868 151.692C79.3275 154.143 61.8214 153.644 48.8681 145.258C35.5444 136.63 28.0631 120.392 30.4357 93.9366L37.5322 94.5778ZM88.8964 162.109L91.5469 147.531L98.5579 148.813L95.9074 163.384L88.8964 162.109ZM100.311 168.991C95.1521 173.038 87.7208 168.564 88.8964 162.109L95.9074 163.384L100.311 168.991Z" fill="#FFF6F6"/>
</svg>
