<svg width="38" height="38" viewBox="0 0 38 38" fill="none" xmlns="http://www.w3.org/2000/svg">
<path d="M32.7222 15.8336H22.1666V5.27799C22.1666 4.43814 21.833 3.63269 21.2391 3.03882C20.6453 2.44496 19.8398 2.11133 19 2.11133C18.1601 2.11133 17.3547 2.44496 16.7608 3.03882C16.1669 3.63269 15.8333 4.43814 15.8333 5.27799V15.8336H5.27775C4.4379 15.8336 3.63244 16.1672 3.03858 16.761C2.44471 17.3549 2.11108 18.1604 2.11108 19.0002C2.11108 19.8401 2.44471 20.6455 3.03858 21.2394C3.63244 21.8333 4.4379 22.1669 5.27775 22.1669H15.8333V32.7224C15.8333 33.5623 16.1669 34.3677 16.7608 34.9616C17.3547 35.5555 18.1601 35.8891 19 35.8891C19.8398 35.8891 20.6453 35.5555 21.2391 34.9616C21.833 34.3677 22.1666 33.5623 22.1666 32.7224V22.1669H32.7222C33.562 22.1669 34.3675 21.8333 34.9614 21.2394C35.5552 20.6455 35.8889 19.8401 35.8889 19.0002C35.8889 18.1604 35.5552 17.3549 34.9614 16.761C34.3675 16.1672 33.562 15.8336 32.7222 15.8336Z" fill="white"/>
</svg>
