<svg width="350" height="307" viewBox="0 0 350 307" fill="none" xmlns="http://www.w3.org/2000/svg">
<path d="M350 234.793H0V234.947H350V234.793Z" fill="#EBEBEB"/>
<path d="M121.254 238.711H105.028V238.864H121.254V238.711Z" fill="#EBEBEB"/>
<path d="M321.139 242.002H281.47V242.155H321.139V242.002Z" fill="#EBEBEB"/>
<path d="M69.5731 242.002H29.9041V242.155H69.5731V242.002Z" fill="#EBEBEB"/>
<path d="M165.9 207.409H30.7369C29.6781 207.408 28.6632 207.038 27.9152 206.38C27.1671 205.723 26.7469 204.832 26.7469 203.903V37.2453C26.7562 36.3218 27.1804 35.4389 27.9275 34.7882C28.6745 34.1375 29.6841 33.7716 30.7369 33.77H165.9C166.96 33.77 167.977 34.1394 168.726 34.7969C169.476 35.4544 169.897 36.3461 169.897 37.276V203.903C169.897 204.833 169.476 205.725 168.726 206.382C167.977 207.04 166.96 207.409 165.9 207.409ZM30.7369 33.8928C29.7245 33.8944 28.7542 34.2484 28.0389 34.8769C27.3237 35.5054 26.9219 36.3572 26.9219 37.2453V203.903C26.9219 204.791 27.3237 205.643 28.0389 206.272C28.7542 206.9 29.7245 207.254 30.7369 207.256H165.9C166.912 207.252 167.882 206.898 168.598 206.27C169.314 205.642 169.718 204.791 169.722 203.903V37.2453C169.718 36.3571 169.314 35.5063 168.598 34.8783C167.882 34.2503 166.912 33.8961 165.9 33.8928H30.7369Z" fill="#EBEBEB"/>
<path d="M317.317 207.409H182.147C181.088 207.406 180.074 207.036 179.325 206.379C178.576 205.722 178.154 204.832 178.15 203.903V37.2453C178.161 36.3213 178.587 35.4383 179.335 34.7878C180.083 34.1373 181.094 33.7716 182.147 33.77H317.317C318.369 33.7732 319.376 34.1398 320.122 34.7903C320.868 35.4408 321.291 36.3229 321.3 37.2453V203.903C321.301 204.363 321.199 204.818 320.999 205.243C320.799 205.668 320.506 206.054 320.136 206.38C319.766 206.705 319.327 206.964 318.843 207.14C318.36 207.317 317.841 207.408 317.317 207.409ZM182.147 33.8928C181.134 33.8961 180.164 34.2503 179.449 34.8783C178.733 35.5063 178.329 36.3571 178.325 37.2453V203.903C178.329 204.791 178.733 205.642 179.449 206.27C180.164 206.898 181.134 207.252 182.147 207.256H317.317C318.33 207.252 319.3 206.898 320.016 206.27C320.731 205.642 321.135 204.791 321.139 203.903V37.2453C321.135 36.3571 320.731 35.5063 320.016 34.8783C319.3 34.2503 318.33 33.8961 317.317 33.8928H182.147Z" fill="#EBEBEB"/>
<path d="M106.246 249.462C106.246 249.462 119.987 242.708 120.904 233.074C121.821 223.441 111.013 221.5 106.246 218.13C101.479 214.759 101.304 211.701 101.115 206.077C100.926 200.452 98.917 194.503 91.777 188.885C84.637 183.267 83.895 181.173 84.777 173.621C85.659 166.068 79.828 156.588 72.499 158.197C65.17 159.806 64.624 169.924 66.087 176.353C67.4239 182.605 66.0749 189.071 62.3 194.503C58.8 199.329 57.351 207.845 62.3 213.31C67.249 218.774 70.546 223.594 68.159 229.378C65.772 235.162 58.45 237.409 66.878 249.462H106.246Z" fill="#E6E6E6"/>
<path d="M227.325 249.352H250.957C250.957 249.352 253.155 232.319 252.791 218.498C252.427 204.677 251.51 182.825 241.591 183.463C231.672 184.102 220.367 206.445 227.325 249.352Z" fill="#F5F5F5"/>
<path d="M239.869 249.352C239.869 249.352 262.864 204.358 281.372 213.193C299.88 222.029 261.513 249.579 261.513 249.579L239.869 249.352Z" fill="#F0F0F0"/>
<path d="M237.104 249.579C237.104 249.579 238.616 234.935 232.337 219.959C226.058 204.984 218.274 196.013 209.482 198.905C200.69 201.797 201.446 221.249 213.248 249.351L237.104 249.579Z" fill="#E6E6E6"/>
<path d="M250.957 249.352C250.957 249.352 260.967 235.598 266.49 222.6C272.013 209.601 273.273 199.882 268.247 197.487C263.221 195.092 239.617 217.516 237.104 249.579L250.957 249.352Z" fill="#E6E6E6"/>
<path d="M220.409 249.352C220.409 249.352 207.473 205.451 185.374 212.045C163.275 218.639 202.874 249.579 202.874 249.579H221.522" fill="#F0F0F0"/>
<path d="M261.653 237.373C261.653 237.373 264.341 222.944 285.376 205.009C306.411 187.074 312.753 173.774 309.001 155.698C309.001 155.698 328.195 179.337 315.777 208.398C303.359 237.458 284.088 247.197 268.275 251.022C252.462 254.847 261.653 237.373 261.653 237.373Z" fill="#EBEBEB" stroke="#EBEBEB" stroke-miterlimit="10"/>
<path d="M261.919 251.23C266.182 241.48 272.678 235.745 279.965 229.931C282.632 227.8 285.411 225.633 288.225 223.306C290.143 221.703 292.082 219.996 294.007 218.13C296.122 216.091 298.113 213.955 299.971 211.732C302.069 209.215 303.995 206.59 305.739 203.873C306.103 203.314 306.439 202.749 306.817 202.16C307.272 201.404 307.713 200.655 308.119 199.912C318.941 180.264 313.152 163.576 310.023 157.104C309.562 156.117 309.034 155.156 308.441 154.225" stroke="#E0E0E0" stroke-width="2" stroke-miterlimit="10"/>
<path d="M301.336 188.737C305.036 191.635 307.442 195.591 308.126 199.9" stroke="#E0E0E0" stroke-width="2" stroke-miterlimit="10"/>
<path d="M299.978 211.726C299.782 207.489 295.512 201.318 293.02 198.058" stroke="#E0E0E0" stroke-width="2" stroke-miterlimit="10"/>
<path d="M281.26 208.687C283.213 211.394 287.28 217.565 288.225 223.306" stroke="#E0E0E0" stroke-width="2" stroke-miterlimit="10"/>
<path d="M280 229.931C280 229.931 292.117 228.279 301.868 231.085" stroke="#E0E0E0" stroke-width="2" stroke-miterlimit="10"/>
<path d="M312.627 215.09C304.395 214.268 294.301 218.025 294.014 218.123" stroke="#E0E0E0" stroke-width="2" stroke-miterlimit="10"/>
<path d="M318.85 198.752C312.172 199.747 305.97 203.719 305.746 203.86" stroke="#E0E0E0" stroke-width="2" stroke-miterlimit="10"/>
<path d="M175 282.888C249.958 282.888 310.723 279.776 310.723 275.938C310.723 272.099 249.958 268.987 175 268.987C100.042 268.987 39.277 272.099 39.277 275.938C39.277 279.776 100.042 282.888 175 282.888Z" fill="#F5F5F5"/>
<path opacity="0.12" d="M163.534 110.237C161.665 109.789 161.63 107.683 161.63 107.683L163.422 107.996C163.324 108.744 163.362 109.5 163.534 110.237Z" fill="black"/>
<path d="M261.982 52.8346V141.349C261.982 142.661 261.388 143.92 260.329 144.848C259.271 145.776 257.836 146.298 256.34 146.298H103.845C102.355 146.29 100.93 145.764 99.8806 144.837C98.8312 143.91 98.2431 142.655 98.245 141.349V52.8346C98.2431 51.5279 98.8312 50.2738 99.8806 49.3464C100.93 48.419 102.355 47.8939 103.845 47.8857H256.34C257.081 47.8857 257.815 48.0137 258.499 48.2625C259.184 48.5112 259.806 48.8757 260.329 49.3352C260.853 49.7948 261.269 50.3403 261.553 50.9407C261.836 51.5412 261.982 52.1847 261.982 52.8346Z" fill="black"/>
<path opacity="0.7" d="M261.982 52.8346V141.349C261.982 142.661 261.388 143.92 260.329 144.848C259.271 145.776 257.836 146.298 256.34 146.298H103.845C102.355 146.29 100.93 145.764 99.8806 144.837C98.8312 143.91 98.2431 142.655 98.245 141.349V52.8346C98.2431 51.5279 98.8312 50.2738 99.8806 49.3464C100.93 48.419 102.355 47.8939 103.845 47.8857H256.34C257.081 47.8857 257.815 48.0137 258.499 48.2625C259.184 48.5112 259.806 48.8757 260.329 49.3352C260.853 49.7948 261.269 50.3403 261.553 50.9407C261.836 51.5412 261.982 52.1847 261.982 52.8346Z" fill="white" stroke="white" stroke-miterlimit="10"/>
<path d="M252.49 55.3215C253.329 55.3215 254.009 54.725 254.009 53.9891C254.009 53.2533 253.329 52.6567 252.49 52.6567C251.651 52.6567 250.971 53.2533 250.971 53.9891C250.971 54.725 251.651 55.3215 252.49 55.3215Z" fill="black"/>
<path d="M245.231 53.9891C245.232 54.2541 245.144 54.5135 244.977 54.7344C244.81 54.9553 244.573 55.1279 244.294 55.2301C244.015 55.3324 243.708 55.3598 243.412 55.3088C243.115 55.2578 242.843 55.1309 242.629 54.9439C242.414 54.757 242.268 54.5185 242.209 54.2587C242.149 53.9988 242.179 53.7294 242.295 53.4845C242.41 53.2395 242.605 53.0301 242.857 52.8828C243.108 52.7354 243.403 52.6567 243.705 52.6567C244.108 52.6583 244.494 52.799 244.78 53.0484C245.065 53.2977 245.227 53.6357 245.231 53.9891Z" fill="black"/>
<path d="M236.446 53.9891C236.447 54.2541 236.359 54.5135 236.192 54.7344C236.025 54.9553 235.788 55.1279 235.509 55.2301C235.23 55.3324 234.923 55.3598 234.627 55.3088C234.33 55.2578 234.058 55.1309 233.843 54.9439C233.629 54.757 233.483 54.5185 233.424 54.2587C233.364 53.9988 233.394 53.7294 233.51 53.4845C233.625 53.2395 233.82 53.0301 234.072 52.8828C234.323 52.7354 234.618 52.6567 234.92 52.6567C235.323 52.6583 235.709 52.799 235.995 53.0484C236.28 53.2977 236.442 53.6357 236.446 53.9891Z" fill="black"/>
<path d="M249.984 70.8004V159.315C249.975 160.62 249.377 161.87 248.321 162.79C247.265 163.71 245.837 164.227 244.349 164.227H91.847C90.3586 164.227 88.9306 163.71 87.8748 162.79C86.819 161.87 86.2213 160.62 86.212 159.315V70.8004C86.212 69.489 86.8055 68.2311 87.8621 67.3032C88.9186 66.3753 90.3519 65.8532 91.847 65.8516H244.349C245.844 65.8532 247.277 66.3753 248.334 67.3032C249.391 68.2311 249.984 69.489 249.984 70.8004Z" fill="black"/>
<path opacity="0.8" d="M249.984 70.8004V159.315C249.975 160.62 249.377 161.87 248.321 162.79C247.265 163.71 245.837 164.227 244.349 164.227H91.847C90.3586 164.227 88.9306 163.71 87.8748 162.79C86.819 161.87 86.2213 160.62 86.212 159.315V70.8004C86.212 69.489 86.8055 68.2311 87.8621 67.3032C88.9186 66.3753 90.3519 65.8532 91.847 65.8516H244.349C245.844 65.8532 247.277 66.3753 248.334 67.3032C249.391 68.2311 249.984 69.489 249.984 70.8004Z" fill="white"/>
<path d="M249.991 76.2402H213.458V157.215H249.991V76.2402Z" fill="black"/>
<path opacity="0.2" d="M249.991 76.2402H213.458V157.215H249.991V76.2402Z" fill="black"/>
<path d="M249.991 100.561H213.458V101.593H249.991V100.561Z" fill="#FAFAFA"/>
<path d="M249.991 125.974H213.458V127.006H249.991V125.974Z" fill="#FAFAFA"/>
<path d="M249.991 151.013H213.458V152.045H249.991V151.013Z" fill="#FAFAFA"/>
<path d="M229.39 107.646V119.742L239.806 113.694L229.39 107.646Z" fill="#FAFAFA"/>
<path d="M229.39 132.956V145.058L239.806 139.01L229.39 132.956Z" fill="#FAFAFA"/>
<path d="M229.39 81.8892V93.9911L239.806 87.9371L229.39 81.8892Z" fill="#FAFAFA"/>
<path d="M139.776 125.974C139.776 125.974 130.438 138.187 127.526 140.612C127.526 140.612 111.874 141.84 105.434 137.978L103.803 141.484C103.803 141.484 118.671 148.852 128.744 147.053C138.817 145.254 146.244 128.197 146.244 128.197L139.776 125.974Z" fill="#B55B52"/>
<path d="M185.157 118.711C185.157 118.711 194.082 120.854 199.647 121.265C199.647 121.265 203.847 112.712 204.547 104.945L207.711 105.098C207.711 105.098 210.623 120.227 202.986 126.355C197.708 130.598 180.096 122.739 180.096 122.739L185.157 118.711Z" fill="#B55B52"/>
<path d="M160.041 85.3461C160.041 85.3461 147.945 84.3207 146.692 95.1332C146 101.843 147.237 108.599 150.29 114.781C150.29 114.781 157.605 127.841 166.474 126.024C175.343 124.206 182.861 119.994 181.293 112.945C179.725 105.897 176.806 106.191 176.911 96.3673C177.016 86.5433 166.509 80.8393 160.041 85.3461Z" fill="#263238"/>
<path d="M173.243 100.831C171.976 106.253 169.155 108.414 163.443 107.996C163.345 108.744 163.383 109.5 163.555 110.238C163.697 111.121 164.164 111.94 164.884 112.57C165.603 113.2 166.538 113.608 167.545 113.731C172.445 114.474 169.764 120.006 169.764 120.006L164.864 122.118L158.417 118.858L153.517 114.272H155.232C155.232 114.272 158.55 109.869 155.232 102.458C154.507 102.086 153.895 101.564 153.45 100.938C153.005 100.313 152.74 99.6017 152.677 98.8663C152.537 96.4103 155.428 96.2629 156.52 97.1839C156.52 97.1839 161.497 95.2805 160.755 87.9248C160.755 87.9248 165.655 91.1544 171.955 90.215C171.948 90.258 174.503 95.4033 173.243 100.831Z" fill="#B55B52"/>
<path d="M168.742 96.3179L168.805 100.112C169.153 100.23 169.525 100.281 169.897 100.262C170.269 100.243 170.631 100.154 170.961 100.002L168.742 96.3179Z" fill="#A02724"/>
<path d="M162.113 92.0506C162.072 92.0588 162.029 92.0588 161.987 92.0506C161.96 92.0361 161.937 92.0172 161.919 91.9949C161.9 91.9725 161.887 91.9472 161.88 91.9204C161.873 91.8935 161.872 91.8657 161.877 91.8385C161.882 91.8114 161.893 91.7854 161.91 91.762C162.236 91.3263 162.722 91.0022 163.289 90.8446C163.855 90.6869 164.466 90.7051 165.018 90.8963C165.048 90.9045 165.076 90.918 165.099 90.936C165.123 90.9539 165.142 90.9759 165.156 91.0006C165.17 91.0253 165.178 91.0522 165.179 91.0796C165.181 91.1071 165.176 91.1345 165.165 91.1603C165.144 91.2122 165.101 91.2549 165.045 91.2791C164.988 91.3032 164.923 91.3069 164.864 91.2892C164.414 91.1274 163.914 91.1075 163.45 91.2329C162.985 91.3584 162.584 91.6213 162.316 91.9769C162.291 92.0026 162.26 92.0227 162.225 92.0355C162.189 92.0483 162.151 92.0535 162.113 92.0506Z" fill="#263238"/>
<path d="M172.949 93.2235C172.887 93.2238 172.827 93.2041 172.781 93.1683C172.081 92.6095 170.863 93.0209 170.849 93.027C170.789 93.0452 170.724 93.0426 170.667 93.0198C170.61 92.9969 170.564 92.9555 170.541 92.9042C170.53 92.8785 170.525 92.851 170.526 92.8234C170.526 92.7958 170.534 92.7687 170.547 92.7435C170.56 92.7184 170.578 92.6958 170.601 92.677C170.624 92.6582 170.651 92.6436 170.681 92.6341C170.737 92.6341 172.214 92.1245 173.11 92.8613C173.154 92.9004 173.179 92.9534 173.179 93.0086C173.179 93.0639 173.154 93.1169 173.11 93.156C173.068 93.195 173.01 93.219 172.949 93.2235Z" fill="#263238"/>
<path d="M166.901 101.924C166.086 101.954 165.276 101.795 164.554 101.463C163.831 101.131 163.221 100.638 162.785 100.033C162.773 99.9976 162.775 99.9597 162.791 99.9256C162.807 99.8914 162.836 99.8633 162.874 99.8459C162.911 99.8285 162.954 99.823 162.995 99.8302C163.036 99.8375 163.073 99.857 163.1 99.8856C163.507 100.44 164.073 100.892 164.741 101.194C165.41 101.497 166.157 101.641 166.908 101.611C166.954 101.611 166.999 101.627 167.032 101.656C167.065 101.685 167.083 101.724 167.083 101.764C167.083 101.807 167.064 101.847 167.03 101.877C166.996 101.907 166.949 101.924 166.901 101.924Z" fill="#263238"/>
<path d="M165.648 95.6674C165.648 96.1218 165.389 96.4902 165.039 96.5025C164.689 96.5148 164.395 96.1525 164.381 95.6981C164.367 95.2438 164.633 94.8754 164.983 94.8631C165.333 94.8508 165.634 95.2131 165.648 95.6674Z" fill="#263238"/>
<path d="M171.871 95.7163C171.871 96.1645 171.612 96.539 171.262 96.5513C170.912 96.5636 170.618 96.2013 170.597 95.747C170.576 95.2926 170.856 94.9242 171.206 94.9119C171.556 94.8996 171.857 95.2619 171.871 95.7163Z" fill="#263238"/>
<path d="M164.885 94.8815L166.474 94.4824C166.474 94.4824 166.187 95.2315 164.885 94.8815Z" fill="#263238"/>
<path d="M171.206 94.912L172.375 94.7646C172.327 94.8588 172.252 94.9407 172.158 95.0027C172.064 95.0648 171.953 95.105 171.837 95.1197C171.72 95.1344 171.601 95.1231 171.491 95.0868C171.381 95.0505 171.283 94.9904 171.206 94.912Z" fill="#263238"/>
<path d="M188.181 118.465L182.7 129.051L179.788 128.123C179.788 128.123 180.082 147.342 177.688 157.215H149.198L147.56 130.985L146.069 133.723L135.569 128.553C135.569 128.553 138.474 118.115 143.01 116.273C145.173 115.395 149.786 114.72 154.532 114.284C158.856 113.854 163.208 113.674 167.559 113.744C167.559 113.744 168.007 113.744 168.798 113.744C175.591 113.967 182.23 115.584 188.181 118.465Z" fill="black"/>
<path d="M204.547 104.945C203.466 103.597 202.748 102.052 202.447 100.426C202.151 98.6753 202.336 96.8882 202.986 95.2129L208.642 95.041L209.342 99.382C209.619 101.397 209.044 103.431 207.725 105.098L204.547 104.945Z" fill="#B55B52"/>
<path d="M105.434 137.978L102.487 133.367L98.903 132.274L96.355 136.449L98.63 139.188C98.63 139.188 101.633 141.423 103.803 141.484L105.434 137.978Z" fill="#B55B52"/>
<path d="M168.763 113.743C168.714 120.362 163.996 127.613 163.996 127.613C159.796 124.058 155.596 116.433 154.497 114.271C158.821 113.842 163.173 113.661 167.524 113.731C167.524 113.731 168 113.719 168.763 113.743Z" fill="#B55B52"/>
<path opacity="0.12" d="M146.062 133.723L147.532 126.619L147.56 130.991L146.062 133.723Z" fill="black"/>
<path opacity="0.12" d="M182.714 129.05L178.01 125.974L179.802 128.123L182.714 129.05Z" fill="black"/>
<path d="M151.725 243.353L158.459 249.744L142.835 262.78L137.263 259.304L151.725 243.353Z" fill="#B55B52"/>
<path d="M144.2 262.473C144.578 264.462 145.131 266.679 148.351 270.572C149.051 271.437 147.189 273.058 145.082 271.345C142.975 269.632 139.951 266.943 138.425 265.709C135.94 263.689 134.925 263.019 132.902 261.447C132.871 261.428 132.843 261.406 132.818 261.38C132.722 261.292 132.646 261.188 132.596 261.074C132.545 260.96 132.521 260.839 132.524 260.717C132.527 260.594 132.558 260.474 132.615 260.362C132.671 260.251 132.752 260.15 132.853 260.066L137.284 256.916C137.386 256.846 137.514 256.812 137.643 256.82C137.773 256.828 137.894 256.877 137.984 256.959L143.633 261.54C143.93 261.79 144.129 262.117 144.2 262.473Z" fill="#263238"/>
<path d="M143.353 262.356C143.336 262.332 143.326 262.304 143.326 262.276C143.326 262.248 143.336 262.22 143.353 262.196C143.374 262.183 143.399 262.175 143.424 262.172C143.45 262.169 143.476 262.171 143.5 262.178C143.822 262.27 146.699 263.05 147 263.823C147.03 263.895 147.038 263.972 147.025 264.047C147.012 264.122 146.976 264.193 146.923 264.253C146.846 264.352 146.741 264.432 146.618 264.484C146.496 264.537 146.359 264.561 146.223 264.554C145.659 264.451 145.146 264.193 144.76 263.817C144.242 263.368 143.771 262.879 143.353 262.356ZM143.892 262.54C144.851 263.608 145.719 264.247 146.251 264.247C146.342 264.252 146.432 264.236 146.513 264.201C146.595 264.165 146.664 264.111 146.713 264.044C146.73 264.019 146.738 263.99 146.738 263.961C146.738 263.932 146.73 263.904 146.713 263.878C146.669 263.794 146.604 263.719 146.524 263.657C145.72 263.165 144.831 262.788 143.892 262.54Z" fill="black"/>
<path d="M143.311 262.301C143.304 262.278 143.304 262.254 143.311 262.231C143.319 262.208 143.333 262.188 143.353 262.172C143.402 262.129 144.669 261.11 145.747 261.19C146.069 261.212 146.368 261.344 146.58 261.558C146.881 261.859 146.832 262.074 146.741 262.172C146.342 262.718 144.249 262.651 143.416 262.387L143.36 262.356C143.34 262.34 143.324 262.322 143.311 262.301ZM145.74 261.466C145.01 261.527 144.322 261.794 143.78 262.227C144.704 262.417 146.23 262.362 146.468 262.037C146.468 262.037 146.545 261.932 146.349 261.736L146.279 261.675C146.131 261.554 145.941 261.481 145.74 261.466Z" fill="black"/>
<path d="M148.666 255.025L157.843 254.908L156.569 275.139L149.968 274.937L148.666 255.025Z" fill="#B55B52"/>
<path d="M158.123 273.648C159.992 274.937 160.923 276.294 166.159 277.295C167.328 277.522 167.363 279.923 164.598 279.904C161.833 279.886 158.886 279.671 156.898 279.671C153.643 279.671 152.404 279.8 149.828 279.8C149.675 279.797 149.525 279.769 149.385 279.715C149.245 279.662 149.118 279.585 149.013 279.488C148.907 279.392 148.823 279.278 148.767 279.154C148.712 279.029 148.684 278.896 148.687 278.762L149.135 273.641C149.142 273.532 149.199 273.429 149.292 273.355C149.385 273.282 149.507 273.243 149.632 273.248L157.045 273.291C157.438 273.307 157.816 273.432 158.123 273.648Z" fill="#263238"/>
<path d="M153.825 149.957C153.027 162.513 171.843 200.047 173.943 213.199C167.461 226.406 150.5 243.242 150.5 243.242L158.536 250.929C158.536 250.929 186.676 228.93 188.139 213.598C189.357 200.489 178.787 151.216 178.787 151.216L153.825 149.957Z" fill="black"/>
<path d="M153.825 149.957C153.027 162.513 171.843 200.047 173.943 213.199C167.461 226.406 150.5 243.242 150.5 243.242L158.536 250.929C158.536 250.929 186.676 228.93 188.139 213.598C189.357 200.489 178.787 151.216 178.787 151.216L153.825 149.957Z" fill="#263238"/>
<path d="M150.71 241.449L161.224 250.205L158.389 251.764L148.771 244.175L150.71 241.449Z" fill="black"/>
<path opacity="0.3" d="M159.88 173.793C164.29 185.741 169.946 198.752 172.592 207.636C173.075 197.972 172.704 180.755 164.997 171.41C161.399 167.008 159.978 169.2 159.88 173.793Z" fill="black"/>
<path d="M149.03 150.104C143.563 163.312 147.819 193.127 148.113 214.495C146.475 230.6 148.666 255.019 148.666 255.019L158.536 255.375C158.536 255.375 161.511 226.554 163.541 208.57C165.263 193.428 171.409 150.854 171.409 150.854L149.03 150.104Z" fill="black"/>
<path d="M148.722 149.644C143.255 162.845 147.819 193.128 148.113 214.495C146.475 230.6 148.666 255.019 148.666 255.019L158.536 255.375C158.536 255.375 161.511 226.554 163.541 208.57C165.263 193.428 171.409 150.854 171.409 150.854L148.722 149.644Z" fill="#263238"/>
<path d="M147.231 252.894L160.027 253.207L159.236 256.326L147.924 256.609L147.231 252.894Z" fill="black"/>
<path d="M160.594 274.052C160.006 274.55 158.494 274.31 157.598 274.132C157.567 274.124 157.54 274.109 157.518 274.088C157.496 274.068 157.48 274.043 157.472 274.016C157.467 273.99 157.47 273.964 157.481 273.94C157.492 273.916 157.511 273.895 157.535 273.881C157.745 273.752 159.635 272.653 160.454 272.941C160.544 272.975 160.623 273.029 160.682 273.098C160.741 273.167 160.778 273.249 160.79 273.334C160.821 273.439 160.824 273.549 160.8 273.655C160.775 273.761 160.724 273.861 160.65 273.948C160.645 273.987 160.625 274.024 160.594 274.052ZM158.032 273.905C159.194 274.114 160.055 274.083 160.37 273.831C160.437 273.767 160.482 273.688 160.502 273.602C160.522 273.517 160.515 273.429 160.482 273.346C160.482 273.308 160.469 273.27 160.444 273.238C160.419 273.206 160.383 273.182 160.342 273.168C159.929 273.009 158.809 273.494 158.032 273.924V273.905Z" fill="black"/>
<path d="M157.71 274.083C157.686 274.092 157.659 274.097 157.633 274.097C157.607 274.097 157.58 274.092 157.556 274.083C157.533 274.07 157.512 274.053 157.497 274.033C157.481 274.013 157.47 273.99 157.465 273.967C157.465 273.893 157.353 272.229 158.018 271.676C158.102 271.603 158.206 271.549 158.319 271.518C158.432 271.487 158.552 271.48 158.669 271.498C158.796 271.502 158.919 271.542 159.018 271.612C159.118 271.681 159.189 271.777 159.222 271.885C159.223 272.175 159.159 272.462 159.033 272.73C158.907 272.997 158.721 273.24 158.487 273.445C158.269 273.693 158.006 273.908 157.71 274.083ZM157.766 273.703C158.368 273.267 159.04 272.333 158.921 271.934C158.908 271.882 158.872 271.835 158.821 271.805C158.771 271.774 158.709 271.761 158.648 271.768C158.575 271.756 158.499 271.76 158.428 271.781C158.357 271.801 158.293 271.837 158.242 271.885L158.179 271.946C157.858 272.487 157.715 273.095 157.766 273.703Z" fill="black"/>
<path d="M155.281 112.834H152.866V125.311H155.281V112.834Z" fill="#FAFAFA"/>
<path d="M149.625 112.834H147.21V125.311H149.625V112.834Z" fill="#FAFAFA"/>
<path d="M162.024 121.936C163.494 116.499 159.66 111.046 153.461 109.757C147.262 108.468 141.046 111.83 139.576 117.267C138.106 122.705 141.94 128.157 148.139 129.447C154.337 130.736 160.554 127.373 162.024 121.936Z" stroke="#FAFAFA" stroke-width="0.996895" stroke-miterlimit="10"/>
<path d="M249.984 70.8004V76.2404H86.1841V70.8004C86.1841 69.489 86.7775 68.2311 87.8341 67.3032C88.8907 66.3753 90.3239 65.8532 91.8191 65.8516H244.349C245.844 65.8532 247.277 66.3753 248.334 67.3032C249.391 68.2311 249.984 69.489 249.984 70.8004Z" fill="black"/>
<path d="M249.984 157.214V159.314C249.975 160.62 249.377 161.869 248.321 162.789C247.265 163.71 245.837 164.226 244.349 164.226H91.847C90.3586 164.226 88.9306 163.71 87.8748 162.789C86.819 161.869 86.2213 160.62 86.212 159.314V157.214H249.984Z" fill="black"/>
<path d="M118.552 73.7411H94.626C93.9385 73.7411 93.279 73.502 92.7922 73.0761C92.3053 72.6503 92.0309 72.0724 92.0291 71.4693C92.0291 70.8652 92.3027 70.2858 92.7897 69.8586C93.2767 69.4314 93.9373 69.1914 94.626 69.1914H118.552C118.893 69.1914 119.231 69.2503 119.546 69.3648C119.861 69.4793 120.147 69.6471 120.388 69.8586C120.63 70.0701 120.821 70.3212 120.951 70.5976C121.082 70.874 121.149 71.1702 121.149 71.4693C121.147 72.0724 120.873 72.6503 120.386 73.0761C119.899 73.502 119.24 73.7411 118.552 73.7411Z" stroke="white" stroke-width="0.5" stroke-miterlimit="10"/>
<path d="M131.544 73.7411H128.044C127.357 73.7411 126.698 73.5018 126.213 73.0758C125.727 72.6497 125.454 72.0719 125.454 71.4693C125.454 70.8663 125.727 70.2878 126.212 69.8608C126.698 69.4337 127.356 69.193 128.044 69.1914H131.544C132.233 69.1914 132.893 69.4314 133.38 69.8586C133.867 70.2858 134.141 70.8652 134.141 71.4693C134.139 72.0724 133.865 72.6503 133.378 73.0761C132.891 73.502 132.232 73.7411 131.544 73.7411Z" stroke="white" stroke-width="0.5" stroke-miterlimit="10"/>
<path d="M199.493 79.0342H100.555C94.7405 79.0342 90.027 83.1686 90.027 88.2687V145.641C90.027 150.741 94.7405 154.875 100.555 154.875H199.493C205.307 154.875 210.021 150.741 210.021 145.641V88.2687C210.021 83.1686 205.307 79.0342 199.493 79.0342Z" stroke="white" stroke-width="0.5" stroke-miterlimit="10"/>
<path d="M126.889 85.5791H84.602C81.4126 85.5791 78.827 87.847 78.827 90.6446V103.858C78.827 106.655 81.4126 108.923 84.602 108.923H126.889C130.078 108.923 132.664 106.655 132.664 103.858V90.6446C132.664 87.847 130.078 85.5791 126.889 85.5791Z" fill="black"/>
<path d="M134.722 89.564V104.914C134.727 105.438 134.613 105.958 134.388 106.443C134.163 106.929 133.831 107.37 133.411 107.743C132.991 108.115 132.491 108.412 131.94 108.614C131.389 108.817 130.798 108.922 130.2 108.923H113.981C109.081 110.409 112.147 116.359 112.252 116.574C111.319 116.294 110.446 115.879 109.669 115.346C106.169 112.89 106.659 108.93 106.659 108.93H85.4001C84.1952 108.93 83.0396 108.51 82.1877 107.762C81.3357 107.015 80.8571 106.002 80.8571 104.945V89.5947C80.8571 88.5379 81.3357 87.5243 82.1877 86.777C83.0396 86.0297 84.1952 85.6099 85.4001 85.6099H130.2C131.396 85.6131 132.542 86.0303 133.389 86.7708C134.235 87.5113 134.715 88.5152 134.722 89.564Z" fill="black"/>
<path opacity="0.2" d="M132.657 89.5639V104.914C132.662 105.44 132.547 105.963 132.32 106.45C132.093 106.938 131.757 107.381 131.334 107.754C130.91 108.127 130.406 108.422 129.85 108.623C129.295 108.824 128.7 108.926 128.1 108.923H111.916C108.332 110.004 109.004 113.467 109.669 115.34C106.169 112.884 106.659 108.923 106.659 108.923H83.363C82.7668 108.923 82.1764 108.82 81.6256 108.62C81.0748 108.419 80.5744 108.126 80.1531 107.756C79.7318 107.386 79.3978 106.946 79.1703 106.463C78.9428 105.979 78.8261 105.461 78.827 104.938V89.5884C78.8261 89.0654 78.9428 88.5474 79.1703 88.0639C79.3978 87.5805 79.7318 87.1412 80.1531 86.7711C80.5744 86.401 81.0748 86.1073 81.6256 85.907C82.1764 85.7067 82.7668 85.6036 83.363 85.6036H128.1C128.696 85.6011 129.286 85.7017 129.837 85.8994C130.389 86.0971 130.89 86.3881 131.314 86.7559C131.737 87.1236 132.073 87.5609 132.304 88.0427C132.534 88.5245 132.654 89.0414 132.657 89.5639Z" fill="white"/>
<path d="M128.464 89.2876H82.74V91.412H128.464V89.2876Z" fill="black"/>
<path d="M128.464 93.1865H82.74V95.311H128.464V93.1865Z" fill="black"/>
<path d="M128.464 97.0918H82.74V99.2162H128.464V97.0918Z" fill="black"/>
<path opacity="0.1" d="M128.464 89.2876H82.74V91.412H128.464V89.2876Z" fill="black"/>
<path opacity="0.1" d="M128.464 93.1865H82.74V95.311H128.464V93.1865Z" fill="black"/>
<path opacity="0.1" d="M128.464 97.0918H82.74V99.2162H128.464V97.0918Z" fill="black"/>
</svg>
