<svg width="67" height="67" viewBox="0 0 67 67" fill="none" xmlns="http://www.w3.org/2000/svg">
<path fill-rule="evenodd" clip-rule="evenodd" d="M35.0717 8.9335H31.9283L30.1276 16.1304L28.3214 16.6887C27.2689 17.0131 26.2492 17.4355 25.2757 17.9506L23.6035 18.8355L17.2385 15.0165L15.0164 17.2415L18.8354 23.6065L17.9504 25.2759C17.4344 26.2493 17.011 27.269 16.6858 28.3216L16.1302 30.1278L8.93331 31.9285V35.0719L16.1302 36.8725L16.6886 38.6787C17.0105 39.7358 17.4311 40.751 17.9504 41.7244L18.8354 43.3966L15.0164 49.7616L17.2413 51.9838L23.6063 48.1648L25.2757 49.0497C26.2491 49.5671 27.2643 49.9887 28.3214 50.3144L30.1276 50.8699L31.9283 58.0668H35.0717L36.8723 50.8699L38.6785 50.3116C39.731 49.9873 40.7507 49.5648 41.7242 49.0497L43.3964 48.1648L49.7614 51.9838L51.9836 49.7588L48.1646 43.3938L49.0496 41.7244C49.5669 40.751 49.9885 39.7358 50.3142 38.6787L50.8697 36.8725L58.0666 35.0719V31.9285L50.8697 30.1278L50.3114 28.3216C49.9871 27.2691 49.5646 26.2494 49.0496 25.2759L48.1646 23.6037L51.9836 17.2387L49.7586 15.0165L43.3936 18.8355L41.7242 17.9506C40.7508 17.4346 39.7311 17.0112 38.6785 16.686L36.8723 16.1304L35.0717 8.9335ZM43.2931 14.9914L48.4103 11.9206C48.9438 11.6005 49.569 11.4679 50.1866 11.5438C50.8041 11.6197 51.3786 11.8997 51.8189 12.3393L54.6608 15.1812C55.1005 15.6215 55.3805 16.196 55.4563 16.8135C55.5322 17.4311 55.3996 18.0563 55.0796 18.5899L52.0087 23.707C52.6229 24.8609 53.1254 26.0706 53.5162 27.3362L59.3034 28.785C59.907 28.9363 60.4429 29.2849 60.8258 29.7755C61.2087 30.2661 61.4166 30.8706 61.4166 31.493V35.5074C61.4166 36.1297 61.2087 36.7342 60.8258 37.2248C60.4429 37.7154 59.907 38.0641 59.3034 38.2153L53.5162 39.6642C53.1254 40.9297 52.6229 42.1394 52.0087 43.2933L55.0796 48.4104C55.3996 48.944 55.5322 49.5692 55.4563 50.1868C55.3805 50.8043 55.1005 51.3788 54.6608 51.8191L51.8189 54.661C51.3786 55.1007 50.8041 55.3806 50.1866 55.4565C49.569 55.5324 48.9438 55.3998 48.4103 55.0797L43.2931 52.0089C42.1393 52.6231 40.9295 53.1256 39.664 53.5164L38.2151 59.3035C38.0639 59.9072 37.7153 60.4431 37.2246 60.826C36.734 61.2088 36.1295 61.4168 35.5072 61.4168H31.4928C30.8704 61.4168 30.2659 61.2088 29.7753 60.826C29.2847 60.4431 28.9361 59.9072 28.7849 59.3035L27.336 53.5164C26.0817 53.1288 24.8666 52.6241 23.7068 52.0089L18.5897 55.0797C18.0561 55.3998 17.4309 55.5324 16.8134 55.4565C16.1958 55.3806 15.6213 55.1007 15.1811 54.661L12.3391 51.8191C11.8995 51.3788 11.6195 50.8043 11.5436 50.1868C11.4678 49.5692 11.6004 48.944 11.9204 48.4104L14.9912 43.2933C14.3761 42.1335 13.8713 40.9185 13.4837 39.6642L7.6966 38.2153C7.09338 38.0642 6.55788 37.716 6.17504 37.2259C5.7922 36.7359 5.58395 36.132 5.58331 35.5102V31.4957C5.58333 30.8734 5.7913 30.2689 6.17418 29.7783C6.55707 29.2877 7.09292 28.9391 7.6966 28.7878L13.4837 27.339C13.8746 26.0734 14.3771 24.8637 14.9912 23.7098L11.9204 18.5927C11.6004 18.0591 11.4678 17.4339 11.5436 16.8163C11.6195 16.1988 11.8995 15.6243 12.3391 15.184L15.1811 12.3393C15.6213 11.8997 16.1958 11.6197 16.8134 11.5438C17.4309 11.4679 18.0561 11.6005 18.5897 11.9206L23.7068 14.9914C24.8607 14.3772 26.0704 13.8747 27.336 13.4839L28.7849 7.69679C28.936 7.09356 29.2842 6.55806 29.7742 6.17523C30.2643 5.79239 30.8681 5.58413 31.49 5.5835H35.5044C36.1267 5.58351 36.7312 5.79148 37.2219 6.17437C37.7125 6.55725 38.0611 7.0931 38.2123 7.69679L39.6612 13.4839C40.9267 13.8747 42.1365 14.3772 43.2904 14.9914H43.2931ZM33.5 41.3168C35.5731 41.3168 37.5613 40.4933 39.0272 39.0274C40.4931 37.5615 41.3166 35.5733 41.3166 33.5002C41.3166 31.4271 40.4931 29.4389 39.0272 27.9729C37.5613 26.507 35.5731 25.6835 33.5 25.6835C31.4269 25.6835 29.4387 26.507 27.9728 27.9729C26.5068 29.4389 25.6833 31.4271 25.6833 33.5002C25.6833 35.5733 26.5068 37.5615 27.9728 39.0274C29.4387 40.4933 31.4269 41.3168 33.5 41.3168ZM33.5 44.6668C30.5384 44.6668 27.6981 43.4903 25.604 41.3962C23.5098 39.302 22.3333 36.4617 22.3333 33.5002C22.3333 30.5386 23.5098 27.6983 25.604 25.6041C27.6981 23.51 30.5384 22.3335 33.5 22.3335C36.4616 22.3335 39.3018 23.51 41.396 25.6041C43.4902 27.6983 44.6666 30.5386 44.6666 33.5002C44.6666 36.4617 43.4902 39.302 41.396 41.3962C39.3018 43.4903 36.4616 44.6668 33.5 44.6668Z" fill="#FFFBFB"/>
</svg>
