<svg width="91" height="91" viewBox="0 0 91 91" fill="none" xmlns="http://www.w3.org/2000/svg">
<path d="M37.9168 53.0833L79.6251 11.375M37.9168 53.0833L51.1876 79.625C51.3539 79.988 51.621 80.2956 51.9571 80.5113C52.2932 80.727 52.6841 80.8416 53.0834 80.8416C53.4827 80.8416 53.8737 80.727 54.2097 80.5113C54.5458 80.2956 54.8129 79.988 54.9793 79.625L79.6251 11.375M37.9168 53.0833L11.3751 39.8125C11.0121 39.6461 10.7044 39.3791 10.4888 39.043C10.2731 38.7069 10.1584 38.316 10.1584 37.9167C10.1584 37.5173 10.2731 37.1264 10.4888 36.7903C10.7044 36.4543 11.0121 36.1872 11.3751 36.0208L79.6251 11.375" stroke="white" stroke-width="2" stroke-linecap="round" stroke-linejoin="round"/>
</svg>
