<svg width="401" height="397" viewBox="0 0 401 397" fill="none" xmlns="http://www.w3.org/2000/svg">
<path d="M360.82 314.98H334.258V315.182H360.82V314.98Z" fill="#EBEBEB"/>
<path d="M265.638 317.178H258.669V317.38H265.638V317.178Z" fill="#EBEBEB"/>
<path d="M333.456 307.481H318.065V307.683H333.456V307.481Z" fill="#EBEBEB"/>
<path d="M76.7113 308.839H42.0729V309.041H76.7113V308.839Z" fill="#EBEBEB"/>
<path d="M88.9338 308.839H83.8572V309.041H88.9338V308.839Z" fill="#EBEBEB"/>
<path d="M180.57 312.249H105.439V312.451H180.57V312.249Z" fill="#EBEBEB"/>
<path d="M191.197 265.942H36.3306C35.1161 265.942 33.9513 265.456 33.0925 264.591C32.2337 263.726 31.7512 262.552 31.7512 261.329V42.0132C31.7618 40.7966 32.2489 39.6335 33.1066 38.7769C33.9643 37.9204 35.123 37.4399 36.3306 37.4399H191.197C191.798 37.4399 192.394 37.5593 192.949 37.7911C193.505 38.023 194.01 38.3628 194.435 38.7913C194.86 39.2197 195.198 39.7283 195.428 40.288C195.658 40.8478 195.776 41.4477 195.776 42.0536V261.329C195.776 261.935 195.658 262.534 195.428 263.094C195.198 263.654 194.86 264.163 194.435 264.591C194.01 265.019 193.505 265.359 192.949 265.591C192.394 265.823 191.798 265.942 191.197 265.942ZM36.3306 37.6015C35.1699 37.6037 34.0574 38.0692 33.2366 38.8961C32.4159 39.7229 31.9538 40.8438 31.9517 42.0132V261.329C31.9538 262.498 32.4159 263.619 33.2366 264.446C34.0574 265.273 35.1699 265.738 36.3306 265.74H191.197C192.358 265.738 193.47 265.273 194.291 264.446C195.112 263.619 195.574 262.498 195.576 261.329V42.0132C195.574 40.8438 195.112 39.7229 194.291 38.8961C193.47 38.0692 192.358 37.6037 191.197 37.6015H36.3306Z" fill="#EBEBEB"/>
<path d="M364.669 265.942H209.803C208.589 265.942 207.424 265.456 206.565 264.591C205.706 263.726 205.224 262.552 205.224 261.329V42.0132C205.234 40.7966 205.721 39.6335 206.579 38.7769C207.437 37.9204 208.596 37.4399 209.803 37.4399H364.669C365.884 37.4399 367.049 37.926 367.908 38.7913C368.766 39.6565 369.249 40.83 369.249 42.0536V261.329C369.249 262.552 368.766 263.726 367.908 264.591C367.049 265.456 365.884 265.942 364.669 265.942ZM209.803 37.6015C208.642 37.6037 207.53 38.0692 206.709 38.8961C205.888 39.7229 205.426 40.8438 205.424 42.0132V261.329C205.426 262.498 205.888 263.619 206.709 264.446C207.53 265.273 208.642 265.738 209.803 265.74H364.669C365.83 265.738 366.943 265.273 367.763 264.446C368.584 263.619 369.046 262.498 369.048 261.329V42.0132C369.046 40.8438 368.584 39.7229 367.763 38.8961C366.943 38.0692 365.83 37.6037 364.669 37.6015H209.803Z" fill="#EBEBEB"/>
<path d="M401 301.979H0V302.181H401V301.979Z" fill="#EBEBEB"/>
<path d="M300.75 296.38L278.23 291.629V174.186H271.012V291.629L248.492 296.38C247.215 296.651 246.069 297.356 245.247 298.377C244.425 299.398 243.976 300.673 243.976 301.987H305.233C305.235 300.677 304.791 299.406 303.975 298.385C303.16 297.365 302.021 296.657 300.75 296.38Z" fill="#E0E0E0"/>
<path d="M274.092 103.979H286.924C292.654 103.979 298.149 106.272 302.201 110.354C306.253 114.436 308.529 119.973 308.529 125.746V155.585C308.529 158.444 307.971 161.275 306.885 163.916C305.799 166.557 304.207 168.956 302.201 170.977C300.195 172.999 297.813 174.602 295.192 175.696C292.57 176.79 289.761 177.353 286.924 177.353H274.092V103.987V103.979Z" fill="#E6E6E6"/>
<path d="M286.964 168.49H274.092V177.378H286.964C292.692 177.376 298.186 175.081 302.236 170.999C306.286 166.917 308.561 161.382 308.561 155.61V146.722C308.561 152.494 306.286 158.029 302.236 162.111C298.186 166.193 292.692 168.488 286.964 168.49Z" fill="#E0E0E0"/>
<path d="M275.615 103.979H256.295C249.66 103.979 244.281 109.398 244.281 116.082V165.241C244.281 171.926 249.66 177.345 256.295 177.345H275.615C282.25 177.345 287.629 171.926 287.629 165.241V116.082C287.629 109.398 282.25 103.979 275.615 103.979Z" fill="#F0F0F0"/>
<path d="M265.959 137.325C273.892 137.325 280.323 130.846 280.323 122.854C280.323 114.861 273.892 108.382 265.959 108.382C258.026 108.382 251.595 114.861 251.595 122.854C251.595 130.846 258.026 137.325 265.959 137.325Z" fill="#E0E0E0"/>
<path d="M265.959 171.94C273.892 171.94 280.323 165.461 280.323 157.468C280.323 149.476 273.892 142.997 265.959 142.997C258.026 142.997 251.595 149.476 251.595 157.468C251.595 165.461 258.026 171.94 265.959 171.94Z" fill="#E0E0E0"/>
<path d="M265.959 134.917C272.572 134.917 277.933 129.516 277.933 122.853C277.933 116.191 272.572 110.79 265.959 110.79C259.346 110.79 253.985 116.191 253.985 122.853C253.985 129.516 259.346 134.917 265.959 134.917Z" fill="#EBEBEB"/>
<path d="M270.747 122.854C270.747 123.813 270.465 124.75 269.936 125.547C269.407 126.345 268.656 126.966 267.777 127.333C266.897 127.7 265.93 127.796 264.996 127.609C264.063 127.422 263.206 126.96 262.533 126.282C261.86 125.604 261.401 124.74 261.216 123.8C261.03 122.859 261.125 121.884 261.489 120.999C261.854 120.113 262.47 119.356 263.262 118.823C264.053 118.29 264.983 118.006 265.935 118.006C267.211 118.006 268.435 118.517 269.338 119.426C270.24 120.335 270.747 121.568 270.747 122.854Z" fill="#E0E0E0"/>
<path d="M265.959 169.532C272.572 169.532 277.933 164.131 277.933 157.468C277.933 150.806 272.572 145.405 265.959 145.405C259.346 145.405 253.985 150.806 253.985 157.468C253.985 164.131 259.346 169.532 265.959 169.532Z" fill="#EBEBEB"/>
<path d="M270.747 157.468C270.747 158.427 270.465 159.364 269.936 160.162C269.407 160.959 268.656 161.58 267.777 161.947C266.897 162.314 265.93 162.41 264.996 162.223C264.063 162.036 263.206 161.574 262.533 160.896C261.86 160.218 261.401 159.354 261.216 158.414C261.03 157.473 261.125 156.499 261.489 155.613C261.854 154.727 262.47 153.97 263.262 153.437C264.053 152.904 264.983 152.62 265.935 152.62C267.211 152.62 268.435 153.131 269.338 154.04C270.24 154.949 270.747 156.182 270.747 157.468Z" fill="#E0E0E0"/>
<path d="M345.309 59.7002H55.1616C54.8692 59.7013 54.5794 59.6442 54.309 59.5322C54.0385 59.4202 53.7927 59.2555 53.5855 59.0476C53.3784 58.8396 53.214 58.5925 53.1019 58.3205C52.9897 58.0484 52.932 57.7567 52.932 57.4621C52.931 57.1668 52.9879 56.8742 53.0996 56.6012C53.2112 56.3282 53.3754 56.0802 53.5827 55.8714C53.7899 55.6626 54.0361 55.4972 54.3071 55.3846C54.5781 55.2721 54.8685 55.2148 55.1616 55.2158H345.309C345.602 55.2148 345.893 55.2721 346.164 55.3846C346.435 55.4972 346.681 55.6626 346.888 55.8714C347.095 56.0802 347.259 56.3282 347.371 56.6012C347.483 56.8742 347.54 57.1668 347.539 57.4621C347.539 57.7567 347.481 58.0484 347.369 58.3205C347.257 58.5925 347.092 58.8396 346.885 59.0476C346.678 59.2555 346.432 59.4202 346.162 59.5322C345.891 59.6442 345.602 59.7013 345.309 59.7002Z" fill="#E6E6E6"/>
<path d="M103.594 86.8088C102.868 87.5405 102.006 88.121 101.057 88.517C100.108 88.913 99.0915 89.1168 98.0645 89.1168C97.0375 89.1168 96.0206 88.913 95.0717 88.517C94.1229 88.121 93.2608 87.5405 92.5347 86.8088L89.6395 83.8919C88.1752 82.4148 87.3527 80.4125 87.3527 78.3248C87.3527 76.2371 88.1752 74.2348 89.6395 72.7577C90.3656 72.026 91.2277 71.4455 92.1765 71.0495C93.1253 70.6535 94.1423 70.4497 95.1693 70.4497C96.1963 70.4497 97.2132 70.6535 98.1621 71.0495C99.1109 71.4455 99.9729 72.026 100.699 72.7577L103.594 75.6665C104.321 76.398 104.897 77.2666 105.29 78.2225C105.683 79.1784 105.885 80.203 105.885 81.2377C105.885 82.2723 105.683 83.2969 105.29 84.2528C104.897 85.2087 104.321 86.0772 103.594 86.8088Z" fill="#E0E0E0"/>
<path d="M95.5583 83.6495C95.1836 84.0195 94.8853 84.4607 94.6809 84.9476C94.4764 85.4344 94.3698 85.9573 94.3671 86.4859C94.3645 87.0145 94.4659 87.5384 94.6654 88.0273C94.865 88.5162 95.1588 88.9604 95.5298 89.3342C95.9008 89.708 96.3417 90.004 96.827 90.2051C97.3123 90.4062 97.8323 90.5083 98.357 90.5056C98.8817 90.503 99.4007 90.3955 99.8839 90.1895C100.367 89.9835 100.805 89.6831 101.172 89.3055L106.081 84.3606C106.455 83.9906 106.754 83.5494 106.958 83.0625C107.162 82.5757 107.269 82.0528 107.272 81.5242C107.274 80.9956 107.173 80.4717 106.973 79.9827C106.774 79.4938 106.48 79.0497 106.109 78.6759C105.738 78.3021 105.297 78.0061 104.812 77.805C104.327 77.6039 103.807 77.5018 103.282 77.5044C102.757 77.5071 102.238 77.6146 101.755 77.8205C101.272 78.0265 100.834 78.327 100.467 78.7046L95.5583 83.6495Z" fill="#F5F5F5"/>
<path d="M96.1678 73.8C96.1678 74.67 95.8247 75.5044 95.2141 76.1196C94.6034 76.7348 93.7752 77.0804 92.9116 77.0804C92.0481 77.0804 91.2199 76.7348 90.6092 76.1196C89.9986 75.5044 89.6555 74.67 89.6555 73.8V59.1348H96.1678V73.8Z" fill="#F0F0F0"/>
<path d="M94.7002 73.7999C94.7002 74.1563 94.5953 74.5046 94.3988 74.8009C94.2023 75.0972 93.923 75.3282 93.5962 75.4646C93.2694 75.6009 92.9098 75.6366 92.5628 75.5671C92.2159 75.4976 91.8972 75.326 91.6471 75.074C91.397 74.822 91.2267 74.5009 91.1577 74.1514C91.0886 73.8019 91.1241 73.4396 91.2594 73.1104C91.3948 72.7811 91.624 72.4997 91.9181 72.3017C92.2122 72.1037 92.558 71.998 92.9118 71.998C93.1466 71.998 93.3792 72.0447 93.5962 72.1352C93.8132 72.2258 94.0103 72.3585 94.1764 72.5258C94.3425 72.6931 94.4742 72.8917 94.5641 73.1104C94.6539 73.329 94.7002 73.5633 94.7002 73.7999Z" fill="#E0E0E0"/>
<path d="M174.716 86.8088C173.99 87.5405 173.128 88.121 172.179 88.517C171.23 88.913 170.213 89.1168 169.186 89.1168C168.159 89.1168 167.142 88.913 166.193 88.517C165.244 88.121 164.382 87.5405 163.656 86.8088L160.761 83.8919C159.297 82.4148 158.474 80.4125 158.474 78.3248C158.474 76.2371 159.297 74.2348 160.761 72.7577C161.487 72.026 162.349 71.4455 163.298 71.0495C164.247 70.6535 165.264 70.4497 166.291 70.4497C167.318 70.4497 168.335 70.6535 169.284 71.0495C170.232 71.4455 171.094 72.026 171.821 72.7577L174.716 75.6665C175.442 76.398 176.018 77.2666 176.411 78.2225C176.804 79.1784 177.007 80.203 177.007 81.2377C177.007 82.2723 176.804 83.2969 176.411 84.2528C176.018 85.2087 175.442 86.0772 174.716 86.8088Z" fill="#E0E0E0"/>
<path d="M166.68 83.6495C166.305 84.0195 166.007 84.4607 165.802 84.9476C165.598 85.4344 165.491 85.9573 165.488 86.4859C165.486 87.0145 165.587 87.5384 165.787 88.0273C165.986 88.5162 166.28 88.9604 166.651 89.3342C167.022 89.708 167.463 90.004 167.948 90.2051C168.434 90.4062 168.954 90.5083 169.478 90.5056C170.003 90.503 170.522 90.3955 171.005 90.1895C171.488 89.9835 171.926 89.6831 172.294 89.3055L177.202 84.3606C177.577 83.9906 177.875 83.5494 178.079 83.0625C178.284 82.5757 178.39 82.0528 178.393 81.5242C178.396 80.9956 178.294 80.4717 178.095 79.9827C177.895 79.4938 177.601 79.0497 177.23 78.6759C176.859 78.3021 176.418 78.0061 175.933 77.805C175.448 77.6039 174.928 77.5018 174.403 77.5044C173.878 77.5071 173.36 77.6146 172.876 77.8205C172.393 78.0265 171.955 78.327 171.588 78.7046L166.68 83.6495Z" fill="#F5F5F5"/>
<path d="M167.289 73.8C167.289 74.67 166.946 75.5044 166.336 76.1196C165.725 76.7348 164.897 77.0804 164.033 77.0804C163.17 77.0804 162.341 76.7348 161.731 76.1196C161.12 75.5044 160.777 74.67 160.777 73.8V59.1348H167.289V73.8Z" fill="#F0F0F0"/>
<path d="M165.822 73.7999C165.822 74.1563 165.717 74.5046 165.52 74.8009C165.324 75.0972 165.044 75.3282 164.717 75.4646C164.391 75.6009 164.031 75.6366 163.684 75.5671C163.337 75.4976 163.019 75.326 162.768 75.074C162.518 74.822 162.348 74.5009 162.279 74.1514C162.21 73.8019 162.245 73.4396 162.381 73.1104C162.516 72.7811 162.745 72.4997 163.039 72.3017C163.334 72.1037 163.679 71.998 164.033 71.998C164.507 71.998 164.962 72.1879 165.298 72.5258C165.633 72.8637 165.822 73.322 165.822 73.7999Z" fill="#E0E0E0"/>
<path d="M304.046 86.8086C304.772 87.5403 305.634 88.1208 306.583 88.5168C307.532 88.9128 308.549 89.1166 309.576 89.1166C310.603 89.1166 311.62 88.9128 312.569 88.5168C313.518 88.1208 314.38 87.5403 315.106 86.8086L317.993 83.8917C318.719 83.1609 319.295 82.293 319.688 81.3378C320.081 80.3825 320.283 79.3586 320.283 78.3246C320.283 77.2906 320.081 76.2667 319.688 75.3115C319.295 74.3562 318.719 73.4884 317.993 72.7575C317.268 72.026 316.406 71.4458 315.458 71.0499C314.51 70.654 313.494 70.4502 312.467 70.4502C311.441 70.4502 310.425 70.654 309.476 71.0499C308.528 71.4458 307.667 72.026 306.941 72.7575L304.046 75.6663C303.32 76.3978 302.744 77.2664 302.351 78.2223C301.958 79.1782 301.755 80.2028 301.755 81.2374C301.755 82.2721 301.958 83.2967 302.351 84.2526C302.744 85.2085 303.32 86.077 304.046 86.8086Z" fill="#E0E0E0"/>
<path d="M312.082 83.6494C312.457 84.0194 312.755 84.4606 312.96 84.9475C313.164 85.4343 313.271 85.9572 313.274 86.4858C313.276 87.0144 313.175 87.5383 312.975 88.0273C312.776 88.5162 312.482 88.9603 312.111 89.3342C311.74 89.708 311.299 90.0039 310.814 90.205C310.328 90.4061 309.808 90.5082 309.284 90.5056C308.759 90.5029 308.24 90.3955 307.757 90.1895C307.273 89.9835 306.836 89.683 306.468 89.3054L301.592 84.3039C301.217 83.9339 300.919 83.4927 300.715 83.0059C300.51 82.519 300.404 81.9962 300.401 81.4676C300.398 80.9389 300.5 80.415 300.699 79.9261C300.899 79.4372 301.193 78.993 301.564 78.6192C301.935 78.2454 302.376 77.9494 302.861 77.7484C303.346 77.5473 303.866 77.4451 304.391 77.4478C304.916 77.4505 305.435 77.5579 305.918 77.7639C306.401 77.9699 306.839 78.2704 307.206 78.6479L312.082 83.6494Z" fill="#F5F5F5"/>
<path d="M311.473 73.8C311.473 74.67 311.816 75.5044 312.426 76.1196C313.037 76.7348 313.865 77.0804 314.729 77.0804C315.592 77.0804 316.421 76.7348 317.031 76.1196C317.642 75.5044 317.985 74.67 317.985 73.8V59.1348H311.473V73.8Z" fill="#F0F0F0"/>
<path d="M312.94 73.7999C312.94 74.1563 313.045 74.5046 313.242 74.8009C313.438 75.0972 313.718 75.3282 314.044 75.4646C314.371 75.6009 314.731 75.6366 315.078 75.5671C315.425 75.4976 315.743 75.326 315.994 75.074C316.244 74.822 316.414 74.5009 316.483 74.1514C316.552 73.8019 316.517 73.4396 316.381 73.1104C316.246 72.7811 316.017 72.4997 315.722 72.3017C315.428 72.1037 315.083 71.998 314.729 71.998C314.494 71.998 314.261 72.0447 314.044 72.1352C313.827 72.2258 313.63 72.3585 313.464 72.5258C313.298 72.6931 313.166 72.8917 313.077 73.1104C312.987 73.329 312.94 73.5633 312.94 73.7999Z" fill="#E0E0E0"/>
<path d="M232.925 86.8086C233.651 87.5403 234.513 88.1208 235.462 88.5168C236.411 88.9128 237.428 89.1166 238.455 89.1166C239.482 89.1166 240.499 88.9128 241.447 88.5168C242.396 88.1208 243.258 87.5403 243.984 86.8086L246.872 83.8917C247.598 83.1609 248.174 82.293 248.567 81.3378C248.96 80.3825 249.162 79.3586 249.162 78.3246C249.162 77.2906 248.96 76.2667 248.567 75.3115C248.174 74.3562 247.598 73.4884 246.872 72.7575C246.146 72.026 245.285 71.4458 244.337 71.0499C243.389 70.654 242.372 70.4502 241.346 70.4502C240.32 70.4502 239.303 70.654 238.355 71.0499C237.407 71.4458 236.546 72.026 235.82 72.7575L232.925 75.6663C232.199 76.3978 231.622 77.2664 231.229 78.2223C230.836 79.1782 230.634 80.2028 230.634 81.2374C230.634 82.2721 230.836 83.2967 231.229 84.2526C231.622 85.2085 232.199 86.077 232.925 86.8086Z" fill="#E0E0E0"/>
<path d="M240.961 83.6494C241.336 84.0194 241.634 84.4606 241.838 84.9475C242.043 85.4343 242.15 85.9572 242.152 86.4858C242.155 87.0144 242.053 87.5383 241.854 88.0273C241.654 88.5162 241.36 88.9603 240.989 89.3342C240.618 89.708 240.178 90.0039 239.692 90.205C239.207 90.4061 238.687 90.5082 238.162 90.5056C237.638 90.5029 237.119 90.3955 236.635 90.1895C236.152 89.9835 235.714 89.683 235.347 89.3054L230.471 84.3039C230.096 83.9339 229.798 83.4927 229.593 83.0059C229.389 82.519 229.282 81.9962 229.28 81.4676C229.277 80.9389 229.378 80.415 229.578 79.9261C229.777 79.4372 230.071 78.993 230.442 78.6192C230.813 78.2454 231.254 77.9494 231.739 77.7484C232.225 77.5473 232.745 77.4451 233.269 77.4478C233.794 77.4505 234.313 77.5579 234.796 77.7639C235.28 77.9699 235.718 78.2704 236.085 78.6479L240.961 83.6494Z" fill="#F5F5F5"/>
<path d="M240.351 73.8C240.351 74.67 240.694 75.5044 241.305 76.1196C241.916 76.7348 242.744 77.0804 243.607 77.0804C244.471 77.0804 245.299 76.7348 245.91 76.1196C246.52 75.5044 246.864 74.67 246.864 73.8V59.1348H240.351V73.8Z" fill="#F0F0F0"/>
<path d="M241.819 73.7999C241.819 74.1563 241.924 74.5046 242.121 74.8009C242.317 75.0972 242.596 75.3282 242.923 75.4646C243.25 75.6009 243.61 75.6366 243.956 75.5671C244.303 75.4976 244.622 75.326 244.872 75.074C245.122 74.822 245.293 74.5009 245.362 74.1514C245.431 73.8019 245.395 73.4396 245.26 73.1104C245.125 72.7811 244.895 72.4997 244.601 72.3017C244.307 72.1037 243.961 71.998 243.608 71.998C243.133 71.998 242.678 72.1879 242.343 72.5258C242.008 72.8637 241.819 73.322 241.819 73.7999Z" fill="#E0E0E0"/>
<path d="M201.15 338.024C297.186 338.024 375.039 333.929 375.039 328.878C375.039 323.826 297.186 319.731 201.15 319.731C105.113 319.731 27.26 323.826 27.26 328.878C27.26 333.929 105.113 338.024 201.15 338.024Z" fill="#F5F5F5"/>
<path opacity="0.3" d="M341.211 235.626C351.468 235.626 358.775 243.327 358.237 253.588L357.058 276.018C356.972 277.678 356.26 279.241 355.068 280.389C353.875 281.537 352.292 282.181 350.642 282.192H309.42L317.937 253.588C320.944 243.327 330.945 235.626 341.211 235.626Z" fill="white"/>
<path d="M130.068 319.408H35.1918V328.708H130.068V319.408Z" fill="black"/>
<path opacity="0.3" d="M130.068 319.408H35.1918V328.708H130.068V319.408Z" fill="white"/>
<path d="M275.888 319.408H122.064V328.708H275.888V319.408Z" fill="black"/>
<path opacity="0.7" d="M275.888 319.408H122.064V328.708H275.888V319.408Z" fill="white"/>
<path d="M69.9023 319.206C69.6908 319.187 69.4952 319.085 69.3584 318.921C69.2216 318.758 69.1547 318.546 69.1725 318.333L85.3087 123.548H86.9127V125.164H86.7844L70.7444 318.47C70.726 318.679 70.6279 318.872 70.4708 319.009C70.3137 319.146 70.1099 319.217 69.9023 319.206Z" fill="#263238"/>
<path d="M141.609 319.206C141.715 319.197 141.817 319.168 141.912 319.12C142.006 319.072 142.09 319.005 142.158 318.924C142.227 318.843 142.279 318.749 142.311 318.647C142.344 318.546 142.356 318.439 142.347 318.333L126.211 123.548H124.607V125.164H124.743L135.057 249.726H83.1433L72.7173 123.548H71.1133V125.164H71.2416L87.2816 318.47C87.3 318.683 87.4015 318.88 87.5638 319.018C87.7262 319.156 87.9362 319.223 88.1478 319.206C88.3593 319.187 88.5549 319.085 88.6917 318.921C88.8285 318.758 88.8954 318.546 88.8776 318.333L83.3277 251.342H135.241L140.799 318.47C140.817 318.673 140.911 318.862 141.061 318.998C141.211 319.134 141.407 319.208 141.609 319.206Z" fill="#263238"/>
<path d="M145.322 223.999H68.6591L58.979 107.146H135.642L145.322 223.999Z" fill="black"/>
<path opacity="0.8" d="M145.322 223.999H68.6591L58.979 107.146H135.642L145.322 223.999Z" fill="white"/>
<path d="M135.578 109.893H58.8587C58.1845 109.893 57.5378 109.623 57.061 109.143C56.5843 108.663 56.3164 108.011 56.3164 107.332C56.3164 106.653 56.5843 106.001 57.061 105.521C57.5378 105.04 58.1845 104.771 58.8587 104.771H135.578C136.252 104.771 136.899 105.04 137.376 105.521C137.853 106.001 138.12 106.653 138.12 107.332C138.12 108.011 137.853 108.663 137.376 109.143C136.899 109.623 136.252 109.893 135.578 109.893Z" fill="black"/>
<path opacity="0.5" d="M135.578 109.893H58.8587C58.1845 109.893 57.5378 109.623 57.061 109.143C56.5843 108.663 56.3164 108.011 56.3164 107.332C56.3164 106.653 56.5843 106.001 57.061 105.521C57.5378 105.04 58.1845 104.771 58.8587 104.771H135.578C136.252 104.771 136.899 105.04 137.376 105.521C137.853 106.001 138.12 106.653 138.12 107.332C138.12 108.011 137.853 108.663 137.376 109.143C136.899 109.623 136.252 109.893 135.578 109.893Z" fill="white"/>
<path d="M104.027 179.987L102.889 166.308C102.88 166.201 102.892 166.095 102.924 165.993C102.957 165.892 103.009 165.798 103.077 165.717C103.146 165.636 103.23 165.569 103.324 165.521C103.418 165.472 103.521 165.443 103.626 165.435C103.838 165.417 104.048 165.484 104.21 165.622C104.373 165.76 104.474 165.957 104.493 166.17L105.623 179.85C105.641 180.063 105.574 180.274 105.437 180.438C105.301 180.602 105.105 180.704 104.894 180.722C104.682 180.74 104.472 180.673 104.31 180.535C104.147 180.397 104.046 180.2 104.027 179.987Z" fill="black"/>
<path d="M91.1713 166.639C81.2024 166.639 72.3804 158.462 71.5062 148.419C71.2555 146.1 71.4975 143.755 72.216 141.538C72.9345 139.321 74.1132 137.283 75.6736 135.56C77.2341 133.838 79.1406 132.469 81.2664 131.546C83.3923 130.623 85.6888 130.166 88.0034 130.207C92.9229 130.301 97.6383 132.204 101.261 135.559C104.883 138.914 107.162 143.488 107.668 148.419C107.918 150.737 107.675 153.083 106.956 155.3C106.237 157.517 105.058 159.554 103.498 161.277C101.938 163 100.032 164.369 97.9071 165.294C95.7819 166.218 93.4858 166.677 91.1713 166.639ZM88.0756 131.015C85.864 130.978 83.6699 131.415 81.6388 132.297C79.6078 133.18 77.7863 134.488 76.2952 136.133C74.8041 137.779 73.6774 139.726 72.99 141.844C72.3027 143.962 72.0703 146.203 72.3082 148.419C72.7876 153.133 74.9638 157.507 78.4259 160.715C81.8879 163.924 86.3962 165.743 91.0991 165.831C93.3114 165.868 95.5063 165.431 97.5379 164.548C99.5696 163.665 101.392 162.356 102.883 160.71C104.374 159.063 105.5 157.115 106.187 154.996C106.874 152.877 107.106 150.635 106.866 148.419C106.385 143.706 104.208 139.334 100.746 136.127C97.2845 132.921 92.7773 131.102 88.0756 131.015Z" fill="black"/>
<path d="M116.29 166.639C106.321 166.639 97.4991 158.462 96.6249 148.419C96.3755 146.1 96.6184 143.755 97.3374 141.539C98.0564 139.322 99.2352 137.285 100.795 135.563C102.356 133.841 104.261 132.472 106.387 131.549C108.512 130.625 110.808 130.168 113.122 130.206C118.042 130.3 122.757 132.204 126.379 135.559C130.002 138.914 132.281 143.488 132.787 148.419C133.038 150.738 132.796 153.084 132.077 155.301C131.359 157.518 130.18 159.557 128.62 161.28C127.06 163.003 125.153 164.372 123.027 165.296C120.902 166.22 118.605 166.678 116.29 166.639ZM113.194 131.014C110.983 130.977 108.789 131.415 106.758 132.297C104.727 133.18 102.905 134.487 101.414 136.133C99.9227 137.779 98.7961 139.726 98.1087 141.844C97.4214 143.962 97.189 146.203 97.4269 148.419C97.9063 153.133 100.083 157.507 103.545 160.715C107.007 163.923 111.515 165.743 116.218 165.831C118.43 165.868 120.625 165.431 122.657 164.548C124.688 163.665 126.51 162.356 128.001 160.709C129.493 159.063 130.619 157.115 131.306 154.996C131.993 152.877 132.224 150.635 131.985 148.419C131.504 143.707 129.328 139.336 125.868 136.13C122.408 132.924 117.903 131.104 113.202 131.014H113.194Z" fill="black"/>
<path d="M97.042 148.758L104.629 140.387C104.485 140.136 104.324 139.886 104.172 139.644L96.9537 147.602C96.9537 147.877 96.9537 148.152 97.0019 148.41C97.042 148.532 97.042 148.645 97.042 148.758Z" fill="black"/>
<path d="M105.615 142.205C105.487 141.93 105.359 141.656 105.214 141.397L97.2745 150.164C97.3307 150.511 97.4029 150.851 97.4831 151.182L105.615 142.205Z" fill="black"/>
<path d="M106.393 144.209C106.297 143.902 106.193 143.603 106.081 143.304L97.844 152.41C97.9402 152.717 98.0445 153.016 98.1488 153.315L106.393 144.209Z" fill="black"/>
<path d="M103.57 138.723L103.049 138.044L97.1222 144.589C97.0581 145.049 97.018 145.51 96.9939 145.979L103.57 138.723Z" fill="black"/>
<path d="M102.343 137.203C102.159 136.993 101.966 136.791 101.766 136.589L98.1728 140.565C97.9144 141.204 97.6974 141.86 97.5232 142.528L102.343 137.203Z" fill="black"/>
<path d="M106.337 155.747C106.556 155.139 106.741 154.518 106.891 153.889L101.854 159.448C102.038 159.658 102.231 159.868 102.423 160.07L106.337 155.747Z" fill="black"/>
<path d="M104.332 159.577L103.161 160.87L103.241 160.951C103.629 160.513 103.993 160.054 104.332 159.577Z" fill="black"/>
<path d="M106.979 146.431C106.915 146.092 106.834 145.76 106.754 145.429L98.5979 154.438C98.7209 154.713 98.8492 154.982 98.9829 155.246L106.979 146.431Z" fill="black"/>
<path d="M107.227 151.893C107.275 151.449 107.308 150.996 107.316 150.544L100.611 157.945C100.779 158.18 100.948 158.406 101.124 158.632L107.227 151.893Z" fill="black"/>
<path d="M107.3 148.944C107.3 148.766 107.3 148.588 107.3 148.41L107.227 147.796L99.5603 156.264C99.7047 156.517 99.857 156.768 100.017 157.016L107.3 148.944Z" fill="black"/>
<path d="M130.918 188.132H80.4566C79.7415 188.118 79.0562 187.84 78.5302 187.352C78.0042 186.864 77.6738 186.198 77.6014 185.482C77.5713 185.145 77.6112 184.807 77.7185 184.487C77.8258 184.167 77.9983 183.873 78.2248 183.625C78.4513 183.376 78.7268 183.178 79.0338 183.042C79.3408 182.907 79.6724 182.838 80.0074 182.839H130.469C131.183 182.853 131.867 183.129 132.393 183.616C132.919 184.103 133.25 184.766 133.324 185.482C133.356 185.818 133.317 186.158 133.21 186.479C133.103 186.8 132.931 187.094 132.704 187.344C132.478 187.593 132.202 187.792 131.894 187.928C131.587 188.064 131.254 188.133 130.918 188.132Z" fill="black"/>
<path d="M125.577 198.854H90.3533C89.6382 198.84 88.9529 198.563 88.4269 198.074C87.9009 197.586 87.5705 196.921 87.4982 196.204C87.468 195.868 87.5079 195.529 87.6152 195.209C87.7226 194.889 87.895 194.596 88.1215 194.347C88.348 194.098 88.6235 193.9 88.9305 193.765C89.2375 193.629 89.5691 193.56 89.9042 193.562H125.112C125.826 193.574 126.512 193.849 127.038 194.336C127.564 194.823 127.895 195.488 127.967 196.204C127.998 196.539 127.96 196.877 127.854 197.197C127.748 197.517 127.577 197.811 127.352 198.06C127.128 198.309 126.853 198.509 126.548 198.645C126.242 198.782 125.912 198.853 125.577 198.854Z" fill="black"/>
<path d="M130.918 188.132H80.4566C79.7415 188.118 79.0562 187.84 78.5302 187.352C78.0042 186.864 77.6738 186.198 77.6014 185.482C77.5713 185.145 77.6112 184.807 77.7185 184.487C77.8258 184.167 77.9983 183.873 78.2248 183.625C78.4513 183.376 78.7268 183.178 79.0338 183.042C79.3408 182.907 79.6724 182.838 80.0074 182.839H130.469C131.183 182.853 131.867 183.129 132.393 183.616C132.919 184.103 133.25 184.766 133.324 185.482C133.356 185.818 133.317 186.158 133.21 186.479C133.103 186.8 132.931 187.094 132.704 187.344C132.478 187.593 132.202 187.792 131.894 187.928C131.587 188.064 131.254 188.133 130.918 188.132Z" fill="black"/>
<path d="M125.577 198.854H90.3533C89.6382 198.84 88.9529 198.563 88.4269 198.074C87.9009 197.586 87.5705 196.921 87.4982 196.204C87.468 195.868 87.5079 195.529 87.6152 195.209C87.7226 194.889 87.895 194.596 88.1215 194.347C88.348 194.098 88.6235 193.9 88.9305 193.765C89.2375 193.629 89.5691 193.56 89.9042 193.562H125.112C125.826 193.574 126.512 193.849 127.038 194.336C127.564 194.823 127.895 195.488 127.967 196.204C127.998 196.539 127.96 196.877 127.854 197.197C127.748 197.517 127.577 197.811 127.352 198.06C127.128 198.309 126.853 198.509 126.548 198.645C126.242 198.782 125.912 198.853 125.577 198.854Z" fill="black"/>
<path d="M188.165 311.619L193.17 310.027L191.149 298.448L186.136 300.04L188.165 311.619Z" fill="#CE7A63"/>
<path d="M193.282 309.373L187.668 311.158C187.573 311.188 187.492 311.251 187.44 311.335C187.387 311.419 187.365 311.52 187.379 311.619L188.133 316.063C188.156 316.179 188.203 316.29 188.273 316.386C188.342 316.482 188.432 316.561 188.535 316.618C188.639 316.675 188.753 316.709 188.871 316.716C188.988 316.723 189.106 316.704 189.216 316.661C191.165 316.006 192.079 315.594 194.557 314.81C196.081 314.326 202.577 312.386 204.694 311.748C206.812 311.11 206.299 309.066 205.32 309.163C201.134 309.607 195.905 310.035 194.236 309.397C193.93 309.279 193.593 309.27 193.282 309.373Z" fill="#263238"/>
<path opacity="0.2" d="M186.136 300.04L191.149 298.448L192.191 304.419L187.179 306.011L186.136 300.04Z" fill="black"/>
<path d="M184.46 182.88C184.46 182.88 187.732 224.896 188.51 239.553C189.36 255.608 194.124 302.577 194.124 302.577L184.861 305.098C184.861 305.098 175.887 259.608 173.585 244.005C171.083 227.037 166.166 182.912 166.166 182.912L184.46 182.88Z" fill="#263238"/>
<path d="M184.572 305.203L194.493 302.512L194.653 298.537L183.417 302.343L184.572 305.203Z" fill="#263238"/>
<path d="M195.279 309.663C194.829 309.794 194.367 309.878 193.9 309.914C193.878 309.914 193.856 309.908 193.838 309.897C193.819 309.885 193.805 309.869 193.795 309.849C193.782 309.83 193.775 309.807 193.775 309.784C193.775 309.761 193.782 309.739 193.795 309.72C193.932 309.558 195.127 308.16 195.792 308.201C195.867 308.203 195.939 308.226 196.002 308.267C196.064 308.308 196.114 308.367 196.145 308.435C196.204 308.537 196.236 308.652 196.236 308.77C196.236 308.888 196.204 309.004 196.145 309.106C195.93 309.387 195.623 309.585 195.279 309.663ZM194.188 309.663C195.127 309.55 195.792 309.316 195.961 309.009C195.998 308.942 196.017 308.867 196.017 308.79C196.017 308.714 195.998 308.639 195.961 308.572C195.946 308.539 195.922 308.512 195.892 308.492C195.863 308.472 195.828 308.46 195.792 308.459C195.415 308.419 194.677 309.097 194.188 309.647V309.663Z" fill="black"/>
<path d="M193.932 309.906H193.876C193.856 309.901 193.839 309.891 193.823 309.879C193.808 309.866 193.796 309.851 193.787 309.833C193.787 309.768 193.322 308.395 193.715 307.756C193.767 307.675 193.835 307.604 193.915 307.55C193.995 307.496 194.085 307.459 194.18 307.441C194.274 307.409 194.377 307.413 194.468 307.452C194.56 307.491 194.634 307.561 194.678 307.651C194.926 308.152 194.413 309.413 193.988 309.865L193.932 309.906ZM194.148 307.7C194.052 307.729 193.97 307.792 193.916 307.878C193.753 308.422 193.767 309.006 193.956 309.542C194.335 309.038 194.515 308.41 194.461 307.781C194.461 307.716 194.381 307.651 194.204 307.684L194.148 307.7Z" fill="black"/>
<path opacity="0.6" d="M172.935 195.873C171.027 188.374 169.078 190.168 167.69 193.449C167.835 195.752 167.987 198.176 168.155 200.721C169.294 210.57 170.738 222.763 171.997 232.621C174.355 222.747 175.638 206.312 172.935 195.873Z" fill="black"/>
<path d="M150.399 313.873H155.524L157.224 301.923H152.107L150.399 313.873Z" fill="#CE7A63"/>
<path d="M155.845 313.275H150.086C149.987 313.276 149.892 313.312 149.817 313.377C149.742 313.442 149.692 313.532 149.677 313.63L149.004 318.22C148.989 318.334 148.998 318.451 149.032 318.561C149.065 318.672 149.122 318.774 149.198 318.86C149.274 318.947 149.368 319.016 149.472 319.063C149.577 319.11 149.691 319.134 149.806 319.133C151.811 319.133 152.773 318.979 155.307 318.979C156.863 318.979 163.472 319.149 165.621 319.149C167.77 319.149 167.899 317.008 167 316.806C162.99 315.941 158.034 314.737 156.687 313.574C156.448 313.38 156.151 313.275 155.845 313.275Z" fill="#263238"/>
<path opacity="0.2" d="M152.099 301.923H157.224L156.35 308.088H151.225L152.099 301.923Z" fill="black"/>
<path d="M175.253 182.573C175.253 182.573 172.318 222.019 170.2 236.798C167.891 252.958 158.676 306.601 158.676 306.601H149.292C149.292 306.601 154.104 254.291 154.906 238.268C155.804 220.88 157.537 182.573 157.537 182.573H175.253Z" fill="#263238"/>
<path d="M148.915 306.601H159.053L159.927 303.014L148.683 303.571L148.915 306.601Z" fill="#263238"/>
<path d="M157.585 314.18C157.13 314.17 156.678 314.107 156.238 313.994C156.215 313.989 156.194 313.978 156.178 313.96C156.162 313.943 156.152 313.921 156.149 313.897C156.15 313.874 156.156 313.85 156.167 313.829C156.178 313.808 156.194 313.79 156.214 313.776C156.382 313.663 157.922 312.661 158.523 312.912C158.593 312.938 158.653 312.984 158.697 313.044C158.742 313.105 158.767 313.176 158.772 313.251C158.796 313.368 158.79 313.49 158.755 313.604C158.72 313.719 158.657 313.822 158.571 313.905C158.285 314.111 157.936 314.208 157.585 314.18ZM156.574 313.817C157.177 314.029 157.837 314 158.419 313.736C158.473 313.68 158.512 313.612 158.533 313.537C158.554 313.462 158.556 313.383 158.539 313.308C158.538 313.27 158.527 313.234 158.505 313.204C158.484 313.174 158.454 313.151 158.419 313.138C158.098 312.968 157.192 313.437 156.574 313.817Z" fill="black"/>
<path d="M156.262 313.994H156.206C156.189 313.984 156.175 313.97 156.166 313.953C156.156 313.936 156.15 313.917 156.149 313.897C156.149 313.833 156.149 312.346 156.727 311.845C156.796 311.779 156.878 311.73 156.968 311.7C157.059 311.671 157.154 311.662 157.248 311.675C157.347 311.678 157.441 311.716 157.515 311.783C157.588 311.849 157.636 311.94 157.649 312.039C157.713 312.604 156.847 313.655 156.326 313.986C156.306 313.996 156.283 313.998 156.262 313.994ZM157.144 311.901C157.046 311.903 156.952 311.941 156.879 312.006C156.562 312.484 156.394 313.047 156.398 313.622C156.879 313.243 157.457 312.427 157.409 312.055C157.409 311.99 157.368 311.901 157.2 311.885L157.144 311.901Z" fill="black"/>
<path d="M186.577 140.581C187.828 143.498 189.248 146.536 190.748 149.348C191.493 150.77 192.295 152.135 193.154 153.388C193.878 154.566 194.743 155.652 195.728 156.62C195.896 156.778 196.076 156.924 196.265 157.056C196.41 157.161 196.506 157.202 196.506 157.21C196.506 157.218 196.41 157.25 196.506 157.258C196.633 157.264 196.759 157.239 196.875 157.185C197.387 156.974 197.861 156.679 198.278 156.313C198.845 155.865 199.381 155.379 199.882 154.858C202.02 152.47 203.97 149.917 205.713 147.223L208.921 148.742C207.824 152.184 206.241 155.45 204.221 158.438C203.664 159.243 203.047 160.004 202.377 160.716C201.59 161.551 200.688 162.267 199.698 162.841C199.074 163.211 198.398 163.483 197.693 163.649C196.857 163.824 195.995 163.824 195.159 163.649C193.825 163.353 192.578 162.748 191.518 161.88C189.965 160.603 188.591 159.119 187.435 157.468C186.371 155.994 185.389 154.462 184.492 152.879C183.618 151.319 182.792 149.76 182.046 148.168C181.3 146.576 180.578 145.017 179.913 143.32L186.577 140.581Z" fill="#CE7A63"/>
<path d="M195.054 152.984L186.962 159.068C186.962 159.068 186.649 158.729 186.16 158.131C185.783 157.686 185.302 157.105 184.741 156.426C181.597 152.564 177.001 145.518 176.961 142.068C176.905 136.921 182.206 136.161 188.189 141.421C190.756 143.692 192.103 147.465 193.402 149.8C193.835 150.568 194.204 151.247 194.485 151.772C194.83 152.507 195.054 152.984 195.054 152.984Z" fill="black"/>
<path opacity="0.6" d="M195.054 152.984L186.962 159.068C186.962 159.068 186.649 158.729 186.16 158.131C185.783 157.686 185.302 157.105 184.741 156.426C181.597 152.564 177.001 145.518 176.961 142.068C176.905 136.921 182.206 136.161 188.189 141.421C190.756 143.692 192.103 147.465 193.402 149.8C193.835 150.568 194.204 151.247 194.485 151.772C194.83 152.507 195.054 152.984 195.054 152.984Z" fill="white"/>
<path opacity="0.3" d="M176.881 142.634C178.71 141.414 180.049 144.573 183.666 147.231C185.27 148.419 188.807 156.168 188.518 157.873L186.954 159.044C186.954 159.044 176.841 147.765 176.881 142.634Z" fill="black"/>
<path d="M205.256 147.433L207.02 141.777L211.592 145.162C211.592 145.162 209.097 150.22 207.405 149.76L205.256 147.433Z" fill="#CE7A63"/>
<path d="M195.054 152.168L186.208 158.834L187.307 159.997L195.728 153.735L195.054 152.168Z" fill="black"/>
<path opacity="0.8" d="M195.054 152.168L186.208 158.834L187.307 159.997L195.728 153.735L195.054 152.168Z" fill="white"/>
<path d="M184.949 182.88H157.545C157.352 180.456 157.914 172.376 157.497 162.179C157.233 154.608 156.32 147.073 154.77 139.66C154.65 139.102 154.521 138.553 154.393 137.995C154.393 137.995 155.78 137.713 157.769 137.422C159.421 137.179 161.499 136.921 163.528 136.824C167.406 136.606 171.294 136.606 175.173 136.824C176.961 136.994 178.71 137.293 180.105 137.567C181.894 137.931 182.944 138.238 182.944 138.238C182.944 138.238 189.697 153.792 184.949 182.88Z" fill="black"/>
<path opacity="0.6" d="M184.949 182.88H157.545C157.352 180.456 157.914 172.376 157.497 162.179C157.233 154.608 156.32 147.073 154.77 139.66C154.65 139.102 154.521 138.553 154.393 137.995C154.393 137.995 155.78 137.713 157.769 137.422C159.421 137.179 161.499 136.921 163.528 136.824C167.406 136.606 171.294 136.606 175.173 136.824C176.961 136.994 178.71 137.293 180.105 137.567C181.894 137.931 182.944 138.238 182.944 138.238C182.944 138.238 189.697 153.792 184.949 182.88Z" fill="white"/>
<path d="M211.84 139.579L214.415 142.763L211.592 145.13L207.02 141.753L211.84 139.579Z" fill="#CE7A63"/>
<path d="M158.467 143.345C158.195 145.098 157.842 146.706 157.465 148.37C157.088 150.035 156.663 151.659 156.133 153.307C155.621 154.977 155.024 156.62 154.345 158.228C153.617 159.988 152.691 161.658 151.586 163.205C150.874 164.183 150 165.03 149.004 165.71C148.335 166.153 147.594 166.473 146.814 166.655C145.941 166.857 145.033 166.857 144.16 166.655C142.809 166.277 141.596 165.511 140.671 164.45C139.979 163.68 139.384 162.828 138.898 161.913C138.046 160.325 137.368 158.647 136.877 156.911C136.629 156.103 136.428 155.238 136.252 154.398C136.075 153.558 135.907 152.782 135.795 151.845L139.243 150.891C140.463 153.669 141.957 156.317 143.702 158.794C144.064 159.27 144.476 159.706 144.929 160.095C145.306 160.41 145.635 160.474 145.539 160.385C145.462 160.345 145.377 160.323 145.29 160.321C145.226 160.321 145.226 160.321 145.29 160.256C145.597 159.959 145.866 159.625 146.092 159.262C146.804 158.106 147.39 156.876 147.841 155.594C148.362 154.22 148.811 152.758 149.228 151.271C150.03 148.314 150.768 145.171 151.345 142.181L158.467 143.345Z" fill="#CE7A63"/>
<path d="M139.652 151.182L137.896 145.526L133.316 148.912C133.316 148.912 135.819 153.97 137.511 153.509L139.652 151.182Z" fill="#CE7A63"/>
<path d="M133.068 143.329L130.493 146.512L133.316 148.888L137.896 145.502L133.068 143.329Z" fill="#CE7A63"/>
<path opacity="0.3" d="M157.497 162.139C157.233 154.567 156.32 147.033 154.77 139.62C156.606 139.466 159.734 139.62 160.256 142.626C160.809 145.825 160.111 153.364 157.497 162.139Z" fill="black"/>
<path d="M160.929 146.819C159.812 150.332 158.489 153.774 156.967 157.129C156.639 157.889 156.334 158.559 156.085 159.101L155.371 160.636L145.114 155.408C145.114 155.408 145.226 154.98 145.435 154.253C145.587 153.703 145.788 152.992 146.044 152.16C147.552 147.312 150.688 138.586 154.064 137.98C159.021 137.026 162.758 140.678 160.929 146.819Z" fill="black"/>
<path opacity="0.6" d="M160.929 146.819C159.812 150.332 158.489 153.774 156.967 157.129C156.639 157.889 156.334 158.559 156.085 159.101L155.371 160.636L145.114 155.408C145.114 155.408 145.226 154.98 145.435 154.253C145.587 153.703 145.788 152.992 146.044 152.16C147.552 147.312 150.688 138.586 154.064 137.98C159.021 137.026 162.758 140.678 160.929 146.819Z" fill="white"/>
<path d="M170.24 140.662C163.472 140.476 162.453 137.147 162.413 137.002V136.856L163.568 136.783C167.447 136.565 171.334 136.565 175.213 136.783L175.871 136.856C176.153 137.094 176.371 137.401 176.505 137.747C176.638 138.093 176.682 138.468 176.632 138.836C176.336 139.999 174.748 140.387 173.36 140.549L170.24 140.662Z" fill="white"/>
<path d="M145.354 153.509L156.566 159.286L155.299 160.854L144.873 155.4L145.354 153.509Z" fill="black"/>
<path opacity="0.8" d="M145.354 153.509L156.566 159.286L155.299 160.854L144.873 155.4L145.354 153.509Z" fill="white"/>
<path d="M169.671 141.171L174.21 140.662L173.208 143.733C173.208 143.733 176.328 160.103 176.937 165.613C177.298 168.918 177.619 178.881 177.619 178.881L175.253 181.507L171.74 179.826C171.74 179.826 171.82 168.611 171.804 164.878C171.804 159.585 171.54 143.733 171.54 143.733L169.503 141.753L169.671 141.171Z" fill="#263238"/>
<path d="M168.564 144.185L171.869 141.155L175.943 143.983C175.943 143.983 180.161 139.943 177.025 137.01C176.424 136.921 175.806 136.848 175.173 136.783C171.294 136.565 167.406 136.565 163.528 136.783C162.726 136.824 161.924 136.888 161.122 136.969C161.386 138.108 162.581 141.85 168.564 144.185Z" fill="black"/>
<path opacity="0.8" d="M168.564 144.185L171.869 141.155L175.943 143.983C175.943 143.983 180.161 139.943 177.025 137.01C176.424 136.921 175.806 136.848 175.173 136.783C171.294 136.565 167.406 136.565 163.528 136.783C162.726 136.824 161.924 136.888 161.122 136.969C161.386 138.108 162.581 141.85 168.564 144.185Z" fill="white"/>
<path d="M170.457 139.975C163.937 139.862 163.079 136.816 163.079 136.816C165.613 134.295 164.643 127.411 163.776 123.629L166.896 126.231L171.139 129.786C171.01 130.353 170.918 130.928 170.866 131.507C170.641 133.826 171.235 135.935 174.619 136.743C174.619 136.743 178.629 139.426 172.679 139.911L170.457 139.975Z" fill="#CE7A63"/>
<path opacity="0.2" d="M171.139 129.786C171.01 130.353 170.918 130.928 170.866 131.507C169.262 131.192 167.169 129.487 166.952 127.863C166.874 127.328 166.855 126.786 166.896 126.247L171.139 129.786Z" fill="black"/>
<path d="M162.493 118.192C163.576 123.209 163.953 126.191 166.896 128.486C167.848 129.24 168.986 129.718 170.188 129.867C171.39 130.016 172.609 129.831 173.714 129.331C174.819 128.832 175.767 128.037 176.455 127.034C177.143 126.03 177.546 124.855 177.619 123.638C178.012 118.967 176.175 111.518 170.93 110.12C169.799 109.779 168.599 109.744 167.45 110.021C166.302 110.297 165.246 110.873 164.39 111.693C163.534 112.512 162.907 113.544 162.574 114.685C162.241 115.827 162.213 117.036 162.493 118.192Z" fill="#CE7A63"/>
<path d="M170.353 118.684C170.417 119.096 170.682 119.404 170.954 119.371C171.227 119.339 171.387 118.983 171.323 118.563C171.259 118.143 170.994 117.844 170.722 117.876C170.449 117.909 170.289 118.24 170.353 118.684Z" fill="#263238"/>
<path d="M174.988 118.135C175.052 118.547 175.325 118.854 175.59 118.822C175.854 118.79 176.023 118.426 175.967 118.014C175.911 117.602 175.63 117.295 175.365 117.327C175.101 117.359 174.932 117.723 174.988 118.135Z" fill="#263238"/>
<path d="M173.545 118.515C174.231 119.717 175.072 120.823 176.047 121.803C175.794 122.038 175.492 122.214 175.163 122.317C174.835 122.421 174.487 122.449 174.146 122.401L173.545 118.515Z" fill="#BA4D3C"/>
<path d="M168.685 117.359C168.648 117.371 168.609 117.371 168.572 117.359C168.544 117.344 168.52 117.323 168.499 117.298C168.479 117.273 168.464 117.245 168.455 117.214C168.447 117.183 168.444 117.151 168.447 117.119C168.451 117.087 168.461 117.056 168.476 117.028C168.653 116.687 168.911 116.395 169.227 116.179C169.544 115.963 169.908 115.83 170.289 115.792C170.321 115.788 170.353 115.792 170.383 115.802C170.414 115.811 170.442 115.827 170.466 115.849C170.49 115.87 170.51 115.896 170.523 115.925C170.537 115.954 170.544 115.986 170.545 116.018C170.547 116.051 170.543 116.083 170.533 116.114C170.522 116.145 170.505 116.173 170.484 116.197C170.462 116.221 170.436 116.241 170.406 116.254C170.377 116.268 170.345 116.276 170.313 116.277C170.016 116.314 169.733 116.423 169.487 116.595C169.241 116.766 169.04 116.995 168.901 117.262C168.876 117.295 168.842 117.321 168.805 117.338C168.767 117.354 168.726 117.362 168.685 117.359Z" fill="#263238"/>
<path d="M176.737 116.293C176.698 116.291 176.659 116.281 176.625 116.263C176.59 116.245 176.56 116.219 176.536 116.188C176.37 115.923 176.145 115.701 175.879 115.539C175.613 115.376 175.314 115.277 175.004 115.25C174.941 115.25 174.879 115.225 174.834 115.179C174.789 115.134 174.764 115.072 174.764 115.008C174.764 114.944 174.789 114.882 174.834 114.837C174.879 114.791 174.941 114.766 175.004 114.766C175.392 114.791 175.768 114.909 176.103 115.108C176.437 115.307 176.72 115.583 176.929 115.913C176.947 115.939 176.96 115.969 176.967 116.001C176.973 116.032 176.974 116.065 176.968 116.096C176.962 116.128 176.95 116.158 176.932 116.185C176.914 116.211 176.892 116.234 176.865 116.252C176.826 116.276 176.782 116.29 176.737 116.293Z" fill="#263238"/>
<path d="M164.306 122.28C164.306 122.28 166.511 123.742 166.311 121.973C166.11 120.203 165.308 114.248 165.308 114.248L167.762 112.228C167.762 112.228 178.188 112.301 177.547 106.96C176.905 101.619 172.021 105.845 172.021 105.845C172.021 105.845 173.015 102.831 169.511 102.888C168.563 102.873 167.642 103.209 166.922 103.831C166.203 104.453 165.734 105.319 165.605 106.265C165.605 106.265 162.301 104.302 160.673 106.063C160.181 106.673 159.818 107.377 159.606 108.133C159.393 108.889 159.336 109.68 159.438 110.459C159.438 110.459 151.418 111.598 156.631 119.347C161.844 127.096 165.709 128.025 164.306 122.28Z" fill="#263238"/>
<path d="M161.346 123.427C162.152 124.407 163.268 125.078 164.506 125.326C166.11 125.593 166.431 124.122 165.629 122.708C164.915 121.432 163.223 119.759 161.828 120.131C160.432 120.502 160.328 122.191 161.346 123.427Z" fill="#CE7A63"/>
<path d="M168.661 128.873C167.947 127.047 166.96 123.832 168.011 121.06C169.062 118.289 172.927 123.08 174.275 123.08C175.622 123.08 176.769 120.955 177.579 122.418C178.389 123.88 174.932 132.291 174.202 130.085C174.202 130.085 173.224 131.596 172.326 130.215C172.326 130.215 171.716 131.378 170.77 130.215C170.77 130.215 169.423 130.813 168.661 128.873Z" fill="#263238"/>
<path opacity="0.3" d="M168.661 128.873C167.947 127.047 166.96 123.832 168.011 121.06C169.062 118.289 172.927 123.08 174.275 123.08C175.622 123.08 176.769 120.955 177.579 122.418C178.389 123.88 174.932 132.291 174.202 130.085C174.202 130.085 173.224 131.596 172.326 130.215C172.326 130.215 171.716 131.378 170.77 130.215C170.77 130.215 169.423 130.813 168.661 128.873Z" fill="white"/>
<path d="M175.534 123.767C173.619 123.411 171.674 123.24 169.727 123.258C170.192 124.567 171.099 125.682 173.296 125.682C173.57 125.714 173.847 125.689 174.111 125.609C174.374 125.529 174.619 125.395 174.829 125.215C175.039 125.035 175.21 124.814 175.331 124.565C175.452 124.316 175.521 124.044 175.534 123.767Z" fill="#263238"/>
<path d="M172.31 124.639C173.164 124.609 174.007 124.852 174.716 125.334C174.3 125.592 173.816 125.716 173.328 125.69C172.472 125.731 171.627 125.487 170.922 124.995C171.337 124.733 171.822 124.609 172.31 124.639Z" fill="#A02724"/>
<path d="M175.333 123.726C175.288 123.885 175.199 124.027 175.077 124.137C174.955 124.247 174.805 124.32 174.644 124.348C173.361 124.307 172.083 124.156 170.826 123.896C170.626 123.875 170.434 123.803 170.268 123.687C170.103 123.571 169.969 123.415 169.88 123.233C171.708 123.251 173.531 123.416 175.333 123.726Z" fill="white"/>
<path d="M327.216 184.973C326.911 184.9 326.534 185.175 326.414 185.636C326.294 186.096 326.366 186.573 326.671 186.646C326.975 186.718 327.352 186.444 327.473 185.983C327.593 185.522 327.481 185.046 327.216 184.973Z" fill="#2E353A"/>
<path d="M325.54 189.966C325.197 189.931 324.866 189.82 324.571 189.641C324.276 189.462 324.023 189.22 323.831 188.932C325.011 188.212 326.09 187.337 327.039 186.33L325.54 189.966Z" fill="#A02724"/>
<path d="M329.221 184.262C329.16 183.918 329.021 183.592 328.813 183.311C328.606 183.031 328.336 182.803 328.026 182.646C327.992 182.632 327.961 182.612 327.934 182.586C327.908 182.56 327.887 182.529 327.872 182.495C327.843 182.426 327.842 182.348 327.87 182.278C327.897 182.209 327.951 182.153 328.02 182.123C328.088 182.094 328.165 182.093 328.234 182.121C328.64 182.311 328.993 182.6 329.262 182.96C329.531 183.321 329.707 183.743 329.774 184.189C329.786 184.262 329.769 184.337 329.727 184.397C329.685 184.457 329.622 184.499 329.55 184.513H329.397C329.348 184.491 329.306 184.456 329.275 184.412C329.244 184.368 329.225 184.316 329.221 184.262Z" fill="#2E353A"/>
<path d="M340.553 206.7C340.866 208.098 341.075 208.76 339.831 209.366C337.266 210.723 334.337 211.213 331.475 210.764C328.515 210.255 327.986 209.189 328.106 208.34C328.209 208.012 328.385 207.712 328.621 207.464C328.858 207.216 329.148 207.026 329.47 206.91C330.127 206.623 330.685 206.148 331.074 205.543C331.464 204.937 331.667 204.23 331.659 203.508C331.78 202.741 331.764 201.959 331.611 201.198L336.904 197.667L340.914 193.182C339.915 197.621 339.792 202.214 340.553 206.7Z" fill="#B55B52"/>
<path d="M323.904 209.819C323.904 209.819 325.861 204.381 329.036 203.12C332.212 201.86 341.732 202.571 341.732 202.571C342.181 204.534 342.776 206.46 343.513 208.332L323.904 209.819Z" fill="black"/>
<path d="M343.336 187.163C343.309 186.095 343.073 185.044 342.64 184.069C342.207 183.094 341.587 182.215 340.815 181.483C340.043 180.752 339.135 180.181 338.143 179.805C337.151 179.429 336.095 179.255 335.035 179.293C328.908 179.519 325.323 187.445 324.778 192.851C324.168 198.846 330.031 203.88 335.653 201.149C339.39 199.331 340.465 196.051 342.678 190.645C343.151 189.548 343.376 188.358 343.336 187.163Z" fill="#B55B52"/>
<path opacity="0.2" d="M342.358 204.938C342.695 206.086 343.079 207.217 343.513 208.332L325.395 209.706C325.844 208.627 326.406 207.601 327.072 206.643C331.45 204.858 339.102 204.85 342.358 204.938Z" fill="black"/>
<path d="M339.037 198.806C338.072 198.601 337.075 198.601 336.11 198.806C335.637 198.908 335.143 198.849 334.707 198.637C334.271 198.424 333.918 198.072 333.704 197.634L330.841 191.639C330.841 191.639 326.735 190.265 331.763 181.999C331.763 181.999 322.195 178.808 329.261 172.255C336.327 165.702 331.763 174.566 331.763 174.566C331.763 174.566 340.698 169.718 336.23 175.859C336.23 175.859 349.864 176.553 346.504 184.003C346.504 184.003 352.118 184.116 341.123 198.014C340.882 198.328 340.56 198.569 340.192 198.709C339.823 198.849 339.424 198.882 339.037 198.806Z" fill="#263238"/>
<path d="M332.99 187.776C331.45 187.55 329.782 189.11 329.253 190.499C328.652 192.115 329.437 193.893 331.058 193.457C332.308 193.095 333.383 192.284 334.081 191.178C334.947 189.796 334.53 188.003 332.99 187.776Z" fill="#B55B52"/>
<path d="M341.147 213.754C341.844 215.16 342.622 216.703 343.32 218.19C344.018 219.676 344.724 221.203 345.357 222.714C345.991 224.225 346.616 225.728 347.13 227.215C347.631 228.588 348.015 230.002 348.276 231.441C348.367 231.928 348.413 232.423 348.413 232.919C348.41 232.962 348.41 233.006 348.413 233.049L348.453 232.976C348.076 233.37 347.677 233.742 347.258 234.091C346.688 234.479 346.047 234.899 345.373 235.271C342.646 236.814 339.503 238.196 336.471 239.602L337.49 243.868C339.289 243.732 341.079 243.481 342.847 243.116C344.655 242.764 346.436 242.289 348.18 241.694C349.115 241.378 350.029 241 350.915 240.563C351.98 240.057 352.975 239.413 353.874 238.648C354.522 238.074 355.064 237.39 355.478 236.628C355.546 236.51 355.608 236.389 355.663 236.265L355.799 235.949C355.887 235.739 355.952 235.545 356.016 235.343C356.135 234.97 356.229 234.59 356.296 234.204C356.502 232.979 356.546 231.732 356.425 230.495C356.216 228.502 355.821 226.532 355.246 224.613C354.717 222.795 354.099 221.058 353.441 219.353C352.784 217.648 352.078 216.008 351.324 214.392C350.57 212.776 349.784 211.16 348.862 209.544L341.147 213.754Z" fill="#B55B52"/>
<path d="M338.444 239.771L331.924 238.083L331.386 243.989C331.386 243.989 335.781 245.815 338.492 242.955L338.444 239.771Z" fill="#B55B52"/>
<path d="M329.333 238.947L327.946 243.714L331.418 243.989L331.956 238.083L329.333 238.947Z" fill="#B55B52"/>
<path d="M354.989 220.711L343.881 226.262C343.881 226.262 343.296 226.108 338.901 219.03C333.808 210.797 336.599 206.167 342.743 205.941C349.022 205.706 351.276 213.536 354.989 220.711Z" fill="black"/>
<path opacity="0.2" d="M351.533 222.432L346.215 225.09L343.513 221.874L346.512 213.802L347.346 212.881L349.431 212.574L351.533 222.432Z" fill="black"/>
<path d="M282.577 308.274L277.051 305.858L272.8 319.271L278.334 321.687L282.577 308.274Z" fill="#B55B52"/>
<path opacity="0.2" d="M282.577 308.274L277.051 305.858L274.934 312.564L280.515 314.77L282.577 308.274Z" fill="black"/>
<path d="M272.183 316.911C270.531 318.309 267.162 319.335 264.572 319.473C262.583 319.57 262.414 321.897 264.909 322.301C267.403 322.705 271.75 322.527 273.578 322.6C276.546 322.713 277.588 323.206 279.898 323.165C280.179 323.151 280.443 323.026 280.633 322.817C280.824 322.609 280.925 322.333 280.916 322.05L280.419 316.685C280.409 316.572 280.356 316.466 280.271 316.391C280.186 316.316 280.075 316.277 279.962 316.281L273.201 316.499C272.827 316.525 272.471 316.669 272.183 316.911Z" fill="#263238"/>
<path d="M333.063 252.934C333.063 252.934 337.698 258.476 333.961 267.251C329.734 277.198 307.318 272.827 295.08 275.994C293.331 293.56 283.162 311.546 283.162 311.546L274.653 308.185C274.653 308.185 278.342 294.198 281.109 269.401C282.464 257.208 313.189 255.867 313.189 255.867L333.063 252.934Z" fill="#263238"/>
<path d="M284.854 309.995L274.019 306.173L273.362 310.172L283.234 313.784L284.854 309.995Z" fill="#263238"/>
<path d="M308.746 314.018L302.779 313.728L303.757 327.916L309.724 328.207L308.746 314.018Z" fill="#B55B52"/>
<path d="M302.129 326.429C300.477 327.819 297.686 329.75 295.128 330.122C293.484 330.356 292.249 332.861 295.32 332.861C298.392 332.861 301.736 332.57 303.533 332.514C306.5 332.417 307.487 332.683 309.837 332.683C309.977 332.677 310.116 332.643 310.243 332.583C310.371 332.522 310.485 332.437 310.58 332.332C310.675 332.227 310.748 332.104 310.795 331.97C310.842 331.836 310.863 331.694 310.855 331.552L310.366 326.179C310.356 326.065 310.301 325.959 310.214 325.885C310.127 325.811 310.014 325.774 309.901 325.783L303.156 326.001C302.776 326.023 302.414 326.174 302.129 326.429Z" fill="#263238"/>
<path opacity="0.2" d="M309.291 321.84L303.348 321.848L302.779 313.736L308.746 314.027L309.291 321.84Z" fill="black"/>
<path d="M347.972 253.896C347.972 253.896 352.864 263.939 348.108 270.33C343.801 276.132 321.819 276.52 310.647 276.52C311.753 290.256 310.526 318.455 310.526 318.455L301.552 318.334C301.552 318.334 295.232 291.209 293.933 272.229C293.211 261.725 330.456 254.704 330.456 254.704L347.972 253.896Z" fill="#263238"/>
<path d="M311.745 316.588L299.459 316.225L299.988 319.925L311.28 320.087L311.745 316.588Z" fill="#263238"/>
<path d="M349.054 254.421L312.299 255.964L315.755 214.392C315.944 212.123 316.973 210.008 318.636 208.467C320.3 206.925 322.478 206.07 324.738 206.07H343.055C344.75 206.08 346.372 206.766 347.566 207.977C348.761 209.188 349.431 210.826 349.431 212.534L349.054 254.421Z" fill="black"/>
<path d="M317.752 212.315L316.79 214.505C316.437 215.257 316.076 216.008 315.699 216.751C314.945 218.23 314.199 219.709 313.389 221.139C312.579 222.569 311.785 223.983 310.879 225.332C310.036 226.663 309.115 227.942 308.12 229.162C307.658 229.75 307.165 230.314 306.645 230.851C306.52 230.939 306.377 230.996 306.226 231.017C306.075 231.038 305.922 231.023 305.778 230.972C305.117 230.796 304.469 230.575 303.838 230.31C300.882 228.935 298.03 227.344 295.304 225.55L292.345 228.782C293.499 230.228 294.75 231.591 296.09 232.863C297.466 234.184 298.955 235.379 300.541 236.434C301.425 237.023 302.359 237.531 303.332 237.953C304.578 238.509 305.924 238.8 307.286 238.81C308.275 238.802 309.249 238.576 310.141 238.147C310.637 237.905 311.1 237.601 311.521 237.242L312.098 236.749C312.852 236.079 313.574 235.392 314.24 234.681C316.796 231.906 319.052 228.864 320.968 225.607C321.907 223.991 322.805 222.415 323.615 220.759C324.024 219.951 324.417 219.143 324.81 218.287C325.203 217.43 325.54 216.671 325.925 215.685L317.752 212.315Z" fill="#B55B52"/>
<path d="M296.219 227.046L293.315 220.921L288.503 224.306C288.503 224.306 289.939 228.872 293.853 229.154L296.219 227.046Z" fill="#B55B52"/>
<path d="M290.974 219.45L286.458 221.446L288.479 224.306L293.315 220.921L290.974 219.45Z" fill="#B55B52"/>
<path d="M321.69 228.128L311.312 221.293C311.312 221.293 311.144 220.695 314.977 213.31C319.436 204.712 324.81 204.785 328.114 209.997C331.507 215.346 325.941 221.268 321.69 228.128Z" fill="black"/>
<path d="M366.514 332.643C366.599 332.597 366.674 332.535 366.736 332.459C366.797 332.384 366.842 332.297 366.87 332.204C366.897 332.111 366.906 332.013 366.896 331.917C366.886 331.82 366.857 331.726 366.811 331.641L338.468 279.121C338.422 279.036 338.36 278.961 338.285 278.9C338.209 278.839 338.123 278.794 338.031 278.767C337.938 278.74 337.842 278.732 337.746 278.742C337.65 278.753 337.558 278.783 337.474 278.83C337.389 278.875 337.313 278.937 337.252 279.011C337.191 279.086 337.146 279.172 337.118 279.264C337.091 279.357 337.082 279.454 337.092 279.55C337.102 279.646 337.131 279.739 337.177 279.824L365.527 332.344C365.572 332.429 365.633 332.505 365.707 332.567C365.781 332.628 365.867 332.674 365.958 332.702C366.05 332.73 366.147 332.739 366.242 332.729C366.337 332.718 366.43 332.689 366.514 332.643Z" fill="black"/>
<g opacity="0.2">
<path d="M366.514 332.643C366.599 332.597 366.674 332.535 366.736 332.459C366.797 332.384 366.842 332.297 366.87 332.204C366.897 332.111 366.906 332.013 366.896 331.917C366.886 331.82 366.857 331.726 366.811 331.641L338.468 279.121C338.422 279.036 338.36 278.961 338.285 278.9C338.209 278.839 338.123 278.794 338.031 278.767C337.938 278.74 337.842 278.732 337.746 278.742C337.65 278.753 337.558 278.783 337.474 278.83C337.389 278.875 337.313 278.937 337.252 279.011C337.191 279.086 337.146 279.172 337.118 279.264C337.091 279.357 337.082 279.454 337.092 279.55C337.102 279.646 337.131 279.739 337.177 279.824L365.527 332.344C365.572 332.429 365.633 332.505 365.707 332.567C365.781 332.628 365.867 332.674 365.958 332.702C366.05 332.73 366.147 332.739 366.242 332.729C366.337 332.718 366.43 332.689 366.514 332.643Z" fill="black"/>
</g>
<path opacity="0.2" d="M352.8 308.815L350.306 304.177L351.14 302.626L353.634 307.264L352.8 308.815Z" fill="black"/>
<path d="M325.981 332.643C326.066 332.597 326.141 332.535 326.202 332.459C326.264 332.384 326.309 332.297 326.337 332.204C326.364 332.111 326.373 332.013 326.363 331.917C326.353 331.82 326.324 331.726 326.278 331.641L297.935 279.121C297.889 279.036 297.826 278.961 297.751 278.9C297.676 278.839 297.59 278.794 297.498 278.767C297.405 278.74 297.308 278.732 297.213 278.742C297.117 278.753 297.025 278.783 296.94 278.83C296.856 278.875 296.78 278.937 296.719 279.011C296.658 279.086 296.613 279.172 296.585 279.264C296.557 279.357 296.548 279.454 296.558 279.55C296.569 279.646 296.598 279.739 296.644 279.824L324.994 332.344C325.039 332.429 325.1 332.505 325.174 332.567C325.248 332.628 325.334 332.674 325.425 332.702C325.517 332.73 325.614 332.739 325.709 332.729C325.804 332.718 325.897 332.689 325.981 332.643Z" fill="black"/>
<g opacity="0.2">
<path d="M325.981 332.643C326.066 332.597 326.141 332.535 326.202 332.459C326.264 332.384 326.309 332.297 326.337 332.204C326.364 332.111 326.373 332.013 326.363 331.917C326.353 331.82 326.324 331.726 326.278 331.641L297.935 279.121C297.889 279.036 297.826 278.961 297.751 278.9C297.676 278.839 297.59 278.794 297.498 278.767C297.405 278.74 297.308 278.732 297.213 278.742C297.117 278.753 297.025 278.783 296.94 278.83C296.856 278.875 296.78 278.937 296.719 279.011C296.658 279.086 296.613 279.172 296.585 279.264C296.557 279.357 296.548 279.454 296.558 279.55C296.569 279.646 296.598 279.739 296.644 279.824L324.994 332.344C325.039 332.429 325.1 332.505 325.174 332.567C325.248 332.628 325.334 332.674 325.425 332.702C325.517 332.73 325.614 332.739 325.709 332.729C325.804 332.718 325.897 332.689 325.981 332.643Z" fill="black"/>
</g>
<path opacity="0.2" d="M312.299 308.815L309.797 304.177L310.631 302.626L313.133 307.264L312.299 308.815Z" fill="black"/>
<path d="M297.935 332.36L326.278 279.84C326.324 279.755 326.353 279.662 326.363 279.566C326.373 279.47 326.364 279.373 326.336 279.28C326.309 279.188 326.263 279.102 326.202 279.027C326.141 278.953 326.066 278.891 325.981 278.846C325.897 278.799 325.805 278.77 325.71 278.759C325.615 278.748 325.519 278.757 325.427 278.784C325.335 278.811 325.25 278.856 325.176 278.917C325.101 278.977 325.04 279.052 324.994 279.137L296.644 331.657C296.597 331.742 296.568 331.836 296.558 331.933C296.548 332.029 296.557 332.127 296.584 332.22C296.612 332.314 296.658 332.4 296.719 332.476C296.78 332.551 296.855 332.613 296.94 332.659C297.025 332.706 297.118 332.735 297.214 332.745C297.31 332.755 297.407 332.746 297.5 332.719C297.592 332.691 297.678 332.645 297.753 332.583C297.828 332.522 297.889 332.446 297.935 332.36Z" fill="black"/>
<g opacity="0.2">
<path d="M297.935 332.36L326.278 279.84C326.324 279.755 326.353 279.662 326.363 279.566C326.373 279.47 326.364 279.373 326.336 279.28C326.309 279.188 326.263 279.102 326.202 279.027C326.141 278.953 326.066 278.891 325.981 278.846C325.897 278.799 325.805 278.77 325.71 278.759C325.615 278.748 325.519 278.757 325.427 278.784C325.335 278.811 325.25 278.856 325.176 278.917C325.101 278.977 325.04 279.052 324.994 279.137L296.644 331.657C296.597 331.742 296.568 331.836 296.558 331.933C296.548 332.029 296.557 332.127 296.584 332.22C296.612 332.314 296.658 332.4 296.719 332.476C296.78 332.551 296.855 332.613 296.94 332.659C297.025 332.706 297.118 332.735 297.214 332.745C297.31 332.755 297.407 332.746 297.5 332.719C297.592 332.691 297.678 332.645 297.753 332.583C297.828 332.522 297.889 332.446 297.935 332.36Z" fill="black"/>
</g>
<path d="M338.444 332.36L366.787 279.84C366.833 279.755 366.862 279.662 366.872 279.566C366.882 279.47 366.873 279.373 366.845 279.28C366.818 279.188 366.772 279.102 366.711 279.027C366.65 278.953 366.575 278.891 366.49 278.846C366.406 278.799 366.314 278.77 366.219 278.759C366.124 278.748 366.028 278.757 365.936 278.784C365.844 278.811 365.759 278.856 365.685 278.917C365.61 278.977 365.549 279.052 365.503 279.137L337.153 331.657C337.106 331.742 337.077 331.836 337.067 331.933C337.057 332.029 337.066 332.127 337.094 332.22C337.121 332.314 337.167 332.4 337.228 332.476C337.289 332.551 337.364 332.613 337.449 332.659C337.534 332.706 337.627 332.735 337.723 332.745C337.819 332.755 337.916 332.746 338.009 332.719C338.101 332.691 338.187 332.645 338.262 332.583C338.337 332.522 338.399 332.446 338.444 332.36Z" fill="black"/>
<g opacity="0.2">
<path d="M338.444 332.36L366.787 279.84C366.833 279.755 366.862 279.662 366.872 279.566C366.882 279.47 366.873 279.373 366.845 279.28C366.818 279.188 366.772 279.102 366.711 279.027C366.65 278.953 366.575 278.891 366.49 278.846C366.406 278.799 366.314 278.77 366.219 278.759C366.124 278.748 366.028 278.757 365.936 278.784C365.844 278.811 365.759 278.856 365.685 278.917C365.61 278.977 365.549 279.052 365.503 279.137L337.153 331.657C337.106 331.742 337.077 331.836 337.067 331.933C337.057 332.029 337.066 332.127 337.094 332.22C337.121 332.314 337.167 332.4 337.228 332.476C337.289 332.551 337.364 332.613 337.449 332.659C337.534 332.706 337.627 332.735 337.723 332.745C337.819 332.755 337.916 332.746 338.009 332.719C338.101 332.691 338.187 332.645 338.262 332.583C338.337 332.522 338.399 332.446 338.444 332.36Z" fill="black"/>
</g>
<path d="M332.445 276.463H299.563C298.561 276.463 297.6 276.864 296.892 277.578C296.184 278.291 295.786 279.259 295.786 280.269H332.485L332.445 276.463Z" fill="black"/>
<path d="M355.807 227.749C367.38 227.749 375.617 236.435 375.055 248.005L373.732 273.304C373.633 275.184 372.822 276.955 371.466 278.251C370.109 279.547 368.311 280.269 366.442 280.269H319.926L329.55 248.005C332.958 236.435 344.234 227.749 355.807 227.749Z" fill="black"/>
<path opacity="0.3" d="M355.807 227.749C367.38 227.749 375.617 236.435 375.055 248.005L373.732 273.304C373.633 275.184 372.822 276.955 371.466 278.251C370.109 279.547 368.311 280.269 366.442 280.269H319.926L329.55 248.005C332.958 236.435 344.234 227.749 355.807 227.749Z" fill="white"/>
<path d="M256.921 208.178C257.723 211.039 257.915 214.101 253.841 215.208C253.841 215.208 250.04 220.606 254.603 224.217C257.49 220.388 261.133 217.202 265.302 214.861C262.655 212.477 263.168 205.657 263.778 201.933L256.921 208.178Z" fill="#CE7A63"/>
<path d="M251.868 193.384C251.555 193.303 251.17 193.594 251.018 194.071C250.866 194.548 251.018 195.04 251.307 195.121C251.595 195.202 252.004 194.911 252.157 194.434C252.309 193.958 252.173 193.433 251.868 193.384Z" fill="#2E353A"/>
<path d="M250.962 192.721L251.996 193.424C251.259 193.82 250.962 192.721 250.962 192.721Z" fill="#2E353A"/>
<path d="M250.753 198.515C250.438 198.499 250.131 198.412 249.853 198.261C249.576 198.11 249.335 197.899 249.149 197.642C250.152 196.935 251.053 196.092 251.828 195.137L250.753 198.515Z" fill="#BA4D3C"/>
<path d="M252.991 190.216C253.296 190.428 253.547 190.709 253.721 191.039C253.896 191.368 253.989 191.734 253.993 192.107C253.992 192.145 253.999 192.183 254.012 192.218C254.026 192.253 254.047 192.285 254.073 192.312C254.099 192.339 254.13 192.361 254.165 192.376C254.199 192.39 254.237 192.398 254.274 192.398C254.349 192.398 254.422 192.369 254.476 192.316C254.529 192.263 254.561 192.191 254.563 192.115C254.568 191.64 254.458 191.17 254.241 190.747C254.024 190.325 253.708 189.962 253.32 189.691C253.258 189.645 253.18 189.626 253.104 189.636C253.028 189.647 252.958 189.687 252.911 189.748C252.887 189.792 252.874 189.842 252.874 189.893C252.874 189.944 252.887 189.994 252.911 190.039C252.911 190.072 252.918 190.105 252.932 190.136C252.946 190.167 252.966 190.194 252.991 190.216Z" fill="#2E353A"/>
<path d="M269.584 193.659C269.395 191.434 268.336 189.377 266.641 187.939C264.946 186.501 262.754 185.8 260.546 185.991C254.066 186.484 250.473 194.968 250.04 200.664C249.558 206.991 256.095 211.039 261.989 207.936C265.943 205.867 266.705 203.379 268.983 197.61C269.499 196.361 269.705 195.005 269.584 193.659Z" fill="#CE7A63"/>
<path d="M272.744 201.149C281.229 190.354 270.811 187.251 270.811 187.251C267.547 182.686 262.158 181.757 257.218 183.664C252.277 185.571 253.753 188.899 255.549 189.231C252.181 193.715 254.114 195.945 255.221 196.268C253.48 207.548 264.259 211.968 272.744 201.149Z" fill="#263238"/>
<path d="M257.971 196.616C258.037 196.041 257.874 195.463 257.518 195.009C257.161 194.554 256.641 194.261 256.071 194.192C254.467 194.022 253.167 195.994 252.806 197.424C252.405 198.983 253.272 200.43 254.884 199.913C255.486 199.714 256.043 199.398 256.523 198.982C257.003 198.566 257.397 198.058 257.683 197.489C257.839 197.221 257.937 196.924 257.971 196.616Z" fill="#CE7A63"/>
<path d="M266.874 215.685C266.365 215.343 265.951 214.877 265.671 214.33C265.39 213.783 265.252 213.173 265.27 212.558C265.27 212.558 253.392 210.812 250.922 213.511C250.922 213.511 254.491 213.325 253.071 216.291L266.874 215.685Z" fill="black"/>
<path opacity="0.6" d="M266.874 215.685C266.365 215.343 265.951 214.877 265.671 214.33C265.39 213.783 265.252 213.173 265.27 212.558C265.27 212.558 253.392 210.812 250.922 213.511C250.922 213.511 254.491 213.325 253.071 216.291L266.874 215.685Z" fill="white"/>
<path d="M254.579 250.93L254.507 254.016C258.231 254.471 261.984 254.655 265.735 254.566C267.715 254.539 269.689 254.325 271.629 253.927C272.203 253.798 272.766 253.625 273.314 253.41C273.652 253.282 273.98 253.125 274.292 252.941C274.734 252.697 275.135 252.384 275.479 252.012C275.727 251.737 275.937 251.43 276.105 251.099C276.199 250.902 276.282 250.7 276.353 250.493C276.4 250.274 276.435 250.053 276.457 249.831L276.562 249.12L276.778 247.706C277.195 243.94 277.412 240.24 277.58 236.531C277.749 232.822 277.837 229.13 277.821 225.405H271.557L271.381 236.369C271.293 240.022 271.22 243.641 271.036 247.245L270.956 248.433C270.73 248.544 270.497 248.638 270.258 248.716C268.641 249.179 266.993 249.522 265.326 249.742C261.797 250.283 258.164 250.598 254.579 250.93Z" fill="#CE7A63"/>
<path d="M266.168 223.409C266.168 227.223 268.446 234.366 268.446 234.366L277.845 228.54C278.262 223.651 277.259 217.365 272.6 215.838C269.472 214.804 266.2 219.345 266.168 223.409Z" fill="#263238"/>
<path opacity="0.6" d="M272.921 220.662L275.078 222.811L275.495 230.002L268.446 234.366C268.446 234.366 266.168 227.223 266.168 223.409C266.186 222.417 266.365 221.434 266.697 220.5L269.905 219.515L272.921 220.662Z" fill="black"/>
<path d="M245.941 252.651C245.876 252.502 245.84 252.342 245.837 252.18C245.834 252.018 245.863 251.857 245.923 251.706C245.982 251.555 246.072 251.418 246.185 251.303C246.299 251.187 246.434 251.096 246.583 251.035L249.246 249.895C249.817 249.656 250.451 249.61 251.05 249.766L256.865 251.382L257.578 253.354C256.672 255.624 252.83 255.196 252.83 255.196L250.064 256.044C249.717 256.153 249.345 256.154 248.998 256.047C248.65 255.941 248.343 255.731 248.115 255.446L246.102 252.933C246.035 252.847 245.981 252.752 245.941 252.651Z" fill="#CE7A63"/>
<path d="M250.176 215.741C251.387 215.539 252.646 215.345 253.881 215.192C257.667 214.805 261.475 214.689 265.278 214.844C267.146 214.885 268.983 215.022 270.595 215.192H270.723C271.416 215.284 272.083 215.513 272.688 215.866C273.293 216.219 273.823 216.688 274.247 217.247C274.672 217.806 274.983 218.444 275.162 219.124C275.342 219.804 275.387 220.514 275.295 221.211C273.017 237.59 272.022 244.563 272.688 253.927L247.521 254.695C244.61 239.44 243.391 230.334 243.006 224.977C242.844 222.814 243.489 220.668 244.815 218.96C246.142 217.251 248.053 216.104 250.176 215.741Z" fill="#263238"/>
<path d="M220.967 309.744L215.024 309.178L211.022 323.924L216.965 324.49L220.967 309.744Z" fill="#CE7A63"/>
<path d="M202.601 296.493L197.565 291.685L190.828 301.995L194.854 305.518L202.601 296.493Z" fill="#CE7A63"/>
<path d="M270.274 254.137C270.87 254.132 271.451 254.327 271.924 254.694C272.396 255.06 272.733 255.575 272.881 256.157C276.281 269.522 272.439 277.594 263.048 277.594C254.226 277.594 230.23 269.675 222.683 267.211C216.364 285.609 198.126 302.076 198.126 302.076L193.314 297.648C193.314 297.648 203.941 277.028 211.279 258.719C215.497 248.215 256.239 254.275 256.239 254.275C256.239 254.275 264.395 254.137 270.274 254.137Z" fill="black"/>
<path opacity="0.6" d="M270.274 254.137C270.87 254.132 271.451 254.327 271.924 254.694C272.396 255.06 272.733 255.575 272.881 256.157C276.281 269.522 272.439 277.594 263.048 277.594C254.226 277.594 230.23 269.675 222.683 267.211C216.364 285.609 198.126 302.076 198.126 302.076L193.314 297.648C193.314 297.648 203.941 277.028 211.279 258.719C215.497 248.215 256.239 254.275 256.239 254.275C256.239 254.275 264.395 254.137 270.274 254.137Z" fill="white"/>
<path d="M264.155 253.927C273.715 266.653 272.977 277.561 263.08 277.561C254.258 277.561 243.303 278.078 231.385 277.319C228.763 296.63 218.778 319.133 218.778 319.133L212.193 318.511C212.193 318.511 218.2 290.279 218.665 270.532C218.946 258.598 252.389 259.64 252.389 259.64C252.389 259.64 258.284 253.984 264.155 253.927Z" fill="black"/>
<path opacity="0.6" d="M264.155 253.927C273.715 266.653 272.977 277.561 263.08 277.561C254.258 277.561 243.303 278.078 231.385 277.319C228.763 296.63 218.778 319.133 218.778 319.133L212.193 318.511C212.193 318.511 218.2 290.279 218.665 270.532C218.946 258.598 252.389 259.64 252.389 259.64C252.389 259.64 258.284 253.984 264.155 253.927Z" fill="white"/>
<path d="M272.6 252.239L247.112 253.047C246.864 253.047 246.695 253.192 246.695 253.346L247.016 255.6C247.016 255.737 247.233 255.834 247.457 255.834L273.354 255.067C273.65 255.067 273.851 254.881 273.755 254.703L273.041 252.449C272.998 252.372 272.932 252.311 272.853 252.274C272.774 252.236 272.686 252.224 272.6 252.239Z" fill="#263238"/>
<path d="M226.717 242.276C229.161 243.862 231.719 245.264 234.368 246.469C235.753 247.11 237.182 247.65 238.643 248.085C239.507 248.343 240.398 248.498 241.298 248.546C241.979 248.586 242.661 248.498 243.311 248.287C243.862 248.097 244.366 247.789 244.786 247.382C244.915 247.258 245.033 247.122 245.139 246.978L245.3 246.752L245.412 246.583L245.564 246.308C247.138 243.55 248.242 240.546 248.829 237.42C249.133 235.933 249.358 234.431 249.502 232.919C249.566 232.111 249.623 231.408 249.663 230.649C249.703 229.889 249.711 229.17 249.663 228.322L243.423 228.411C243.423 228.96 243.383 229.679 243.351 230.326C243.319 230.972 243.271 231.651 243.207 232.313C243.086 233.638 242.926 234.955 242.725 236.272C242.509 237.547 242.228 238.809 241.883 240.054C241.601 241.06 241.244 242.043 240.817 242.995C240.461 242.988 240.108 242.953 239.758 242.89C238.475 242.664 237.206 242.364 235.956 241.993C233.35 241.242 230.679 240.377 228.049 239.472L226.717 242.276Z" fill="#CE7A63"/>
<path d="M253.079 223.377C254.948 226.278 250.601 233.735 250.601 233.735L242.765 232.847C242.765 232.847 241.161 222.916 244.995 218.836C247.056 216.646 251.13 220.355 253.079 223.377Z" fill="#263238"/>
<path d="M221.456 240.329C221.364 240.297 221.288 240.231 221.244 240.143C221.201 240.055 221.193 239.953 221.224 239.86L225.362 227.449C225.395 227.357 225.462 227.282 225.548 227.238C225.635 227.195 225.735 227.186 225.827 227.215C225.873 227.23 225.915 227.253 225.951 227.284C225.987 227.315 226.017 227.354 226.039 227.396C226.06 227.439 226.073 227.486 226.077 227.534C226.081 227.582 226.075 227.63 226.06 227.676L221.946 240.086C221.922 240.149 221.884 240.205 221.833 240.249C221.783 240.293 221.722 240.323 221.657 240.337C221.59 240.349 221.522 240.346 221.456 240.329Z" fill="#2E353A"/>
<path d="M222.707 233.323C222.537 233.309 222.366 233.329 222.203 233.381C222.041 233.433 221.89 233.517 221.76 233.628C221.629 233.739 221.522 233.875 221.444 234.028C221.366 234.181 221.318 234.348 221.304 234.519L220.951 237.961C220.925 238.221 220.976 238.482 221.097 238.712C221.218 238.942 221.405 239.131 221.633 239.254L224.512 240.781C224.512 240.781 229.444 245.468 231.561 244.288L230.038 240.943L227.054 235.764C226.721 235.172 226.202 234.709 225.579 234.447L223.108 233.42C222.98 233.368 222.845 233.336 222.707 233.323Z" fill="#CE7A63"/>
<path d="M190.748 299.717C188.743 299.555 185.831 298.012 184.011 296.412C182.615 295.168 181.011 296.598 182.407 298.521C183.802 300.444 186.834 303.167 188.021 304.427C189.93 306.447 190.283 307.441 191.871 308.96C192.062 309.143 192.318 309.243 192.583 309.237C192.847 309.231 193.099 309.12 193.282 308.928L196.426 305.017C196.494 304.934 196.527 304.828 196.518 304.72C196.509 304.613 196.459 304.514 196.378 304.443L191.678 300.112C191.418 299.883 191.092 299.744 190.748 299.717Z" fill="black"/>
<path d="M210.525 323.553C209.114 324.999 206.708 327.051 204.358 327.641C202.85 328.013 201.952 330.453 204.791 330.17C207.63 329.887 210.694 329.297 212.378 329.071C215.129 328.708 216.075 328.861 218.256 328.643C218.386 328.625 218.51 328.582 218.623 328.515C218.735 328.448 218.834 328.36 218.912 328.255C218.99 328.149 219.047 328.03 219.079 327.902C219.111 327.775 219.118 327.642 219.098 327.512L218.144 322.575C218.123 322.471 218.063 322.378 217.976 322.317C217.89 322.255 217.784 322.229 217.679 322.244L211.431 323.052C211.081 323.108 210.761 323.285 210.525 323.553Z" fill="black"/>
<path d="M288.985 332.772C289.069 332.725 289.144 332.662 289.204 332.587C289.264 332.511 289.309 332.424 289.336 332.331C289.363 332.238 289.371 332.141 289.36 332.044C289.35 331.948 289.32 331.855 289.273 331.77L260.931 279.25C260.836 279.079 260.679 278.954 260.493 278.899C260.307 278.845 260.107 278.866 259.936 278.959C259.766 279.053 259.639 279.211 259.583 279.398C259.528 279.586 259.548 279.788 259.639 279.961L287.99 332.481C288.085 332.651 288.242 332.777 288.428 332.832C288.614 332.886 288.814 332.865 288.985 332.772Z" fill="black"/>
<g opacity="0.2">
<path d="M288.985 332.772C289.069 332.725 289.144 332.662 289.204 332.587C289.264 332.511 289.309 332.424 289.336 332.331C289.363 332.238 289.371 332.141 289.36 332.044C289.35 331.948 289.32 331.855 289.273 331.77L260.931 279.25C260.836 279.079 260.679 278.954 260.493 278.899C260.307 278.845 260.107 278.866 259.936 278.959C259.766 279.053 259.639 279.211 259.583 279.398C259.528 279.586 259.548 279.788 259.639 279.961L287.99 332.481C288.085 332.651 288.242 332.777 288.428 332.832C288.614 332.886 288.814 332.865 288.985 332.772Z" fill="black"/>
</g>
<path opacity="0.2" d="M275.295 308.944L272.792 304.306L273.626 302.755L276.129 307.393L275.295 308.944Z" fill="black"/>
<path d="M248.476 332.772C248.646 332.678 248.773 332.52 248.828 332.332C248.884 332.145 248.864 331.943 248.772 331.77L220.422 279.25C220.327 279.079 220.17 278.954 219.984 278.899C219.798 278.845 219.598 278.866 219.427 278.959C219.257 279.053 219.13 279.211 219.075 279.398C219.019 279.586 219.039 279.788 219.131 279.961L247.481 332.481C247.576 332.651 247.733 332.777 247.919 332.832C248.105 332.886 248.305 332.865 248.476 332.772Z" fill="black"/>
<g opacity="0.2">
<path d="M248.476 332.772C248.646 332.678 248.773 332.52 248.828 332.332C248.884 332.145 248.864 331.943 248.772 331.77L220.422 279.25C220.327 279.079 220.17 278.954 219.984 278.899C219.798 278.845 219.598 278.866 219.427 278.959C219.257 279.053 219.13 279.211 219.075 279.398C219.019 279.586 219.039 279.788 219.131 279.961L247.481 332.481C247.576 332.651 247.733 332.777 247.919 332.832C248.105 332.886 248.305 332.865 248.476 332.772Z" fill="black"/>
</g>
<path opacity="0.2" d="M234.786 308.944L232.283 304.306L233.117 302.755L235.62 307.393L234.786 308.944Z" fill="black"/>
<path d="M220.422 332.481L248.772 279.961C248.864 279.788 248.884 279.586 248.828 279.398C248.773 279.211 248.646 279.053 248.476 278.959C248.305 278.866 248.105 278.845 247.919 278.899C247.733 278.954 247.576 279.079 247.481 279.25L219.131 331.77C219.039 331.943 219.019 332.145 219.075 332.332C219.13 332.52 219.257 332.678 219.427 332.772C219.598 332.865 219.798 332.886 219.984 332.832C220.17 332.777 220.327 332.651 220.422 332.481Z" fill="black"/>
<g opacity="0.2">
<path d="M220.422 332.481L248.772 279.961C248.864 279.788 248.884 279.586 248.828 279.398C248.773 279.211 248.646 279.053 248.476 278.959C248.305 278.866 248.105 278.845 247.919 278.899C247.733 278.954 247.576 279.079 247.481 279.25L219.131 331.77C219.039 331.943 219.019 332.145 219.075 332.332C219.13 332.52 219.257 332.678 219.427 332.772C219.598 332.865 219.798 332.886 219.984 332.832C220.17 332.777 220.327 332.651 220.422 332.481Z" fill="black"/>
</g>
<path d="M260.931 332.481L289.273 279.961C289.32 279.876 289.35 279.783 289.36 279.686C289.371 279.59 289.363 279.492 289.336 279.399C289.309 279.306 289.264 279.219 289.204 279.144C289.144 279.068 289.069 279.005 288.985 278.959C288.814 278.866 288.614 278.845 288.428 278.899C288.242 278.954 288.085 279.079 287.99 279.25L259.639 331.77C259.548 331.943 259.528 332.145 259.583 332.332C259.639 332.52 259.766 332.678 259.936 332.772C260.107 332.865 260.307 332.886 260.493 332.832C260.679 332.777 260.836 332.651 260.931 332.481Z" fill="black"/>
<g opacity="0.2">
<path d="M260.931 332.481L289.273 279.961C289.32 279.876 289.35 279.783 289.36 279.686C289.371 279.59 289.363 279.492 289.336 279.399C289.309 279.306 289.264 279.219 289.204 279.144C289.144 279.068 289.069 279.005 288.985 278.959C288.814 278.866 288.614 278.845 288.428 278.899C288.242 278.954 288.085 279.079 287.99 279.25L259.639 331.77C259.548 331.943 259.528 332.145 259.583 332.332C259.639 332.52 259.766 332.678 259.936 332.772C260.107 332.865 260.307 332.886 260.493 332.832C260.679 332.777 260.836 332.651 260.931 332.481Z" fill="black"/>
</g>
<path d="M254.932 276.608H222.05C221.553 276.607 221.061 276.705 220.602 276.895C220.142 277.086 219.725 277.366 219.373 277.72C219.022 278.073 218.743 278.493 218.553 278.955C218.362 279.418 218.264 279.913 218.264 280.414H254.964L254.932 276.608Z" fill="black"/>
<path d="M278.294 227.877C289.867 227.877 298.103 236.563 297.502 248.134L296.179 273.441C296.08 275.32 295.269 277.091 293.912 278.385C292.555 279.68 290.757 280.4 288.888 280.397H242.372L251.996 248.134C255.445 236.563 266.729 227.877 278.294 227.877Z" fill="black"/>
<path opacity="0.3" d="M278.294 227.877C289.867 227.877 298.103 236.563 297.502 248.134L296.179 273.441C296.08 275.32 295.269 277.091 293.912 278.385C292.555 279.68 290.757 280.4 288.888 280.397H242.372L251.996 248.134C255.445 236.563 266.729 227.877 278.294 227.877Z" fill="white"/>
</svg>
